<svg width="201" height="200" viewBox="0 0 201 200" fill="none" xmlns="http://www.w3.org/2000/svg">
<g clip-path="url(#clip0_202_1551)">
<path d="M200.184 0H133.456V66.3913H200.184V0Z" fill="url(#paint0_linear_202_1551)"/>
<path d="M166.824 1.65198L135.196 33.32L166.824 64.996L198.444 33.32L166.824 1.65198Z" fill="url(#paint1_linear_202_1551)"/>
<path d="M166.824 12.1251L145.653 33.32L166.824 54.5229L187.987 33.32L166.824 12.1251Z" fill="url(#paint2_linear_202_1551)"/>
<path d="M166.824 22.5181L156.03 33.32L166.824 44.1219L177.61 33.32L166.824 22.5181Z" fill="white"/>
<path d="M22.2451 166.624C22.2451 160.481 27.2251 155.501 33.3678 155.501C39.5106 155.501 44.4905 160.481 44.4905 166.624C44.4905 172.767 39.5106 177.747 33.3678 177.747C27.2251 177.747 22.2451 172.767 22.2451 166.624Z" fill="url(#paint3_linear_202_1551)"/>
<path d="M44.4824 166.624C44.4824 160.481 49.4624 155.501 55.6051 155.501C61.7479 155.501 66.7278 160.481 66.7278 166.624C66.7278 172.767 61.7479 177.747 55.6051 177.747C49.4624 177.747 44.4824 172.767 44.4824 166.624Z" fill="url(#paint4_linear_202_1551)"/>
<path d="M0 166.624C0 160.481 4.97995 155.501 11.1227 155.501C17.2654 155.501 22.2454 160.481 22.2454 166.624C22.2454 172.767 17.2654 177.747 11.1227 177.747C4.97995 177.747 0 172.767 0 166.624Z" fill="url(#paint5_linear_202_1551)"/>
<path d="M22.2451 144.379C22.2451 138.236 27.2251 133.256 33.3678 133.256C39.5106 133.256 44.4905 138.236 44.4905 144.379C44.4905 150.521 39.5106 155.501 33.3678 155.501C27.2251 155.501 22.2451 150.521 22.2451 144.379Z" fill="url(#paint6_linear_202_1551)"/>
<path d="M44.4824 144.379C44.4824 138.236 49.4624 133.256 55.6051 133.256C61.7479 133.256 66.7278 138.236 66.7278 144.379C66.7278 150.521 61.7479 155.501 55.6051 155.501C49.4624 155.501 44.4824 150.521 44.4824 144.379Z" fill="url(#paint7_linear_202_1551)"/>
<path d="M0 144.379C0 138.236 4.97995 133.256 11.1227 133.256C17.2654 133.256 22.2454 138.236 22.2454 144.379C22.2454 150.521 17.2654 155.501 11.1227 155.501C4.97995 155.501 0 150.521 0 144.379Z" fill="url(#paint8_linear_202_1551)"/>
<path d="M22.2451 188.869C22.2451 182.727 27.2251 177.747 33.3678 177.747C39.5106 177.747 44.4905 182.727 44.4905 188.869C44.4905 195.012 39.5106 199.992 33.3678 199.992C27.2251 199.992 22.2451 195.012 22.2451 188.869Z" fill="url(#paint9_linear_202_1551)"/>
<path d="M44.4824 188.869C44.4824 182.727 49.4624 177.747 55.6051 177.747C61.7479 177.747 66.7278 182.727 66.7278 188.869C66.7278 195.012 61.7479 199.992 55.6051 199.992C49.4624 199.992 44.4824 195.012 44.4824 188.869Z" fill="url(#paint10_linear_202_1551)"/>
<path d="M0 188.869C0 182.727 4.97995 177.747 11.1227 177.747C17.2654 177.747 22.2454 182.727 22.2454 188.869C22.2454 195.012 17.2654 199.992 11.1227 199.992C4.97995 199.992 0 195.012 0 188.869Z" fill="url(#paint11_linear_202_1551)"/>
<path d="M66.7285 133.264C66.7285 96.4153 96.6002 66.5356 133.457 66.5356V133.264H66.7285Z" fill="url(#paint12_linear_202_1551)"/>
<path d="M100.089 133.264C100.089 114.836 115.029 99.9037 133.449 99.9037V133.264H100.089Z" fill="white"/>
<path d="M200.185 133.264V66.5356H133.456V133.264H200.185Z" fill="white"/>
<path d="M133.456 133.264V66.5356C170.304 66.5356 200.184 96.4073 200.184 133.264H133.456Z" fill="url(#paint13_linear_202_1551)"/>
<path d="M177.249 78.0032C177.249 71.668 182.381 66.5356 188.717 66.5356C195.052 66.5356 200.184 71.668 200.184 78.0032C200.184 84.3384 195.052 89.4707 188.717 89.4707C182.381 89.4707 177.249 84.3384 177.249 78.0032Z" fill="url(#paint14_linear_202_1551)"/>
<path d="M200.185 199.992V133.264H133.456V199.992H200.185Z" fill="url(#paint15_linear_202_1551)"/>
<path d="M133.456 200V133.272H200.184C200.184 151.684 192.718 168.372 180.641 180.457C168.572 192.526 151.884 200 133.456 200Z" fill="white"/>
<path d="M133.456 200V133.272L180.641 180.457C168.572 192.526 151.884 200 133.456 200Z" fill="url(#paint16_linear_202_1551)"/>
<path d="M133.456 199.992V133.264H66.7279V199.992H133.456Z" fill="url(#paint17_linear_202_1551)"/>
<path d="M66.7277 133.264C66.7277 151.692 81.6676 166.624 100.088 166.624C118.516 166.624 133.448 151.684 133.448 133.264H66.7197H66.7277Z" fill="url(#paint18_linear_202_1551)"/>
<path d="M66.7275 199.992C66.7275 181.564 81.6674 166.632 100.088 166.632C118.516 166.632 133.448 181.572 133.448 199.992H66.7275Z" fill="url(#paint19_linear_202_1551)"/>
</g>
<defs>
<linearGradient id="paint0_linear_202_1551" x1="133.456" y1="33.1997" x2="200.184" y2="33.1997" gradientUnits="userSpaceOnUse">
<stop stop-color="#A875EB"/>
<stop offset="1" stop-color="#5A3B82"/>
</linearGradient>
<linearGradient id="paint1_linear_202_1551" x1="135.188" y1="33.328" x2="198.444" y2="33.328" gradientUnits="userSpaceOnUse">
<stop stop-color="#C3EEEE"/>
<stop offset="0.25" stop-color="#BEEAED"/>
<stop offset="0.54" stop-color="#AFE1EC"/>
<stop offset="0.86" stop-color="#97D1EA"/>
<stop offset="1" stop-color="#8BC9EA"/>
</linearGradient>
<linearGradient id="paint2_linear_202_1551" x1="145.645" y1="33.328" x2="187.987" y2="33.328" gradientUnits="userSpaceOnUse">
<stop stop-color="#F9EAA3"/>
<stop offset="1" stop-color="#E29C66"/>
</linearGradient>
<linearGradient id="paint3_linear_202_1551" x1="66.792" y1="133.192" x2="1.29886" y2="198.685" gradientUnits="userSpaceOnUse">
<stop stop-color="#F9EAA3"/>
<stop offset="1" stop-color="#E29C66"/>
</linearGradient>
<linearGradient id="paint4_linear_202_1551" x1="77.9147" y1="144.314" x2="12.4215" y2="209.808" gradientUnits="userSpaceOnUse">
<stop stop-color="#F9EAA3"/>
<stop offset="1" stop-color="#E29C66"/>
</linearGradient>
<linearGradient id="paint5_linear_202_1551" x1="55.6696" y1="122.069" x2="-9.82356" y2="187.562" gradientUnits="userSpaceOnUse">
<stop stop-color="#F9EAA3"/>
<stop offset="1" stop-color="#E29C66"/>
</linearGradient>
<linearGradient id="paint6_linear_202_1551" x1="55.6693" y1="122.069" x2="-9.82387" y2="187.562" gradientUnits="userSpaceOnUse">
<stop stop-color="#F9EAA3"/>
<stop offset="1" stop-color="#E29C66"/>
</linearGradient>
<linearGradient id="paint7_linear_202_1551" x1="66.792" y1="133.192" x2="1.29877" y2="198.685" gradientUnits="userSpaceOnUse">
<stop stop-color="#F9EAA3"/>
<stop offset="1" stop-color="#E29C66"/>
</linearGradient>
<linearGradient id="paint8_linear_202_1551" x1="44.5469" y1="110.954" x2="-20.9383" y2="176.439" gradientUnits="userSpaceOnUse">
<stop stop-color="#F9EAA3"/>
<stop offset="1" stop-color="#E29C66"/>
</linearGradient>
<linearGradient id="paint9_linear_202_1551" x1="77.9147" y1="144.314" x2="12.4215" y2="209.808" gradientUnits="userSpaceOnUse">
<stop stop-color="#F9EAA3"/>
<stop offset="1" stop-color="#E29C66"/>
</linearGradient>
<linearGradient id="paint10_linear_202_1551" x1="89.0293" y1="155.437" x2="23.5442" y2="220.922" gradientUnits="userSpaceOnUse">
<stop stop-color="#F9EAA3"/>
<stop offset="1" stop-color="#E29C66"/>
</linearGradient>
<linearGradient id="paint11_linear_202_1551" x1="66.7923" y1="133.192" x2="1.2991" y2="198.685" gradientUnits="userSpaceOnUse">
<stop stop-color="#F9EAA3"/>
<stop offset="1" stop-color="#E29C66"/>
</linearGradient>
<linearGradient id="paint12_linear_202_1551" x1="89.7678" y1="90.7377" x2="134.571" y2="130.481" gradientUnits="userSpaceOnUse">
<stop stop-color="#C3EEEE"/>
<stop offset="0.25" stop-color="#BEEAED"/>
<stop offset="0.54" stop-color="#AFE1EC"/>
<stop offset="0.86" stop-color="#97D1EA"/>
<stop offset="1" stop-color="#8BC9EA"/>
</linearGradient>
<linearGradient id="paint13_linear_202_1551" x1="166.816" y1="66.5356" x2="166.816" y2="133.256" gradientUnits="userSpaceOnUse">
<stop stop-color="#A875EB"/>
<stop offset="1" stop-color="#5A3B82"/>
</linearGradient>
<linearGradient id="paint14_linear_202_1551" x1="196.768" y1="86.0545" x2="179.462" y2="68.749" gradientUnits="userSpaceOnUse">
<stop stop-color="#F9EAA2"/>
<stop offset="1" stop-color="#A81A46"/>
</linearGradient>
<linearGradient id="paint15_linear_202_1551" x1="166.825" y1="133.256" x2="166.825" y2="199.984" gradientUnits="userSpaceOnUse">
<stop stop-color="#C3EEEE"/>
<stop offset="0.25" stop-color="#BEEAED"/>
<stop offset="0.54" stop-color="#AFE1EC"/>
<stop offset="0.86" stop-color="#97D1EA"/>
<stop offset="1" stop-color="#8BC9EA"/>
</linearGradient>
<linearGradient id="paint16_linear_202_1551" x1="157.041" y1="133.264" x2="157.041" y2="199.992" gradientUnits="userSpaceOnUse">
<stop stop-color="#ECB19A"/>
<stop offset="1" stop-color="#C5422E"/>
</linearGradient>
<linearGradient id="paint17_linear_202_1551" x1="66.0302" y1="132.566" x2="132.149" y2="198.685" gradientUnits="userSpaceOnUse">
<stop stop-color="#C3EEEE"/>
<stop offset="0.25" stop-color="#BEEAED"/>
<stop offset="0.54" stop-color="#AFE1EC"/>
<stop offset="0.86" stop-color="#97D1EA"/>
<stop offset="1" stop-color="#8BC9EA"/>
</linearGradient>
<linearGradient id="paint18_linear_202_1551" x1="81.6355" y1="121.708" x2="128.227" y2="168.308" gradientUnits="userSpaceOnUse">
<stop stop-color="#A875EB"/>
<stop offset="1" stop-color="#5A3B82"/>
</linearGradient>
<linearGradient id="paint19_linear_202_1551" x1="65.5647" y1="176.447" x2="131.9" y2="198.564" gradientUnits="userSpaceOnUse">
<stop stop-color="#ECB19A"/>
<stop offset="1" stop-color="#C5422E"/>
</linearGradient>
<clipPath id="clip0_202_1551">
<rect width="200.184" height="200" fill="white"/>
</clipPath>
</defs>
</svg>
