<svg width="51" height="51" viewBox="0 0 51 51" fill="none" xmlns="http://www.w3.org/2000/svg">
<path d="M41.7317 11.0491C41.6815 10.4833 41.2768 10.2095 40.7293 10.3707C40.5447 10.4253 40.3732 10.5665 40.225 10.7017C38.0659 12.678 34.7119 12.6849 32.5467 10.7121C32.0148 10.2269 31.7444 10.226 31.2185 10.7017C30.2238 11.6019 29.0585 12.1165 27.7181 12.2092C25.987 12.3279 24.4864 11.7873 23.2214 10.5977C22.9927 10.3828 22.7371 10.2693 22.426 10.3906C22.1306 10.5059 22.0266 10.745 21.9902 11.05C21.81 12.5671 21.8446 14.0755 22.0353 15.5744C22.0742 15.8898 22.1219 16.2043 22.1748 16.5188C22.2042 16.6947 22.2363 16.8715 22.2701 17.0474C22.3082 17.2466 22.348 17.4451 22.3905 17.6426C22.4537 17.9415 22.5222 18.2387 22.595 18.5342C23.2621 21.2435 24.3192 23.7864 25.8865 26.1041C26.1057 26.429 26.3353 26.7505 26.5771 27.0659C26.6091 27.11 26.6429 27.1542 26.6767 27.1975C26.9046 27.493 27.1402 27.7798 27.3854 28.0562C27.6653 28.3724 27.9564 28.6757 28.2605 28.9633C29.1781 29.8306 30.2117 30.5593 31.4013 31.0999C31.7462 31.2568 32.0451 31.2568 32.3873 31.0999C33.077 30.7837 33.7173 30.4042 34.3134 29.9684C34.5447 29.7986 34.77 29.6209 34.9883 29.4355C35.613 28.9044 36.1849 28.3074 36.709 27.6568C40.0474 23.5118 41.5766 18.7014 41.8868 13.3477C41.8409 12.6425 41.8028 11.8445 41.7317 11.0491ZM40.4641 14.4394C40.154 18.1209 39.0701 21.564 37.1613 24.7343C36.3105 26.1474 35.3193 27.4479 34.0534 28.4807C33.797 28.6904 33.5293 28.8888 33.2494 29.0742C33.1758 29.1236 33.1004 29.1721 33.0241 29.2198C31.6864 30.0568 32.1066 30.0628 30.7636 29.2259C30.6276 29.1409 30.495 29.0543 30.3642 28.9633C29.9596 28.6852 29.581 28.382 29.2249 28.0562C28.835 27.7018 28.4728 27.3214 28.1323 26.9194C27.6644 26.3666 27.239 25.7731 26.8474 25.1528C26.6906 24.905 26.5389 24.6529 26.3925 24.3973C25.3147 22.5206 24.4994 20.5668 23.9648 18.5342C23.8859 18.2387 23.814 17.9415 23.749 17.6426C23.6659 17.2709 23.5931 16.8966 23.5298 16.5188C23.477 16.2061 23.4311 15.8916 23.3912 15.5744C23.2881 14.7565 23.2283 13.9256 23.2136 13.0835C23.2101 12.879 23.2197 12.6736 23.2257 12.4683C23.2257 12.438 23.2396 12.4085 23.25 12.3695C26.2418 14.1024 29.1027 13.9568 31.8779 11.9337C34.6608 13.9508 37.527 14.0539 40.4728 12.2482C40.4728 12.9821 40.5257 13.7151 40.4641 14.4394Z" fill="white"/>
<path d="M34.597 19.2975C33.5929 20.3086 32.5843 21.3162 31.5706 22.3187C31.2578 22.6289 30.8835 22.6254 30.5673 22.3187C30.3992 22.1558 30.232 21.9912 30.0648 21.8248C29.778 21.5424 29.4929 21.2564 29.2113 20.9679C29.1888 20.9454 29.1663 20.9229 29.1446 20.9003C28.8422 20.591 28.8379 20.1881 29.1134 19.9213C29.1446 19.891 29.1775 19.8641 29.2113 19.8416C29.4687 19.664 29.7875 19.6986 30.0639 19.9499C30.0734 19.9585 30.083 19.9672 30.0925 19.9767C30.4096 20.2852 30.7146 20.6058 31.0716 20.9679C31.6252 20.4073 32.1477 19.878 32.671 19.3503C32.9985 19.0211 33.3234 18.6892 33.6587 18.3669C33.9689 18.068 34.3735 18.0637 34.6386 18.3418C34.8994 18.6156 34.8942 18.9985 34.597 19.2975Z" fill="white"/>
<path d="M37.3033 39.4401C35.1745 39.4393 33.0448 39.4393 30.9151 39.4393H30.5772V38.3926C31.2582 38.3926 31.9167 38.3995 32.5752 38.3909C33.8402 38.3744 34.8279 37.6674 35.2273 36.483C35.2862 36.3071 35.3729 36.2759 35.5314 36.2785C35.9742 36.2855 36.4169 36.2829 36.8597 36.2803C37.3163 36.2785 37.435 36.165 37.4358 35.7145C37.4384 34.2537 37.4384 32.7938 37.4358 31.333C37.4358 30.8764 37.3197 30.7646 36.8666 30.7629C36.3779 30.7611 35.8901 30.7629 35.3945 30.7629C35.3815 30.6728 35.372 30.6095 35.3633 30.5463C35.307 30.139 35.1781 29.763 34.9883 29.4355C34.7596 29.0387 34.4416 28.7112 34.0534 28.4807C33.797 28.6904 33.5293 28.8888 33.2494 29.0742C33.7329 29.2267 34.0976 29.5352 34.3134 29.9684C34.4598 30.2604 34.5368 30.6078 34.5376 31.0037C34.5394 32.4922 34.5394 33.9808 34.5376 35.4702C34.5376 36.7516 33.7804 37.5097 32.5015 37.5106C28.996 37.5106 25.4904 37.5106 21.9849 37.5106H21.7015V28.9624H22.0013C24.0877 28.9624 26.1749 28.9624 28.2613 28.9624C28.9622 28.9624 29.664 28.9624 30.3649 28.9624C29.9603 28.6843 29.5817 28.3811 29.2256 28.0553H26.5778V26.9185H28.133C27.6652 26.3657 27.2397 25.7722 26.8481 25.1519V26.0209H26.3447C26.1272 26.0209 25.9817 26.0408 25.8872 26.1032C25.7573 26.189 25.7218 26.3528 25.7209 26.656C25.72 27.1161 25.7209 27.5761 25.7209 28.0553H21.7691C21.7293 27.6723 21.7102 27.279 21.6444 26.8943C21.3974 25.4508 20.6644 24.3045 19.4826 23.4476C19.3275 23.335 19.2608 23.225 19.2669 23.0343C19.2807 22.6011 19.2712 22.1679 19.2712 21.7338C19.2712 20.753 18.9134 20.2583 17.9733 19.9533V18.5333H23.9655C23.8867 18.2378 23.8148 17.9406 23.7498 17.6417H17.6909C17.1875 17.6417 17.0852 17.7474 17.0835 18.2612C17.0826 18.8157 17.0835 19.3702 17.0835 19.9533H15.562V16.518L23.5298 16.5188C23.477 16.2061 23.4311 15.8916 23.3912 15.5744H22.0353C19.7574 15.5744 17.4795 15.5735 15.2008 15.5735C14.8117 15.5735 14.674 15.7156 14.6731 16.1038C14.6705 17.2821 14.6722 18.4596 14.6722 19.638V19.9377C13.6663 20.2479 13.357 20.6725 13.3561 21.7174C13.3561 22.1783 13.3639 22.641 13.3501 23.1019C13.3475 23.1981 13.2937 23.3263 13.2192 23.38C11.5973 24.5575 10.8764 26.1587 10.8868 28.1463C10.9059 31.793 10.8929 35.4398 10.8929 39.0866V39.4393C10.6511 39.4393 10.4449 39.4297 10.2405 39.4418C9.94155 39.4592 9.78819 39.6368 9.80725 39.9201C9.82718 40.2112 9.9996 40.3221 10.4328 40.3221H37.2322C37.3267 40.3221 37.4228 40.3273 37.5138 40.31C37.7495 40.2641 37.8725 40.1177 37.8691 39.8733C37.8656 39.5735 37.694 39.4384 37.3033 39.4384V39.4401ZM35.3971 31.6371H36.5391V35.393H35.3971V31.6371ZM14.2927 21.3552C14.3395 21.0069 14.5527 20.8466 14.9001 20.8432C15.8402 20.8328 16.782 20.831 17.7221 20.8432C18.1232 20.8483 18.345 21.0909 18.3511 21.4895C18.358 21.9184 18.3528 22.3481 18.3528 22.8047C16.9674 22.2849 15.6071 22.2979 14.2009 22.8186C14.2295 22.3022 14.2286 21.8239 14.2927 21.3552ZM20.8299 39.4687H11.8286V35.4277H20.8299V39.4687ZM20.8377 34.466H11.8399V28.985H20.8377V34.466ZM20.8239 28.057H11.8148C11.8 26.3233 12.4472 24.9396 13.9002 24.0229C15.4919 23.0196 17.1459 23.0326 18.7548 24.0047C20.1506 24.8495 21.0119 26.5798 20.8239 28.057ZM29.6536 39.4193H21.7033V38.4082H29.6536V39.4193ZM30.0639 19.9499C29.7875 19.6986 29.4687 19.664 29.2113 19.8416V20.9679C29.4929 21.2564 29.778 21.5424 30.0648 21.8248C30.0648 21.2001 30.0639 20.5746 30.0639 19.9499Z" fill="white"/>
<path d="M25.3284 33.2192C25.3223 31.6925 26.5977 30.4137 28.1313 30.4068C29.6579 30.3998 30.942 31.6769 30.9472 33.2071C30.9524 34.7302 29.6709 36.0177 28.1434 36.0238C26.622 36.0299 25.3345 34.7476 25.3284 33.2192ZM28.14 31.333C27.0847 31.3312 26.2148 32.1951 26.2113 33.2469C26.2078 34.2979 27.076 35.179 28.1209 35.186C29.1823 35.1929 30.0643 34.3143 30.0634 33.2512C30.0617 32.1968 29.197 31.3338 28.1408 31.3321L28.14 31.333Z" fill="white"/>
</svg>
