<svg width="51" height="51" viewBox="0 0 51 51" fill="none" xmlns="http://www.w3.org/2000/svg">
<path d="M40.8441 22.2091C40.799 21.7009 40.4355 21.455 39.9437 21.5998C39.7779 21.6488 39.623 21.7757 39.4907 21.8971C37.5513 23.6723 34.5387 23.6785 32.5938 21.9064C32.116 21.4706 31.8724 21.4698 31.4007 21.8971C30.5073 22.7057 29.4598 23.168 28.2566 23.2505C28.1461 23.2582 28.0363 23.2629 27.9274 23.2645C27.2908 23.2738 26.6892 23.1804 26.1249 22.9843C25.4346 22.7438 24.798 22.35 24.2174 21.8037C24.012 21.6099 23.7816 21.5087 23.503 21.6177C23.2376 21.7212 23.1442 21.9352 23.1115 22.2099C22.9878 23.2559 22.9769 24.2964 23.0563 25.3323C23.0998 25.9098 23.1714 26.4865 23.2672 27.0608C23.2967 27.2398 23.3286 27.4188 23.3629 27.597C23.4726 28.169 23.6003 28.7341 23.7466 29.2913C24.0555 30.4711 24.4493 31.6144 24.9404 32.7156C25.2362 33.381 25.5677 34.0301 25.9374 34.6621C26.2946 35.273 26.6868 35.8684 27.118 36.4466C27.1841 36.5361 27.2518 36.6256 27.3203 36.7143C27.7881 37.3198 28.2924 37.884 28.8426 38.3922C29.6045 39.0966 30.4552 39.695 31.4217 40.1527C31.4692 40.1752 31.5167 40.1978 31.5649 40.2196C31.8747 40.3597 32.1424 40.3605 32.4506 40.2196C32.4989 40.1978 32.5463 40.1752 32.5938 40.1527C32.9759 39.9698 33.3409 39.7651 33.6896 39.541C34.6974 38.8911 35.5699 38.0732 36.3326 37.1268C39.3312 33.4036 40.7048 29.0827 40.9826 24.2731C40.9414 23.6404 40.9072 22.9236 40.8441 22.2091ZM39.7055 25.2545C39.4269 28.5613 38.4525 31.6541 36.7388 34.501C35.9333 35.8411 34.9862 37.0669 33.7573 38.0171C33.523 38.1985 33.2787 38.3697 33.0226 38.53C31.821 39.2826 32.1985 39.288 30.9914 38.5362C30.9159 38.4895 30.8419 38.4421 30.7688 38.3922C29.9438 37.8459 29.2364 37.1852 28.613 36.4466C28.1445 35.8909 27.725 35.2909 27.3398 34.6621C27.2464 34.5095 27.1546 34.3546 27.0651 34.199C26.7841 33.7102 26.5234 33.2161 26.2829 32.7156C26.0027 32.1319 25.7498 31.5412 25.5249 30.942C25.4268 30.682 25.335 30.4213 25.2486 30.1583C24.6813 28.4453 24.3404 26.667 24.24 24.8225C24.2244 24.5618 24.2151 24.3003 24.2104 24.0365C24.2073 23.8528 24.2159 23.6684 24.2213 23.4839C24.2221 23.4567 24.2338 23.4302 24.2431 23.3952C24.6252 23.6162 25.0042 23.803 25.3817 23.9563C26.009 24.2108 26.63 24.3704 27.2448 24.4365C28.8644 24.6109 30.4435 24.133 31.993 23.0037C34.4928 24.8155 37.0672 24.9081 39.7133 23.2863C39.7133 23.9454 39.76 24.6038 39.7055 25.2545Z" fill="white"/>
<path d="M34.4352 29.6182C34.0779 29.9777 33.7207 30.3365 33.3627 30.6945C32.8156 31.2416 32.2669 31.7879 31.7167 32.3319C31.4358 32.6098 31.0996 32.6075 30.8155 32.3319C30.3836 31.9132 29.9578 31.4883 29.5376 31.0579C29.501 31.0206 29.4699 30.9825 29.4434 30.9428C29.2691 30.6859 29.2948 30.3863 29.5096 30.1777C29.7602 29.9349 30.1026 29.9497 30.389 30.2283C30.6209 30.454 30.8466 30.6875 31.0957 30.9428H31.4412C31.4638 30.9202 31.4856 30.8976 31.5074 30.8758C31.9183 30.461 32.3113 30.0625 32.7051 29.6656C32.7261 29.6438 32.7479 29.6228 32.7689 29.601C33.0413 29.3263 33.3129 29.0508 33.5915 28.7823C33.8709 28.5138 34.2336 28.5099 34.4725 28.7597C34.7068 29.0049 34.7013 29.3504 34.4352 29.6189V29.6182Z" fill="white"/>
<path d="M34.4352 29.6182C34.0779 29.9777 33.7207 30.3365 33.3627 30.6945C32.8156 31.2416 32.2669 31.7879 31.7167 32.3319C31.4358 32.6098 31.0996 32.6075 30.8155 32.3319C30.3836 31.9132 29.9578 31.4883 29.5376 31.0579C29.501 31.0206 29.4699 30.9825 29.4434 30.9428C29.2691 30.6859 29.2948 30.3863 29.5096 30.1777C29.7602 29.9349 30.1026 29.9497 30.389 30.2283C30.6209 30.454 30.8466 30.6875 31.0957 30.9428C31.1517 31.0004 31.2085 31.0587 31.2677 31.1186C31.326 31.0595 31.3844 31.0011 31.4412 30.9428C31.4638 30.9202 31.4856 30.8976 31.5074 30.8758C31.9183 30.461 32.3113 30.0625 32.7051 29.6656C32.7261 29.6438 32.7479 29.6228 32.7689 29.601C33.0413 29.3263 33.3129 29.0508 33.5915 28.7823C33.8709 28.5138 34.2336 28.5099 34.4725 28.7597C34.7068 29.0049 34.7013 29.3504 34.4352 29.6189V29.6182Z" fill="white"/>
<path d="M31.0957 30.942C31.1517 30.9996 31.2085 31.0579 31.2677 31.1179C31.326 31.0587 31.3844 31.0004 31.4412 30.942H31.0957ZM33.7573 38.0171C33.523 38.1985 33.2787 38.3697 33.0226 38.53C31.821 39.2826 32.1985 39.288 30.9914 38.5362C30.9159 38.4895 30.8419 38.4421 30.7688 38.3922H11.6345V36.4466H28.613C28.1445 35.8909 27.725 35.2909 27.3398 34.6621H11.6415V32.7156H26.2829C26.0027 32.1319 25.7498 31.5412 25.5249 30.942H24.9568C25.0533 30.6836 25.1505 30.4237 25.2486 30.1583C24.6813 28.4453 24.3404 26.667 24.24 24.8225C23.8501 25.0482 23.4555 25.2187 23.0563 25.3323C21.85 25.6771 20.6094 25.5082 19.3829 24.8163C17.6427 23.8341 16.8512 22.2652 16.8528 20.2456C19.0264 21.1608 20.3051 20.9577 21.804 19.4697C23.2493 20.9421 24.8976 21.2114 26.767 20.2456C26.7802 21.276 26.5748 22.1951 26.1249 22.9843C25.9265 23.3345 25.679 23.659 25.3817 23.9563C26.009 24.2108 26.63 24.3704 27.2448 24.4365C27.5157 24.0668 27.7437 23.6762 27.9274 23.2645C28.3149 22.3975 28.5095 21.4363 28.5126 20.3795C28.5126 20.0837 28.5126 19.788 28.5126 19.444C28.6262 19.5273 28.6955 19.574 28.7609 19.6261C29.1562 19.9405 29.55 20.2565 29.9438 20.5717C30.1828 20.7631 30.4474 20.8659 30.7556 20.7849C31.1066 20.6923 31.3299 20.4635 31.4039 20.1094C31.4778 19.753 31.3478 19.4588 31.0692 19.2331C30.4653 18.7451 29.8567 18.2634 29.2512 17.777C29.1874 17.7256 29.1306 17.6649 29.0605 17.5995C29.1508 17.524 29.2169 17.468 29.2847 17.4135C29.8754 16.9403 30.4699 16.471 31.056 15.9924C31.4778 15.6484 31.5432 15.12 31.2287 14.7285C30.9151 14.3378 30.3929 14.2982 29.9563 14.6351C29.803 14.7534 29.6535 14.8772 29.5018 14.9986C29.1882 15.2492 28.8745 15.499 28.5126 15.7877V15.3768C28.5072 12.5004 26.3389 10.3306 23.4625 10.3267C22.3652 10.3244 21.2686 10.3244 20.1713 10.3267C17.2808 10.3314 15.1165 12.5019 15.1141 15.3994C15.1126 17.0501 15.1149 18.7008 15.1141 20.3514C15.1126 22.6621 16.0262 24.5206 17.8614 25.9261C17.926 25.9759 18.0155 26.0499 18.0178 26.1152C18.0334 26.4794 18.0248 26.8437 18.0248 27.2211C17.1602 27.2211 16.3352 27.2126 15.511 27.225C15.1538 27.2305 14.7904 27.2445 14.4402 27.3122C11.7022 27.8398 9.87412 30.0688 9.87101 32.8627C9.86945 34.9018 9.88346 36.9408 9.86245 38.9791C9.857 39.5207 10.0072 39.9207 10.5115 40.1527H33.1152C33.4242 40.0095 33.6001 39.804 33.6896 39.541C33.7449 39.376 33.7666 39.1876 33.7643 38.9791C33.7612 38.6584 33.7589 38.3378 33.7573 38.0171ZM19.7806 26.909C20.9573 27.2647 22.1185 27.3145 23.2672 27.0608C23.4454 27.0219 23.6236 26.9752 23.8018 26.9215C23.8018 27.6608 23.8797 28.3932 23.7831 29.1014C23.7746 29.166 23.7621 29.2298 23.7466 29.2913C23.5224 30.1847 22.6212 30.7723 21.6717 30.7108C20.6872 30.6478 19.8459 29.8431 19.7876 28.8539C19.7494 28.2181 19.7806 27.5783 19.7806 26.909ZM18.8334 19.0626C17.8536 19.037 16.9469 18.2198 16.9181 17.3279H20.8919C20.8009 18.3171 19.8716 19.0899 18.8334 19.0626ZM24.868 19.0595C23.8018 19.1288 22.7963 18.3163 22.7395 17.3287H26.6923C26.7421 18.1295 25.8261 18.9981 24.868 19.0595ZM19.4887 12.1369C19.9074 12.0731 20.3386 12.0801 20.7651 12.0762C21.6966 12.0684 22.629 12.0653 23.5613 12.0762C25.419 12.0965 26.8417 13.6032 26.7631 15.457C26.7623 15.4842 26.7522 15.5115 26.7429 15.5535H16.8878C16.6917 13.9721 17.8995 12.3782 19.4887 12.1369ZM13.0517 29.7925C13.7281 29.2578 14.5009 28.9769 15.3647 28.9699C16.2465 28.9629 17.129 28.9683 17.9361 28.9683C18.1867 29.6485 18.4225 30.2867 18.6583 30.9225H12.1015C12.3404 30.4665 12.6634 30.0999 13.0517 29.7925ZM32.7689 29.6003C32.7479 29.6221 32.7261 29.6431 32.7051 29.6649C32.3113 30.0618 31.9183 30.4602 31.5074 30.875C31.5206 30.8968 31.5346 30.9194 31.5478 30.942H29.4434C29.4699 30.9817 29.501 31.0198 29.5376 31.0572C29.9578 31.4875 30.3836 31.9125 30.8155 32.3312C31.0996 32.6075 31.4358 32.6098 31.7167 32.3312C32.2669 31.7872 32.8156 31.2408 33.3627 30.6937C33.2079 30.3085 33.0071 29.9404 32.7689 29.5995V29.6003Z" fill="white"/>
</svg>
