<svg width="51" height="51" viewBox="0 0 51 51" fill="none" xmlns="http://www.w3.org/2000/svg">
<path d="M20.8634 40.325C20.3982 40.2296 19.9251 40.1608 19.4685 40.0341C16.4107 39.1881 14.2059 36.5111 13.9455 33.3469C13.5663 28.7418 17.3302 24.8685 21.9486 25.1195C22.9103 25.1719 23.8344 25.401 24.7093 25.8114C24.7953 25.8521 24.8837 25.8896 24.9978 25.9412V21.1336C24.5881 21.2188 24.1792 21.2783 23.7844 21.3901C22.8516 21.6551 22.0275 22.1258 21.3036 22.7716C20.9314 23.1031 20.6796 23.1031 20.3075 22.7739C17.8181 20.5746 14.1934 20.5715 11.7134 22.7653C11.4123 23.032 11.1496 23.0843 10.8979 22.9287C10.6547 22.7778 10.575 22.5316 10.6774 22.1547C12.2505 16.326 15.9197 12.5067 21.7312 10.8742C25.241 9.88824 28.7014 10.2557 32.029 11.7678C32.0736 11.7881 32.1181 11.8069 32.1619 11.8288C32.4965 11.9992 32.6279 12.3229 32.4864 12.6278C32.3449 12.932 32.0235 13.0313 31.6631 12.8859C31.14 12.674 30.6248 12.4371 30.0892 12.2627C29.4981 12.0712 28.8875 11.9375 28.2847 11.7819C28.2128 11.7631 28.1346 11.7678 28.0267 11.7592C28.2112 12.0462 28.3879 12.3003 28.5435 12.5669C29.3308 13.9187 29.8289 15.3847 30.1565 16.9022C30.4637 18.3275 30.6944 19.7701 30.961 21.2196C33.5043 19.6403 36.1705 19.5214 38.8999 20.8912C38.921 20.8748 38.9421 20.8584 38.9632 20.8412C38.6466 20.179 38.3518 19.505 38.0094 18.8561C37.4597 17.817 36.7576 16.8827 35.9562 16.0226C35.9031 15.9656 35.8476 15.9108 35.7975 15.8506C35.5747 15.584 35.5794 15.2596 35.8077 15.0336C36.043 14.8006 36.4035 14.7881 36.6404 15.0547C37.1134 15.5856 37.5895 16.1173 38.0117 16.688C39.1892 18.2806 40.0086 20.0476 40.4879 21.971C40.5105 22.0625 40.552 22.15 40.5848 22.2392V22.5902C40.2721 23.1062 39.9335 23.1539 39.4738 22.7466C37.0289 20.5785 33.3816 20.5801 30.9235 22.7505C30.5177 23.1086 30.2855 23.1094 29.8828 22.752C29.1651 22.1148 28.348 21.6496 27.4247 21.3885C27.0298 21.2767 26.6201 21.2165 26.1886 21.1258C26.1886 22.9889 26.1862 24.7825 26.1948 26.5753C26.1948 26.6621 26.2699 26.77 26.3418 26.831C27.0048 27.3876 27.5748 28.0241 28.0142 28.7707C28.1057 28.9263 28.2097 28.9732 28.3863 28.9725C30.1612 28.9654 31.9367 28.9678 33.7115 28.9686C34.3143 28.9686 34.4981 29.1515 34.4981 29.7535C34.4981 33.0107 34.4942 36.2687 34.5043 39.5259C34.5051 39.8856 34.4043 40.149 34.0884 40.3218H20.8634V40.325ZM27.9524 32.705C27.9462 29.1515 25.0588 26.2727 21.5092 26.279C17.9643 26.286 15.0722 29.1867 15.0792 32.7277C15.0863 36.2703 17.9862 39.1584 21.5319 39.1545C25.0791 39.1506 27.9587 36.2578 27.9524 32.705ZM21.4482 21.1563C24.2441 19.5566 26.9642 19.5566 29.7202 21.1344C29.6123 20.4034 29.5247 19.7075 29.4051 19.0179C29.0947 17.2283 28.6702 15.4699 27.8852 13.8194C27.5701 13.1564 27.1995 12.5262 26.6522 12.0211C25.9478 11.3714 25.2245 11.3401 24.5662 12.0321C24.1292 12.4918 23.7547 13.0321 23.449 13.5895C22.775 14.8194 22.3872 16.1634 22.101 17.5285C21.8532 18.7083 21.671 19.9014 21.4474 21.1563H21.4482ZM20.2355 21.2165C20.5248 19.6927 20.7742 18.1743 21.1081 16.6755C21.456 15.111 21.9931 13.6075 22.8626 12.2432C22.9603 12.0892 23.0658 11.9406 23.2066 11.7326C20.6624 12.1806 18.449 13.1892 16.5155 14.7998C14.5507 16.4362 13.1441 18.4636 12.2552 20.9178C15.0292 19.5293 17.6867 19.6403 20.2348 21.2173L20.2355 21.2165ZM33.3175 36.9309C31.5208 36.9309 29.7562 36.9286 27.9915 36.9388C27.9024 36.9388 27.7882 37.0341 27.7288 37.1162C27.1948 37.848 26.5631 38.4774 25.8164 38.9911C25.7617 39.0286 25.714 39.0787 25.6475 39.1365H33.3183V36.9309H33.3175ZM33.3081 35.7527V33.5596H29.1393C28.9407 34.3117 28.7507 35.0295 28.5599 35.7527H33.3081ZM29.176 32.3462H33.3065V30.1632H28.7444C28.8883 30.8911 29.029 31.6042 29.176 32.3462Z" fill="white"/>
<path d="M20.94 36.9255C20.3176 36.8793 19.793 36.6878 19.3122 36.3696C18.9744 36.1467 18.8704 35.8223 19.0471 35.5267C19.2238 35.2312 19.56 35.1765 19.9158 35.361C20.2215 35.5197 20.5405 35.6526 20.904 35.8207C20.9173 35.6495 20.9298 35.5674 20.9298 35.4845C20.9314 34.6651 20.9251 33.8457 20.9345 33.0264C20.9369 32.8465 20.8907 32.741 20.7179 32.6698C20.5303 32.5924 20.3552 32.483 20.1777 32.3813C19.4396 31.9599 19.1042 31.3125 19.1886 30.4791C19.2817 29.5573 19.7617 28.8888 20.6538 28.5839C20.8931 28.5018 20.9267 28.3962 20.9423 28.1781C20.9572 27.9787 21.0236 27.7543 21.1425 27.598C21.2879 27.4056 21.5334 27.3955 21.7586 27.4955C21.9986 27.6019 22.1268 27.802 22.0948 28.0569C22.051 28.3994 22.1753 28.551 22.5139 28.6316C22.7813 28.6949 23.0338 28.8497 23.2715 28.9983C23.5756 29.189 23.6413 29.5338 23.4599 29.8114C23.284 30.0811 22.9705 30.1507 22.6632 29.9881C22.4943 29.899 22.3247 29.8106 22.1018 29.6933C22.1018 30.4588 22.0987 31.1648 22.1073 31.8708C22.1073 31.9255 22.1808 31.9896 22.2355 32.0295C22.2887 32.0686 22.3598 32.0834 22.4239 32.1069C23.3895 32.4587 24.0135 33.1092 24.0697 34.1616C24.1292 35.2648 23.6405 36.1233 22.6585 36.6221C22.2613 36.8238 22.0299 36.9935 22.0823 37.4759C22.1143 37.7714 21.8243 37.988 21.5217 37.9896C21.223 37.9903 20.9822 37.7894 20.9431 37.479C20.9212 37.3078 20.9392 37.1311 20.9392 36.9255H20.94ZM22.1276 33.2726V35.583C22.6483 35.3133 22.9517 34.773 22.9063 34.2289C22.868 33.7644 22.5952 33.4259 22.1276 33.2726ZM20.9204 29.7442C20.5108 29.9685 20.2887 30.4017 20.3497 30.8036C20.3989 31.1249 20.5913 31.3274 20.9204 31.3993V29.7434V29.7442Z" fill="white"/>
<path d="M31.4661 11.5239C31.4661 11.5239 35.9367 13.8655 37.4027 15.9257C38.8686 17.9859 36.1759 16.2642 36.1759 16.2642C36.1759 16.2642 33.1236 13.104 31.1588 12.6771L31.4661 11.5239Z" fill="white"/>
</svg>
