<svg width="51" height="51" viewBox="0 0 51 51" fill="none" xmlns="http://www.w3.org/2000/svg">
<path d="M33.3445 40.325C31.8372 39.7662 30.4308 39.0281 29.3437 37.8197C28.9719 37.4065 28.6847 37.3431 28.1713 37.5325C27.193 37.8925 26.1685 37.8816 25.1378 37.7102C24.7864 37.6515 24.4099 37.7563 24.046 37.7532C23.2884 37.7462 22.5308 37.707 21.7725 37.7008C21.4085 37.6976 21.0399 37.7141 20.6799 37.7673C17.2402 38.2705 13.9375 35.6988 13.6589 32.2419C13.4538 29.7038 14.3327 27.5336 16.0678 25.6928C16.1281 25.6286 16.1907 25.5676 16.2517 25.5042C16.258 25.4979 16.2588 25.487 16.2783 25.4377C16.1555 25.4197 16.0404 25.3899 15.9238 25.3876C14.7045 25.3649 13.4843 25.3414 12.265 25.3297C11.2225 25.3187 10.6144 24.7153 10.6136 23.6689C10.6136 21.7647 10.6128 19.8614 10.6136 17.9572C10.6136 16.9719 11.1889 16.3974 12.1758 16.3153C12.9999 16.2464 13.8224 16.136 14.6395 16.0061C15.4668 15.8746 16.1797 15.5005 16.816 14.9417C17.4085 14.4213 18.033 13.9321 18.681 13.4845C19.0184 13.2512 19.4332 13.1252 19.8229 12.975C19.9653 12.9202 20.0405 12.8826 20.0514 12.7073C20.0976 11.9262 20.7065 11.3526 21.4891 11.3299C21.7224 11.3236 21.9564 11.3291 22.1849 11.3291C22.5199 10.5965 23.0834 10.2819 23.8605 10.3297C24.1712 10.3484 24.4913 10.3226 24.7911 10.3899C25.5416 10.559 26.0065 11.3017 25.8711 12.0593C25.8132 12.3856 25.7459 12.7096 25.6778 13.0595C26.5724 13.5291 27.0599 14.2796 27.1226 15.3244C27.3331 15.3244 27.5264 15.3237 27.7189 15.3244C28.4875 15.3299 29.0854 15.6414 29.4274 16.3434C29.7616 17.029 29.6356 17.6692 29.159 18.2507C29.141 18.2726 29.13 18.3008 29.1159 18.3251C29.9322 19.3198 29.6692 20.4264 28.7997 21.0525C29.0322 21.472 29.1824 21.9134 29.0752 22.4096C28.9711 22.8933 28.7011 23.2588 28.2934 23.5452C28.363 23.6814 28.4288 23.8106 28.5227 23.9937C29.3108 23.8458 30.1185 23.7221 30.9121 23.5382C31.6415 23.3684 32.3592 23.1422 33.0768 22.9238C33.4361 22.8143 33.7804 22.8064 34.1373 22.9246C35.7996 23.4764 37.5019 23.8458 39.2424 24.0422C39.9828 24.126 40.3984 24.5869 40.6089 25.2694V31.9476C40.5917 32.0118 40.5643 32.0744 40.5581 32.1394C40.3295 34.3292 39.4436 36.2138 37.9268 37.8049C36.7928 38.9937 35.3997 39.7677 33.8728 40.325H33.3445ZM20.8771 15.2994C20.7229 14.8862 20.5625 14.4909 20.4287 14.0871C20.3653 13.8969 20.2635 13.8633 20.1015 13.9306C19.8143 14.0503 19.4981 14.1309 19.2508 14.307C18.6403 14.7422 18.0393 15.1969 17.4758 15.6907C16.7456 16.3317 15.9309 16.7903 14.9753 16.9515C14.0729 17.1041 13.1635 17.2122 12.254 17.3155C11.7672 17.371 11.6123 17.5041 11.6123 17.9909C11.6115 19.8849 11.6115 21.7788 11.6123 23.6736C11.6123 24.1573 11.7821 24.3287 12.2611 24.3294C13.14 24.331 14.0189 24.3232 14.897 24.3318C16.2032 24.3451 17.4828 24.5118 18.7116 24.9869C18.9824 25.0917 19.2696 25.1661 19.556 25.2146C19.9012 25.2741 20.2526 25.3203 20.6016 25.3226C22.5253 25.3328 24.4483 25.3297 26.372 25.3226C26.4667 25.3226 26.6295 25.2655 26.6451 25.2044C26.7672 24.7411 27.0521 24.4163 27.463 24.176C27.326 23.9201 27.0983 23.8575 26.851 23.8207C26.5223 23.7714 26.3571 23.5914 26.3673 23.3065C26.3775 23.0303 26.5747 22.8448 26.8917 22.8252C27.0764 22.8135 27.2642 22.8291 27.4473 22.8072C27.8034 22.765 28.0985 22.4362 28.1079 22.0919C28.1188 21.7256 27.8394 21.4024 27.4599 21.3413C27.038 21.2733 26.8432 21.0979 26.8612 20.8013C26.8799 20.4891 27.1046 20.3349 27.5436 20.3325C27.5632 20.3325 27.5827 20.3325 27.6023 20.3325C28.1916 20.3302 28.5603 20.0758 28.6002 19.6454C28.6409 19.2079 28.3802 18.9457 27.7776 18.8197C27.528 18.7673 27.3581 18.5692 27.3659 18.3235C27.3746 18.0511 27.5287 17.8954 27.7862 17.8359C27.8332 17.825 27.8841 17.8297 27.9318 17.8226C28.3255 17.7616 28.5963 17.4657 28.601 17.0916C28.6056 16.7293 28.3309 16.4131 27.9443 16.3481C27.8199 16.327 27.6915 16.3262 27.5655 16.3262C25.3397 16.3246 23.1131 16.3262 20.8873 16.3246C20.7699 16.3246 20.6517 16.3286 20.5367 16.3121C20.2776 16.2761 20.1336 16.1079 20.1164 15.8598C20.0992 15.6101 20.226 15.4262 20.4756 15.3573C20.5954 15.3244 20.7229 15.3205 20.8756 15.2994H20.8771ZM24.8631 26.3361C24.9218 26.495 24.9875 26.6359 25.0259 26.7838C25.065 26.9341 25.0893 27.0898 25.0987 27.2448C25.1174 27.5719 24.9374 27.7973 24.6526 27.8239C24.3841 27.849 24.1689 27.6627 24.1149 27.3575C24.1047 27.2995 24.1031 27.2409 24.0953 27.1829C24.028 26.7087 23.6359 26.3526 23.1585 26.3291C22.6983 26.3064 22.2726 26.6179 22.1528 27.0648C21.9798 27.7112 22.4205 28.2818 23.1233 28.3232C24.5226 28.4054 25.4321 29.6561 25.0118 30.9357C24.7887 31.615 24.3066 32.0415 23.614 32.2638C23.614 32.4509 23.6234 32.6363 23.6116 32.8203C23.5929 33.1247 23.3855 33.3235 23.1076 33.3211C22.8282 33.3188 22.6341 33.1169 22.6185 32.8101C22.6138 32.7224 22.6075 32.6332 22.6185 32.5471C22.6435 32.3468 22.5715 32.2505 22.3712 32.1675C21.5964 31.8482 21.1839 31.2456 21.1143 30.4144C21.0876 30.0936 21.2825 29.8603 21.5651 29.8361C21.8617 29.811 22.062 29.991 22.1074 30.3205C22.1207 30.4168 22.1317 30.5154 22.1575 30.6085C22.2921 31.0867 22.7515 31.3755 23.2657 31.309C23.729 31.2495 24.0891 30.8418 24.1031 30.362C24.1204 29.7555 23.7048 29.3571 23.0153 29.3187C21.7521 29.2483 20.8802 28.0892 21.173 26.8636C21.2152 26.6883 21.2888 26.52 21.342 26.3659C20.7261 26.3213 20.1148 26.3267 19.5247 26.2203C18.9244 26.1123 18.3461 25.8877 17.7544 25.7304C17.6511 25.703 17.4875 25.7116 17.4194 25.7758C15.8682 27.226 14.7718 28.9157 14.6332 31.1086C14.5112 33.0363 15.1897 34.6086 16.7198 35.788C17.5924 36.4611 18.5973 36.7961 19.729 36.8195C19.7047 36.7577 19.6938 36.7217 19.6773 36.6888C19.5592 36.4493 19.5826 36.2286 19.7893 36.0549C19.9865 35.889 20.204 35.8999 20.4099 36.0471C21.5838 36.8853 22.8971 36.9221 24.2526 36.7178C24.8263 36.6317 25.3194 36.3633 25.7975 36.0525C26.1607 35.817 26.5864 36.0064 26.599 36.404C26.6029 36.5331 26.5434 36.6638 26.4957 36.8696C27.0826 36.753 27.6414 36.6419 28.2323 36.5237C28.1697 36.4079 28.1533 36.3726 28.1329 36.3406C27.0873 34.7095 26.5951 32.9236 26.6076 30.9889C26.617 29.5441 26.6091 28.0994 26.6091 26.6539C26.6091 26.5506 26.6091 26.448 26.6091 26.3369H24.8623L24.8631 26.3361ZM39.5657 28.6519C39.5805 28.6519 39.5962 28.6519 39.6111 28.6519C39.6111 27.7637 39.6111 26.8754 39.6111 25.9871C39.6111 25.1262 39.5625 25.0902 38.7071 24.972C37.2099 24.7654 35.7135 24.529 34.2821 24.0281C33.8102 23.863 33.411 23.863 32.9383 24.0281C31.4036 24.5635 29.7976 24.7904 28.1955 25.0236C27.7385 25.0902 27.6086 25.235 27.6086 25.6936C27.6078 27.5289 27.6047 29.3641 27.6117 31.1986C27.6133 31.5587 27.6281 31.9234 27.6829 32.2787C28.165 35.3857 29.8219 37.6311 32.6769 38.9538C33.811 39.4789 33.4134 39.4805 34.5169 38.9671C37.4878 37.5842 39.208 35.2527 39.5477 31.986C39.6619 30.8856 39.5657 29.7641 39.5657 28.6519ZM22.1098 12.3269C21.8875 12.3269 21.713 12.3191 21.5392 12.3285C21.1589 12.3481 20.9577 12.6376 21.0876 12.9961C21.3498 13.7192 21.623 14.4393 21.9 15.1577C21.9258 15.2243 22.0096 15.3143 22.0683 15.315C22.7774 15.326 23.4872 15.3221 24.2018 15.3221C24.4373 14.152 24.6698 13.0164 24.8913 11.8777C24.9492 11.5787 24.7449 11.3463 24.4287 11.3306C24.1853 11.3189 23.9411 11.3244 23.697 11.3283C23.3056 11.3346 23.1209 11.5122 23.11 11.8996C23.1014 12.2017 23.1139 12.5046 23.1045 12.8075C23.0943 13.1229 22.9049 13.3162 22.6224 13.3217C22.3422 13.3264 22.1372 13.1346 22.1129 12.8278C22.1004 12.6744 22.1098 12.5187 22.1098 12.3269ZM25.4657 14.1004C25.3812 14.5355 25.3084 14.9104 25.2333 15.2994H26.0996C26.0856 14.7985 25.8852 14.4268 25.4657 14.1004Z" fill="white"/>
<path d="M38.6625 29.3062C38.6085 30.3573 38.6555 31.4256 38.4794 32.4563C38.0364 35.0523 36.551 36.9017 34.1749 38.0326C33.7922 38.215 33.4009 38.2064 33.0166 38.0177C30.2367 36.6489 28.7543 34.4106 28.6182 31.3215C28.5563 29.9089 28.6025 28.4907 28.6072 27.0757C28.6096 26.3886 29.0283 25.9417 29.7029 25.8C30.8651 25.5566 32.0195 25.2702 33.1817 25.026C33.4486 24.9696 33.746 24.9618 34.0113 25.0174C35.1931 25.2647 36.3663 25.5519 37.5473 25.8063C38.2039 25.9479 38.6062 26.4003 38.6109 27.0781C38.6163 27.82 38.6116 28.5619 38.6116 29.3039C38.6289 29.3047 38.6453 29.3054 38.6625 29.3062ZM37.5653 29.3469C37.5817 29.3469 37.5973 29.3469 37.6138 29.3469C37.6138 28.6245 37.6075 27.9022 37.6169 27.1806C37.62 26.9278 37.5238 26.8307 37.2726 26.7767C36.1213 26.5294 34.9755 26.2532 33.8258 25.9965C33.6896 25.9659 33.5355 25.9644 33.3993 25.9949C32.23 26.2547 31.0647 26.5294 29.8954 26.7877C29.6974 26.8315 29.6035 26.9161 29.6051 27.1164C29.6207 28.6966 29.5292 30.2869 29.6724 31.8553C29.8946 34.2877 31.2228 36.0275 33.4165 37.0958C33.5214 37.1467 33.6928 37.1482 33.7977 37.0974C35.9765 36.0463 37.2592 34.3198 37.548 31.9194C37.6498 31.0734 37.5653 30.2055 37.5653 29.3469Z" fill="white"/>
<path d="M32.583 32.076C33.1919 31.3466 33.7906 30.6297 34.3885 29.9128C34.4699 29.8157 34.5505 29.7179 34.6319 29.6208C34.9051 29.2968 35.1845 29.2374 35.4334 29.4502C35.6775 29.6584 35.6635 29.9456 35.3911 30.2728C34.8988 30.8645 34.405 31.4561 33.9119 32.047C33.631 32.3835 33.3523 32.7224 33.069 33.0574C32.7802 33.3994 32.4977 33.4119 32.1776 33.1004C32.0516 32.9784 31.9272 32.8547 31.8058 32.7279C31.5797 32.49 31.5593 32.2043 31.7495 31.9969C31.9452 31.7841 32.2058 31.7825 32.4789 31.9922C32.5079 32.0141 32.5353 32.0384 32.5814 32.076H32.583Z" fill="white"/>
</svg>
