<svg width="51" height="51" viewBox="0 0 51 51" fill="none" xmlns="http://www.w3.org/2000/svg">
<path d="M20.5263 24.554C17.7203 23.0281 16.8098 20.4869 16.5763 17.5163C16.2676 17.5163 15.9436 17.5213 15.6196 17.5151C15.2296 17.5083 14.9924 17.2964 14.9857 16.9607C14.9783 16.6089 15.2179 16.3939 15.6288 16.3828C16.2239 16.3674 16.2375 16.3686 16.2966 15.792C16.4925 13.8805 17.4295 12.503 19.2123 11.7434C19.5973 11.5795 20.0089 11.4717 20.4142 11.3608C20.6163 11.306 20.697 11.2229 20.697 11.0011C20.697 10.5052 20.8849 10.3302 21.3814 10.3277C22.3652 10.3234 23.3497 10.3247 24.3335 10.3277C24.8756 10.329 25.0493 10.4928 25.0592 11.0356C25.0623 11.2179 25.1091 11.3066 25.2976 11.3498C25.5816 11.4144 25.8582 11.5136 26.1372 11.6023C28.0162 12.1974 29.2643 13.7726 29.4201 15.7397C29.4368 15.9467 29.4651 16.1524 29.491 16.3853C29.7429 16.3853 29.9641 16.3773 30.1846 16.3871C30.5216 16.4025 30.7477 16.6237 30.7576 16.9311C30.7674 17.2508 30.5333 17.4935 30.1846 17.5145C30.0214 17.5243 29.8569 17.5169 29.6924 17.5169C29.5286 17.5169 29.3653 17.5169 29.1891 17.5169C28.9427 20.4801 28.0408 23.0663 25.1947 24.5749C25.5643 25.3912 26.1594 25.9518 27.0268 26.176C28.1702 26.4711 29.3228 26.7305 30.4717 27.0065C30.5857 27.0336 30.7126 27.044 30.8075 27.1038C31.3471 27.4457 31.7599 27.2418 32.1437 26.829C32.3026 26.6578 32.488 26.5118 32.6593 26.3522C33.5796 25.4959 34.8099 25.4737 35.7247 26.3411C37.0221 27.5708 38.479 28.5466 40.1165 29.2618C40.8027 29.5618 41.0301 30.0867 40.8212 30.8105C39.9982 33.6665 38.5801 36.2009 36.6808 38.4759C36.403 38.8086 36.1418 39.1548 35.867 39.4899C34.962 40.5939 33.4564 40.6087 32.5533 39.509C31.2455 37.9153 29.9555 36.3081 29.0216 34.4507C28.9686 34.346 28.7708 34.2579 28.6396 34.2567C26.9997 34.2437 25.3592 34.248 23.7193 34.248C19.736 34.248 15.7532 34.248 11.7699 34.248C11.0103 34.248 10.836 34.0269 10.9641 33.2771C11.1163 32.3888 11.2672 31.4999 11.3861 30.6072C11.5451 29.4146 12.2012 28.5694 13.169 27.9182C14.1632 27.2492 15.2992 26.9793 16.4457 26.7286C17.2225 26.5586 17.9975 26.3775 18.7632 26.1631C19.6035 25.9278 20.1715 25.369 20.5276 24.554H20.5263ZM28.6587 30.359C28.6987 30.4988 28.7308 30.6109 28.7622 30.7224C29.6382 33.8365 31.4099 36.4313 33.4879 38.8449C33.8778 39.2977 34.5659 39.299 34.9325 38.8154C35.9218 37.5118 36.934 36.22 37.8303 34.8536C38.7236 33.4915 39.3095 31.9699 39.7524 30.4015C39.7105 30.367 39.6877 30.3386 39.6575 30.3251C37.887 29.5372 36.3019 28.4763 34.9035 27.1321C34.4957 26.7403 33.9979 26.7188 33.5686 27.0742C32.0506 28.3322 30.4354 29.4423 28.6587 30.359ZM28.0347 17.5416H17.727C17.8613 19.5283 18.3542 21.3426 19.8549 22.7176C21.5145 24.238 24.0858 24.2854 25.7719 22.8334C27.3724 21.4547 27.8819 19.5881 28.0347 17.5416ZM20.0779 33.0732C20.1284 33.0905 20.1499 33.1047 20.1721 33.1053C21.9512 33.1083 23.7304 33.1139 25.5089 33.1016C25.5951 33.1016 25.73 32.9556 25.7578 32.8545C25.9278 32.2348 26.0744 31.6089 26.2272 30.9849C26.5186 29.7953 26.8094 28.6057 27.1044 27.4001C26.8186 27.3015 26.5445 27.2344 26.295 27.1136C26.0658 27.0028 25.9179 27.0637 25.7381 27.2128C24.9643 27.8566 24.1801 28.4868 23.3983 29.1207C23.0071 29.438 22.7965 29.4398 22.4065 29.1263C21.5946 28.4739 20.7875 27.8159 19.9719 27.1685C19.8832 27.0982 19.7366 27.0243 19.6448 27.0502C19.3109 27.1438 18.9881 27.2787 18.6357 27.4075C19.1205 29.3129 19.601 31.2005 20.0779 33.0732ZM17.5244 27.6619C16.851 27.8172 16.2177 27.9761 15.5777 28.103C15.3368 28.1511 15.29 28.2626 15.2912 28.4831C15.2998 29.9216 15.2949 31.36 15.2968 32.7985C15.2968 32.8977 15.3128 32.9968 15.3214 33.0936H18.9049C18.4441 31.2806 17.9907 29.4977 17.5244 27.6619ZM21.8465 11.4736V16.3606H23.9041V11.4736H21.8465ZM20.6606 12.5091C18.5002 12.8658 17.3654 14.4484 17.4289 16.3613H20.6606V12.5091ZM25.0832 12.5061V16.3508H28.2971C28.3482 14.3215 27.094 12.8239 25.0832 12.5061ZM20.7728 26.343C21.4707 26.9067 22.1841 27.482 22.8987 28.0593C23.6244 27.4685 24.3187 26.903 24.9846 26.3608C24.6569 25.86 24.3526 25.3949 24.0667 24.9575H21.6672C21.3833 25.3974 21.0931 25.8464 20.7728 26.343ZM14.1454 28.7289C14.1189 28.703 14.0924 28.6778 14.0659 28.6519C13.7419 28.926 13.3987 29.1817 13.0975 29.4792C12.7266 29.8458 12.5726 30.3232 12.5018 30.8345C12.3983 31.5818 12.2794 32.3266 12.1648 33.0911H14.1448L14.1454 28.7289ZM27.7482 29.568C28.6205 29.1072 29.462 28.663 30.3035 28.2182C30.2918 28.188 30.2801 28.1572 30.269 28.127C29.5926 27.9743 28.9156 27.8215 28.217 27.6638C28.0538 28.3279 27.901 28.9476 27.7482 29.568ZM27.5344 30.699C27.3046 31.5448 27.0958 32.3118 26.8851 33.0868H28.3729C28.0969 32.3007 27.8314 31.5442 27.5344 30.699Z" fill="white"/>
<path d="M33.5914 33.6985C34.4538 32.8274 35.2768 31.9958 36.1005 31.1654C36.2157 31.0489 36.3247 30.9226 36.4541 30.8247C36.6999 30.6386 36.9617 30.6411 37.189 30.8524C37.4164 31.0637 37.4736 31.3619 37.2636 31.5775C36.1775 32.6919 35.0772 33.7934 33.9579 34.8752C33.7121 35.1129 33.3751 35.0483 33.1281 34.8105C32.6051 34.3072 32.0907 33.7946 31.5874 33.2722C31.3391 33.0141 31.3582 32.6802 31.5954 32.4578C31.8332 32.2342 32.1443 32.2391 32.4104 32.4991C32.8022 32.8816 33.1792 33.2796 33.5901 33.6991L33.5914 33.6985Z" fill="white"/>
</svg>
