<svg width="51" height="51" viewBox="0 0 51 51" fill="none" xmlns="http://www.w3.org/2000/svg">
<path d="M19.7955 28.1079C19.7654 27.7711 19.5248 27.609 19.1997 27.7043C19.0894 27.7369 18.9875 27.8213 18.8997 27.9015C18.5555 28.2165 18.1611 28.4471 17.7433 28.5934C17.4066 28.7112 17.0539 28.7747 16.7005 28.7839C16.0078 28.8014 15.3101 28.6084 14.7151 28.2056C14.5831 28.1171 14.4569 28.0168 14.3366 27.9073C14.0818 27.6759 13.928 27.6299 13.7149 27.7678C13.6631 27.8012 13.608 27.8455 13.547 27.9015C12.9554 28.4363 12.2627 28.7421 11.4655 28.7972C10.4369 28.8674 9.54537 28.5466 8.79335 27.8397C8.65715 27.7118 8.50507 27.6441 8.32041 27.716C8.14493 27.7853 8.0831 27.9266 8.06138 28.1087C7.91933 29.3061 8.00205 30.4943 8.22766 31.6733C8.65046 33.8784 9.46599 35.9181 10.8472 37.7062C11.6059 38.6889 12.5092 39.5053 13.6556 40.0258C13.7007 40.0467 13.7442 40.0626 13.7868 40.0735C13.9397 40.1144 14.0826 40.0985 14.2414 40.0258C14.6792 39.8244 15.0836 39.5813 15.4571 39.2997C15.915 38.9563 16.3278 38.5569 16.7005 38.1115C16.7373 38.0681 16.774 38.0238 16.8099 37.9786C17.1525 37.5525 17.4642 37.1155 17.7433 36.6659C18.4794 35.4894 19.0059 34.2352 19.3576 32.9091C19.4571 32.5315 19.5431 32.1471 19.615 31.7577C19.6576 31.5296 19.6961 31.2998 19.7286 31.0675C19.7922 30.6255 19.8398 30.1776 19.8715 29.7231C19.8774 29.6403 19.8824 29.5576 19.8874 29.4741C19.8598 29.0546 19.8373 28.5808 19.7955 28.1079ZM17.7433 35.0031C17.5444 35.4234 17.323 35.8362 17.079 36.2415C16.9578 36.442 16.8325 36.6392 16.7005 36.8314C16.1624 37.6177 15.5257 38.3179 14.716 38.846C14.6842 38.8669 14.6525 38.8878 14.6199 38.9078C14.0266 39.2796 14.0149 39.3757 13.7158 39.1936C13.6138 39.1326 13.4793 39.0382 13.2763 38.912C12.1432 38.2059 11.3335 37.184 10.6776 36.0418C9.48354 33.9611 8.83178 31.7235 8.78917 29.317C8.78666 29.195 8.79251 29.073 8.79585 28.951C8.79585 28.9334 8.80421 28.9159 8.81006 28.8925C10.508 29.876 12.1357 29.8417 13.7149 28.7897C13.7893 28.7396 13.8645 28.6878 13.9389 28.6335C14.1962 28.8206 14.4553 28.9794 14.7151 29.1114C15.3694 29.4423 16.0312 29.5986 16.7005 29.5793C17.0464 29.571 17.394 29.515 17.7433 29.4122C18.1753 29.2861 18.6098 29.0889 19.0476 28.8206C19.0476 29.22 19.0735 29.6186 19.0493 30.013C19.0476 30.0498 19.0451 30.0857 19.0418 30.1225C19.0343 30.2094 19.0268 30.2963 19.0176 30.3832C18.853 32.0059 18.4327 33.5484 17.7433 35.0031Z" fill="white"/>
<path d="M15.5549 33.0103C15.2758 33.2918 14.9959 33.5718 14.716 33.8517C14.3968 34.1709 14.0768 34.4892 13.7559 34.8068C13.7425 34.8201 13.7291 34.8318 13.7158 34.8435C13.5378 34.9898 13.3339 34.9755 13.1593 34.8059C12.8735 34.5285 12.5919 34.2478 12.3137 33.9628C12.134 33.779 12.1315 33.5392 12.2953 33.3804C12.4607 33.22 12.688 33.2292 12.8769 33.4138C13.0657 33.5968 13.247 33.7873 13.4593 34.0029C13.5462 33.9152 13.6314 33.8291 13.7158 33.7439C13.9514 33.5041 14.1804 33.2718 14.4101 33.0412C14.5121 32.9384 14.6132 32.8356 14.716 32.7337C14.8087 32.6409 14.9023 32.5482 14.9967 32.4571C15.1814 32.2791 15.4212 32.2766 15.5791 32.4421C15.7345 32.6042 15.7312 32.8331 15.5549 33.0103Z" fill="white"/>
<path d="M14.4101 33.0412C14.1804 33.2718 13.9514 33.5041 13.7158 33.7439V34.8435C13.7291 34.8318 13.7425 34.8201 13.7559 34.8068C14.0768 34.4892 14.3968 34.1709 14.716 33.8517V32.7337C14.6132 32.8356 14.5121 32.9384 14.4101 33.0412ZM43.3573 19.29C38.6129 16.3512 33.8709 13.4074 29.1323 10.4587C28.8499 10.2832 28.6143 10.2782 28.3276 10.457C23.6066 13.3949 18.883 16.3286 14.1545 19.2524C13.8294 19.4529 13.7083 19.686 13.7091 20.0637C13.7124 22.6315 13.7141 25.2 13.7149 27.7678V28.7897C13.7893 28.7396 13.8645 28.6878 13.9389 28.6335C14.1962 28.8206 14.4553 28.9794 14.7151 29.1114C14.716 28.8098 14.716 28.5073 14.7151 28.2056C14.7151 25.6028 14.7135 22.9999 14.711 20.3971C14.711 20.174 14.7728 20.0478 14.9675 19.9267C19.4663 17.1425 23.9609 14.3525 28.4522 11.5558C28.6602 11.4263 28.8014 11.4279 29.0086 11.5575C33.4991 14.3542 37.9954 17.1433 42.4925 19.9308C42.6529 20.0303 42.744 20.1255 42.7432 20.3411C42.7356 26.5746 42.7373 32.8089 42.7373 39.0423V39.3164H40.762V23.3108C40.904 23.3108 41.0561 23.3166 41.2074 23.3108C41.5265 23.2957 41.7262 23.1186 41.7313 22.8086C41.743 22.1418 41.743 21.4742 41.7313 20.8074C41.7262 20.5107 41.5307 20.3336 41.2324 20.3127C41.1388 20.306 41.0444 20.3102 40.9508 20.3102H16.4949C15.8373 20.3102 15.717 20.4322 15.717 21.0956C15.717 21.607 15.717 22.1176 15.717 22.6281C15.7178 23.157 15.8724 23.3091 16.4089 23.3125C16.5008 23.3125 16.5919 23.3125 16.7005 23.3125L16.7005 29.5793C17.0464 29.571 17.394 29.515 17.7433 29.4122L17.7433 23.3342H39.7208V39.3081H17.7433L17.7433 35.0031C17.5444 35.4234 17.323 35.8362 17.079 36.2415C16.9578 36.442 16.8325 36.6392 16.7005 36.8314L16.7005 39.3005H14.716L14.716 38.846C14.6842 38.8669 14.6525 38.8878 14.6199 38.9078C14.0266 39.2796 14.0149 39.3757 13.7158 39.1936L13.7158 39.5746C13.7158 39.8002 13.7333 39.9598 13.7868 40.0735C13.8779 40.2706 14.0751 40.325 14.4661 40.325C19.2181 40.3258 23.9709 40.3258 28.7229 40.3258C33.4748 40.3258 38.2903 40.3258 43.074 40.325C43.5679 40.325 43.7375 40.1595 43.7375 39.6749C43.7375 33.1089 43.7367 26.5428 43.7425 19.9776C43.7425 19.6593 43.6255 19.4562 43.3573 19.29ZM40.721 22.2955H16.7431V21.3313H40.721V22.2955Z" fill="white"/>
<path d="M31.4084 31.2781C31.8112 30.8946 32.1872 30.5369 32.524 30.2161C32.2992 29.9629 32.0886 29.7256 31.8496 29.4573C31.5213 29.7958 31.1762 30.0916 30.9079 30.445C30.5862 30.867 30.1877 30.8553 29.739 30.7943C29.7298 30.6297 29.7206 30.4793 29.7114 30.318C29.4106 30.318 29.1407 30.318 28.8699 30.3188C28.8307 30.3188 28.7914 30.3297 28.7421 30.3364C28.7312 30.4976 28.7204 30.6481 28.7078 30.8168C28.3978 30.8168 28.1071 30.8227 27.8171 30.8152C27.6249 30.8102 27.4127 30.3974 27.5355 30.257C27.7444 30.0172 27.9725 29.7941 28.194 29.5626C28.346 29.6972 28.4522 29.7907 28.4948 29.8283C28.7488 29.5927 28.9811 29.3763 29.2159 29.1582C29.1332 29.0671 29.0429 28.9677 28.9552 28.8716C29.2159 28.4672 29.5367 28.2449 30.0414 28.3059C30.4275 28.3527 30.8235 28.3159 31.2129 28.3159V27.3099H29.7147V25.8301H28.7271C28.7271 26.2713 28.6911 26.6999 28.7362 27.1202C28.7872 27.5923 28.58 27.8848 28.2057 28.1246C28.0862 28.0151 27.9675 27.9057 27.8589 27.8054C27.6141 28.0444 27.3918 28.2616 27.1595 28.4881C27.2723 28.6142 27.3801 28.7346 27.513 28.885C27.2899 29.0989 27.086 29.3069 26.867 29.4966C26.8136 29.5426 26.6899 29.5643 26.6289 29.5342C26.4852 29.4632 26.2646 29.3713 26.2437 29.2568C26.1894 28.9577 26.2253 28.6418 26.2253 28.3293C26.4142 28.3176 26.5646 28.3084 26.7091 28.3001V27.3299C26.5437 27.3183 26.3933 27.3082 26.2562 27.2982C26.1576 26.8202 26.2178 26.435 26.618 26.1158C26.964 25.8401 27.2556 25.4958 27.5756 25.1766C27.3283 24.9285 27.1085 24.7087 26.8386 24.4372C26.4777 24.8341 26.1234 25.2243 25.7223 25.6646C25.3045 25.2368 24.9377 24.8608 24.5842 24.499C24.3453 24.7263 24.1213 24.9402 23.8656 25.1833C24.2182 25.5284 24.5349 25.8936 24.9068 26.1894C25.3104 26.5102 25.2326 26.8988 25.2042 27.3049C25.0321 27.3132 24.8901 27.3199 24.7447 27.3266V28.321H25.2234C25.2234 28.641 25.2477 28.9435 25.2101 29.2384C25.1984 29.3345 25.038 29.4348 24.9243 29.4874C24.8441 29.5242 24.6962 29.5234 24.6327 29.4716C24.4012 29.2835 24.1923 29.0663 23.9676 28.8541C24.0971 28.7078 24.1915 28.6 24.255 28.5282C24.021 28.2884 23.7988 28.0619 23.569 27.828C23.4787 27.9073 23.3726 28.0018 23.2732 28.0903C22.8963 27.8163 22.6432 27.5205 22.7117 27.0174C22.7643 26.6314 22.7225 26.2328 22.7225 25.8343H21.7065V27.3274H20.2425V28.3159C20.7004 28.3159 21.1416 28.3535 21.5728 28.3051C22.0457 28.2524 22.2947 28.5073 22.537 28.8332C22.4217 28.9585 22.3181 29.0721 22.1543 29.2501C22.2889 29.3537 22.4251 29.4356 22.532 29.5459C22.6457 29.6629 22.7317 29.8066 22.8345 29.9445C23.0259 29.769 23.1395 29.6646 23.315 29.5016C23.5189 29.7314 23.7211 29.9545 23.9166 30.1826C24.0294 30.3138 23.8556 30.8026 23.6843 30.8118C23.3668 30.8277 23.0484 30.816 22.7334 30.816C22.7242 30.6255 22.7167 30.4826 22.71 30.3381H21.7157V30.7934C21.2528 30.8561 20.8533 30.857 20.5341 30.4375C20.3395 30.181 20.1055 29.9545 19.8715 29.7231C19.783 29.6353 19.6936 29.5468 19.6066 29.4565C19.4128 29.6504 19.239 29.8242 19.0493 30.013C18.9841 30.0782 18.9165 30.1459 18.8454 30.2169C18.9031 30.272 18.9607 30.328 19.0176 30.3832C19.2515 30.6079 19.4847 30.8336 19.7286 31.0675C19.8272 31.1628 19.9284 31.2589 20.0311 31.3583C19.8899 31.4937 19.7512 31.6274 19.615 31.7577C19.3719 31.9908 19.1379 32.2164 18.9139 32.4312C19.0635 32.5925 19.2072 32.747 19.3576 32.9091C19.437 32.9952 19.5189 33.0829 19.6033 33.1749C19.9275 32.8398 20.2726 32.5448 20.5408 32.1914C20.8625 31.7694 21.2611 31.7803 21.7098 31.8413C21.7198 32.0059 21.7282 32.1563 21.7366 32.3025H22.7067C22.7184 32.1379 22.7284 31.9883 22.7401 31.8187C23.0509 31.8187 23.3417 31.8129 23.6317 31.8204C23.823 31.8254 24.0369 32.239 23.9141 32.3786C23.7044 32.6167 23.4737 32.8373 23.2498 33.0671C23.1052 32.9392 22.9983 32.8448 22.9548 32.8064C22.6991 33.0395 22.4644 33.2534 22.2279 33.469C22.3173 33.5676 22.4067 33.667 22.4961 33.7648C22.2362 34.1458 21.9413 34.3915 21.4399 34.3296C21.0439 34.2812 20.6369 34.3205 20.2358 34.3205V35.3248H21.7332V36.8055H22.7225C22.7225 36.366 22.7576 35.9373 22.7125 35.517C22.6615 35.0457 22.8671 34.7516 23.2456 34.5126C23.3626 34.6196 23.4821 34.7282 23.5974 34.8335C23.8389 34.5962 24.0603 34.3781 24.2918 34.1508C24.179 34.023 24.0712 33.9018 23.9851 33.8041C24.2366 33.5459 24.4739 33.3019 24.7179 33.0512C24.8767 33.1197 25.0471 33.1941 25.2051 33.2626V34.3079C25.0363 34.3179 24.8867 34.3271 24.7396 34.3355V35.3048C24.9043 35.3165 25.0538 35.3273 25.1967 35.3374C25.2836 35.8103 25.2385 36.1997 24.8341 36.5189C24.4865 36.7929 24.1957 37.138 23.9233 37.4079C24.1648 37.6711 24.3787 37.9051 24.6436 38.1942C25.0012 37.804 25.3505 37.4221 25.7549 36.981C26.1493 37.3954 26.5103 37.7764 26.8545 38.1382C27.1018 37.9051 27.3275 37.6929 27.5873 37.4489C27.2548 37.1255 26.9598 36.7812 26.6089 36.5105C26.1944 36.1922 26.1802 35.7961 26.2504 35.3315C26.4025 35.324 26.5529 35.3165 26.7041 35.3089V34.3129H26.2253C26.2253 33.9929 26.2011 33.6904 26.2387 33.3955C26.2512 33.2994 26.4117 33.1991 26.5261 33.1473C26.6063 33.1105 26.7559 33.113 26.8169 33.1648C27.045 33.3579 27.2497 33.5785 27.4703 33.7965C27.3542 33.9286 27.2589 34.0355 27.1804 34.1241C27.4169 34.3597 27.6416 34.5837 27.8739 34.8143C27.9709 34.7282 28.0778 34.6338 28.1781 34.5444C28.5566 34.8185 28.8039 35.1168 28.7371 35.6189C28.6853 36.005 28.7271 36.4036 28.7271 36.8013H29.7431V35.3081H31.2071V34.3205C30.7483 34.3205 30.3071 34.282 29.876 34.3305C29.4022 34.3831 29.154 34.1283 28.9151 33.8016C29.0295 33.6762 29.1332 33.5626 29.2117 33.4765C28.9744 33.2367 28.7513 33.0119 28.5207 32.7796C28.4237 32.8682 28.3101 32.9727 28.138 33.1306C27.9324 32.9008 27.7227 32.6835 27.5372 32.4471C27.4921 32.3894 27.4946 32.2532 27.5305 32.1822C27.5982 32.0493 27.6926 31.853 27.8004 31.8354C28.092 31.787 28.3978 31.8187 28.7145 31.8187C28.7237 31.9959 28.7312 32.1463 28.7388 32.2975H29.7348V31.8379C30.1977 31.7819 30.5963 31.7819 30.9163 32.1989C31.1862 32.5507 31.5346 32.8415 31.8505 33.1623C32.102 32.9142 32.3276 32.6919 32.6142 32.4095C32.2206 32.0401 31.8371 31.68 31.4084 31.2781ZM25.724 32.3167C25.1666 32.3159 24.7121 31.8513 24.7254 31.294C24.738 30.7492 25.1934 30.3113 25.7407 30.318C26.2813 30.3247 26.73 30.7834 26.7233 31.3257C26.7175 31.8722 26.2696 32.3167 25.724 32.3167Z" fill="white"/>
<path d="M36.7328 29.9395C36.7328 31.304 36.7353 32.6685 36.7303 34.033C36.7303 34.2193 36.7687 34.3539 36.9175 34.4909C37.9661 35.4568 38.0079 37.0612 37.0244 38.0664C36.0384 39.0741 34.4249 39.0741 33.4398 38.0664C32.4554 37.0587 32.4964 35.4543 33.5467 34.4909C33.6963 34.353 33.7339 34.2185 33.7339 34.033C33.7297 31.314 33.7297 28.5959 33.7322 25.8769C33.733 25.0279 34.3255 24.3686 35.1226 24.3152C35.995 24.2567 36.7236 24.9243 36.7303 25.8142C36.7403 27.1887 36.7328 28.5641 36.7328 29.9395ZM35.7326 30.1893C35.7326 28.8031 35.7326 27.4177 35.7326 26.0314C35.7326 25.9379 35.7418 25.8418 35.7242 25.7507C35.6733 25.4816 35.5078 25.3187 35.2312 25.3195C34.9547 25.3195 34.7884 25.4825 34.7399 25.7524C34.7215 25.8535 34.7324 25.9604 34.7324 26.064C34.7324 28.8357 34.7282 31.6081 34.7374 34.3798C34.7383 34.7023 34.6455 34.9262 34.3714 35.1126C33.8108 35.4944 33.601 36.1671 33.8082 36.7946C34.008 37.3987 34.5945 37.8207 35.2338 37.8207C35.8738 37.8207 36.4579 37.3987 36.6576 36.7938C36.864 36.1671 36.6551 35.4928 36.0944 35.1117C35.8187 34.9246 35.7259 34.7006 35.7284 34.3789C35.7401 32.9827 35.7326 31.5864 35.7326 30.1893Z" fill="white"/>
<path d="M37.748 26.7927V25.8301H38.7098V26.7927H37.748Z" fill="white"/>
<path d="M37.7464 28.7931V27.833H38.7198V28.7931H37.7464Z" fill="white"/>
<path d="M37.7505 29.8317H38.7106V30.7976H37.7505V29.8317Z" fill="white"/>
<path d="M38.7198 31.8354V32.7955H37.7539V31.8354H38.7198Z" fill="white"/>
<path d="M28.6986 18.3081C27.594 18.3081 26.4885 18.309 25.3839 18.3081C24.8909 18.3081 24.7254 18.1435 24.7238 17.6555C24.7221 17.0715 24.7204 16.4882 24.7238 15.9042C24.7263 15.4922 24.9059 15.3084 25.3129 15.3076C27.5848 15.305 29.8576 15.305 32.1296 15.3076C32.5407 15.3076 32.7237 15.4897 32.727 15.8966C32.732 16.4907 32.7303 17.0848 32.727 17.6789C32.7253 18.1302 32.5515 18.3065 32.1053 18.3081C30.9689 18.3106 29.8334 18.3081 28.697 18.3081H28.6986ZM31.7143 16.3286H25.7499V17.2912H31.7143V16.3286Z" fill="white"/>
<path d="M30.2102 14.2915H27.2481V13.3239H30.2102V14.2915Z" fill="white"/>
<path d="M34.7466 36.8013V35.837H35.7084V36.8013H34.7466Z" fill="white"/>
</svg>
