<svg width="51" height="51" viewBox="0 0 51 51" fill="none" xmlns="http://www.w3.org/2000/svg">
<path d="M15.6043 24.1437C16.2008 24.0077 16.7532 24.0508 17.2356 24.3939C17.4702 24.5609 17.6772 24.7833 17.8548 25.0131C18.5009 25.8491 19.1243 26.7014 19.7671 27.5398C19.9081 27.7231 20.0776 27.8926 20.2609 28.0328C21.4717 28.9616 21.9663 30.1577 21.6778 31.6725C21.4269 32.9908 21.378 34.3148 21.6412 35.6397C21.6607 35.7375 21.686 35.8336 21.7112 35.9404C22.359 35.9591 22.8438 36.2084 23.0508 36.848C23.0907 36.9711 23.1045 37.1071 23.1062 37.2367C23.1119 37.8364 23.1135 38.4361 23.1078 39.035C23.1013 39.7618 22.5945 40.3126 21.8758 40.3166C19.6099 40.3297 17.3439 40.3297 15.078 40.3166C14.374 40.3126 13.859 39.7699 13.8444 39.0635C13.8322 38.5045 13.8411 37.9456 13.8419 37.3866C13.8419 36.6305 14.11 36.2443 14.8376 35.9705C14.8376 35.3301 14.6779 34.7206 14.4115 34.134C14.0913 33.43 13.6089 32.8433 13.0728 32.2958C12.5896 31.802 12.0918 31.3221 11.6192 30.8194C11.1246 30.2963 10.8899 29.6778 10.8997 28.9396C10.9233 27.1715 10.9217 25.4034 10.9013 23.6353C10.8916 22.7936 11.1001 22.031 11.541 21.3229C12.1692 20.315 12.7884 19.3006 13.4321 18.3025C13.8379 17.6742 14.431 17.3768 15.1806 17.5227C15.8683 17.6563 16.4468 17.9993 16.5902 18.7343C16.6668 19.1262 16.6285 19.5719 16.5226 19.9614C16.3425 20.6246 16.0965 21.274 15.826 21.9071C15.5163 22.6331 15.6215 23.3786 15.6035 24.1445L15.6043 24.1437ZM20.4206 35.9347C20.2047 34.8045 20.1876 33.7013 20.2959 32.5932C20.3522 32.0171 20.4092 31.441 20.4426 30.8634C20.4817 30.183 20.2405 29.6257 19.7093 29.1718C19.2946 28.8182 18.8937 28.4361 18.5506 28.0148C17.9998 27.3385 17.5012 26.6183 16.9797 25.9184C16.8828 25.788 16.7899 25.6527 16.6766 25.5378C16.4281 25.2861 16.0712 25.251 15.7852 25.436C15.4976 25.6218 15.3884 25.9542 15.5237 26.2915C15.5872 26.4496 15.6736 26.6044 15.7746 26.7413C16.0451 27.1096 16.3368 27.4624 16.6065 27.8315C17.0742 28.4703 17.5427 29.1091 17.9884 29.7634C18.2541 30.1529 18.074 30.6303 17.6454 30.7354C17.3268 30.8137 17.1068 30.6645 16.9227 30.4095C16.3523 29.6192 15.7657 28.8402 15.1961 28.0499C14.9297 27.6799 14.669 27.3035 14.4367 26.9116C14.2135 26.5352 14.1499 26.118 14.2224 25.6772C14.2795 25.3301 14.3178 24.9781 14.3316 24.6277C14.3479 24.222 14.3349 23.8146 14.3227 23.4088C14.3056 22.8124 14.4009 22.2387 14.6062 21.6773C14.8751 20.944 15.1269 20.2042 15.3786 19.4652C15.4838 19.1564 15.3909 18.9258 15.1309 18.7995C14.8694 18.6716 14.6274 18.7433 14.4547 19.0195C13.8387 19.9997 13.2276 20.9823 12.6149 21.9641C12.2955 22.4775 12.1488 23.0307 12.1545 23.641C12.1692 25.4091 12.1675 27.1772 12.1537 28.9453C12.1504 29.3707 12.271 29.7235 12.5635 30.02C13.0345 30.4967 13.516 30.9644 13.9862 31.4419C14.9745 32.4441 15.7347 33.5783 15.9979 34.9903C16.0549 35.2975 16.0859 35.6087 16.1315 35.9355H20.4214L20.4206 35.9347ZM15.1155 39.0407H21.8457V37.2285H15.1147L15.1155 39.0407Z" fill="white"/>
<path d="M36.9504 35.9697C37.7 36.2044 37.9884 36.7266 37.9518 37.4803C37.9273 37.9871 37.9526 38.4964 37.9453 39.0048C37.9338 39.8066 37.4222 40.3191 36.622 40.3199C34.4164 40.324 32.2115 40.324 30.0059 40.3199C29.2237 40.3183 28.7038 39.8106 28.6859 39.0293C28.6729 38.4605 28.6786 37.891 28.6835 37.3223C28.6908 36.496 29.1324 36.0251 29.9586 35.9518C29.9977 35.9485 30.0368 35.9387 30.089 35.9298C30.3122 34.9789 30.3522 34.0191 30.2756 33.0543C30.2275 32.4473 30.155 31.8411 30.0792 31.2365C29.9293 30.0298 30.3041 29.0358 31.2566 28.2682C31.9923 27.6759 32.5741 26.9483 33.1135 26.1799C33.4517 25.6984 33.7922 25.216 34.1662 24.7622C34.6404 24.1861 35.2491 23.9197 36.0069 24.1062C36.0541 24.1177 36.1046 24.1152 36.2456 24.1266C36.1959 23.5326 36.2244 22.9452 36.0834 22.4025C35.8569 21.5315 35.5074 20.6923 35.2279 19.8343C34.9313 18.9241 35.3078 18.0425 36.134 17.6628C36.9879 17.2701 37.9061 17.5553 38.4105 18.3676C39.0257 19.3601 39.6335 20.3574 40.2609 21.3416C40.6479 21.9503 40.8655 22.5997 40.8647 23.3224C40.8614 25.3138 40.8671 27.3043 40.8524 29.2957C40.8476 29.9663 40.5697 30.5154 40.0719 30.9848C39.3997 31.6179 38.747 32.2754 38.1327 32.9639C37.4906 33.6826 37.1052 34.5413 36.9805 35.5069C36.9691 35.5973 36.9593 35.6886 36.9528 35.7798C36.9488 35.8393 36.9528 35.8996 36.9528 35.9697H36.9504ZM35.6671 35.9338C35.6834 35.8108 35.7013 35.7008 35.7111 35.5908C35.8178 34.3026 36.3083 33.166 37.1443 32.1972C37.7334 31.5144 38.3804 30.878 39.0322 30.2539C39.4168 29.8856 39.64 29.4766 39.64 28.9461C39.64 27.1585 39.6343 25.37 39.6408 23.5823C39.6433 22.9411 39.46 22.3715 39.1112 21.8346C38.5205 20.9237 37.9526 19.9972 37.3773 19.0765C37.1785 18.7587 36.952 18.665 36.6725 18.7938C36.398 18.9209 36.3124 19.1604 36.4338 19.5173C36.6269 20.0836 36.8062 20.6564 37.0343 21.2088C37.3676 22.013 37.4914 22.8384 37.4588 23.707C37.4319 24.4118 37.4075 25.1158 37.5753 25.823C37.7244 26.4512 37.37 26.9866 37.018 27.4762C36.2961 28.4825 35.5579 29.4774 34.8221 30.4739C34.6136 30.7566 34.2974 30.8332 34.0155 30.6865C33.7425 30.5448 33.6219 30.2637 33.7368 29.9312C33.8151 29.7039 33.921 29.4741 34.0652 29.2835C34.5736 28.6121 35.1163 27.9659 35.6215 27.2921C35.8626 26.9694 36.0794 26.6207 36.2497 26.2565C36.411 25.9118 36.292 25.6177 36.0036 25.4352C35.7103 25.2502 35.3705 25.2828 35.1179 25.5493C34.9582 25.7179 34.8205 25.9086 34.6885 26.1009C33.8835 27.2766 33.0402 28.4165 31.9378 29.3429C31.409 29.787 31.2346 30.3859 31.3087 31.0711C31.4098 31.9992 31.5361 32.9272 31.5678 33.8577C31.5907 34.5414 31.4798 35.2307 31.4269 35.9338H35.6671ZM36.6799 39.0472V37.2302H29.9497V39.0472H36.6799Z" fill="white"/>
<path d="M35.3982 13.1676C35.1065 18.203 33.6692 22.726 30.529 26.624C29.4209 28.0002 28.0887 29.1172 26.4648 29.862C26.1429 30.0095 25.8618 30.0095 25.5375 29.862C23.7238 29.0382 22.2946 27.7476 21.0944 26.1929C18.9092 23.3632 17.6193 20.1357 16.9512 16.6476C16.5935 14.7825 16.4631 12.9028 16.688 11.0076C16.7222 10.72 16.82 10.4959 17.0979 10.3875C17.3896 10.2734 17.6299 10.3802 17.8458 10.5823C19.0355 11.701 20.4467 12.2094 22.0746 12.097C23.3351 12.0106 24.431 11.5266 25.3672 10.6792C25.861 10.2319 26.116 10.2335 26.6163 10.689C28.6525 12.5443 31.8058 12.5378 33.837 10.6792C33.9756 10.5521 34.1369 10.4193 34.3113 10.368C34.8254 10.2164 35.2067 10.4739 35.254 11.0059C35.3208 11.7539 35.355 12.5044 35.3982 13.1676ZM17.8719 12.2477C17.8621 12.2844 17.8499 12.3129 17.8491 12.3406C17.8434 12.5337 17.8344 12.7268 17.8385 12.9191C17.9061 16.7258 18.9377 20.2669 20.8272 23.5587C21.8644 25.3659 23.1453 26.9825 24.9378 28.0996C26.2008 28.8867 25.8056 28.881 27.0645 28.093C28.7356 27.0468 29.9497 25.5444 30.9551 23.8748C32.7493 20.8943 33.7686 17.6563 34.0611 14.1934C34.1182 13.5131 34.0693 12.8229 34.0693 12.1328C31.299 13.8308 28.6036 13.7339 25.9865 11.837C23.3767 13.7396 20.6862 13.8757 17.8727 12.2469L17.8719 12.2477Z" fill="white"/>
<path d="M25.2271 20.3337C25.7486 19.8066 26.2391 19.3087 26.732 18.8125C27.04 18.5029 27.3456 18.1908 27.6601 17.8877C27.9526 17.6066 28.3323 17.6025 28.5824 17.8641C28.8277 18.1208 28.822 18.4825 28.5433 18.7636C27.599 19.7153 26.6505 20.6629 25.6972 21.6056C25.4031 21.8965 25.0511 21.8941 24.7537 21.6056C24.3023 21.1673 23.8558 20.7224 23.4158 20.2718C23.1314 19.9801 23.1265 19.6021 23.3865 19.3503C23.6488 19.0961 24.0073 19.1107 24.3072 19.4024C24.6054 19.6925 24.8922 19.994 25.2279 20.3346L25.2271 20.3337Z" fill="white"/>
</svg>
