<svg width="51" height="51" viewBox="0 0 51 51" fill="none" xmlns="http://www.w3.org/2000/svg">
<path d="M19.6946 36.4265C19.8953 36.7745 20.1008 37.1217 20.2958 37.4745C20.4828 37.8128 20.4261 38.0466 20.0951 38.2392C18.9533 38.9037 17.809 39.5632 16.6622 40.2195C16.3304 40.4089 16.0925 40.345 15.9007 40.0132C14.1786 37.0367 12.4589 34.0586 10.7408 31.0789C10.5418 30.7333 10.6065 30.4897 10.9488 30.2915C12.0826 29.6327 13.218 28.978 14.3558 28.3257C14.7046 28.1259 14.9304 28.1914 15.1384 28.5394C15.3237 28.8502 15.5026 29.1641 15.6952 29.4968C16.3078 29.1277 16.9018 28.7708 17.4958 28.4123C18.0396 28.0838 18.5964 27.7746 19.124 27.421C19.8232 26.9524 20.5912 26.7016 21.4199 26.6514C23.8825 26.5017 26.2723 26.8254 28.5414 27.8361C28.9339 28.0109 29.3094 28.2448 29.6518 28.5054C30.6391 29.2572 30.8487 30.0786 30.3704 31.2529C30.4635 31.2156 30.5339 31.1946 30.597 31.1606C32.5271 30.1094 34.4572 29.0573 36.3873 28.0037C37.2799 27.5165 38.1984 27.391 39.1436 27.828C40.7427 28.5669 40.9475 30.5326 39.6041 31.4625C38.3862 32.3057 37.1504 33.1279 35.8815 33.8911C33.7734 35.1592 31.6328 36.3747 29.5037 37.6072C28.4945 38.1915 27.4255 38.2571 26.316 37.9487C24.2969 37.3863 22.2753 36.8319 20.2578 36.263C20.0191 36.1959 19.8524 36.2436 19.6954 36.4273L19.6946 36.4265ZM19.1936 35.5598C19.5295 35.3534 19.807 35.1236 20.2214 35.2409C22.3635 35.8495 24.5113 36.4394 26.6567 37.0351C27.4935 37.2673 28.2946 37.1921 29.0505 36.7502C31.5309 35.2992 34.0202 33.8627 36.4868 32.3883C37.3851 31.8517 38.2526 31.2553 39.0918 30.6297C39.6786 30.1927 39.6551 29.4433 39.1113 28.9505C38.739 28.613 38.2818 28.452 37.7978 28.5491C37.4013 28.6284 37.0056 28.7822 36.6479 28.9748C34.5454 30.1094 32.4551 31.2674 30.3558 32.4077C30.1203 32.5355 29.8549 32.6246 29.5935 32.6869C28.7939 32.8779 27.979 32.8512 27.1892 32.6796C25.9599 32.4125 24.7444 32.0832 23.528 31.7627C23.2351 31.6858 23.1161 31.4018 23.2084 31.1371C23.2917 30.8952 23.5459 30.773 23.8259 30.8507C24.0201 30.9041 24.2103 30.972 24.4029 31.0303C25.5714 31.384 26.7481 31.7052 27.9701 31.8096C28.1538 31.825 28.399 31.859 28.518 31.7635C28.8595 31.4884 29.1929 31.1816 29.4527 30.8304C29.795 30.3691 29.7529 29.9079 29.3232 29.5267C28.959 29.203 28.5479 28.8995 28.1053 28.7037C25.9874 27.7649 23.7538 27.4695 21.4547 27.6184C20.8113 27.6597 20.2238 27.8693 19.6703 28.2189C18.6134 28.8866 17.533 29.5178 16.4632 30.1652C16.3709 30.221 16.2819 30.2842 16.184 30.3481C17.1883 32.0872 18.1812 33.8069 19.1928 35.559L19.1936 35.5598ZM19.2551 37.6056C17.6625 34.8468 16.086 32.1172 14.4958 29.3632C13.583 29.8909 12.6879 30.4072 11.7759 30.934C13.3734 33.7009 14.9531 36.4362 16.536 39.1772C17.4537 38.6463 18.3342 38.1373 19.2543 37.6056H19.2551Z" fill="white"/>
<path d="M35.6646 14.5593C35.5788 17.5997 34.8667 20.4192 33.1211 22.9158C32.1718 24.2729 30.9668 25.3379 29.4244 25.9934C29.1913 26.0922 28.9914 26.0873 28.7624 25.9797C27.0783 25.1882 25.5601 24.1855 24.449 22.652C23.5159 21.3636 23.0449 19.8956 22.7746 18.3499C22.4922 16.7338 22.4315 15.1007 22.4048 13.4652C22.3999 13.1601 22.5246 12.9829 22.8046 12.8655C24.7751 12.0393 26.7384 11.1976 28.713 10.3811C28.8935 10.3066 29.1589 10.3058 29.3394 10.3811C31.2946 11.1912 33.24 12.0247 35.1904 12.8461C35.4639 12.961 35.6071 13.1415 35.6144 13.4417C35.6241 13.8253 35.6484 14.2081 35.6646 14.5593ZM23.3759 13.678C23.4131 15.1744 23.4674 16.6545 23.719 18.1209C23.9165 19.2701 24.2232 20.3836 24.801 21.4065C25.7333 23.055 27.1811 24.1143 28.8344 24.9422C29.0497 25.0498 29.2156 25.0385 29.4211 24.9333C30.2668 24.4995 31.0186 23.9411 31.632 23.2185C33.9255 20.518 34.7445 17.3343 34.6652 13.8601C34.6603 13.6513 34.5235 13.6182 34.3876 13.5607C32.6719 12.8324 30.9571 12.1016 29.2358 11.3846C29.1079 11.3312 28.9178 11.3409 28.7875 11.3951C27.6318 11.8701 26.4835 12.3622 25.3327 12.8494C24.6837 13.1237 24.0347 13.3988 23.3751 13.6772L23.3759 13.678Z" fill="white"/>
<path d="M28.7502 19.1341C28.3974 19.1398 28.0972 19.0087 27.8576 18.7562C27.4554 18.3313 27.0597 17.9008 26.668 17.4662C26.4641 17.2396 26.4746 16.9491 26.6745 16.7638C26.876 16.5776 27.1576 16.5849 27.3753 16.8115C27.7387 17.1894 28.0842 17.5844 28.4419 17.968C28.6944 18.2383 28.8037 18.2391 29.0626 17.9785C29.7893 17.2493 30.5128 16.5186 31.2379 15.7886C31.2946 15.7311 31.3488 15.6705 31.4111 15.6195C31.6337 15.4366 31.9088 15.4447 32.0917 15.6365C32.2665 15.8194 32.2778 16.0864 32.0949 16.2936C31.9153 16.4975 31.7162 16.6845 31.5244 16.8779C30.9134 17.4937 30.3 18.1072 29.6906 18.7246C29.43 18.9884 29.1265 19.143 28.7502 19.1349V19.1341Z" fill="white"/>
</svg>
