<svg width="51" height="51" viewBox="0 0 51 51" fill="none" xmlns="http://www.w3.org/2000/svg">
<path d="M14.9875 28.722C15.3346 28.1314 15.6433 27.5496 16.0066 27.004C16.3701 26.4579 16.7878 25.9482 17.2068 25.3891C17.1053 25.227 16.9828 25.0323 16.861 24.837C16.0979 23.6146 15.7707 22.2546 15.6489 20.8425C15.3848 17.7825 16.5945 15.3261 18.8275 13.3226C19.1773 13.0088 19.63 12.8073 20.0418 12.5655C20.3053 12.4109 20.579 12.3848 20.8015 12.638C21.0247 12.892 20.9291 13.1365 20.7767 13.4022C19.9701 14.8075 19.6653 16.3112 20.0064 17.9084C20.2497 19.0484 20.9749 19.8574 21.9459 20.5486C21.8385 19.8301 21.7192 19.1744 21.6473 18.5138C21.5679 17.7825 21.532 17.0467 21.4769 16.3128C21.4553 16.0241 21.5826 15.8263 21.8332 15.6873C24.9915 13.9363 28.1492 12.184 31.3044 10.4276C31.5433 10.2946 31.7584 10.2889 31.9971 10.4217C35.1529 12.178 38.3102 13.9311 41.4681 15.6835C41.7026 15.8136 41.8351 15.9938 41.8326 16.2725C41.8025 19.5711 41.2749 22.7601 39.6745 25.6933C38.0253 28.7154 35.624 30.8935 32.3635 32.0857C31.9039 32.2538 31.4654 32.3009 31.0012 32.1312C30.678 32.013 30.3446 31.9222 30.0398 31.8267C29.8637 32.5295 29.7487 33.251 29.5031 33.9251C28.2093 37.4776 25.7146 39.6973 21.9519 40.2068C15.6031 41.0664 11.158 37.112 10.0068 32.225C9.32121 29.316 9.69502 26.5292 11.151 23.9093C11.5509 23.1897 11.9988 22.4947 12.4569 21.81C12.6856 21.468 13.1418 21.4635 13.3224 21.7864C13.4076 21.939 13.4185 22.1739 13.3758 22.3505C13.0739 23.5998 12.8035 24.8483 12.8923 26.1493C12.9735 27.3425 13.8239 28.4052 14.9875 28.722ZM40.7552 17.4558C40.7552 17.233 40.739 17.0087 40.7598 16.7877C40.7797 16.5763 40.6911 16.4742 40.5133 16.3759C37.6378 14.7846 34.7652 13.1879 31.8961 11.5851C31.7161 11.4845 31.5836 11.4927 31.4089 11.5901C28.5486 13.186 25.6868 14.7792 22.8183 16.3605C22.5895 16.4866 22.5344 16.6266 22.5637 16.8628C22.6763 17.7693 22.7441 18.6827 22.8898 19.5837C23.2733 21.9552 23.9749 24.2233 25.2177 26.2985C26.5469 28.518 28.3687 30.1411 30.8573 30.9743C31.408 31.1586 31.892 31.1499 32.4277 30.9245C35.7164 29.5409 37.9661 27.1404 39.3527 23.8944C40.23 21.8407 40.6133 19.6754 40.7552 17.4558ZM18.009 24.6099C18.5003 24.3404 18.9817 24.066 19.4732 23.8113C19.7191 23.6839 19.9863 23.6281 20.2233 23.8412C20.4615 24.0553 20.4047 24.3138 20.3293 24.5836C20.0307 25.6509 19.8312 26.7355 19.8755 27.8489C19.9216 29.0127 20.0398 30.1716 20.61 31.2146C20.7904 31.5444 21.0613 31.8658 21.3693 32.0761C22.0176 32.519 22.718 32.239 22.9529 31.4916C23.0223 31.2709 23.0601 31.0352 23.0762 30.8039C23.1204 30.1654 23.4955 29.9558 24.0479 30.2895C24.8014 30.7447 25.3092 31.4095 25.6289 32.2209C26.1288 33.4902 26.1102 34.7976 25.8533 36.1066C25.7428 36.6703 25.5397 37.2159 25.38 37.7645C25.4185 37.7386 25.4751 37.7044 25.5274 37.6646C27.539 36.1379 28.6431 34.1047 28.9237 31.6056C28.9478 31.3901 28.8813 31.2913 28.6987 31.193C27.629 30.6169 26.6876 29.8739 25.8699 28.9743C24.3255 27.2757 23.3075 25.2792 22.6453 23.1044C22.4309 22.4004 22.1186 21.9084 21.4736 21.4996C19.4251 20.2008 18.5536 18.2965 18.8565 15.8769C18.9093 15.4552 18.9918 15.0371 19.065 14.5917C16.4539 16.5479 15.9067 22.0058 18.009 24.6099ZM19.068 25.2426C18.3637 25.7345 17.8423 26.2955 17.3807 26.9117C15.4881 29.4383 14.5664 32.1926 15.3037 35.3801C15.7367 37.2517 16.8123 38.4697 18.6462 39.018C19.9718 39.4144 21.2779 39.262 22.5506 38.7988C23.6255 38.4076 24.343 37.626 24.6595 36.5343C24.9764 35.4415 25.0688 34.3185 24.8124 33.1931C24.6852 32.6345 24.462 32.1154 24.0495 31.6731C23.9493 31.8915 23.8691 32.0978 23.7638 32.2904C23.3253 33.0924 22.5218 33.4683 21.6247 33.3116C20.9375 33.1917 20.3733 32.8451 20.0151 32.268C19.6843 31.7348 19.3863 31.1567 19.2071 30.5586C18.6918 28.8398 18.6758 27.0878 19.068 25.2426ZM15.0199 37.6753C14.3609 36.4389 14.1126 35.1121 14.0014 33.7449C13.8895 32.3693 14.112 31.0441 14.5951 29.7534C12.4973 28.8689 11.5944 27.3097 11.7945 25.0823C10.7008 27.2952 10.4907 29.6015 11.0455 31.9688C11.6118 34.3853 12.9398 36.3011 15.0199 37.6753Z" fill="white"/>
<path d="M39.0988 17.8309C38.8575 20.8091 38.1529 23.5322 36.3842 25.8894C35.2295 27.4284 33.7736 28.594 32.0016 29.3601C31.727 29.4787 31.4779 29.4838 31.1966 29.3858C28.9289 28.5954 27.3965 26.9963 26.2897 24.9329C25.2274 22.9525 24.6723 20.814 24.3568 18.6041C24.3206 18.3504 24.3001 18.0943 24.2668 17.8401C24.2309 17.5643 24.333 17.3636 24.5756 17.2288C26.8265 15.9789 29.0737 14.7221 31.3345 13.4903C31.5048 13.3976 31.815 13.4014 31.9866 13.4951C34.247 14.7278 36.4932 15.9865 38.7459 17.2336C39.0304 17.3911 39.1349 17.6165 39.0988 17.8309ZM37.9995 18.1374C37.9529 18.093 37.8756 17.9827 37.7695 17.9233C35.8044 16.8256 33.834 15.7369 31.871 14.6356C31.6944 14.5365 31.5751 14.5645 31.4177 14.6524C29.6857 15.6192 27.95 16.5795 26.2167 17.5438C25.9351 17.7005 25.537 17.8074 25.4165 18.049C25.2965 18.2898 25.4437 18.6733 25.4974 18.9903C25.8495 21.0689 26.4129 23.0782 27.5043 24.9049C28.4083 26.4181 29.5984 27.6148 31.2728 28.2738C31.4926 28.3603 31.666 28.3449 31.8693 28.2482C33.1688 27.6294 34.2796 26.7681 35.1977 25.6621C36.9844 23.5102 37.7185 20.9601 37.9995 18.1374Z" fill="white"/>
<path d="M31.0893 20.8371C32.0364 19.8876 32.9172 19.0039 33.7989 18.121C34.2207 17.6987 34.4431 17.6984 34.8642 18.118C35.3221 18.5744 35.7815 19.0295 36.235 19.4901C36.5611 19.8211 36.5635 20.0852 36.2366 20.413C34.6858 21.9681 33.133 23.521 31.578 25.0716C31.2498 25.3988 30.9855 25.3963 30.6559 25.0688C29.8179 24.2357 28.9825 23.4 28.1493 22.5622C27.818 22.2289 27.8148 21.9687 28.1375 21.6409C28.6147 21.1565 29.0958 20.6758 29.5793 20.1978C29.92 19.8611 30.1785 19.863 30.5242 20.2109C30.7116 20.3994 30.8816 20.6053 31.0893 20.8371ZM29.2895 22.0556C29.9221 22.6866 30.549 23.3119 31.1301 23.8913C32.4346 22.5884 33.7722 21.2524 35.06 19.9664C34.8222 19.7146 34.5594 19.4364 34.2853 19.1462C33.396 20.0373 32.4999 20.9378 31.6006 21.8348C31.2422 22.1922 30.9928 22.1892 30.6311 21.8302C30.4431 21.6436 30.2617 21.4502 30.0926 21.2757C29.7922 21.5675 29.5232 21.8284 29.2895 22.0556Z" fill="white"/>
</svg>
