<svg width="592" height="405" viewBox="0 0 592 405" fill="none" xmlns="http://www.w3.org/2000/svg">
<g clip-path="url(#clip0_166_683)">
<path d="M299.285 0.0359959C353.254 0.989654 436.755 21.5085 460.789 74.2375C469.183 92.6537 468.615 119.728 467.478 173.877C467.144 189.792 466.589 212.99 462.699 241.773C454.618 301.564 449.117 342.268 428.296 365.969C376.126 425.356 187.673 423.64 107.198 316.723C63.2999 258.401 56.5473 175.432 96.687 106.863C140.882 31.3707 227.033 -1.24037 299.285 0.0359959Z" fill="#F4F7FA"/>
<path d="M131.433 305.238C149.845 309.813 183.16 268.93 176.284 242.524C174.022 233.834 168.78 231.99 166.754 220.761C163.619 203.385 173.964 195.576 173.844 182.331C173.601 155.685 131.183 126.76 115.61 135.593C103.915 142.226 103.002 172.626 112.586 193.793C119.848 209.831 130.787 215.38 129.529 228.373C128.451 239.505 119.863 241.194 115.322 253.336C107.986 272.948 117.925 301.882 131.433 305.238Z" fill="url(#paint0_linear_166_683)"/>
<g style="mix-blend-mode:soft-light" opacity="0.5">
<path d="M132.041 298.362C131.893 298.33 131.747 298.273 131.61 298.191C130.963 297.797 130.759 296.954 131.153 296.307C177.651 220.011 143.407 172.845 143.049 172.39C142.58 171.796 142.681 170.935 143.276 170.466C143.871 169.997 144.732 170.098 145.201 170.693C145.298 170.816 155.013 183.695 157.644 207.44C159.036 220.005 158.166 233.226 155.06 246.735C151.234 263.373 143.979 280.533 133.494 297.735C133.183 298.244 132.594 298.48 132.041 298.363V298.362Z" fill="white"/>
</g>
<path d="M168.773 385.55C176.572 383.519 169.039 361.519 180.814 325.812C187.834 304.523 195.436 297.411 192.329 282.973C190.21 273.126 183.167 260.124 172.055 256.959C163.062 254.398 158.21 260.218 152.525 256.717C144.693 251.896 150.188 238.559 145.072 223.568C139.091 206.038 119.792 189.749 106.204 192.753C88.4123 196.686 76.4627 234.569 88.2545 255.21C96.2851 269.264 112.72 270.765 113.459 282.763C114.1 293.15 102.009 295.709 101.242 306.917C100.388 319.387 114.751 325.065 135.049 346.473C158.155 370.842 162.111 387.286 168.771 385.552L168.773 385.55Z" fill="url(#paint1_linear_166_683)"/>
<g style="mix-blend-mode:soft-light" opacity="0.5">
<path d="M167.886 383.621C167.477 383.485 167.139 383.159 167.006 382.716C166.916 382.418 157.862 352.353 146.661 303.526C135.171 253.446 119.569 234.494 118.968 233.821C118.418 233.439 118.217 232.701 118.526 232.085C118.863 231.407 119.686 231.131 120.364 231.471C121.481 232.028 126.068 238.378 131.233 249.043C136.208 259.314 143.386 276.996 149.332 302.916C160.513 351.652 169.54 381.628 169.629 381.925C169.849 382.65 169.438 383.414 168.713 383.634C168.433 383.719 168.145 383.709 167.884 383.622L167.886 383.621ZM119.135 233.921C119.135 233.921 119.136 233.921 119.138 233.922C119.136 233.922 119.135 233.922 119.135 233.921Z" fill="white"/>
</g>
<path d="M376.738 369.617C376.738 373.249 373.98 376.336 370.57 376.513L153.833 387.77C149.854 387.977 146.621 384.954 146.621 381.017V59.4813C146.621 55.5451 149.854 52.551 153.833 52.7941L156.737 52.6393L370.569 66.0165C373.979 66.2249 376.737 69.3363 376.737 72.9686V369.617H376.738Z" fill="#97A6B7"/>
<path d="M381.007 369.469C381.007 373.101 378.249 376.188 374.839 376.365L158.102 387.622C154.122 387.829 150.889 384.806 150.889 380.87V59.332C150.889 55.3958 154.122 52.4017 158.102 52.6448L374.839 65.8672C378.249 66.0756 381.007 69.1869 381.007 72.8192V369.469Z" fill="#D8DEE8"/>
<g style="mix-blend-mode:multiply">
<path d="M214.331 82.874C208.944 89.7999 208.174 102.882 217.409 108.268C237.418 120.58 263.584 116.734 282.823 103.65C296.984 93.739 290.953 75.3634 286.901 60.5014L244.275 57.9009C240.608 68.1523 221.086 73.8656 214.331 82.8725V82.874Z" fill="#D8DEE8"/>
</g>
<path d="M370.814 356.598C370.814 359.814 368.364 362.535 365.334 362.676L169.089 371.861C165.606 372.025 162.776 369.353 162.776 365.895V90.6639C162.776 87.2053 165.606 84.544 169.089 84.7206L365.334 94.6074C368.363 94.7593 370.814 97.4901 370.814 100.706V356.6V356.598Z" fill="white"/>
<path d="M317.012 85.8536C316.72 84.1662 315.403 82.9738 313.733 82.8841L303.405 82.3298C298.738 82.0795 295.363 78.1881 295.583 73.2968L296.095 61.9658C296.19 59.8718 294.744 58.1917 292.734 58.0658L289.399 57.8589C286.862 57.7011 285.127 55.4306 285.528 52.7867C286.236 48.1096 283.16 44.0735 278.646 43.7711C274.118 43.4686 269.859 47.0358 269.147 51.7404C268.953 53.0182 268.277 54.2121 267.267 55.0601C266.255 55.9096 264.992 56.3423 263.753 56.2656L260.349 56.0543C258.29 55.927 256.317 57.416 255.772 59.5129L252.815 70.8671C251.537 75.7758 246.903 79.2937 242.047 79.0333L231.181 78.4501C229.408 78.3546 227.654 79.4182 226.816 81.0998L219.017 96.7476L219.687 97.6043L319.72 101.496L317.011 85.855L317.012 85.8536ZM277.173 53.516C275.846 53.4321 274.939 52.2484 275.147 50.8721C275.355 49.4959 276.6 48.4511 277.927 48.5365C279.253 48.6233 280.157 49.807 279.949 51.1804C279.741 52.5537 278.499 53.6 277.173 53.516Z" fill="url(#paint2_linear_166_683)"/>
<path d="M317.681 86.7104C317.389 85.023 316.072 83.8306 314.402 83.7409L304.075 83.1866C299.407 82.9363 296.031 79.0449 296.253 74.1522L296.765 62.8212C296.859 60.7272 295.413 59.0471 293.403 58.9212L290.069 58.7142C287.532 58.5565 285.796 56.2859 286.197 53.642C286.905 48.9649 283.83 44.9289 279.316 44.6264C274.788 44.324 270.528 47.8911 269.816 52.5958C269.622 53.8736 268.947 55.0675 267.936 55.9155C266.925 56.7649 265.661 57.1976 264.423 57.1209L261.019 56.9096C258.959 56.7823 256.987 58.2714 256.441 60.3683L253.485 71.7225C252.207 76.6311 247.574 80.1491 242.716 79.8886L231.85 79.3054C230.077 79.2099 228.323 80.2735 227.486 81.9551L219.687 97.6029L320.389 102.351L317.68 86.7104H317.681ZM277.843 54.3728C276.516 54.2889 275.608 53.1051 275.817 51.7289C276.025 50.3527 277.27 49.3079 278.597 49.3933C279.922 49.4801 280.827 50.6638 280.618 52.0372C280.41 53.4105 279.168 54.4568 277.843 54.3728Z" fill="#97A6B7"/>
<g style="mix-blend-mode:multiply" opacity="0.3">
<path d="M314.403 83.7408L304.075 83.1865C300.977 83.0201 298.454 81.243 297.169 78.6396C287.599 80.6425 277.516 78.5499 267.433 80.5658C260.507 82.1055 261.277 92.878 253.581 93.6478C242.541 95.1398 231.619 95.244 220.813 95.3497L219.69 97.6043L320.393 102.352L317.683 86.7117C317.391 85.0244 316.074 83.8319 314.404 83.7422L314.403 83.7408Z" fill="#97A6B7"/>
</g>
<path d="M356.414 138.942L180.841 134.68V111.678L356.414 117.149V138.942Z" fill="#D8DEE8"/>
<path d="M356.414 210.99L180.841 210.725V152.048L356.414 155.397V210.99ZM184.128 207.45L353.129 207.87V158.453L184.128 155.398V207.45Z" fill="#D8DEE8"/>
<path d="M221.683 208.848H217.927V154.154L221.683 154.216V208.848Z" fill="#D8DEE8"/>
<path d="M354.535 176.278L219.804 174.592V171.344L354.535 173.163V176.278Z" fill="#D8DEE8"/>
<path d="M354.535 193.187L219.804 192.222V188.975L354.535 190.073V193.187Z" fill="#D8DEE8"/>
<path d="M320.266 210.48L316.51 210.476V155.987L320.266 156.047V210.48Z" fill="#D8DEE8"/>
<path d="M356.414 315.503L180.841 321.038V262.361L356.414 259.911V315.504V315.503ZM184.128 317.648L353.129 312.489V263.072L184.128 265.596V317.648Z" fill="#D8DEE8"/>
<path d="M221.683 317.891L217.927 318.012V263.238L221.683 263.178V317.891Z" fill="#D8DEE8"/>
<path d="M354.535 280.851L219.804 283.62V280.372L354.535 277.737V280.851Z" fill="#D8DEE8"/>
<path d="M354.535 297.763L219.804 301.249V298.001L354.535 294.647V297.763Z" fill="#D8DEE8"/>
<path d="M320.266 316.199L316.51 316.303V261.813L320.266 261.765V316.199Z" fill="#D8DEE8"/>
<path d="M356.414 229.668L180.841 230.441V222.93L356.414 222.552V229.668Z" fill="#D8DEE8"/>
<path d="M356.414 246.569L180.841 248.278V240.767L356.414 239.453V246.569Z" fill="#D8DEE8"/>
<path d="M356.414 334.182L180.841 340.754V333.243L356.414 327.067V334.182Z" fill="#D8DEE8"/>
<path d="M283.732 21.4086C282.147 21.4086 280.862 22.6936 280.862 24.2782V254.981H286.601V24.2768C286.601 22.6922 285.316 21.4071 283.732 21.4071V21.4086Z" fill="url(#paint3_linear_166_683)"/>
<path d="M283.731 34.9263C269.429 34.9263 257.366 76.1941 253.626 132.561C274.572 125.961 294.606 126.237 313.838 132.561C310.097 76.1941 298.034 34.9263 283.731 34.9263Z" fill="url(#paint4_linear_166_683)"/>
<path d="M283.731 34.9263C223.079 34.9263 172.118 76.4169 157.685 132.561C171.227 127.37 183.893 127.498 195.744 132.561C206.676 76.1941 241.929 34.9263 283.733 34.9263H283.731Z" fill="url(#paint5_linear_166_683)"/>
<path d="M283.731 34.9263C241.927 34.9263 206.676 76.1941 195.742 132.561C215.596 126.732 234.883 126.8 253.625 132.561C257.366 76.1941 269.427 34.9263 283.73 34.9263H283.731Z" fill="url(#paint6_linear_166_683)"/>
<path d="M283.732 34.9263C344.384 34.9263 395.345 76.4169 409.778 132.561C396.236 127.37 383.571 127.498 371.719 132.561C360.787 76.1941 325.535 34.9263 283.73 34.9263H283.732Z" fill="url(#paint7_linear_166_683)"/>
<path d="M283.732 34.9263C325.536 34.9263 360.787 76.1941 371.721 132.561C351.867 126.732 332.58 126.8 313.838 132.561C310.097 76.1941 298.036 34.9263 283.733 34.9263H283.732Z" fill="url(#paint8_linear_166_683)"/>
<path d="M267.945 282.688H261.685C250.496 282.688 241.391 273.584 241.391 262.395V254.981C241.391 252.492 243.409 250.475 245.898 250.475C248.387 250.475 250.404 252.492 250.404 254.981V262.395C250.404 268.614 255.465 273.675 261.685 273.675H267.945C274.165 273.675 279.226 268.614 279.226 262.395V231.614C279.226 229.125 281.243 227.108 283.732 227.108C286.221 227.108 288.239 229.125 288.239 231.614V262.395C288.239 273.584 279.134 282.688 267.945 282.688Z" fill="url(#paint9_linear_166_683)"/>
<path d="M160.346 152.323C157.376 152.409 154.479 151.66 151.969 150.157C144.324 145.574 133.028 138.007 122.864 128.1C109.968 115.529 102.559 102.75 100.938 90.2038L100.912 90.007L100.598 36.4661C100.598 25.8847 107.499 17.296 120.458 11.6522C131.164 6.98953 145.354 4.67846 160.344 5.1126C175.161 5.54095 188.87 8.59874 199.018 13.6926C211.081 19.7474 217.411 28.2565 217.411 38.3459L217.124 89.5048L217.101 89.6929C215.619 101.708 208.803 114.129 196.753 126.689C187.089 136.762 176.168 144.746 168.667 149.692C166.185 151.329 163.31 152.241 160.346 152.326V152.323Z" fill="url(#paint10_linear_166_683)"/>
<path d="M219.598 38.3429L219.316 89.5033L219.292 89.6885C217.828 101.704 211.102 114.128 199.21 126.686C190.165 136.243 180.004 143.92 172.662 148.902C172.266 149.168 171.878 149.43 171.496 149.686C169.047 151.326 166.206 152.235 163.286 152.32C160.355 152.406 157.494 151.656 155.021 150.154C147.474 145.574 136.327 138.007 126.303 128.098C113.577 115.53 106.262 102.749 104.662 90.2008L104.638 90.0054L104.331 36.4674C104.331 25.8846 111.139 17.2973 123.925 11.6521C132.271 7.97203 142.754 5.75503 154.077 5.20223C157.093 5.05172 160.176 5.02133 163.289 5.11106C177.91 5.54375 191.44 8.60009 201.45 13.6925C213.357 19.7459 219.601 28.2579 219.601 38.3429H219.598Z" fill="url(#paint11_linear_166_683)"/>
<path d="M107.864 36.505L108.176 89.7753C111.683 116.955 143.627 138.96 157.539 147.322C161.525 149.717 166.62 149.575 170.577 146.972C184.2 138.008 214.394 115.443 217.62 89.3107L217.907 38.2937C217.907 0.442549 107.862 -3.01754 107.862 36.5065L107.864 36.505Z" fill="url(#paint12_linear_166_683)"/>
<path d="M164.076 139.109C163.822 139.115 163.435 139.073 163.046 138.836C157.318 135.367 146.213 128.101 136.552 118.612C126.118 108.362 120.099 98.3973 118.719 89.0388L118.413 36.6512C118.426 31.6254 122.404 27.323 130.204 23.8803C138.912 20.0368 151.279 18.0209 164.076 18.3248C176.747 18.6258 188.751 21.1756 197.068 25.3029C204.426 28.9525 208.145 33.2563 208.157 38.1085L207.872 88.6828C206.584 97.7389 200.935 107.503 191.018 117.767C181.693 127.418 170.8 135.068 165.107 138.787C164.718 139.041 164.331 139.102 164.076 139.108V139.109Z" fill="url(#paint13_linear_166_683)"/>
<path d="M162.768 135.529C156.983 131.966 146.695 125.087 137.72 116.253C127.913 106.603 122.239 97.3423 120.905 88.7739L120.601 36.6903C120.609 33.0956 123.913 29.7991 130.395 26.9294C138.644 23.2768 150.462 21.3522 162.768 21.6286C174.955 21.9021 186.443 24.3086 194.336 28.2144C200.469 31.2491 203.572 34.5587 203.581 38.0636L203.296 88.4512C202.044 96.7649 196.69 105.857 187.331 115.527C178.641 124.504 168.526 131.723 162.768 135.528V135.529Z" fill="url(#paint14_linear_166_683)"/>
<path d="M171.477 45.4757H152.371V100.276H171.477V45.4757Z" fill="white"/>
<path d="M185.554 62.067H138.293V79.6641H185.554V62.067Z" fill="white"/>
<g style="mix-blend-mode:soft-light" opacity="0.2">
<path d="M172.663 148.904C172.267 149.17 171.879 149.432 171.497 149.688C169.048 151.328 166.207 152.236 163.287 152.322C160.356 152.407 157.495 151.658 155.022 150.155C147.475 145.575 136.328 138.008 126.304 128.1C113.578 115.531 106.263 102.75 104.663 90.2023L104.639 90.0069L104.332 36.469C104.332 25.8861 111.14 17.2988 123.926 11.6536C132.272 7.97354 142.755 5.75654 154.078 5.20374C154.737 6.18923 155.446 7.26445 156.175 8.41636C158 11.3019 159.982 14.6549 161.861 18.306C162.424 19.3972 162.983 20.5129 163.52 21.6547C168.578 32.3186 172.284 44.8363 169.131 55.1991C163.414 73.9814 151.287 108.15 163.449 135.082C163.998 136.303 164.6 137.51 165.254 138.697C166.796 141.513 168.642 144.228 170.814 146.821C171.407 147.525 172.021 148.219 172.663 148.908V148.904Z" fill="white"/>
</g>
<path d="M416.258 395.83C415.86 395.847 415.48 395.856 415.116 395.856C400.696 395.856 364.332 398.643 353.59 367.421C343.72 338.748 380.519 294.78 386.585 287.805C387.123 287.184 387.42 286.857 387.42 286.857C387.42 286.857 385.818 285.678 418.254 284.429C455.505 312.995 461.391 335.611 461.391 335.611C473.241 381.948 431.712 395.196 416.26 395.83H416.258Z" fill="url(#paint15_linear_166_683)"/>
<path style="mix-blend-mode:multiply" opacity="0.3" d="M416.258 395.83C415.86 395.847 415.48 395.856 415.116 395.856C400.696 395.856 364.332 398.643 353.59 367.421C343.72 338.748 380.519 294.78 386.585 287.805C388.13 287.564 389.619 287.638 391.036 288.078C391.577 288.248 315.522 385.561 416.26 395.83H416.258Z" fill="url(#paint16_linear_166_683)"/>
<path d="M381.251 262.359C381.251 262.359 387.301 252.072 395.841 255.861C404.381 259.651 411.261 262.493 415.767 259.786C420.274 257.078 422.633 254.933 423.885 260.878C425.137 266.823 408.057 281.442 408.057 281.442C408.057 281.442 381.962 281.442 381.25 262.357L381.251 262.359Z" fill="url(#paint17_linear_166_683)"/>
<path style="mix-blend-mode:multiply" opacity="0.2" d="M381.251 266.872C381.251 266.872 387.301 256.586 395.841 260.375C404.381 264.165 411.261 267.007 415.767 264.299C420.274 261.592 422.633 259.447 423.885 265.392C425.137 271.337 408.057 285.955 408.057 285.955C408.057 285.955 381.962 285.955 381.25 266.871L381.251 266.872Z" fill="url(#paint18_linear_166_683)"/>
<path d="M425.169 276.954C422.75 280.55 419.926 283.633 417.441 284.903C414.324 286.494 408.773 287.459 403.244 287.863C397.713 288.264 392.201 288.103 389.177 287.443L389.172 287.44C388.422 287.277 387.826 287.081 387.42 286.858C387.42 286.858 377.646 271.339 377.506 264.099C377.458 261.8 378.383 260.337 380.896 260.467C391.337 261.005 391.573 266.827 398.69 265.204C405.807 263.578 411.024 252.751 415.77 259.791C420.514 266.829 425.614 256.813 429.885 260.062C432.64 262.157 429.576 270.407 425.171 276.957L425.169 276.954Z" fill="url(#paint19_linear_166_683)"/>
<path d="M386.846 285.925C386.846 285.925 406.058 291.431 418.62 284.183C419.702 285.55 420.264 285.99 420.264 285.99C420.264 285.99 411.035 294.417 386.071 288.4C386.071 288.4 386.677 286.615 386.845 285.925H386.846Z" fill="url(#paint20_linear_166_683)"/>
<path style="mix-blend-mode:multiply" opacity="0.2" d="M425.169 276.954C422.749 280.55 419.926 283.633 417.441 284.903C414.323 286.494 408.772 287.459 403.244 287.863L389.177 287.443L389.171 287.44C388.421 287.277 387.825 287.081 387.42 286.858C387.42 286.858 377.645 271.339 377.505 264.099C377.624 263.972 381.466 259.913 386.071 268.614C390.754 277.452 392.446 285.155 397.992 281.445C403.54 277.733 412.095 263.162 413.601 270.024C415.105 276.886 409.556 283.489 413.601 282.398C416.755 281.546 422.83 276.836 425.169 276.954Z" fill="url(#paint21_linear_166_683)"/>
<g opacity="0.9">
<path d="M411.614 310.151C412.798 310.109 413.793 310.926 413.837 311.975L413.989 315.568C416.361 315.513 418.741 315.588 421.124 315.789C422.88 315.938 424.626 316.157 426.363 316.445C427.404 316.617 428.147 317.446 428.092 318.404L427.825 322.993C427.754 324.216 426.445 325.093 425.155 324.75C423.998 324.443 422.816 324.204 421.606 324.032C419.495 323.734 417.276 323.643 414.947 323.763L414.338 323.795L414.784 334.292C421.082 335.042 425.744 336.54 428.819 338.787C431.883 341.024 433.517 344.108 433.731 348.06C433.964 352.355 432.524 356.037 429.388 359.112C426.215 362.222 421.633 364.371 415.602 365.548L415.781 369.796C415.829 370.928 414.874 371.954 413.643 372.086L413.604 372.09C412.371 372.222 411.334 371.405 411.289 370.267L411.124 366.067L410.135 366.165C407.274 366.451 404.523 366.572 401.883 366.529C399.927 366.497 398.011 366.368 396.137 366.145C395.002 366.009 394.202 365.152 394.274 364.102L394.713 357.824C394.807 356.474 396.276 355.497 397.702 355.804C399.364 356.161 401.041 356.423 402.736 356.591C405.373 356.853 408.034 356.888 410.716 356.697L410.282 344.671C404.169 344.133 399.548 342.747 396.468 340.512C393.377 338.269 391.77 335.103 391.657 331.033C391.542 326.845 393.077 323.427 396.239 320.785C399.37 318.168 403.863 316.517 409.684 315.815L409.538 312.135C409.496 311.08 410.426 310.192 411.614 310.15V310.151ZM410.018 324.228C408.176 324.576 406.75 325.203 405.745 326.112C404.736 327.023 404.254 328.141 404.302 329.462C404.347 330.717 404.866 331.706 405.86 332.427C406.853 333.148 408.368 333.631 410.4 333.876L410.017 324.228H410.018ZM414.738 345.043L415.202 356.05C417.241 355.774 418.784 355.121 419.833 354.093C420.878 353.069 421.363 351.761 421.289 350.166C421.222 348.716 420.665 347.581 419.618 346.762C418.568 345.942 416.945 345.369 414.739 345.045L414.738 345.043Z" fill="url(#paint22_linear_166_683)"/>
</g>
<path d="M462.783 227.334C462.783 240.071 452.822 250.091 440.09 249.7C426.841 249.294 415.698 237.851 415.698 224.159C415.698 210.466 426.841 200.527 440.09 201.906C452.822 203.232 462.783 214.595 462.783 227.332V227.334Z" fill="url(#paint23_linear_166_683)"/>
<path d="M466.223 226.237C466.223 238.974 456.262 248.994 443.53 248.603C430.281 248.197 419.138 236.754 419.138 223.062C419.138 209.369 430.281 199.43 443.53 200.809C456.262 202.135 466.223 213.498 466.223 226.235V226.237Z" fill="url(#paint24_linear_166_683)"/>
<path d="M465.222 226.169C465.222 238.346 455.691 247.909 443.53 247.515C430.896 247.106 420.289 236.187 420.289 223.14C420.289 210.092 430.897 200.604 443.53 201.899C455.692 203.145 465.222 213.992 465.222 226.17V226.169Z" fill="url(#paint25_linear_166_683)"/>
<path d="M464.508 226.121C464.508 237.896 455.286 247.132 443.531 246.738C431.335 246.329 421.109 235.782 421.109 223.196C421.109 210.611 431.335 201.443 443.531 202.677C455.285 203.867 464.508 214.347 464.508 226.122V226.121Z" fill="url(#paint26_linear_166_683)"/>
<path d="M443.409 206.682C444.035 206.741 444.541 207.304 444.541 207.939V210.107C445.792 210.246 447.045 210.464 448.298 210.758C449.223 210.975 450.142 211.234 451.054 211.534C451.601 211.713 451.973 212.266 451.918 212.835L451.651 215.554C451.58 216.275 450.867 216.699 450.197 216.399C449.596 216.131 448.98 215.901 448.347 215.71C447.244 215.377 446.082 215.159 444.86 215.059L444.54 215.033V221.241C447.803 222.154 450.2 223.382 451.748 224.927C453.289 226.464 454.058 228.38 454.058 230.681C454.058 233.168 453.208 235.16 451.504 236.662C449.79 238.173 447.388 239.021 444.279 239.206V241.599C444.279 242.235 443.773 242.73 443.146 242.705H443.126C442.499 242.679 441.99 242.142 441.99 241.504V239.144L441.486 239.12C440.03 239.055 438.634 238.906 437.301 238.675C436.314 238.503 435.35 238.281 434.409 238.009C433.84 237.844 433.45 237.303 433.502 236.721L433.814 233.226C433.882 232.471 434.641 232.031 435.36 232.315C436.198 232.645 437.045 232.924 437.903 233.15C439.24 233.503 440.596 233.728 441.969 233.828L441.99 226.921C438.858 226.146 436.512 224.998 434.972 223.478C433.424 221.95 432.648 219.995 432.648 217.619C432.648 215.243 433.49 213.26 435.168 211.927C436.838 210.602 439.21 209.942 442.272 209.943V207.726C442.272 207.09 442.781 206.621 443.408 206.68L443.409 206.682ZM442.273 214.969C441.305 215.04 440.551 215.305 440.01 215.767C439.469 216.23 439.198 216.851 439.198 217.631C439.198 218.37 439.448 218.987 439.949 219.483C440.448 219.978 441.224 220.373 442.273 220.668V214.969ZM444.281 227.475V233.81C445.333 233.811 446.14 233.561 446.703 233.057C447.266 232.553 447.547 231.843 447.547 230.925C447.547 230.087 447.286 229.393 446.764 228.842C446.24 228.289 445.414 227.834 444.282 227.477L444.281 227.475Z" fill="url(#paint27_linear_166_683)"/>
<path style="mix-blend-mode:multiply" opacity="0.3" d="M439.734 229.004C440.444 222.004 446.876 219.042 446.037 212.602C445.519 208.634 442.512 205.289 439.157 202.677C428.979 203.745 421.109 212.172 421.109 223.193C421.109 235.779 431.335 246.326 443.531 246.735C444.714 246.774 445.871 246.714 446.995 246.566C442.151 241.747 439.125 235.015 439.734 229.002V229.004Z" fill="url(#paint28_linear_166_683)"/>
<path d="M450.108 162.534C450.108 177.091 438.726 188.542 424.177 188.095C409.036 187.63 396.302 174.554 396.302 158.906C396.302 143.258 409.036 131.9 424.177 133.476C438.726 134.991 450.108 147.976 450.108 162.533V162.534Z" fill="url(#paint29_linear_166_683)"/>
<path d="M454.039 161.278C454.039 175.835 442.655 187.286 428.108 186.839C412.967 186.374 400.233 173.298 400.233 157.65C400.233 142.002 412.967 130.644 428.108 132.22C442.656 133.735 454.039 146.72 454.039 161.276V161.278Z" fill="url(#paint30_linear_166_683)"/>
<path d="M452.896 161.201C452.896 175.117 442.004 186.046 428.107 185.595C413.669 185.128 401.547 172.649 401.547 157.74C401.547 142.83 413.669 131.987 428.107 133.466C442.006 134.89 452.896 147.286 452.896 161.201Z" fill="url(#paint31_linear_166_683)"/>
<path d="M452.078 161.146C452.078 174.603 441.54 185.157 428.107 184.707C414.17 184.239 402.484 172.186 402.484 157.803C402.484 143.42 414.17 132.943 428.107 134.354C441.54 135.714 452.078 147.689 452.078 161.146Z" fill="url(#paint32_linear_166_683)"/>
<path d="M427.969 138.931C428.684 138.999 429.263 139.643 429.263 140.368V142.846C430.692 143.005 432.124 143.254 433.556 143.591C434.613 143.84 435.664 144.135 436.706 144.478C437.331 144.684 437.756 145.315 437.693 145.964L437.389 149.071C437.308 149.896 436.493 150.38 435.726 150.038C435.038 149.731 434.335 149.469 433.613 149.251C432.354 148.87 431.025 148.621 429.627 148.506L429.261 148.475V155.57C432.991 156.614 435.729 158.017 437.499 159.783C439.26 161.54 440.137 163.729 440.137 166.357C440.137 169.199 439.167 171.476 437.219 173.192C435.261 174.919 432.514 175.888 428.964 176.098V178.833C428.964 179.559 428.386 180.125 427.671 180.096H427.647C426.931 180.067 426.348 179.452 426.348 178.724V176.027L425.772 176.001C424.108 175.926 422.513 175.756 420.989 175.492C419.86 175.295 418.759 175.042 417.683 174.732C417.034 174.544 416.586 173.924 416.647 173.26L417.005 169.266C417.081 168.402 417.95 167.9 418.77 168.224C419.727 168.602 420.697 168.92 421.676 169.178C423.205 169.58 424.753 169.839 426.323 169.953L426.346 162.061C422.767 161.175 420.087 159.864 418.326 158.126C416.558 156.381 415.669 154.146 415.669 151.43C415.669 148.714 416.631 146.449 418.549 144.927C420.456 143.412 423.168 142.658 426.668 142.659V140.127C426.668 139.399 427.25 138.863 427.966 138.931H427.969ZM426.671 148.403C425.565 148.484 424.702 148.788 424.084 149.314C423.466 149.843 423.157 150.553 423.157 151.445C423.157 152.288 423.443 152.995 424.015 153.562C424.587 154.128 425.472 154.579 426.671 154.916V148.403ZM428.964 162.695V169.933C430.167 169.936 431.089 169.648 431.733 169.072C432.376 168.498 432.697 167.686 432.697 166.635C432.697 165.679 432.399 164.884 431.801 164.253C431.203 163.621 430.258 163.101 428.964 162.695Z" fill="url(#paint33_linear_166_683)"/>
<path style="mix-blend-mode:multiply" opacity="0.3" d="M423.768 164.441C424.578 156.443 431.93 153.057 430.971 145.698C430.379 141.163 426.942 137.341 423.108 134.357C411.477 135.577 402.484 145.206 402.484 157.802C402.484 172.185 414.17 184.238 428.107 184.705C429.46 184.75 430.781 184.681 432.066 184.512C426.532 179.004 423.073 171.312 423.768 164.44V164.441Z" fill="url(#paint34_linear_166_683)"/>
<path d="M325.727 211.444C326.227 207.686 326.505 205.365 325.052 203.524C321.803 199.407 311.713 199.987 305.841 204.873C301.499 208.485 303.046 211.469 299.036 214.557C293.269 218.998 287.989 214.117 279.551 217.344C272.882 219.894 265.368 226.448 264.384 235.375C263.864 240.089 264.96 247.323 269.945 250.969C276.927 256.076 286.97 250.813 288.493 253.978C290.099 257.318 278.85 263.024 280.021 269.737C280.853 274.507 287.519 277.296 291.347 278.177C300.528 280.29 311.599 275.618 317.3 267.561C323.499 258.797 316.965 255.049 322.524 233.352C323.117 231.037 323.987 224.506 325.727 211.446V211.444Z" fill="url(#paint35_linear_166_683)"/>
<path d="M335.731 391.396C335.731 391.396 334.929 393.18 334.751 394.772C334.607 396.056 335.53 397.213 336.814 397.361C339.955 397.721 345.627 398.303 349.053 398.245C353.4 398.173 343.466 392.901 341.063 391.658C340.73 391.486 340.362 391.397 339.989 391.397H335.734L335.731 391.396Z" fill="url(#paint36_linear_166_683)"/>
<path d="M337.014 385.586C336.554 385.78 336.353 392.011 336.353 392.011C336.353 392.011 338.381 393.212 339.721 392.435L342.386 384.663L337.016 385.586H337.014Z" fill="url(#paint37_linear_166_683)"/>
<path d="M280.123 384.049C278.828 384.786 278.253 386.351 278.77 387.749C279.573 389.921 280.864 392.992 282.255 394.607C283.752 396.348 286.399 396.361 288.061 396.16C288.761 396.075 289.117 395.273 288.716 394.693C287.909 393.522 286.728 391.755 286.174 390.642C285.287 388.859 283.2 382.298 283.2 382.298L280.121 384.05L280.123 384.049Z" fill="url(#paint38_linear_166_683)"/>
<path d="M285.41 377.815L282.116 383.03C281.812 383.511 281.893 384.14 282.309 384.529C282.77 384.961 283.488 384.955 283.941 384.516L289.079 379.553L285.409 377.816L285.41 377.815Z" fill="url(#paint39_linear_166_683)"/>
<path d="M345.37 277.889C357.098 283.557 355.05 310.031 353.202 333.912C352.035 348.984 349.406 367.419 343.705 388.179C340.711 388.29 337.717 388.4 334.722 388.512C333.714 383.087 332.595 375.012 332.727 365.223C332.932 349.907 336.06 341.069 337.219 332.951C338.832 321.652 337.579 305.124 324.243 282.879C335.798 275.468 342.047 276.281 345.371 277.888L345.37 277.889Z" fill="url(#paint40_linear_166_683)"/>
<path style="mix-blend-mode:multiply" opacity="0.3" d="M337.717 360.565C340.782 348.735 345.613 344.907 346.035 332.119C346.464 319.129 341.763 314.438 343.041 302.84C343.931 294.767 347.194 288.112 350.584 283.077C349.264 280.725 347.556 278.944 345.371 277.888C342.047 276.281 335.799 275.468 324.243 282.879C337.579 305.123 338.832 321.65 337.219 332.949C336.06 341.068 332.934 349.904 332.727 365.222C332.595 375.01 333.715 383.085 334.722 388.51C335.41 388.484 336.097 388.46 336.785 388.434C334.848 376.618 335.942 367.41 337.717 360.563V360.565Z" fill="url(#paint41_linear_166_683)"/>
<path d="M313.429 278.721C312.916 285.094 312.254 293.035 311.433 302.176C309.547 323.173 308.966 326.705 307.107 331.453C303.53 340.597 300.059 341.884 293.632 352.913C287.589 363.283 284.487 372.732 282.819 379.029C284.705 380.582 286.59 382.134 288.475 383.687C297.569 375.748 309.508 363.458 319.781 345.972C334.719 320.548 338.89 296.466 340.212 282.38C331.284 281.16 322.357 279.94 313.429 278.72V278.721Z" fill="url(#paint42_linear_166_683)"/>
<path d="M313.71 226.869C309.717 230.085 309.716 236.134 309.716 242.284C309.716 248.883 311.079 252.108 311.939 256.961C312.402 259.576 314.683 273.759 308.873 285.592C303.318 296.907 295.154 296.315 291.424 308.156C289.618 313.891 289.215 321.387 292.021 322.834C295.167 324.456 299.076 316.791 309.396 313.29C318.484 310.208 319.234 314.869 329.265 312.216C339.734 309.45 340.366 303.988 355.05 298.904C358.009 297.88 359.16 297.694 360.105 296.376C363.882 291.116 353.536 282.951 348.704 266.755C344.009 251.014 349.297 243.696 341.567 234.7C337.656 230.147 332.978 228.153 331.288 227.454C328.56 226.326 319.195 222.452 313.711 226.869H313.71Z" fill="url(#paint43_linear_166_683)"/>
<g style="mix-blend-mode:multiply" opacity="0.3">
<path d="M348.704 266.755C344.009 251.014 349.297 243.696 341.568 234.699C337.656 230.147 332.978 228.153 331.288 227.454C329.214 226.596 323.305 224.156 318.181 224.973C320.263 227.679 322.488 230.81 324.715 234.362C331.103 244.552 334.297 249.647 334.826 255.932C335.936 269.117 325.977 273.643 328.76 284.916C330.693 292.745 336.211 293.462 337.185 299.409C337.676 302.405 336.915 306.133 333.463 310.768C340.255 307.787 342.612 303.211 355.048 298.904C358.008 297.88 359.158 297.694 360.103 296.376C363.881 291.116 353.535 282.951 348.702 266.755H348.704Z" fill="url(#paint44_linear_166_683)"/>
</g>
<path d="M322.075 214.81C322.075 214.81 321.104 222.571 318.24 224.35C315.374 226.127 316.948 227.885 316.437 228.516C315.927 229.145 324.897 233.022 333.944 228.457L337.716 225.804C334.738 225.816 330.916 225.603 329.402 224.74C328.372 224.154 326.712 223.008 325.189 220.845L325.223 216.547L322.074 214.809L322.075 214.81Z" fill="url(#paint45_linear_166_683)"/>
<path d="M321.182 218.196C321.182 218.196 324.627 221.273 328.469 218.853C331.909 216.687 327.604 207.525 324.405 207.064C323.339 206.91 321.56 207.463 320.509 208.48C319.771 209.197 318.104 212.515 320.093 215.403C319.091 215.334 318.314 215.761 318.207 216.272C318.071 216.921 319.043 217.555 319.263 217.699C320.027 218.196 320.822 218.211 321.182 218.193V218.196Z" fill="url(#paint46_linear_166_683)"/>
<path d="M347.879 185.294C347.879 185.294 347.205 184.164 345.183 181.581C343.161 178.997 341.026 179.785 342.824 183.099C344.621 186.412 347.005 185.509 347.879 185.296V185.294Z" fill="url(#paint47_linear_166_683)"/>
<path d="M390.804 177.412C390.804 177.412 392.547 172.932 393.642 170.91C394.736 168.888 396.534 176.613 390.804 177.412Z" fill="url(#paint48_linear_166_683)"/>
<path d="M394.62 191.481C394.62 191.481 392.854 189.601 394.395 189.268C395.937 188.935 399.011 190.876 399.352 191.481C399.694 192.086 394.62 191.481 394.62 191.481Z" fill="url(#paint49_linear_166_683)"/>
<path d="M394.033 193.367L394.462 191.345C394.55 190.931 395.023 190.734 395.379 190.963L395.456 191.012C395.628 191.124 395.734 191.315 395.734 191.52V193.798L394.033 193.368V193.367Z" fill="url(#paint50_linear_166_683)"/>
<path d="M401.984 198.352C401.984 198.352 400.218 196.472 401.76 196.139C403.301 195.806 406.375 197.747 406.716 198.352C407.057 198.958 401.984 198.352 401.984 198.352Z" fill="url(#paint51_linear_166_683)"/>
<path d="M401.398 200.239L401.827 198.217C401.915 197.804 402.388 197.607 402.744 197.834L402.821 197.883C402.993 197.995 403.099 198.186 403.099 198.391V200.669L401.398 200.239Z" fill="url(#paint52_linear_166_683)"/>
<path d="M378.835 202.282C378.835 202.282 382.69 202.08 384.881 202.602C387.072 203.125 389.595 202.706 391.341 199.847C393.088 196.987 393.406 192.783 393.406 192.783L396.061 193.068C396.061 193.068 396.792 197.675 396.566 200.427C396.341 203.179 394.861 209.696 386.613 210.314C378.366 210.932 378.836 202.281 378.836 202.281L378.835 202.282Z" fill="url(#paint53_linear_166_683)"/>
<path d="M380.779 205.871C380.779 205.871 384.037 205.64 386.959 206.46C389.879 207.281 394.771 207.835 396.882 205.959C398.994 204.084 400.969 199.555 400.969 199.555L403.586 199.847C403.586 199.847 404.097 206.606 401.398 211.438C398.699 216.269 390.512 221.25 381.179 215.726C371.847 210.202 380.778 205.871 380.778 205.871H380.779Z" fill="url(#paint54_linear_166_683)"/>
<path d="M346.795 184.308C346.029 184.973 345.772 185.937 345.672 186.61C346.721 187.912 348.925 190.281 352.526 191.834C357.218 193.859 361.445 193.274 363.086 192.957C362.879 195.808 362.928 200.899 365.558 206.214C367.943 211.035 373.701 218.568 378.647 217.224C381.157 216.542 383.44 213.576 383.647 210.82C383.856 208.013 381.813 206.748 382.58 204.304C383.346 201.866 385.982 201.2 385.67 200.148C385.391 199.206 383.314 199.854 380.558 198.407C379.827 198.023 377.861 196.844 376.57 194.532C376.172 193.82 375.937 193.174 375.796 192.711C377.392 192.64 382.078 192.226 386.401 188.691C391.629 184.413 392.609 178.61 392.805 177.233C392.321 176.765 391.836 176.296 391.353 175.829C389.699 178.021 386.76 181.358 382.178 184.124C379.906 185.496 373.712 189.234 365.897 188.804C356.183 188.27 349.893 181.622 346.798 184.31L346.795 184.308Z" fill="url(#paint55_linear_166_683)"/>
<path d="M369.826 183.229L371.224 187.733L373.309 188.025C373.309 188.025 368.066 191.62 364.62 188.694L366.681 187.902L366.624 184.364L369.827 183.229H369.826Z" fill="url(#paint56_linear_166_683)"/>
<path d="M359.377 180.905C358.772 179.979 358.021 180.256 357.481 179.39C356.802 178.305 357.147 176.531 358.037 175.467C358.908 174.425 359.659 174.829 362.072 173.81C364.664 172.716 364.775 171.836 367.018 171.269C367.604 171.121 368.7 170.855 370.102 171.021C371.221 171.155 373.438 171.419 374.435 173.194C375.525 175.133 374.329 177.403 374.212 177.617C375.874 179.704 375.992 180.83 375.671 181.48C375.671 181.48 375.328 182.169 372.578 183.26C372.578 183.26 372.199 184.538 371.882 185.043C371.52 185.617 370.6 186.205 368.037 186.066C367.81 185.622 367.464 184.996 366.978 184.292C366.063 182.969 365.606 182.308 365.147 182.335C363.989 182.406 364.09 186.512 362.611 186.814C361.661 187.008 360.273 185.585 359.824 184.163C359.374 182.74 360.066 181.957 359.378 180.905H359.377Z" fill="url(#paint57_linear_166_683)"/>
<path d="M369.592 184.84C369.592 184.84 368.422 188.226 364.745 188.783C361.451 189.281 359.385 182.104 361.121 180.105C361.7 179.438 363.04 178.921 364.236 178.991C364.942 179.031 365.229 179.258 366.383 179.303C367.449 179.344 367.709 179.17 368.069 179.36C368.521 179.597 368.971 180.322 368.8 182.59C369.282 181.827 369.974 181.423 370.554 181.558C370.647 181.58 370.903 181.682 371.078 181.885C371.713 182.617 371.187 183.846 369.59 184.84H369.592Z" fill="url(#paint58_linear_166_683)"/>
<path d="M371.628 205.277C371.677 205.042 372.076 202.501 371.652 200.513C371.228 198.524 370.665 195.601 371.845 197.737C373.026 199.873 373.885 201.236 375.815 199.375C377.744 197.514 377.407 195.426 377.968 195.571C378.53 195.715 380.103 199.269 377.968 201.537C375.833 203.805 373.354 206.164 373.354 206.164L371.626 205.275L371.628 205.277Z" fill="url(#paint59_linear_166_683)"/>
<path d="M314.604 229.982C314.238 234.393 319.212 238.01 320.18 238.715C329.472 245.476 349.379 240.68 361.791 229.307C370.255 221.552 373.842 212.017 375.441 205.547C373.894 205.025 372.349 204.504 370.803 203.981C364.266 215.058 357.309 219.056 352.354 220.713C339.185 225.115 324.851 218.079 317.3 225.147C316.588 225.813 314.809 227.525 314.604 229.982Z" fill="url(#paint60_linear_166_683)"/>
<path d="M253.171 394.575C253.171 394.575 243.988 397.768 242.994 398.526C241.998 399.284 251.541 399.171 254.634 399.171C257.726 399.171 256.787 395.212 256.787 395.212C256.787 395.212 256.567 394.064 253.171 394.574V394.575Z" fill="url(#paint61_linear_166_683)"/>
<path d="M252.852 391.066L253.406 394.41C253.512 395.044 254.059 395.509 254.702 395.509C255.353 395.509 255.906 395.031 256.001 394.387L256.415 391.583L252.852 391.066Z" fill="url(#paint62_linear_166_683)"/>
<path d="M207.878 390.057C207.878 390.057 195.709 396.222 195.733 396.612C195.758 397.001 207.716 396.228 209.331 395.039C210.947 393.849 211.051 389.266 207.878 390.057Z" fill="url(#paint63_linear_166_683)"/>
<path d="M211.313 387.146L209.089 391.68C208.885 392.096 208.455 392.353 207.992 392.335C207.271 392.308 206.747 391.643 206.886 390.937L207.876 385.923L211.312 387.146H211.313Z" fill="url(#paint64_linear_166_683)"/>
<path d="M231.99 299.589C226.411 311.352 220.685 325.445 215.848 341.705C211.012 357.964 208.097 372.921 206.336 385.885C206.172 387.087 207.013 388.192 208.213 388.361C208.9 388.458 209.589 388.554 210.277 388.651C211.004 388.754 211.737 388.489 212.224 387.939C215.672 384.056 219.792 378.271 221.989 370.508C224.044 363.244 222.524 360.925 224.458 354.209C227.1 345.031 231.5 343.93 239.079 332.444C244.655 323.995 252.974 311.384 248.722 304.49C248.008 303.334 244.805 298.875 231.99 299.587V299.589Z" fill="url(#paint65_linear_166_683)"/>
<path d="M245.817 310.645C248.59 324.08 250.896 339.618 251.884 356.93C252.557 368.695 252.492 380.262 252.029 390.373C251.968 391.701 252.935 392.852 254.255 393.021C254.577 393.063 254.9 393.105 255.227 393.144C256.249 393.266 257.249 392.766 257.751 391.869C260.236 387.432 263.075 380.618 263.457 373.22C263.693 368.656 262.932 366.866 262.896 361.536C262.842 353.749 264.413 349.675 266.562 340.385C270.44 323.625 272.379 315.247 269.3 311.543C268.168 310.182 263.418 305.509 245.819 310.645H245.817Z" fill="url(#paint66_linear_166_683)"/>
<path style="mix-blend-mode:multiply" opacity="0.3" d="M248.722 304.492C248.203 303.649 246.357 301.056 240.443 299.985C241.354 312.713 238.33 320.885 235.007 326.21C229.761 334.618 223.793 335.935 219.811 346.023C216.616 354.119 218.616 357.946 217.219 369.987C216.736 374.156 215.813 379.576 213.905 385.946C216.931 382.169 220.141 377.042 221.989 370.508C224.044 363.244 222.525 360.925 224.458 354.209C227.101 345.031 231.5 343.93 239.079 332.444C244.656 323.994 252.974 311.384 248.722 304.49V304.492Z" fill="url(#paint67_linear_166_683)"/>
<path d="M222.224 227.293C227.803 221.936 236.77 222.901 250.491 224.379C264.106 225.844 274.911 227.008 281.507 235.019C292.842 248.786 284.418 273.867 282.555 279.413C279.114 289.657 275.457 292.394 275.04 302.014C274.557 313.161 279.057 318.966 275.364 323.228C272.736 326.259 269.633 324.274 256.846 326.549C245.827 328.51 245.87 330.385 240.087 329.968C237.572 329.787 232.642 327.9 222.786 324.126C218.178 322.362 216.493 321.6 215.82 319.857C214.439 316.286 218.683 312.145 220.988 308.623C226.22 300.634 223.871 292.185 221.706 276.728C217.677 247.973 215.661 233.594 222.224 227.293Z" fill="url(#paint68_linear_166_683)"/>
<path d="M218.067 192.235C210.793 196.546 207.125 204.728 208.831 212.007C210.968 221.13 221.259 227.608 231.999 225.04C236.47 239.463 231.131 253.063 222.283 257.032C210.947 262.114 196.457 250.214 191.595 238.961C185.506 224.872 191.896 205.758 208.405 193.361C211.625 192.986 214.847 192.611 218.067 192.238V192.235Z" fill="url(#paint69_linear_166_683)"/>
<path style="mix-blend-mode:multiply" opacity="0.3" d="M282.556 279.413C284.419 273.867 292.843 248.786 281.508 235.019C276.801 229.3 269.947 227.072 261.459 225.732C277.034 235.147 280.663 241.417 279.862 245.711C278.299 254.078 260.369 252.528 252.897 266.831C249.173 273.96 249.839 281.595 251.1 296.04C252.354 310.428 255.098 312.623 254.246 320.532C254.024 322.581 253.574 324.879 252.736 327.382C253.915 327.11 255.265 326.831 256.849 326.549C269.637 324.274 272.741 326.259 275.368 323.228C279.061 318.966 274.56 313.161 275.044 302.014C275.461 292.395 279.118 289.658 282.559 279.413H282.556Z" fill="url(#paint70_linear_166_683)"/>
<path d="M258.276 213.739C257.945 216.516 258.044 218.761 258.201 220.309C258.38 222.083 258.597 222.564 258.897 222.968C259.348 223.575 260.073 224.128 264.356 225.654C266.69 226.486 267 226.507 267.03 226.73C267.172 227.814 260.257 230.594 253.642 228.902C249.607 227.871 246.125 225.287 246.475 224.199C246.829 223.104 250.843 224.205 252.285 222.319C253.288 221.007 252.558 218.881 251.617 217.082C252.91 215.354 256.979 215.472 258.276 213.741V213.739Z" fill="url(#paint71_linear_166_683)"/>
<path d="M237.464 214.385C245.272 214.589 250.152 223.082 251.621 228.371C254.018 237.003 250.062 246.933 241.728 253.804C240.531 253.415 239.336 253.027 238.139 252.638C239.355 250.725 242.512 245.184 241.677 237.977C240.201 225.228 227.65 219.547 227.016 219.272C228.217 218.021 232.149 214.246 237.464 214.385Z" fill="url(#paint72_linear_166_683)"/>
<path d="M220.082 221.646C219.458 226.451 224.768 230.645 226.774 232.229C231.647 236.079 234.011 234.614 235.441 237.348C237.816 241.889 232.156 247.58 235.369 254.136C235.632 254.674 235.89 255.084 236.043 255.315C236.885 255.653 237.728 255.99 238.571 256.327C240.338 254.038 243.179 249.729 244.475 243.64C245.077 240.811 246.401 234.139 243.291 226.668C239.802 218.286 232.998 214.337 230.82 213.187C225.002 214.239 220.596 217.694 220.083 221.646H220.082Z" fill="url(#paint73_linear_166_683)"/>
<path d="M264.692 161.463C264.692 161.463 266.041 159.057 265.534 156.591C265.029 154.123 263.85 150.332 263.933 149.236C264.017 148.141 265.955 151.09 267.051 153.028C268.146 154.966 269.242 157.073 268.4 157.999C267.557 158.925 266.314 162.886 266.314 162.886L264.692 161.463Z" fill="url(#paint74_linear_166_683)"/>
<path d="M175.459 174.513C175.459 174.513 173.268 171.48 173.184 169.036C173.1 166.593 172.846 160.442 172.088 160.104C171.33 159.767 170.488 165.666 169.729 166.929C168.971 168.192 170.305 170.87 171.155 172.059C172.004 173.249 173.184 175.945 173.184 175.945L175.459 174.512V174.513Z" fill="url(#paint75_linear_166_683)"/>
<path d="M225.861 186.011C230.383 184.315 236.01 182.205 236.388 178.638C236.663 176.049 233.881 175.442 231.032 170.079C227.994 164.362 229.699 162.311 226.911 159.168C223.247 155.038 216.159 153.908 214.148 156.181C212.826 157.678 214.451 159.808 213.248 160.983C211.053 163.132 204.885 156.747 196.992 157.54C192.122 158.029 186.712 161.239 186.537 164.528C186.267 169.587 198.465 173.14 197.608 176.542C197.077 178.651 192.175 178.147 191.786 180.024C191.271 182.507 199.053 187.228 207.108 188.603C215.235 189.99 221.561 187.619 225.858 186.008L225.861 186.011Z" fill="url(#paint76_linear_166_683)"/>
<path d="M175.599 173.586C178.793 177.036 184.243 181.953 192.227 185.044C206.937 190.74 220.419 186.429 229.14 183.642C246.856 177.978 258.401 167.121 264.32 160.521C265.68 161.132 267.041 161.741 268.401 162.352C266.796 168.301 263.55 176.334 256.268 181.9C248.386 187.923 239.953 187.866 239.191 192.685C238.674 195.951 242.325 197.369 247.055 206.841C249.655 212.049 250.956 214.654 249.977 216.502C247.845 220.519 239.318 215.871 229.079 220.547C222.29 223.646 220.245 228.335 217.284 227.214C215.092 226.383 214.491 222.753 213.351 215.603C211.856 206.232 213 204.154 210.935 201.897C207.806 198.478 203.763 201.706 195.643 199.288C187.897 196.982 182.94 191.488 179.179 187.274C175.133 182.742 172.638 178.331 171.157 175.264C172.639 174.706 174.121 174.146 175.602 173.587L175.599 173.586Z" fill="url(#paint77_linear_166_683)"/>
<path style="mix-blend-mode:multiply" opacity="0.3" d="M221.887 219.254C219.489 214.414 224.589 209.852 222.14 203.245C220.674 199.293 217.072 196.131 213.442 194.767C205.886 191.931 201.069 197.961 194.081 194.566C191.459 193.293 192.775 192.753 187.762 188.837C181.553 183.986 178.303 183.852 174.687 179.625C173.621 178.377 172.609 176.868 171.752 175.039C171.553 175.114 171.353 175.189 171.155 175.264C172.637 178.331 175.132 182.742 179.177 187.274C182.938 191.488 187.895 196.983 195.64 199.288C203.76 201.706 207.802 198.476 210.933 201.897C212.998 204.153 211.853 206.232 213.348 215.603C214.489 222.753 215.089 226.383 217.282 227.213C219.617 228.099 221.385 225.368 225.357 222.655C223.45 221.603 222.444 220.379 221.887 219.254Z" fill="url(#paint78_linear_166_683)"/>
<path d="M219.197 180.351L218.735 183.862C218.654 184.48 218.228 184.999 217.638 185.199L210.079 187.766C210.079 187.766 217.935 189.847 223.451 188.161C228.967 186.477 229.981 183.367 229.981 183.367L225.262 183.769C224.406 183.842 223.639 183.243 223.505 182.395L223.052 179.541C222.933 178.797 222.133 178.377 221.454 178.703L219.828 179.483C219.485 179.648 219.247 179.973 219.198 180.351H219.197Z" fill="url(#paint79_linear_166_683)"/>
<path d="M218.374 180.221C218.374 180.221 219.464 184.545 223.846 184.688C227.768 184.817 229.283 175.162 226.975 173.062C226.205 172.362 224.483 171.841 223.093 172.088C222.115 172.262 218.986 174.013 219.014 177.399C218.251 176.801 217.399 176.722 217.035 177.073C216.575 177.519 217.009 178.552 217.108 178.787C217.448 179.599 218.076 180.04 218.374 180.221Z" fill="url(#paint80_linear_166_683)"/>
<path d="M251.079 212.917C250.682 211.299 251.491 209.097 253.066 208.146C254.42 207.327 255.882 207.734 256.756 207.977C259.295 208.683 261.934 211.011 262.072 213.801C262.153 215.456 259.641 217.781 259.221 218.212C258.746 218.7 258.227 218.719 257.645 218.994C256.839 219.376 255.57 219.989 253.484 221.03C253.564 220.5 253.632 219.83 253.62 219.069C253.616 218.777 253.585 217.628 253.277 216.558C252.659 214.415 251.455 214.453 251.079 212.917Z" fill="url(#paint81_linear_166_683)"/>
<path d="M256.079 220.506C256.079 220.506 253.396 222.594 250.315 221.052C247.562 219.674 249.802 212.813 252.173 212.145C252.964 211.922 254.251 212.227 255.119 212.925C255.633 213.337 255.729 213.673 256.581 214.331C257.368 214.939 257.658 214.939 257.831 215.285C258.047 215.719 258.005 216.542 256.672 218.272C257.444 217.92 258.182 217.969 258.554 218.39C258.613 218.458 258.753 218.678 258.779 218.936C258.873 219.868 257.82 220.57 256.08 220.506H256.079Z" fill="url(#paint82_linear_166_683)"/>
<path d="M258.118 214.938C257.939 214.988 258.144 215.7 257.874 216.474C257.35 217.978 255.225 219.16 253.716 218.706C252.824 218.438 252.805 217.797 251.454 217.05C250.617 216.589 249.843 216.402 249.344 216.317C248.258 217.749 248.035 219.536 248.763 220.714C249.548 221.984 251.154 222.085 251.826 222.127C252.276 222.156 253.716 222.248 254.863 221.301C256.06 220.312 255.687 219.26 256.821 218.728C257.395 218.458 257.994 218.489 258.84 217.858C259.07 217.687 259.243 217.522 259.354 217.409C258.945 216.286 258.376 214.864 258.117 214.938H258.118Z" fill="url(#paint83_linear_166_683)"/>
<path d="M250.136 217.346C250.136 217.346 250.614 217.937 251.696 218.315C251.748 218.334 251.799 218.373 251.795 218.403C251.777 218.519 250.91 218.71 250.359 218.264C249.968 217.948 249.799 217.361 249.903 217.273C249.948 217.237 250.045 217.285 250.136 217.344V217.346Z" fill="url(#paint84_linear_166_683)"/>
<path d="M219.478 229.435L218.071 223.368C218.071 223.368 215.064 218.704 213.083 214.935C211.101 211.165 212.11 220.775 213.437 223.368C214.766 225.962 217.141 230.047 217.141 230.047L219.478 229.435Z" fill="url(#paint85_linear_166_683)"/>
<path d="M217.141 230.047C218.161 229.426 219.182 228.805 220.202 228.184C226.5 241.825 232.859 245.463 237.56 246.216C242.302 246.974 249.324 244.148 263.175 238.463C272.191 234.763 274.475 233.33 277.669 234.419C284.005 236.581 288.216 246.729 286.128 254.66C283.072 266.27 267.433 269.61 262.981 270.561C259.99 271.199 239.366 275.604 225.769 260.713C214.491 248.362 216.782 232.3 217.141 230.045V230.047Z" fill="url(#paint86_linear_166_683)"/>
</g>
<defs>
<linearGradient id="paint0_linear_166_683" x1="94.0734" y1="212.389" x2="182.06" y2="230.948" gradientUnits="userSpaceOnUse">
<stop stop-color="#6165D7"/>
<stop offset="1" stop-color="#AA80F9"/>
</linearGradient>
<linearGradient id="paint1_linear_166_683" x1="143.085" y1="214.501" x2="122.593" y2="413.989" gradientUnits="userSpaceOnUse">
<stop stop-color="#FF9085"/>
<stop offset="1" stop-color="#FB6FBB"/>
</linearGradient>
<linearGradient id="paint2_linear_166_683" x1="219.019" y1="72.6239" x2="319.721" y2="72.6239" gradientUnits="userSpaceOnUse">
<stop stop-color="#444B8C"/>
<stop offset="1" stop-color="#26264F"/>
</linearGradient>
<linearGradient id="paint3_linear_166_683" x1="320.816" y1="123.48" x2="260.365" y2="148.239" gradientUnits="userSpaceOnUse">
<stop stop-color="#311944"/>
<stop offset="1" stop-color="#A03976"/>
</linearGradient>
<linearGradient id="paint4_linear_166_683" x1="287.384" y1="101.263" x2="305.909" y2="-37.4362" gradientUnits="userSpaceOnUse">
<stop stop-color="#FFC444"/>
<stop offset="1" stop-color="#F36F56"/>
</linearGradient>
<linearGradient id="paint5_linear_166_683" x1="184.748" y1="77.3518" x2="229.814" y2="85.3639" gradientUnits="userSpaceOnUse">
<stop stop-color="#FFC444"/>
<stop offset="1" stop-color="#F36F56"/>
</linearGradient>
<linearGradient id="paint6_linear_166_683" x1="214.799" y1="111.653" x2="307.435" y2="53.565" gradientUnits="userSpaceOnUse">
<stop stop-color="#FFC444"/>
<stop offset="1" stop-color="#F36F56"/>
</linearGradient>
<linearGradient id="paint7_linear_166_683" x1="379.777" y1="70.2217" x2="327.2" y2="91.7556" gradientUnits="userSpaceOnUse">
<stop stop-color="#FFC444"/>
<stop offset="1" stop-color="#F36F56"/>
</linearGradient>
<linearGradient id="paint8_linear_166_683" x1="360.066" y1="138.172" x2="226.375" y2="-24.0688" gradientUnits="userSpaceOnUse">
<stop stop-color="#FFC444"/>
<stop offset="1" stop-color="#F36F56"/>
</linearGradient>
<linearGradient id="paint9_linear_166_683" x1="296.868" y1="219.131" x2="236.032" y2="299.249" gradientUnits="userSpaceOnUse">
<stop stop-color="#311944"/>
<stop offset="1" stop-color="#A03976"/>
</linearGradient>
<linearGradient id="paint10_linear_166_683" x1="227.524" y1="1.01722" x2="193.858" y2="33.3769" gradientUnits="userSpaceOnUse">
<stop stop-color="#FF9085"/>
<stop offset="1" stop-color="#FB6FBB"/>
</linearGradient>
<linearGradient id="paint11_linear_166_683" x1="135.704" y1="107.529" x2="78.189" y2="203.391" gradientUnits="userSpaceOnUse">
<stop stop-color="#FF9085"/>
<stop offset="1" stop-color="#FB6FBB"/>
</linearGradient>
<linearGradient id="paint12_linear_166_683" x1="188.143" y1="114.958" x2="95.2046" y2="-71.931" gradientUnits="userSpaceOnUse">
<stop stop-color="#FF9085"/>
<stop offset="1" stop-color="#FB6FBB"/>
</linearGradient>
<linearGradient id="paint13_linear_166_683" x1="118.413" y1="78.7034" x2="208.157" y2="78.7034" gradientUnits="userSpaceOnUse">
<stop stop-color="#311944"/>
<stop offset="1" stop-color="#893976"/>
</linearGradient>
<linearGradient id="paint14_linear_166_683" x1="120.602" y1="78.5659" x2="203.581" y2="78.5659" gradientUnits="userSpaceOnUse">
<stop stop-color="#FF9085"/>
<stop offset="1" stop-color="#FB6FBB"/>
</linearGradient>
<linearGradient id="paint15_linear_166_683" x1="351.918" y1="340.173" x2="463.488" y2="340.173" gradientUnits="userSpaceOnUse">
<stop stop-color="#6165D7"/>
<stop offset="1" stop-color="#AA80F9"/>
</linearGradient>
<linearGradient id="paint16_linear_166_683" x1="351.918" y1="341.794" x2="416.258" y2="341.794" gradientUnits="userSpaceOnUse">
<stop stop-color="#6165D7"/>
<stop offset="1" stop-color="#AA80F9"/>
</linearGradient>
<linearGradient id="paint17_linear_166_683" x1="403.025" y1="260.71" x2="390.966" y2="304.752" gradientUnits="userSpaceOnUse">
<stop stop-color="#6165D7"/>
<stop offset="1" stop-color="#AA80F9"/>
</linearGradient>
<linearGradient id="paint18_linear_166_683" x1="403.025" y1="265.222" x2="390.966" y2="309.266" gradientUnits="userSpaceOnUse">
<stop stop-color="#6165D7"/>
<stop offset="1" stop-color="#AA80F9"/>
</linearGradient>
<linearGradient id="paint19_linear_166_683" x1="377.503" y1="272.756" x2="430.931" y2="272.756" gradientUnits="userSpaceOnUse">
<stop stop-color="#6165D7"/>
<stop offset="1" stop-color="#AA80F9"/>
</linearGradient>
<linearGradient id="paint20_linear_166_683" x1="386.072" y1="287.374" x2="420.264" y2="287.374" gradientUnits="userSpaceOnUse">
<stop stop-color="#444B8C"/>
<stop offset="1" stop-color="#26264F"/>
</linearGradient>
<linearGradient id="paint21_linear_166_683" x1="377.503" y1="275.452" x2="425.169" y2="275.452" gradientUnits="userSpaceOnUse">
<stop stop-color="#6165D7"/>
<stop offset="1" stop-color="#AA80F9"/>
</linearGradient>
<linearGradient id="paint22_linear_166_683" x1="403.156" y1="311.201" x2="420.154" y2="374.911" gradientUnits="userSpaceOnUse">
<stop stop-color="#EBEFF2"/>
<stop offset="1" stop-color="white"/>
</linearGradient>
<linearGradient id="paint23_linear_166_683" x1="431.171" y1="228.331" x2="403.712" y2="237.143" gradientUnits="userSpaceOnUse">
<stop stop-color="#FCB148"/>
<stop offset="0.05" stop-color="#FDB946"/>
<stop offset="0.14" stop-color="#FEC144"/>
<stop offset="0.32" stop-color="#FFC444"/>
<stop offset="0.48" stop-color="#FDB946"/>
<stop offset="0.78" stop-color="#F99C4C"/>
<stop offset="0.87" stop-color="#F8924F"/>
<stop offset="1" stop-color="#F8924F"/>
</linearGradient>
<linearGradient id="paint24_linear_166_683" x1="453.383" y1="201" x2="428.872" y2="255.079" gradientUnits="userSpaceOnUse">
<stop stop-color="#FFDB44"/>
<stop offset="1" stop-color="#FEEF06"/>
</linearGradient>
<linearGradient id="paint25_linear_166_683" x1="448.874" y1="258.101" x2="444.144" y2="232.262" gradientUnits="userSpaceOnUse">
<stop stop-color="#FCB148"/>
<stop offset="0.05" stop-color="#FDB946"/>
<stop offset="0.14" stop-color="#FEC144"/>
<stop offset="0.32" stop-color="#FFC444"/>
<stop offset="0.48" stop-color="#FDB946"/>
<stop offset="0.78" stop-color="#F99C4C"/>
<stop offset="0.87" stop-color="#F8924F"/>
<stop offset="1" stop-color="#F8924F"/>
</linearGradient>
<linearGradient id="paint26_linear_166_683" x1="438.846" y1="216.279" x2="458.337" y2="257.656" gradientUnits="userSpaceOnUse">
<stop stop-color="#FCB148"/>
<stop offset="0.05" stop-color="#FDB946"/>
<stop offset="0.14" stop-color="#FEC144"/>
<stop offset="0.32" stop-color="#FFC444"/>
<stop offset="0.48" stop-color="#FDB946"/>
<stop offset="0.78" stop-color="#F99C4C"/>
<stop offset="0.87" stop-color="#F8924F"/>
<stop offset="1" stop-color="#F8924F"/>
</linearGradient>
<linearGradient id="paint27_linear_166_683" x1="438.068" y1="207.375" x2="447.869" y2="244.108" gradientUnits="userSpaceOnUse">
<stop stop-color="#FFDB44"/>
<stop offset="1" stop-color="#FEEF06"/>
</linearGradient>
<linearGradient id="paint28_linear_166_683" x1="433.111" y1="218.956" x2="452.562" y2="260.251" gradientUnits="userSpaceOnUse">
<stop stop-color="#FCB148"/>
<stop offset="0.05" stop-color="#FDB946"/>
<stop offset="0.14" stop-color="#FEC144"/>
<stop offset="0.32" stop-color="#FFC444"/>
<stop offset="0.48" stop-color="#FDB946"/>
<stop offset="0.78" stop-color="#F99C4C"/>
<stop offset="0.87" stop-color="#F8924F"/>
<stop offset="1" stop-color="#F8924F"/>
</linearGradient>
<linearGradient id="paint29_linear_166_683" x1="413.983" y1="163.671" x2="382.603" y2="173.743" gradientUnits="userSpaceOnUse">
<stop stop-color="#FCB148"/>
<stop offset="0.05" stop-color="#FDB946"/>
<stop offset="0.14" stop-color="#FEC144"/>
<stop offset="0.32" stop-color="#FFC444"/>
<stop offset="0.48" stop-color="#FDB946"/>
<stop offset="0.78" stop-color="#F99C4C"/>
<stop offset="0.87" stop-color="#F8924F"/>
<stop offset="1" stop-color="#F8924F"/>
</linearGradient>
<linearGradient id="paint30_linear_166_683" x1="439.367" y1="132.438" x2="411.356" y2="194.24" gradientUnits="userSpaceOnUse">
<stop stop-color="#FFDB44"/>
<stop offset="1" stop-color="#FEEF06"/>
</linearGradient>
<linearGradient id="paint31_linear_166_683" x1="434.214" y1="197.692" x2="428.809" y2="168.165" gradientUnits="userSpaceOnUse">
<stop stop-color="#FCB148"/>
<stop offset="0.05" stop-color="#FDB946"/>
<stop offset="0.14" stop-color="#FEC144"/>
<stop offset="0.32" stop-color="#FFC444"/>
<stop offset="0.48" stop-color="#FDB946"/>
<stop offset="0.78" stop-color="#F99C4C"/>
<stop offset="0.87" stop-color="#F8924F"/>
<stop offset="1" stop-color="#F8924F"/>
</linearGradient>
<linearGradient id="paint32_linear_166_683" x1="422.753" y1="149.899" x2="445.027" y2="197.185" gradientUnits="userSpaceOnUse">
<stop stop-color="#FCB148"/>
<stop offset="0.05" stop-color="#FDB946"/>
<stop offset="0.14" stop-color="#FEC144"/>
<stop offset="0.32" stop-color="#FFC444"/>
<stop offset="0.48" stop-color="#FDB946"/>
<stop offset="0.78" stop-color="#F99C4C"/>
<stop offset="0.87" stop-color="#F8924F"/>
<stop offset="1" stop-color="#F8924F"/>
</linearGradient>
<linearGradient id="paint33_linear_166_683" x1="421.864" y1="139.724" x2="433.065" y2="181.702" gradientUnits="userSpaceOnUse">
<stop stop-color="#FFDB44"/>
<stop offset="1" stop-color="#FEEF06"/>
</linearGradient>
<linearGradient id="paint34_linear_166_683" x1="416.199" y1="152.96" x2="438.429" y2="200.15" gradientUnits="userSpaceOnUse">
<stop stop-color="#FCB148"/>
<stop offset="0.05" stop-color="#FDB946"/>
<stop offset="0.14" stop-color="#FEC144"/>
<stop offset="0.32" stop-color="#FFC444"/>
<stop offset="0.48" stop-color="#FDB946"/>
<stop offset="0.78" stop-color="#F99C4C"/>
<stop offset="0.87" stop-color="#F8924F"/>
<stop offset="1" stop-color="#F8924F"/>
</linearGradient>
<linearGradient id="paint35_linear_166_683" x1="264.267" y1="239.734" x2="326.129" y2="239.734" gradientUnits="userSpaceOnUse">
<stop stop-color="#444B8C"/>
<stop offset="1" stop-color="#26264F"/>
</linearGradient>
<linearGradient id="paint36_linear_166_683" x1="334.737" y1="394.823" x2="350.139" y2="394.823" gradientUnits="userSpaceOnUse">
<stop stop-color="#444B8C"/>
<stop offset="1" stop-color="#26264F"/>
</linearGradient>
<linearGradient id="paint37_linear_166_683" x1="345.737" y1="366.563" x2="339.047" y2="387.039" gradientUnits="userSpaceOnUse">
<stop stop-color="#311944"/>
<stop offset="1" stop-color="#A03976"/>
</linearGradient>
<linearGradient id="paint38_linear_166_683" x1="278.58" y1="389.272" x2="288.884" y2="389.272" gradientUnits="userSpaceOnUse">
<stop stop-color="#444B8C"/>
<stop offset="1" stop-color="#26264F"/>
</linearGradient>
<linearGradient id="paint39_linear_166_683" x1="295.73" y1="350.224" x2="289.04" y2="370.701" gradientUnits="userSpaceOnUse">
<stop stop-color="#311944"/>
<stop offset="1" stop-color="#A03976"/>
</linearGradient>
<linearGradient id="paint40_linear_166_683" x1="349.135" y1="390.085" x2="340.819" y2="309.24" gradientUnits="userSpaceOnUse">
<stop stop-color="#444B8C"/>
<stop offset="1" stop-color="#26264F"/>
</linearGradient>
<linearGradient id="paint41_linear_166_683" x1="348.051" y1="390.196" x2="339.734" y2="309.351" gradientUnits="userSpaceOnUse">
<stop stop-color="#444B8C"/>
<stop offset="1" stop-color="#26264F"/>
</linearGradient>
<linearGradient id="paint42_linear_166_683" x1="317.956" y1="393.293" x2="309.638" y2="312.446" gradientUnits="userSpaceOnUse">
<stop stop-color="#444B8C"/>
<stop offset="1" stop-color="#26264F"/>
</linearGradient>
<linearGradient id="paint43_linear_166_683" x1="365.364" y1="216.168" x2="298.297" y2="322.335" gradientUnits="userSpaceOnUse">
<stop stop-color="#FFC444"/>
<stop offset="1" stop-color="#F36F56"/>
</linearGradient>
<linearGradient id="paint44_linear_166_683" x1="366.724" y1="217.026" x2="299.656" y2="323.195" gradientUnits="userSpaceOnUse">
<stop stop-color="#FFC444"/>
<stop offset="1" stop-color="#F36F56"/>
</linearGradient>
<linearGradient id="paint45_linear_166_683" x1="320.307" y1="250.729" x2="332.172" y2="207.807" gradientUnits="userSpaceOnUse">
<stop stop-color="#311944"/>
<stop offset="1" stop-color="#A03976"/>
</linearGradient>
<linearGradient id="paint46_linear_166_683" x1="262.201" y1="181.125" x2="325.028" y2="213.983" gradientUnits="userSpaceOnUse">
<stop stop-color="#311944"/>
<stop offset="1" stop-color="#A03976"/>
</linearGradient>
<linearGradient id="paint47_linear_166_683" x1="347.497" y1="196.51" x2="345.475" y2="185.724" gradientUnits="userSpaceOnUse">
<stop stop-color="#311944"/>
<stop offset="1" stop-color="#A03976"/>
</linearGradient>
<linearGradient id="paint48_linear_166_683" x1="395.33" y1="188.283" x2="393.308" y2="177.499" gradientUnits="userSpaceOnUse">
<stop stop-color="#311944"/>
<stop offset="1" stop-color="#A03976"/>
</linearGradient>
<linearGradient id="paint49_linear_166_683" x1="393.763" y1="190.49" x2="399.368" y2="190.49" gradientUnits="userSpaceOnUse">
<stop stop-color="#311944"/>
<stop offset="1" stop-color="#6B3976"/>
</linearGradient>
<linearGradient id="paint50_linear_166_683" x1="397.602" y1="187.218" x2="395.664" y2="191.347" gradientUnits="userSpaceOnUse">
<stop stop-color="#311944"/>
<stop offset="1" stop-color="#A03976"/>
</linearGradient>
<linearGradient id="paint51_linear_166_683" x1="401.129" y1="197.361" x2="406.732" y2="197.361" gradientUnits="userSpaceOnUse">
<stop stop-color="#311944"/>
<stop offset="1" stop-color="#6B3976"/>
</linearGradient>
<linearGradient id="paint52_linear_166_683" x1="406.281" y1="191.291" x2="404.342" y2="195.42" gradientUnits="userSpaceOnUse">
<stop stop-color="#311944"/>
<stop offset="1" stop-color="#A03976"/>
</linearGradient>
<linearGradient id="paint53_linear_166_683" x1="389.205" y1="187.458" x2="387.408" y2="204.084" gradientUnits="userSpaceOnUse">
<stop stop-color="#444B8C"/>
<stop offset="1" stop-color="#26264F"/>
</linearGradient>
<linearGradient id="paint54_linear_166_683" x1="390.541" y1="204.29" x2="387.395" y2="231.927" gradientUnits="userSpaceOnUse">
<stop stop-color="#444B8C"/>
<stop offset="1" stop-color="#26264F"/>
</linearGradient>
<linearGradient id="paint55_linear_166_683" x1="386.781" y1="237.615" x2="372.628" y2="192.679" gradientUnits="userSpaceOnUse">
<stop stop-color="#FF9085"/>
<stop offset="1" stop-color="#FB6FBB"/>
</linearGradient>
<linearGradient id="paint56_linear_166_683" x1="364.62" y1="186.535" x2="373.309" y2="186.535" gradientUnits="userSpaceOnUse">
<stop stop-color="#311944"/>
<stop offset="1" stop-color="#A03976"/>
</linearGradient>
<linearGradient id="paint57_linear_166_683" x1="378.207" y1="195.512" x2="363.662" y2="173.627" gradientUnits="userSpaceOnUse">
<stop stop-color="#311944"/>
<stop offset="1" stop-color="#6B3976"/>
</linearGradient>
<linearGradient id="paint58_linear_166_683" x1="374.788" y1="170.774" x2="368.393" y2="178.911" gradientUnits="userSpaceOnUse">
<stop stop-color="#311944"/>
<stop offset="1" stop-color="#A03976"/>
</linearGradient>
<linearGradient id="paint59_linear_166_683" x1="376.586" y1="220.123" x2="374.563" y2="190.464" gradientUnits="userSpaceOnUse">
<stop stop-color="#311944"/>
<stop offset="1" stop-color="#A03976"/>
</linearGradient>
<linearGradient id="paint60_linear_166_683" x1="352.387" y1="207.97" x2="285.32" y2="314.137" gradientUnits="userSpaceOnUse">
<stop stop-color="#FFC444"/>
<stop offset="1" stop-color="#F36F56"/>
</linearGradient>
<linearGradient id="paint61_linear_166_683" x1="242.92" y1="396.811" x2="256.92" y2="396.811" gradientUnits="userSpaceOnUse">
<stop stop-color="#311944"/>
<stop offset="1" stop-color="#6B3976"/>
</linearGradient>
<linearGradient id="paint62_linear_166_683" x1="257.084" y1="367.303" x2="253.714" y2="400.332" gradientUnits="userSpaceOnUse">
<stop stop-color="#FFC444"/>
<stop offset="1" stop-color="#F36F56"/>
</linearGradient>
<linearGradient id="paint63_linear_166_683" x1="195.733" y1="393.341" x2="210.434" y2="393.341" gradientUnits="userSpaceOnUse">
<stop stop-color="#311944"/>
<stop offset="1" stop-color="#6B3976"/>
</linearGradient>
<linearGradient id="paint64_linear_166_683" x1="211.788" y1="362.682" x2="208.418" y2="395.71" gradientUnits="userSpaceOnUse">
<stop stop-color="#FFC444"/>
<stop offset="1" stop-color="#F36F56"/>
</linearGradient>
<linearGradient id="paint65_linear_166_683" x1="236.771" y1="309.811" x2="228.344" y2="343.852" gradientUnits="userSpaceOnUse">
<stop stop-color="#311944"/>
<stop offset="1" stop-color="#6B3976"/>
</linearGradient>
<linearGradient id="paint66_linear_166_683" x1="261.413" y1="315.911" x2="252.988" y2="349.952" gradientUnits="userSpaceOnUse">
<stop stop-color="#311944"/>
<stop offset="1" stop-color="#6B3976"/>
</linearGradient>
<linearGradient id="paint67_linear_166_683" x1="239.163" y1="310.404" x2="230.739" y2="344.444" gradientUnits="userSpaceOnUse">
<stop stop-color="#311944"/>
<stop offset="1" stop-color="#6B3976"/>
</linearGradient>
<linearGradient id="paint68_linear_166_683" x1="228.149" y1="250.902" x2="264.211" y2="297.75" gradientUnits="userSpaceOnUse">
<stop stop-color="#AA80F9"/>
<stop offset="1" stop-color="#6165D7"/>
</linearGradient>
<linearGradient id="paint69_linear_166_683" x1="230.202" y1="249.321" x2="266.264" y2="296.17" gradientUnits="userSpaceOnUse">
<stop stop-color="#AA80F9"/>
<stop offset="1" stop-color="#6165D7"/>
</linearGradient>
<linearGradient id="paint70_linear_166_683" x1="237.978" y1="243.334" x2="274.04" y2="290.184" gradientUnits="userSpaceOnUse">
<stop stop-color="#AA80F9"/>
<stop offset="1" stop-color="#6165D7"/>
</linearGradient>
<linearGradient id="paint71_linear_166_683" x1="260.569" y1="236.438" x2="251.054" y2="209.404" gradientUnits="userSpaceOnUse">
<stop stop-color="#FFC444"/>
<stop offset="1" stop-color="#F36F56"/>
</linearGradient>
<linearGradient id="paint72_linear_166_683" x1="253.19" y1="223.423" x2="243.585" y2="229.995" gradientUnits="userSpaceOnUse">
<stop stop-color="#444B8C"/>
<stop offset="1" stop-color="#26264F"/>
</linearGradient>
<linearGradient id="paint73_linear_166_683" x1="236.755" y1="218.839" x2="228.668" y2="243.947" gradientUnits="userSpaceOnUse">
<stop stop-color="#444B8C"/>
<stop offset="1" stop-color="#26264F"/>
</linearGradient>
<linearGradient id="paint74_linear_166_683" x1="270.145" y1="187.338" x2="265.763" y2="151.612" gradientUnits="userSpaceOnUse">
<stop stop-color="#311944"/>
<stop offset="1" stop-color="#A03976"/>
</linearGradient>
<linearGradient id="paint75_linear_166_683" x1="175.867" y1="198.899" x2="171.487" y2="163.174" gradientUnits="userSpaceOnUse">
<stop stop-color="#311944"/>
<stop offset="1" stop-color="#A03976"/>
</linearGradient>
<linearGradient id="paint76_linear_166_683" x1="204.671" y1="150.16" x2="217.567" y2="190.721" gradientUnits="userSpaceOnUse">
<stop stop-color="#444B8C"/>
<stop offset="1" stop-color="#26264F"/>
</linearGradient>
<linearGradient id="paint77_linear_166_683" x1="171.154" y1="193.951" x2="268.4" y2="193.951" gradientUnits="userSpaceOnUse">
<stop stop-color="#FF9085"/>
<stop offset="1" stop-color="#FB6FBB"/>
</linearGradient>
<linearGradient id="paint78_linear_166_683" x1="171.155" y1="201.21" x2="225.357" y2="201.21" gradientUnits="userSpaceOnUse">
<stop stop-color="#FF9085"/>
<stop offset="1" stop-color="#FB6FBB"/>
</linearGradient>
<linearGradient id="paint79_linear_166_683" x1="218.848" y1="203.45" x2="221.206" y2="167.725" gradientUnits="userSpaceOnUse">
<stop stop-color="#311944"/>
<stop offset="1" stop-color="#A03976"/>
</linearGradient>
<linearGradient id="paint80_linear_166_683" x1="206.307" y1="162.148" x2="225.791" y2="180.142" gradientUnits="userSpaceOnUse">
<stop stop-color="#311944"/>
<stop offset="1" stop-color="#A03976"/>
</linearGradient>
<linearGradient id="paint81_linear_166_683" x1="256.356" y1="231.187" x2="256.534" y2="209.043" gradientUnits="userSpaceOnUse">
<stop stop-color="#311944"/>
<stop offset="1" stop-color="#6B3976"/>
</linearGradient>
<linearGradient id="paint82_linear_166_683" x1="255.398" y1="214.745" x2="242.821" y2="242.031" gradientUnits="userSpaceOnUse">
<stop stop-color="#FFC444"/>
<stop offset="1" stop-color="#F36F56"/>
</linearGradient>
<linearGradient id="paint83_linear_166_683" x1="253.722" y1="231.208" x2="253.899" y2="208.971" gradientUnits="userSpaceOnUse">
<stop stop-color="#311944"/>
<stop offset="1" stop-color="#6B3976"/>
</linearGradient>
<linearGradient id="paint84_linear_166_683" x1="251.139" y1="216.659" x2="250.109" y2="220.36" gradientUnits="userSpaceOnUse">
<stop stop-color="#FFC444"/>
<stop offset="1" stop-color="#F36F56"/>
</linearGradient>
<linearGradient id="paint85_linear_166_683" x1="216.437" y1="210.826" x2="214.416" y2="243.518" gradientUnits="userSpaceOnUse">
<stop stop-color="#FFC444"/>
<stop offset="1" stop-color="#F36F56"/>
</linearGradient>
<linearGradient id="paint86_linear_166_683" x1="259.262" y1="222.347" x2="243.422" y2="264.139" gradientUnits="userSpaceOnUse">
<stop stop-color="#AA80F9"/>
<stop offset="1" stop-color="#6165D7"/>
</linearGradient>
<clipPath id="clip0_166_683">
<rect width="591.49" height="404.74" fill="white"/>
</clipPath>
</defs>
</svg>
