<svg width="592" height="405" viewBox="0 0 592 405" fill="none" xmlns="http://www.w3.org/2000/svg">
<g clip-path="url(#clip0_155_5558)">
<path d="M1.70432e-06 224.87C-0.349998 206.97 8.73 189.14 23.43 178.9C39.32 167.83 59.7 165.96 77.71 158.83C108.89 146.5 131.41 119.21 159.43 100.79C184.81 84.0999 214.29 74.9599 243.33 66.0199C291.48 51.1999 342.09 36.2299 391.5 46.0999C431.28 54.0499 466.59 77.7499 494.63 107.06C522.67 136.37 544.18 171.21 564.64 206.24C574.53 223.16 584.35 240.49 588.95 259.54C593.55 278.59 592.36 299.9 581.4 316.15C565.1 340.34 532.2 347.13 503.1 345.16C474 343.19 445.26 334.61 416.16 336.61C362.29 340.31 317.67 378.9 266.32 395.6C218.48 411.16 164.46 406.65 119.87 383.38C96.16 371.01 75.28 353.41 58.74 332.42C50.31 321.72 43 310.14 37.01 297.91C31.02 285.68 29.17 274.22 19.27 265.44C7.69 255.18 0.320002 240.46 1.70432e-06 224.87Z" fill="#FF8400" fill-opacity="0.4"/>
<path d="M241.34 115.52C240.88 115.52 240.49 115.15 240.48 114.68L240.38 111.61C240.38 111.54 240.38 111.47 240.4 111.41L260.53 15.0199C261.11 12.3499 263.24 10.5699 265.96 10.4799C268.7 10.3799 270.93 12.0099 271.69 14.6299L291.48 85.9499C291.61 86.4099 291.34 86.8899 290.88 87.0099C290.42 87.1299 289.94 86.8699 289.82 86.4099L270.04 15.0999C269.39 12.8899 267.47 12.1499 266.03 12.2099C264.58 12.2599 262.72 13.1199 262.23 15.3899L242.12 111.67L242.21 114.63C242.22 115.11 241.85 115.51 241.37 115.52C241.36 115.52 241.35 115.52 241.34 115.52Z" fill="#084C94"/>
<path d="M243.05 3.32L248.76 0L258.28 3.95L252.57 7.27L243.05 3.32Z" fill="#72B5E8"/>
<path d="M252.57 7.26995L258.28 3.94995C260.91 7.67995 264.05 10.61 267.2 12.43C270.05 14.08 272.92 14.81 275.4 14.4C279 13.81 283.17 14.81 287.45 17.28L281.74 20.6C277.46 18.13 273.29 17.13 269.69 17.72C267.2 18.13 264.34 17.39 261.49 15.75C258.34 13.93 255.2 11 252.57 7.26995Z" fill="#3F92D1"/>
<path d="M281.74 20.59L287.45 17.27L333.48 43.85L327.77 47.17L281.74 20.59Z" fill="#72B5E8"/>
<path d="M327.77 47.1699L327.74 59.0999L281.72 28.2999C278.73 26.5699 275.83 25.8799 273.31 26.2899C269.72 26.8799 265.59 25.8099 261.47 23.4399C256.92 20.8199 252.38 16.5899 248.59 11.1899L243.05 3.31995L252.57 7.26995C255.2 10.9999 258.34 13.9299 261.49 15.7499C264.34 17.3999 267.21 18.1299 269.69 17.7199C273.29 17.1299 277.46 18.1299 281.74 20.5999L327.77 47.1799V47.1699Z" fill="#2672AB"/>
<path d="M232.42 108.59C232.42 122.65 247.34 134.05 265.75 134.05C284.16 134.05 299.08 122.65 299.08 108.59H232.42Z" fill="#72B5E8"/>
<path d="M229.76 104.1H301.86V107.17C301.86 118.76 285.72 128.16 265.81 128.16C245.9 128.16 229.76 118.76 229.76 107.17C229.76 107.07 229.77 106.98 229.77 106.88H229.76V104.1Z" fill="#A8CFF0"/>
<path d="M265.81 125.23C285.72 125.23 301.86 115.832 301.86 104.24C301.86 92.6475 285.72 83.25 265.81 83.25C245.9 83.25 229.76 92.6475 229.76 104.24C229.76 115.832 245.9 125.23 265.81 125.23Z" fill="#F0F8FF"/>
<path d="M265.81 123.56C284.035 123.56 298.81 114.955 298.81 104.34C298.81 93.7251 284.035 85.12 265.81 85.12C247.584 85.12 232.81 93.7251 232.81 104.34C232.81 114.955 247.584 123.56 265.81 123.56Z" fill="#3F92D1"/>
<path d="M286.94 104.91C286.7 104.91 286.48 104.76 286.4 104.52C286.31 104.25 285.92 103.71 285.11 103.03C284.87 102.82 284.84 102.46 285.04 102.22C285.25 101.98 285.61 101.95 285.85 102.15C286.46 102.67 287.24 103.43 287.49 104.15C287.59 104.45 287.43 104.78 287.13 104.88C287.07 104.9 287.01 104.91 286.94 104.91ZM282.6 101.26C282.51 101.26 282.41 101.24 282.33 101.19C281.69 100.85 281.01 100.52 280.3 100.22C280.01 100.1 279.87 99.76 279.99 99.46C280.11 99.17 280.45 99.03 280.75 99.15C281.49 99.47 282.21 99.81 282.88 100.17C283.16 100.32 283.27 100.67 283.12 100.95C283.02 101.14 282.82 101.25 282.61 101.25L282.6 101.26ZM277.27 99.11C277.22 99.11 277.16 99.11 277.11 99.09C276.4 98.88 275.66 98.69 274.92 98.52C274.61 98.45 274.41 98.14 274.48 97.83C274.55 97.52 274.86 97.32 275.17 97.39C275.94 97.56 276.7 97.76 277.44 97.98C277.74 98.07 277.92 98.39 277.83 98.7C277.76 98.95 277.53 99.11 277.28 99.11H277.27ZM271.64 97.93C271.64 97.93 271.59 97.93 271.56 97.93C270.83 97.83 270.08 97.76 269.3 97.69C268.98 97.67 268.75 97.39 268.77 97.07C268.79 96.75 269.1 96.52 269.39 96.54C270.19 96.6 270.96 96.68 271.71 96.78C272.03 96.82 272.25 97.11 272.21 97.43C272.17 97.72 271.92 97.93 271.64 97.93ZM265.89 97.56H265.82C265.5 97.56 265.24 97.3 265.24 96.98C265.24 96.66 265.5 96.4 265.82 96.4C266.14 96.4 266.43 96.66 266.43 96.98C266.43 97.3 266.21 97.56 265.89 97.56Z" fill="#084C94"/>
<path d="M265.81 89.19C248.76 89.19 234.74 96.72 232.99 106.37C232.87 105.7 232.8 105.02 232.8 104.33C232.8 93.72 247.58 85.11 265.8 85.11C284.02 85.11 298.8 93.71 298.8 104.33C298.8 105.02 298.74 105.7 298.61 106.37C296.86 96.71 282.84 89.19 265.79 89.19H265.81Z" fill="#72B5E8"/>
<g style="mix-blend-mode:color-dodge">
<path d="M265.81 125.15C285.5 125.15 301.5 115.95 301.85 104.53C301.85 104.66 301.87 104.78 301.87 104.91C301.87 116.5 285.73 125.9 265.82 125.9C245.91 125.9 229.77 116.5 229.77 104.91C229.77 104.78 229.78 104.66 229.79 104.53C230.14 115.95 246.13 125.15 265.83 125.15H265.81Z" fill="white"/>
</g>
<path d="M241.48 115.55C241.04 115.55 240.66 115.21 240.62 114.76C240.58 114.28 240.93 113.86 241.4 113.82L242.17 113.75C242.97 113.68 243.64 113.11 243.84 112.33L244 111.7C244.12 111.24 244.59 110.96 245.05 111.08C245.51 111.2 245.79 111.67 245.67 112.13L245.51 112.76C245.13 114.25 243.85 115.34 242.32 115.48L241.55 115.55C241.55 115.55 241.5 115.55 241.47 115.55H241.48Z" fill="#084C94"/>
<path d="M238.69 110.57C238.59 110.88 238.53 111.23 238.53 111.64V116.34L243.66 119.3L243.88 120.99L245.17 120.18V115.48C245.17 113.38 243.68 110.81 241.85 109.76C241.01 109.27 240.24 109.19 239.65 109.45H239.64C239.52 109.51 239.4 109.57 239.29 109.66L238.19 110.33L238.69 110.58V110.57ZM240.45 111.45L241.31 111.88L243.06 114.56L243.29 116.36C242.93 116.57 242.42 116.54 241.86 116.22C240.75 115.58 239.85 114.02 239.85 112.75C239.85 112.1 240.08 111.66 240.46 111.45H240.45Z" fill="#A8CFF0"/>
<path d="M237.24 112.45V117.15L243.88 120.98V116.28C243.88 114.18 242.39 111.61 240.56 110.56C238.73 109.5 237.24 110.35 237.24 112.45ZM238.55 113.56C238.55 112.28 239.45 111.77 240.56 112.41C241.67 113.05 242.57 114.61 242.57 115.88C242.57 117.15 241.67 117.67 240.56 117.03C239.45 116.39 238.55 114.83 238.55 113.56Z" fill="#72B5E8"/>
<path d="M241.34 115.52C240.88 115.52 240.49 115.15 240.48 114.68L240.38 111.61C240.38 111.54 240.38 111.47 240.4 111.41L260.53 15.02C260.94 13.11 262.19 11.61 263.94 10.9C265.74 10.17 267.83 10.38 269.41 11.43C269.81 11.7 269.91 12.23 269.65 12.63C269.39 13.03 268.85 13.13 268.45 12.87C267.34 12.13 265.86 11.99 264.59 12.5C263.36 13 262.52 14.02 262.23 15.37L242.12 111.65L242.21 114.61C242.22 115.09 241.85 115.49 241.37 115.5C241.36 115.5 241.35 115.5 241.34 115.5V115.52Z" fill="#084C94"/>
<path d="M288.16 83.3999C288.06 83.7099 288 84.0599 288 84.4699V89.1699L293.13 92.1299L293.35 93.8199L294.64 93.0099V88.3099C294.64 86.2099 293.15 83.6399 291.32 82.5899C290.48 82.0999 289.71 82.0199 289.12 82.2799H289.11C288.99 82.3399 288.87 82.3999 288.76 82.4899L287.66 83.1599L288.16 83.4099V83.3999ZM289.92 84.2799L290.78 84.7099L292.53 87.3899L292.76 89.1899C292.4 89.3999 291.89 89.3699 291.33 89.0499C290.22 88.4099 289.32 86.8499 289.32 85.5799C289.32 84.9299 289.55 84.4899 289.93 84.2799H289.92Z" fill="#A8CFF0"/>
<path d="M286.71 85.28V89.98L293.35 93.81V89.11C293.35 87.01 291.86 84.44 290.03 83.39C288.2 82.33 286.71 83.18 286.71 85.28ZM288.02 86.39C288.02 85.11 288.92 84.6 290.03 85.24C291.14 85.88 292.04 87.44 292.04 88.71C292.04 89.98 291.14 90.5 290.03 89.86C288.92 89.22 288.02 87.66 288.02 86.39Z" fill="#72B5E8"/>
<path d="M289.02 87.44C287.92 87.44 286.84 87.01 286.04 86.21L284.85 85.02C284.51 84.68 284.51 84.14 284.85 83.8C285.19 83.46 285.73 83.46 286.07 83.8L287.26 84.99C287.93 85.66 288.93 85.89 289.82 85.57C290.27 85.41 290.76 85.65 290.92 86.1C291.08 86.55 290.84 87.04 290.39 87.2C289.94 87.36 289.48 87.43 289.01 87.43L289.02 87.44Z" fill="#084C94"/>
<path d="M339.62 37.41L342.27 35.83L357.63 62.44L354.98 64.02L339.62 37.41Z" fill="#084C94"/>
<path d="M339.62 37.4099L354.98 64.0199L339.52 72.8299L324.15 46.2199L339.62 37.4099Z" fill="#03336E"/>
<path d="M328.88 47.4999L338.34 42.1199L350.25 62.7399L340.79 68.1299L328.88 47.4999Z" fill="#2672AB"/>
<path d="M328.88 47.4999L329.74 46.9999L341.64 67.6299L340.79 68.1299L328.88 47.4999Z" fill="#084C94"/>
<path d="M385.61 198.91C385.15 198.91 384.76 198.54 384.75 198.07L384.65 195C384.65 194.93 384.65 194.86 384.67 194.8L404.8 98.41C405.38 95.74 407.51 93.96 410.23 93.87C412.97 93.77 415.2 95.3999 415.96 98.0199L435.74 169.34C435.87 169.8 435.6 170.28 435.14 170.4C434.68 170.53 434.2 170.26 434.08 169.8L414.3 98.4899C413.65 96.2799 411.72 95.5399 410.29 95.5999C408.84 95.6499 406.98 96.51 406.49 98.78L386.38 195.06L386.48 198.02C386.49 198.5 386.12 198.9 385.64 198.91H385.61Z" fill="#084C94"/>
<path d="M336.9 25.87C333.17 25.87 330.15 28.89 330.15 32.62V53.28C330.15 55.45 333.17 57.21 336.9 57.21C340.63 57.21 343.65 55.45 343.65 53.28C343.65 53.26 343.65 53.24 343.65 53.23V32.62C343.65 28.89 340.63 25.87 336.9 25.87Z" fill="#2672AB"/>
<path d="M362.95 218.71H310.85V222.44C310.85 230.82 322.51 237.61 336.9 237.61C351.29 237.61 362.95 230.82 362.95 222.44C362.95 222.37 362.95 222.3 362.95 222.23V218.71Z" fill="#2672AB"/>
<path d="M336.9 233.98C351.287 233.98 362.95 227.188 362.95 218.81C362.95 210.432 351.287 203.64 336.9 203.64C322.513 203.64 310.85 210.432 310.85 218.81C310.85 227.188 322.513 233.98 336.9 233.98Z" fill="#3F92D1"/>
<path d="M336.9 233.92C322.67 233.92 311.11 227.27 310.86 219.02C310.86 219.11 310.85 219.2 310.85 219.29C310.85 227.67 322.51 234.46 336.9 234.46C351.29 234.46 362.95 227.67 362.95 219.29C362.95 219.2 362.95 219.11 362.94 219.02C362.69 227.27 351.13 233.92 336.9 233.92Z" fill="#72B5E8"/>
<path d="M345.49 203.35H328.33C328.33 203.35 319.75 216.74 319.75 216.78C319.75 222.3 327.43 226.77 336.91 226.77C346.39 226.77 354.07 222.3 354.07 216.78C354.07 216.73 345.49 203.35 345.49 203.35Z" fill="#2672AB"/>
<path d="M328.32 203.38C328.32 206.14 332.16 208.38 336.9 208.38C341.64 208.38 345.48 206.14 345.48 203.38C345.48 200.62 341.64 198.38 336.9 198.38C332.16 198.38 328.32 200.62 328.32 203.38Z" fill="#3F92D1"/>
<path d="M336.9 208.36C332.21 208.36 328.4 206.17 328.32 203.45C328.32 203.48 328.32 203.51 328.32 203.54C328.32 206.3 332.16 208.54 336.9 208.54C341.64 208.54 345.48 206.3 345.48 203.54C345.48 203.51 345.48 203.48 345.48 203.45C345.4 206.17 341.59 208.36 336.9 208.36Z" fill="#72B5E8"/>
<path d="M343.65 63.71H330.16V202.87C330.16 205.04 333.18 206.8 336.9 206.8C340.62 206.8 343.64 205.04 343.64 202.87C343.64 202.85 343.64 202.83 343.64 202.82V63.71H343.65Z" fill="#2672AB"/>
<path d="M422.02 98.48C419.39 99.17 416.24 98.48 413.09 96.65C410.24 95 407.38 92.44 404.91 89.16C401.32 84.42 397.16 80.61 392.88 78.14L343.72 49.76L338.01 53.08L387.17 81.46C391.45 83.93 395.61 87.74 399.2 92.48C401.68 95.75 404.53 98.32 407.38 99.97C410.53 101.79 413.67 102.49 416.31 101.8L425.83 108.84L431.54 105.52L422.02 98.48Z" fill="#3F92D1"/>
<path d="M416.31 101.8L425.83 108.85L431.54 105.53L422.02 98.48L416.31 101.8Z" fill="#72B5E8"/>
<path d="M404.91 89.17C401.32 84.43 397.16 80.62 392.88 78.15L343.72 49.77L338.01 53.09L387.17 81.47C391.45 83.94 395.61 87.75 399.2 92.49L404.91 89.17Z" fill="#72B5E8"/>
<path d="M387.17 81.46C391.45 83.93 395.61 87.74 399.2 92.48C401.68 95.75 404.53 98.32 407.38 99.97C410.53 101.79 413.67 102.49 416.31 101.8L425.83 108.84L420.25 110.3C416.45 111.31 411.9 110.3 407.35 107.67C403.23 105.29 399.11 101.59 395.54 96.87C393.04 93.56 390.13 90.9 387.15 89.18L337.98 65.02L338.01 53.09L387.17 81.47V81.46Z" fill="#2672AB"/>
<path d="M334.98 34.24C336.775 34.24 338.23 32.7849 338.23 30.99C338.23 29.1951 336.775 27.74 334.98 27.74C333.185 27.74 331.73 29.1951 331.73 30.99C331.73 32.7849 333.185 34.24 334.98 34.24Z" fill="#3F92D1"/>
<path d="M376.69 191.98C376.69 206.04 391.61 217.44 410.02 217.44C428.43 217.44 443.35 206.04 443.35 191.98H376.69Z" fill="#72B5E8"/>
<path d="M374.04 187.49H446.14V190.56C446.14 202.15 430 211.55 410.09 211.55C390.18 211.55 374.04 202.15 374.04 190.56C374.04 190.46 374.05 190.37 374.05 190.27H374.04V187.49Z" fill="#A8CFF0"/>
<path d="M410.09 208.63C429.999 208.63 446.14 199.232 446.14 187.64C446.14 176.048 429.999 166.65 410.09 166.65C390.18 166.65 374.04 176.048 374.04 187.64C374.04 199.232 390.18 208.63 410.09 208.63Z" fill="#F0F8FF"/>
<path d="M410.089 206.95C428.315 206.95 443.089 198.345 443.089 187.73C443.089 177.115 428.315 168.51 410.089 168.51C391.864 168.51 377.089 177.115 377.089 187.73C377.089 198.345 391.864 206.95 410.089 206.95Z" fill="#3F92D1"/>
<path d="M431.21 188.3C430.97 188.3 430.75 188.15 430.67 187.91C430.58 187.64 430.19 187.1 429.38 186.42C429.14 186.22 429.11 185.85 429.31 185.61C429.52 185.37 429.88 185.34 430.12 185.54C430.73 186.06 431.51 186.82 431.76 187.54C431.86 187.84 431.7 188.17 431.4 188.27C431.34 188.29 431.28 188.3 431.21 188.3ZM426.87 184.64C426.78 184.64 426.68 184.62 426.6 184.57C425.96 184.23 425.28 183.9 424.57 183.6C424.28 183.48 424.14 183.14 424.26 182.84C424.38 182.55 424.72 182.41 425.02 182.54C425.76 182.85 426.48 183.2 427.15 183.55C427.43 183.7 427.54 184.05 427.39 184.33C427.29 184.52 427.09 184.63 426.88 184.63L426.87 184.64ZM421.54 182.49C421.49 182.49 421.43 182.49 421.38 182.47C420.69 182.27 419.95 182.07 419.18 181.9C418.87 181.83 418.67 181.52 418.75 181.21C418.82 180.9 419.12 180.7 419.44 180.78C420.23 180.96 420.99 181.16 421.71 181.37C422.01 181.46 422.19 181.78 422.1 182.09C422.03 182.34 421.8 182.5 421.55 182.5L421.54 182.49ZM415.91 181.31C415.91 181.31 415.86 181.31 415.83 181.31C415.1 181.21 414.35 181.13 413.57 181.07C413.25 181.05 413.02 180.77 413.04 180.45C413.06 180.13 413.37 179.88 413.66 179.92C414.46 179.98 415.23 180.06 415.98 180.16C416.3 180.2 416.52 180.49 416.48 180.81C416.44 181.1 416.19 181.31 415.91 181.31ZM410.17 180.94H410.1C409.78 180.94 409.52 180.68 409.52 180.36C409.52 180.04 409.78 179.78 410.1 179.78C410.42 179.78 410.71 180.04 410.71 180.36C410.71 180.68 410.49 180.94 410.17 180.94Z" fill="#084C94"/>
<path d="M410.09 172.58C393.04 172.58 379.02 180.11 377.27 189.76C377.15 189.09 377.08 188.41 377.08 187.72C377.08 177.11 391.86 168.5 410.08 168.5C428.3 168.5 443.08 177.1 443.08 187.72C443.08 188.41 443.02 189.09 442.89 189.76C441.14 180.1 427.12 172.58 410.07 172.58H410.09Z" fill="#72B5E8"/>
<g style="mix-blend-mode:color-dodge">
<path d="M410.089 208.55C429.779 208.55 445.779 199.35 446.129 187.93C446.129 188.06 446.149 188.18 446.149 188.31C446.149 199.9 430.009 209.3 410.099 209.3C390.189 209.3 374.049 199.9 374.049 188.31C374.049 188.18 374.059 188.06 374.069 187.93C374.419 199.35 390.409 208.55 410.109 208.55H410.089Z" fill="white"/>
</g>
<path d="M385.75 198.94C385.31 198.94 384.93 198.6 384.89 198.15C384.85 197.68 385.2 197.25 385.67 197.21L386.44 197.14C387.24 197.07 387.91 196.5 388.11 195.72L388.27 195.09C388.39 194.63 388.86 194.35 389.32 194.47C389.78 194.59 390.06 195.06 389.94 195.52L389.78 196.15C389.4 197.64 388.12 198.73 386.59 198.87L385.82 198.94C385.82 198.94 385.77 198.94 385.74 198.94H385.75Z" fill="#084C94"/>
<path d="M382.97 193.97C382.87 194.28 382.81 194.63 382.81 195.04V199.74L387.94 202.7L388.16 204.39L389.45 203.58V198.88C389.45 196.78 387.96 194.21 386.13 193.16C385.29 192.67 384.52 192.59 383.93 192.85H383.92C383.8 192.91 383.68 192.97 383.57 193.06L382.47 193.73L382.97 193.98V193.97ZM384.73 194.85L385.59 195.28L387.34 197.96L387.57 199.76C387.21 199.97 386.7 199.94 386.14 199.62C385.03 198.98 384.13 197.42 384.13 196.15C384.13 195.5 384.36 195.06 384.74 194.85H384.73Z" fill="#A8CFF0"/>
<path d="M381.52 195.85V200.55L388.16 204.38V199.68C388.16 197.58 386.67 195.01 384.84 193.96C383.01 192.9 381.52 193.75 381.52 195.85ZM382.83 196.96C382.83 195.68 383.73 195.17 384.84 195.81C385.95 196.45 386.85 198.01 386.85 199.28C386.85 200.55 385.95 201.07 384.84 200.43C383.73 199.79 382.83 198.23 382.83 196.96Z" fill="#72B5E8"/>
<path d="M385.61 198.91C385.15 198.91 384.76 198.54 384.75 198.07L384.65 195C384.65 194.93 384.65 194.86 384.67 194.8L404.8 98.4099C405.21 96.4999 406.46 94.9999 408.21 94.2899C410.01 93.5699 412.1 93.7699 413.68 94.8199C414.08 95.0899 414.18 95.6199 413.92 96.0199C413.65 96.4199 413.12 96.5199 412.72 96.2599C411.61 95.5199 410.13 95.3799 408.86 95.8899C407.63 96.3899 406.79 97.4099 406.5 98.7599L386.39 195.04L386.49 198C386.5 198.48 386.13 198.88 385.65 198.89H385.62L385.61 198.91Z" fill="#084C94"/>
<path d="M432.43 166.79C432.33 167.1 432.27 167.45 432.27 167.86V172.56L437.4 175.52L437.62 177.21L438.91 176.4V171.7C438.91 169.6 437.42 167.03 435.59 165.98C434.75 165.49 433.98 165.41 433.39 165.67H433.38C433.26 165.73 433.14 165.79 433.03 165.88L431.93 166.55L432.43 166.8V166.79ZM434.19 167.67L435.05 168.1L436.8 170.78L437.03 172.58C436.67 172.79 436.16 172.76 435.6 172.44C434.49 171.8 433.59 170.24 433.59 168.97C433.59 168.32 433.82 167.88 434.2 167.67H434.19Z" fill="#A8CFF0"/>
<path d="M430.98 168.67V173.37L437.62 177.2V172.5C437.62 170.4 436.13 167.83 434.3 166.78C432.47 165.72 430.98 166.57 430.98 168.67ZM432.29 169.78C432.29 168.5 433.19 167.99 434.3 168.63C435.41 169.27 436.31 170.83 436.31 172.1C436.31 173.37 435.41 173.89 434.3 173.25C433.19 172.61 432.29 171.05 432.29 169.78Z" fill="#72B5E8"/>
<path d="M433.29 170.83C432.19 170.83 431.11 170.4 430.31 169.6L429.12 168.41C428.78 168.07 428.78 167.52 429.12 167.19C429.46 166.85 430 166.85 430.34 167.19L431.53 168.38C432.2 169.05 433.2 169.28 434.09 168.96C434.53 168.8 435.03 169.04 435.19 169.49C435.35 169.94 435.11 170.43 434.66 170.59C434.21 170.75 433.75 170.82 433.29 170.82V170.83Z" fill="#084C94"/>
<path d="M334 40.72L336.65 39.14L352.01 65.75L349.36 67.33L334 40.72Z" fill="#084C94"/>
<path d="M334 40.72L349.36 67.33L333.9 76.15L318.53 49.53L334 40.72Z" fill="#03336E"/>
<path d="M323.26 50.8199L332.72 45.4299L344.63 66.0499L335.17 71.4399L323.26 50.8199Z" fill="#2672AB"/>
<path d="M323.26 50.8199L324.12 50.3099L336.03 70.9399L335.17 71.4399L323.26 50.8199Z" fill="#084C94"/>
<path d="M218.99 241.19V258.77C218.99 261.83 222.42 263.63 224.94 261.91L275.84 223.14V191.83C275.84 189.78 273.54 188.57 271.85 189.73L228.41 223.34C222.52 227.37 219 234.05 219 241.19H218.99Z" fill="#72B5E8"/>
<path d="M218.99 258.77V241.19C218.99 234.05 222.51 227.37 228.4 223.34L271.84 189.73C272.64 189.19 273.56 189.17 274.32 189.51L183.84 137.24C183.08 136.89 182.14 136.9 181.34 137.45L137.9 171.06C132.01 175.09 128.49 181.77 128.49 188.91V206.49C128.49 208.21 129.57 209.53 130.97 210.06L221.09 262.23L221.13 262.19C219.89 261.59 218.97 260.35 218.97 258.77H218.99Z" fill="#A8CFF0"/>
<path d="M218.99 258.84V241.26C218.99 234.12 222.51 227.44 228.4 223.41L271.85 189.8C272.36 189.45 272.92 189.32 273.46 189.36C272.69 188.35 271.19 187.98 269.99 188.8L226.55 222.41C220.66 226.44 217.14 233.12 217.14 240.26V257.84C217.14 259.77 218.5 261.2 220.15 261.56C219.46 260.89 219.01 259.95 219.01 258.85L218.99 258.84Z" fill="#D1EBFF"/>
<path d="M231.71 257.28L233.76 255.92L233.29 258.14L231.71 257.28Z" fill="#03336E"/>
<path d="M234.56 253.96V238.19C234.56 233.06 237.68 225.86 242.9 222.29L278.88 189.56C279.58 189.08 280.41 189.06 281.08 189.37L279.68 188.48C279 188.17 278.18 188.18 277.47 188.67L241.49 221.4C236.27 224.97 233.15 232.17 233.15 237.3V257.89L231.74 257.25L230.56 258.11L234.56 260.35L236.47 256.99C235.37 256.46 234.56 255.36 234.56 253.96Z" fill="#2672AB"/>
<path d="M234.56 238.19V260.35L275.62 237.88C279.87 234.97 282.41 230.15 282.41 225V191.43C282.41 189.62 280.38 188.54 278.88 189.57L242.9 222.3C237.68 225.87 234.56 233.07 234.56 238.2V238.19Z" fill="#03336E"/>
<path opacity="0.5" d="M227.02 221.31C220.46 225.8 216.54 233.24 216.54 241.19V256.75L132.04 207.82L131.85 207.75C131.42 207.59 130.97 207.17 130.97 206.49V188.91C130.97 182.58 134.09 176.66 139.32 173.08L227.03 221.3L227.02 221.31Z" fill="#D1EBFF"/>
<path d="M216.54 237.69V256.75L132.04 207.82L131.85 207.75C131.42 207.59 130.97 207.17 130.97 206.49V188.91L216.54 237.69Z" fill="#A8CFF0"/>
<path d="M134.44 207.73L134.25 207.66C133.82 207.5 133.37 207.08 133.37 206.4V188.82C133.37 182.49 136.49 176.57 141.72 172.99L185.16 139.38L186.36 138.7L185.25 138.06L182.76 139.47L139.32 173.08C134.09 176.66 130.97 182.57 130.97 188.91V206.49C130.97 207.18 131.43 207.59 131.85 207.75L132.04 207.82L216.54 256.75V255.27L134.44 207.73Z" fill="#3F92D1"/>
<path d="M249.43 198.68L261.96 188.98L183.59 143.29L170.72 153.23C169.05 154.37 169.14 156.87 170.89 157.89L241.35 198.97C243.88 200.44 247.02 200.33 249.44 198.68H249.43Z" fill="#001A46"/>
<path d="M139.47 199.85V210.62L208.5 250.71V239.8L139.47 199.85Z" fill="#001A46"/>
<g style="mix-blend-mode:multiply">
<path d="M141.19 209.91V201.14L139.47 200.15V210.62L208.5 250.71V249L141.19 209.91Z" fill="#9D9EB3"/>
</g>
<path d="M224.86 196.83C223.9 197.49 222.32 197.57 221.32 197L215.56 193.7C214.57 193.13 214.54 192.13 215.5 191.47C216.46 190.81 218.04 190.73 219.04 191.3L224.8 194.6C225.79 195.17 225.82 196.17 224.86 196.83Z" fill="#2672AB"/>
<path d="M236.19 203.32C235.23 203.98 233.65 204.06 232.65 203.49L226.89 200.19C225.9 199.62 225.87 198.62 226.83 197.96C227.79 197.3 229.37 197.22 230.37 197.79L236.13 201.09C237.12 201.66 237.15 202.66 236.19 203.32Z" fill="#2672AB"/>
<path d="M224.8 193.88L219.04 190.58C218.05 190.01 216.46 190.08 215.5 190.75C214.54 191.42 214.57 192.41 215.56 192.98L221.32 196.28C222.31 196.85 223.9 196.78 224.86 196.11C225.82 195.44 225.79 194.45 224.8 193.88Z" fill="#EB4680"/>
<path d="M236.12 200.37L230.36 197.07C229.37 196.5 227.78 196.57 226.82 197.24C225.86 197.91 225.89 198.9 226.88 199.47L232.64 202.77C233.63 203.34 235.22 203.27 236.18 202.6C237.14 201.93 237.11 200.94 236.12 200.37Z" fill="#0FBAB8"/>
<path d="M236.19 202.13C235.23 202.79 233.65 202.87 232.65 202.3L226.89 199C226.47 198.76 226.24 198.45 226.16 198.11C226.03 198.61 226.27 199.12 226.89 199.47L232.65 202.77C233.64 203.34 235.23 203.27 236.19 202.6C236.75 202.21 236.96 201.72 236.86 201.25C236.78 201.56 236.56 201.86 236.19 202.12V202.13Z" fill="#3ECFCD"/>
<path d="M224.86 195.63C223.9 196.29 222.32 196.37 221.32 195.8L215.56 192.5C215.14 192.26 214.91 191.95 214.83 191.61C214.7 192.11 214.94 192.62 215.56 192.98L221.32 196.28C222.31 196.85 223.9 196.78 224.86 196.11C225.42 195.72 225.63 195.23 225.53 194.76C225.45 195.07 225.23 195.37 224.86 195.63Z" fill="#F76195"/>
<path d="M117.05 220.73V225.18L115.17 224.03V219.58L117.05 220.73Z" fill="#A8CFF0"/>
<path d="M117.04 220.73V225.18L141.01 211.2V206.77L117.04 220.73Z" fill="#72B5E8"/>
<path d="M141.01 206.77L117.04 220.73L115.17 219.58L139.17 205.61L141.01 206.77Z" fill="#D1EBFF"/>
<path d="M177.12 264.51V266.73L110.19 228.83V226.61L177.12 264.51Z" fill="#A8CFF0"/>
<path d="M177.11 264.51V266.73L208.08 248.67V246.47L177.11 264.51Z" fill="#72B5E8"/>
<path d="M208.08 246.47L177.11 264.51L110.19 226.61L141.19 208.55L208.08 246.47Z" fill="#D1EBFF"/>
<path d="M184.81 259.92V264.37L182.94 263.23V258.78L184.81 259.92Z" fill="#A8CFF0"/>
<path d="M184.8 259.92V264.37L208.77 250.4V245.96L184.8 259.92Z" fill="#72B5E8"/>
<path d="M208.77 245.96L184.8 259.92L182.94 258.78L206.94 244.81L208.77 245.96Z" fill="#D1EBFF"/>
<path d="M257.68 156.01V191.3L180.12 147.37V112.09L257.68 156.01Z" fill="#A8CFF0"/>
<path d="M257.66 156.01V191.3L259.76 190.17V154.91L257.66 156.01Z" fill="#72B5E8"/>
<path d="M259.76 154.91L257.66 156.01L180.12 112.09L182.26 110.96L259.76 154.91Z" fill="#D1EBFF"/>
<path d="M251.91 160.61V191.53L184.88 153.57V122.66L251.91 160.61Z" fill="white"/>
<path d="M145.83 281.14L82.5098 244.58L143.41 208.28L206.73 244.84L145.83 281.14Z" fill="#92B4D1"/>
<path d="M145.97 279.56L82.6499 243L143.4 208.17L206.72 244.73L145.97 279.56Z" fill="white"/>
<path d="M173.64 230.37L172.5 231.03L174.8 232.36L175.94 231.7L173.64 230.37ZM161.7 227.63L176.95 236.42L178.09 235.76L162.84 226.97L161.7 227.63ZM166.13 231.7L164.99 232.36L171.46 236.08L172.6 235.42L166.13 231.7ZM159.1 231.77L170.7 238.45L171.84 237.79L160.24 231.11L159.1 231.77ZM188.99 239.22L176.92 232.27L175.78 232.93L187.85 239.88L188.99 239.22ZM182.81 241.31L173.59 235.99L172.45 236.65L181.67 241.97L182.81 241.31ZM149.96 220.83L160.71 227.06L161.85 226.4L151.1 220.17L149.96 220.83ZM158.11 231.2L159.25 230.54L154.2 227.6L153.06 228.26L158.11 231.2ZM158.93 223.21L171.51 230.46L172.65 229.8L160.07 222.55L158.93 223.21ZM165.14 231.12L154.6 225.01L153.46 225.67L164 231.78L165.14 231.12ZM153.61 224.44L142.15 217.8L141.01 218.46L152.47 225.1L153.61 224.44ZM150.11 219.6L144.6 216.39L143.46 217.05L148.97 220.26L150.11 219.6ZM188.83 240.44L192.92 242.8L194.06 242.14L189.97 239.78L188.83 240.44ZM138.74 219.96L152.07 227.69L153.21 227.03L139.88 219.3L138.74 219.96ZM177.92 236.98L190.47 244.21L191.61 243.55L179.06 236.32L177.92 236.98ZM182.65 242.53L188.03 245.62L189.17 244.96L183.79 241.87L182.65 242.53ZM172.42 239.44L185.59 247.02L186.73 246.36L173.56 238.78L172.42 239.44Z" fill="#72B5E8"/>
<path d="M161.35 237.23L160.21 237.89L162.51 239.22L163.65 238.56L161.35 237.23ZM149.41 234.49L164.66 243.28L165.8 242.62L150.55 233.83L149.41 234.49ZM153.84 238.56L152.7 239.22L159.17 242.94L160.31 242.28L153.84 238.56ZM146.81 238.63L158.41 245.31L159.55 244.65L147.95 237.97L146.81 238.63ZM176.7 246.08L164.63 239.13L163.49 239.79L175.56 246.74L176.7 246.08ZM170.52 248.17L161.3 242.85L160.16 243.51L169.38 248.83L170.52 248.17ZM137.67 227.69L148.42 233.92L149.56 233.26L138.81 227.03L137.67 227.69ZM133.08 233.51L148.71 242.56L149.85 241.9L134.22 232.85L133.08 233.51ZM149.69 243.13L161.29 249.81L162.43 249.15L150.83 242.47L149.69 243.13ZM145.82 238.07L146.96 237.41L141.91 234.47L140.77 235.13L145.82 238.07ZM146.64 230.08L159.22 237.33L160.36 236.67L147.78 229.42L146.64 230.08ZM152.85 237.99L142.31 231.88L141.17 232.54L151.71 238.65L152.85 237.99ZM141.32 231.31L129.86 224.67L128.72 225.33L140.18 231.97L141.32 231.31ZM137.82 226.47L132.31 223.26L131.17 223.92L136.68 227.13L137.82 226.47ZM176.54 247.31L180.63 249.67L181.77 249.01L177.68 246.65L176.54 247.31ZM132.1 232.94L133.24 232.28L124.98 227.48L123.84 228.14L132.1 232.94ZM126.46 226.83L139.79 234.56L140.93 233.9L127.6 226.17L126.46 226.83ZM162.28 250.38L170.86 255.31L172 254.65L163.42 249.72L162.28 250.38ZM165.64 243.85L178.19 251.08L179.33 250.42L166.78 243.19L165.64 243.85ZM170.37 249.4L175.75 252.49L176.89 251.83L171.51 248.74L170.37 249.4ZM160.14 246.31L173.31 253.89L174.45 253.23L161.28 245.65L160.14 246.31ZM146.47 242.78L145.33 243.44L151.8 247.16L152.94 246.5L146.47 242.78ZM139.44 242.85L151.04 249.53L152.18 248.87L140.58 242.19L139.44 242.85ZM163.15 252.39L153.93 247.07L152.79 247.73L162.01 253.05L163.15 252.39ZM138.45 242.28L139.59 241.62L134.54 238.68L133.4 239.34L138.45 242.28ZM145.48 242.21L134.94 236.1L133.8 236.76L144.34 242.87L145.48 242.21ZM133.95 235.53L122.49 228.89L121.35 229.55L132.81 236.19L133.95 235.53ZM119.08 231.05L132.41 238.78L133.55 238.12L120.22 230.39L119.08 231.05ZM162.98 253.62L168.36 256.71L169.5 256.05L164.12 252.96L162.98 253.62ZM152.75 250.53L165.92 258.11L167.06 257.45L153.89 249.87L152.75 250.53Z" fill="#72B5E8"/>
<path d="M113.77 238.15L112.63 238.81L116.73 241.18L117.87 240.52L113.77 238.15ZM107.48 238.66L116.7 243.98L117.84 243.32L108.62 238L107.48 238.66ZM128.07 246.41L118.85 241.09L117.71 241.75L126.93 247.07L128.07 246.41ZM117.02 248.52L107.32 242.92L106.18 243.58L115.88 249.18L117.02 248.52ZM127.92 247.64L130.45 249.1L131.59 248.44L129.06 246.98L127.92 247.64ZM117.69 244.55L128.01 250.51L129.15 249.85L118.83 243.89L117.69 244.55Z" fill="#72B5E8"/>
<path d="M138.559 159.87C138.389 159.87 138.219 159.79 138.099 159.64C137.909 159.39 137.949 159.03 138.209 158.83L139.469 157.86C139.719 157.67 140.089 157.72 140.279 157.97C140.469 158.22 140.429 158.58 140.169 158.78L138.909 159.75C138.809 159.83 138.679 159.87 138.559 159.87ZM142.559 156.8C142.389 156.8 142.219 156.72 142.099 156.57C141.909 156.32 141.949 155.96 142.209 155.76L144.039 154.36C144.289 154.17 144.659 154.21 144.849 154.47C145.039 154.72 144.999 155.08 144.739 155.28L142.909 156.68C142.809 156.76 142.679 156.8 142.559 156.8ZM147.129 153.3C146.959 153.3 146.789 153.22 146.669 153.07C146.479 152.82 146.519 152.46 146.779 152.26L148.609 150.86C148.859 150.67 149.229 150.72 149.419 150.97C149.609 151.22 149.569 151.58 149.309 151.78L147.479 153.18C147.379 153.26 147.249 153.3 147.129 153.3ZM151.699 149.8C151.529 149.8 151.359 149.72 151.239 149.57C151.049 149.32 151.089 148.96 151.349 148.76L153.179 147.36C153.429 147.17 153.799 147.21 153.989 147.47C154.179 147.72 154.139 148.08 153.879 148.28L152.049 149.68C151.949 149.76 151.819 149.8 151.699 149.8ZM156.269 146.3C156.099 146.3 155.929 146.22 155.809 146.07C155.619 145.82 155.659 145.46 155.919 145.26L157.749 143.86C157.999 143.67 158.359 143.71 158.559 143.97C158.749 144.22 158.709 144.58 158.449 144.78L156.619 146.18C156.519 146.26 156.389 146.3 156.269 146.3ZM160.839 142.8C160.669 142.8 160.499 142.72 160.379 142.57C160.189 142.32 160.229 141.96 160.489 141.76L162.319 140.36C162.569 140.17 162.939 140.22 163.129 140.47C163.319 140.72 163.279 141.08 163.019 141.28L161.189 142.68C161.089 142.76 160.959 142.8 160.839 142.8ZM165.409 139.3C165.239 139.3 165.069 139.22 164.949 139.07C164.759 138.82 164.799 138.46 165.059 138.26L166.889 136.86C167.139 136.67 167.509 136.72 167.699 136.97C167.889 137.22 167.849 137.58 167.589 137.78L165.759 139.18C165.659 139.26 165.529 139.3 165.409 139.3ZM169.979 135.8C169.809 135.8 169.639 135.72 169.519 135.57C169.329 135.32 169.369 134.96 169.629 134.76L169.739 134.67V133.08C169.739 132.76 169.999 132.5 170.319 132.5C170.639 132.5 170.899 132.76 170.899 133.08V135.24L170.339 135.67C170.239 135.75 170.109 135.79 169.989 135.79L169.979 135.8ZM170.319 130.21C169.999 130.21 169.739 129.95 169.739 129.63V127.33C169.739 127.01 169.999 126.75 170.319 126.75C170.639 126.75 170.899 127.01 170.899 127.33V129.63C170.899 129.95 170.639 130.21 170.319 130.21Z" fill="#0FBAB8"/>
<path d="M252.19 367.33C252.19 367.33 252.16 367.33 252.15 367.33C251.36 367.28 250.58 367.19 249.81 367.07C249.49 367.02 249.28 366.73 249.33 366.41C249.38 366.09 249.68 365.88 249.99 365.93C250.72 366.04 251.48 366.13 252.23 366.17C252.55 366.19 252.79 366.46 252.77 366.78C252.75 367.09 252.5 367.32 252.2 367.32L252.19 367.33ZM255.64 367.33C255.34 367.33 255.09 367.1 255.07 366.8C255.05 366.48 255.29 366.21 255.6 366.18C256.36 366.13 257.11 366.03 257.83 365.91C258.13 365.85 258.44 366.06 258.5 366.38C258.56 366.69 258.34 366.99 258.03 367.05C257.27 367.18 256.48 367.28 255.69 367.34C255.68 367.34 255.66 367.34 255.65 367.34L255.64 367.33ZM246.52 366.34C246.47 366.34 246.41 366.34 246.36 366.32C245.6 366.09 244.86 365.83 244.13 365.54C243.84 365.42 243.69 365.08 243.81 364.79C243.93 364.49 244.27 364.35 244.56 364.47C245.25 364.75 245.96 365 246.68 365.22C246.99 365.31 247.16 365.63 247.07 365.94C246.99 366.19 246.77 366.35 246.52 366.35V366.34ZM261.26 366.18C261.02 366.18 260.8 366.03 260.72 365.8C260.61 365.5 260.77 365.17 261.07 365.06C261.78 364.8 262.47 364.51 263.11 364.17C263.39 364.02 263.74 364.13 263.89 364.42C264.04 364.7 263.92 365.05 263.64 365.2C262.95 365.56 262.22 365.88 261.46 366.15C261.4 366.17 261.33 366.18 261.27 366.18H261.26ZM241.26 364.02C241.16 364.02 241.06 364 240.97 363.94L238.97 362.79C238.69 362.63 238.6 362.28 238.76 362C238.92 361.72 239.28 361.63 239.55 361.79L241.55 362.94C241.83 363.1 241.92 363.45 241.76 363.73C241.65 363.91 241.46 364.02 241.26 364.02ZM266.38 363.56C266.18 363.56 265.99 363.46 265.88 363.27C265.72 362.99 265.82 362.64 266.09 362.48L268.09 361.34C268.36 361.18 268.72 361.28 268.88 361.55C269.04 361.83 268.94 362.18 268.67 362.34L266.67 363.48C266.58 363.53 266.48 363.56 266.38 363.56ZM236.27 361.14C236.17 361.14 236.07 361.12 235.98 361.06L233.98 359.91C233.7 359.75 233.61 359.4 233.77 359.12C233.93 358.84 234.29 358.75 234.56 358.91L236.56 360.06C236.84 360.22 236.93 360.57 236.77 360.85C236.66 361.03 236.47 361.14 236.27 361.14ZM271.39 360.71C271.19 360.71 271 360.61 270.89 360.42C270.73 360.14 270.83 359.79 271.1 359.63L273.1 358.49C273.38 358.33 273.73 358.43 273.89 358.71C274.05 358.99 273.95 359.34 273.68 359.5L271.68 360.64C271.59 360.69 271.49 360.72 271.39 360.72V360.71ZM276.39 357.85C276.19 357.85 276 357.75 275.89 357.56C275.73 357.28 275.83 356.93 276.11 356.77L278.11 355.63C278.39 355.47 278.74 355.57 278.9 355.84C279.06 356.12 278.96 356.47 278.68 356.63L276.68 357.77C276.59 357.82 276.49 357.85 276.39 357.85ZM281.39 355C281.19 355 281 354.9 280.89 354.71C280.73 354.43 280.83 354.08 281.1 353.92L283.1 352.78C283.37 352.62 283.73 352.72 283.89 352.99C284.05 353.27 283.95 353.62 283.68 353.78L281.68 354.92C281.59 354.97 281.49 355 281.39 355ZM286.39 352.14C286.19 352.14 286 352.04 285.89 351.85C285.73 351.57 285.83 351.22 286.1 351.06L288.1 349.92C288.37 349.76 288.73 349.86 288.89 350.13C289.05 350.41 288.95 350.76 288.68 350.92L286.68 352.06C286.59 352.11 286.49 352.14 286.39 352.14ZM291.39 349.29C291.19 349.29 291 349.19 290.89 349C290.73 348.72 290.83 348.37 291.11 348.21L293.11 347.07C293.39 346.91 293.74 347.01 293.9 347.28C294.06 347.56 293.96 347.91 293.69 348.07L291.69 349.21C291.6 349.26 291.5 349.29 291.4 349.29H291.39ZM296.39 346.43C296.19 346.43 296 346.33 295.89 346.14C295.73 345.86 295.83 345.51 296.1 345.35L298.1 344.21C298.38 344.05 298.73 344.15 298.89 344.42C299.05 344.7 298.95 345.05 298.67 345.21L296.67 346.35C296.58 346.4 296.48 346.43 296.38 346.43H296.39ZM301.39 343.57C301.19 343.57 301 343.47 300.89 343.28C300.73 343 300.83 342.65 301.1 342.49L303.1 341.35C303.37 341.19 303.73 341.29 303.89 341.56C304.05 341.84 303.95 342.19 303.68 342.35L301.68 343.49C301.59 343.54 301.49 343.57 301.39 343.57Z" fill="#FFD70F"/>
<path d="M168.209 121.39C168.209 122.91 169.289 124.77 170.609 125.53C170.969 125.74 171.329 125.85 171.649 125.85C172.399 125.85 172.859 125.24 172.859 124.25C172.859 122.73 171.779 120.87 170.459 120.11C170.099 119.9 169.739 119.79 169.419 119.79C168.669 119.79 168.209 120.4 168.209 121.39Z" fill="#0FBAB8"/>
<path d="M228.5 357.59C228.5 358.64 229.96 359.49 231.76 359.49C233.56 359.49 235.02 358.64 235.02 357.59C235.02 356.54 233.56 355.69 231.76 355.69C229.96 355.69 228.5 356.54 228.5 357.59Z" fill="#FFD70F"/>
<path d="M113.08 279.04C113.08 280.09 114.54 280.94 116.34 280.94C118.14 280.94 119.6 280.09 119.6 279.04C119.6 277.99 118.14 277.14 116.34 277.14C114.54 277.14 113.08 277.99 113.08 279.04Z" fill="#EB4680"/>
<path d="M312.37 242.13C312.37 243.18 313.83 244.03 315.63 244.03C317.43 244.03 318.89 243.18 318.89 242.13C318.89 241.08 317.43 240.23 315.63 240.23C313.83 240.23 312.37 241.08 312.37 242.13Z" fill="#0FBAB8"/>
<path d="M302.39 339.4L306.49 342.14L309.23 337.48L302.39 339.4Z" fill="#FFD70F"/>
<path d="M361.979 238.19L366.089 240.93L368.819 236.28L361.979 238.19Z" fill="#0FBAB8"/>
<path d="M140.309 160.78L136.199 158.04L133.459 162.7L140.309 160.78Z" fill="#0FBAB8"/>
<path d="M165.53 309.78L169.63 307.04L172.37 311.69L165.53 309.78Z" fill="#EB4680"/>
<path d="M167.56 309.21C167.46 309.21 167.36 309.19 167.27 309.13L165.27 307.98C164.99 307.82 164.9 307.47 165.06 307.19C165.22 306.92 165.57 306.82 165.85 306.98L167.85 308.13C168.13 308.29 168.22 308.64 168.06 308.92C167.95 309.1 167.76 309.21 167.56 309.21ZM162.57 306.33C162.47 306.33 162.37 306.31 162.28 306.25L160.29 305.1C160.01 304.94 159.92 304.59 160.08 304.31C160.24 304.03 160.59 303.94 160.87 304.1L162.86 305.25C163.14 305.41 163.23 305.76 163.07 306.04C162.96 306.22 162.77 306.33 162.57 306.33ZM157.58 303.45C157.48 303.45 157.38 303.43 157.29 303.37L155.29 302.22C155.01 302.06 154.92 301.71 155.08 301.43C155.24 301.15 155.59 301.06 155.87 301.22L157.87 302.37C158.15 302.53 158.24 302.88 158.08 303.16C157.97 303.34 157.78 303.45 157.58 303.45ZM152.59 300.57C152.49 300.57 152.39 300.55 152.3 300.49L150.3 299.34C150.02 299.18 149.93 298.83 150.09 298.55C150.25 298.27 150.6 298.18 150.88 298.34L152.88 299.49C153.16 299.65 153.25 300 153.09 300.28C152.98 300.46 152.79 300.57 152.59 300.57ZM147.6 297.69C147.5 297.69 147.4 297.67 147.31 297.61L145.31 296.46C145.03 296.3 144.94 295.95 145.1 295.67C145.26 295.39 145.61 295.3 145.89 295.46L147.89 296.61C148.17 296.77 148.26 297.12 148.1 297.4C147.99 297.58 147.8 297.69 147.6 297.69ZM142.61 294.81C142.51 294.81 142.41 294.79 142.32 294.73L140.32 293.58C140.04 293.42 139.95 293.07 140.11 292.79C140.27 292.51 140.62 292.42 140.9 292.58L142.9 293.73C143.18 293.89 143.27 294.24 143.11 294.52C143 294.7 142.81 294.81 142.61 294.81ZM137.62 291.93C137.52 291.93 137.42 291.91 137.33 291.85L135.33 290.7C135.05 290.54 134.96 290.19 135.12 289.91C135.28 289.63 135.63 289.54 135.91 289.7L137.91 290.85C138.19 291.01 138.28 291.36 138.12 291.64C138.01 291.82 137.82 291.93 137.62 291.93ZM132.63 289.05C132.53 289.05 132.43 289.03 132.34 288.97L130.34 287.82C130.06 287.66 129.97 287.31 130.13 287.03C130.29 286.75 130.64 286.66 130.92 286.82L132.92 287.97C133.2 288.13 133.29 288.48 133.13 288.76C133.02 288.94 132.83 289.05 132.63 289.05ZM127.64 286.17C127.54 286.17 127.44 286.15 127.35 286.09L125.35 284.94C125.07 284.78 124.98 284.43 125.14 284.15C125.3 283.88 125.65 283.78 125.93 283.94L127.93 285.09C128.21 285.25 128.3 285.6 128.14 285.88C128.03 286.06 127.84 286.17 127.64 286.17ZM122.65 283.29C122.55 283.29 122.45 283.27 122.36 283.21L120.37 282.06C120.09 281.9 120 281.55 120.16 281.27C120.32 280.99 120.67 280.9 120.95 281.06L122.94 282.21C123.22 282.37 123.31 282.72 123.15 283C123.04 283.18 122.85 283.29 122.65 283.29ZM117.66 280.41C117.56 280.41 117.46 280.39 117.37 280.33L116.97 280.1C116.69 279.94 116.6 279.59 116.76 279.31C116.92 279.03 117.27 278.94 117.55 279.1L117.95 279.33C118.23 279.49 118.32 279.84 118.16 280.12C118.05 280.3 117.86 280.41 117.66 280.41Z" fill="#EB4680"/>
<path d="M417.189 78.68C417.189 77.63 415.729 76.78 413.929 76.78C412.129 76.78 410.669 77.63 410.669 78.68C410.669 79.73 412.129 80.58 413.929 80.58C415.729 80.58 417.189 79.73 417.189 78.68Z" fill="#FFD70F"/>
<path d="M371.34 51.92L367.24 54.66L364.5 50L371.34 51.92Z" fill="#FFD70F"/>
<path d="M411.27 77.75C411.17 77.75 411.07 77.73 410.98 77.67L408.98 76.52C408.7 76.36 408.61 76.01 408.77 75.73C408.93 75.45 409.28 75.36 409.56 75.52L411.56 76.67C411.84 76.83 411.93 77.18 411.77 77.46C411.66 77.65 411.47 77.75 411.27 77.75ZM406.27 74.88C406.17 74.88 406.07 74.86 405.98 74.8L403.98 73.65C403.7 73.49 403.61 73.14 403.77 72.86C403.93 72.58 404.28 72.49 404.56 72.65L406.56 73.8C406.84 73.96 406.93 74.31 406.77 74.59C406.66 74.78 406.47 74.88 406.27 74.88ZM401.27 72.01C401.17 72.01 401.07 71.99 400.98 71.93L398.98 70.78C398.7 70.62 398.61 70.27 398.77 69.99C398.93 69.71 399.28 69.62 399.56 69.78L401.56 70.93C401.84 71.09 401.93 71.44 401.77 71.72C401.66 71.91 401.47 72.01 401.27 72.01ZM396.27 69.14C396.17 69.14 396.07 69.12 395.98 69.06L393.98 67.91C393.7 67.75 393.61 67.4 393.77 67.12C393.93 66.84 394.28 66.75 394.56 66.91L396.56 68.06C396.84 68.22 396.93 68.57 396.77 68.85C396.66 69.04 396.47 69.14 396.27 69.14ZM391.27 66.27C391.17 66.27 391.07 66.25 390.98 66.19L388.98 65.04C388.7 64.88 388.61 64.53 388.77 64.25C388.93 63.97 389.28 63.88 389.56 64.04L391.56 65.19C391.84 65.35 391.93 65.7 391.77 65.98C391.66 66.17 391.47 66.27 391.27 66.27ZM386.27 63.4C386.17 63.4 386.07 63.38 385.98 63.32L383.98 62.17C383.7 62.01 383.61 61.66 383.77 61.38C383.93 61.1 384.28 61.01 384.56 61.17L386.56 62.32C386.84 62.48 386.93 62.83 386.77 63.11C386.66 63.3 386.47 63.4 386.27 63.4ZM381.27 60.53C381.17 60.53 381.07 60.51 380.98 60.45L378.98 59.3C378.7 59.14 378.61 58.79 378.77 58.51C378.93 58.23 379.28 58.14 379.56 58.3L381.56 59.45C381.84 59.61 381.93 59.96 381.77 60.24C381.66 60.43 381.47 60.53 381.27 60.53ZM376.27 57.66C376.17 57.66 376.07 57.64 375.98 57.58L373.98 56.43C373.7 56.27 373.61 55.92 373.77 55.64C373.93 55.36 374.28 55.27 374.56 55.43L376.56 56.58C376.84 56.74 376.93 57.09 376.77 57.37C376.66 57.56 376.47 57.66 376.27 57.66ZM371.27 54.79C371.17 54.79 371.07 54.77 370.98 54.71L368.98 53.56C368.7 53.4 368.61 53.05 368.77 52.77C368.93 52.49 369.28 52.4 369.56 52.56L371.56 53.71C371.84 53.87 371.93 54.22 371.77 54.5C371.66 54.69 371.47 54.79 371.27 54.79Z" fill="#FFD70F"/>
<path d="M459.749 320.47C459.749 319.42 458.289 318.57 456.489 318.57C454.689 318.57 453.229 319.42 453.229 320.47C453.229 321.52 454.689 322.37 456.489 322.37C458.289 322.37 459.749 321.52 459.749 320.47Z" fill="#0FBAB8"/>
<path d="M428.27 302.08L424.16 304.82L421.43 300.16L428.27 302.08Z" fill="#0FBAB8"/>
<path d="M453.26 319.22C453.16 319.22 453.06 319.2 452.97 319.14L450.97 318C450.69 317.84 450.6 317.49 450.76 317.21C450.92 316.93 451.27 316.84 451.55 317L453.55 318.14C453.83 318.3 453.92 318.65 453.76 318.93C453.65 319.12 453.46 319.22 453.26 319.22ZM448.26 316.36C448.16 316.36 448.06 316.34 447.97 316.28L445.97 315.14C445.69 314.98 445.6 314.63 445.76 314.35C445.92 314.07 446.27 313.98 446.55 314.14L448.55 315.28C448.83 315.44 448.92 315.79 448.77 316.07C448.66 316.26 448.47 316.36 448.27 316.36H448.26ZM443.26 313.5C443.16 313.5 443.06 313.48 442.97 313.42L440.97 312.28C440.69 312.12 440.6 311.77 440.75 311.49C440.91 311.21 441.26 311.12 441.54 311.27L443.54 312.41C443.82 312.57 443.91 312.92 443.75 313.2C443.64 313.39 443.45 313.49 443.25 313.49L443.26 313.5ZM438.26 310.65C438.16 310.65 438.06 310.63 437.97 310.57L435.97 309.43C435.69 309.27 435.6 308.92 435.76 308.64C435.92 308.36 436.27 308.27 436.55 308.43L438.55 309.57C438.83 309.73 438.92 310.08 438.76 310.36C438.65 310.55 438.46 310.65 438.26 310.65ZM433.26 307.79C433.16 307.79 433.06 307.77 432.97 307.71L430.97 306.57C430.69 306.41 430.6 306.06 430.76 305.78C430.92 305.5 431.27 305.41 431.55 305.57L433.55 306.71C433.83 306.87 433.92 307.22 433.76 307.5C433.65 307.69 433.46 307.79 433.26 307.79ZM428.26 304.93C428.16 304.93 428.06 304.91 427.97 304.85L425.97 303.71C425.69 303.55 425.6 303.2 425.76 302.92C425.92 302.64 426.27 302.55 426.55 302.7L428.55 303.84C428.83 304 428.92 304.35 428.77 304.63C428.66 304.82 428.47 304.92 428.27 304.92L428.26 304.93Z" fill="#0FBAB8"/>
<path d="M336.47 246.68C335.69 246.68 334.92 246.65 334.15 246.61C333.83 246.6 333.59 246.33 333.6 246.01C333.61 245.69 333.9 245.42 334.2 245.46C334.96 245.49 335.72 245.52 336.48 245.53C336.8 245.53 337.05 245.79 337.05 246.11C337.05 246.43 336.79 246.68 336.47 246.68ZM339.93 246.63C339.62 246.63 339.37 246.39 339.35 246.08C339.34 245.76 339.59 245.49 339.9 245.48C340.66 245.45 341.42 245.41 342.18 245.35C342.49 245.33 342.77 245.56 342.8 245.88C342.82 246.2 342.59 246.47 342.27 246.5C341.5 246.56 340.72 246.6 339.95 246.63H339.93ZM330.72 246.36C330.72 246.36 330.68 246.36 330.66 246.36C329.89 246.28 329.12 246.19 328.35 246.09C328.03 246.05 327.81 245.76 327.86 245.44C327.9 245.12 328.2 244.89 328.51 244.95C329.26 245.05 330.02 245.14 330.78 245.22C331.1 245.25 331.33 245.53 331.3 245.85C331.27 246.15 331.02 246.37 330.73 246.37L330.72 246.36ZM345.67 246.15C345.39 246.15 345.14 245.94 345.1 245.65C345.06 245.33 345.28 245.05 345.6 245.01C346.36 244.91 347.11 244.8 347.86 244.68C348.17 244.62 348.47 244.84 348.52 245.15C348.57 245.46 348.36 245.76 348.05 245.81C347.29 245.94 346.52 246.05 345.75 246.15C345.73 246.15 345.7 246.15 345.68 246.15H345.67ZM325.02 245.52C325.02 245.52 324.95 245.52 324.91 245.51C324.14 245.36 323.39 245.2 322.63 245.02C322.32 244.95 322.13 244.64 322.2 244.33C322.27 244.02 322.58 243.82 322.89 243.9C323.63 244.07 324.37 244.23 325.12 244.38C325.43 244.44 325.64 244.74 325.58 245.06C325.53 245.33 325.29 245.53 325.02 245.53V245.52ZM351.34 245.14C351.08 245.14 350.84 244.96 350.78 244.69C350.71 244.38 350.9 244.07 351.21 244C351.96 243.83 352.69 243.65 353.42 243.45C353.73 243.37 354.04 243.55 354.13 243.86C354.21 244.17 354.03 244.48 353.72 244.57C352.98 244.77 352.22 244.96 351.46 245.13C351.42 245.14 351.37 245.14 351.33 245.14H351.34ZM319.43 244.14C319.37 244.14 319.32 244.14 319.26 244.12C318.51 243.89 317.77 243.65 317.05 243.39C316.75 243.28 316.59 242.95 316.7 242.66C316.81 242.36 317.14 242.2 317.43 242.31C318.14 242.56 318.86 242.8 319.6 243.02C319.9 243.11 320.08 243.43 319.98 243.74C319.9 243.99 319.68 244.15 319.43 244.15V244.14ZM356.88 243.57C356.64 243.57 356.42 243.42 356.34 243.18C356.24 242.88 356.4 242.55 356.7 242.45C357.42 242.2 358.13 241.93 358.83 241.65C359.12 241.53 359.46 241.67 359.58 241.97C359.7 242.26 359.56 242.6 359.26 242.72C358.54 243.01 357.82 243.28 357.07 243.54C357.01 243.56 356.94 243.57 356.88 243.57ZM362.19 241.35C361.98 241.35 361.78 241.23 361.67 241.03C361.53 240.75 361.64 240.4 361.93 240.26C362.61 239.92 363.28 239.56 363.93 239.19C364.2 239.03 364.56 239.13 364.72 239.4C364.88 239.68 364.78 240.03 364.51 240.19C363.84 240.58 363.15 240.94 362.45 241.3C362.37 241.34 362.28 241.36 362.19 241.36V241.35Z" fill="#0FBAB8"/>
<path d="M423.24 284.15H365.93V287.12C365.93 296.34 378.76 303.81 394.58 303.81C410.4 303.81 423.23 296.34 423.23 287.12C423.23 287.04 423.23 286.97 423.22 286.89H423.23V284.15H423.24Z" fill="#A8CFF0"/>
<path d="M394.589 300.95C410.412 300.95 423.239 293.478 423.239 284.26C423.239 275.042 410.412 267.57 394.589 267.57C378.766 267.57 365.939 275.042 365.939 284.26C365.939 293.478 378.766 300.95 394.589 300.95Z" fill="#D1EBFF"/>
<path d="M394.589 300.88C378.939 300.88 366.219 293.57 365.949 284.49C365.949 284.59 365.939 284.69 365.939 284.79C365.939 294.01 378.769 301.48 394.589 301.48C410.409 301.48 423.239 294.01 423.239 284.79C423.239 284.69 423.239 284.59 423.229 284.49C422.959 293.57 410.239 300.88 394.589 300.88Z" fill="white"/>
<path d="M421.62 276.22H367.65V283.49C367.65 292.17 379.73 299.2 394.64 299.2C409.55 299.2 421.63 292.16 421.63 283.49C421.63 283.42 421.63 283.35 421.63 283.27V276.22H421.62Z" fill="#A8CFF0"/>
<path d="M394.64 292.04C409.546 292.04 421.63 285.006 421.63 276.33C421.63 267.654 409.546 260.62 394.64 260.62C379.734 260.62 367.65 267.654 367.65 276.33C367.65 285.006 379.734 292.04 394.64 292.04Z" fill="#D1EBFF"/>
<path d="M380.86 274.59C379.96 279.35 385.85 284.46 394.02 286.01C402.19 287.56 409.54 284.96 410.45 280.2C411.35 275.44 405.46 270.33 397.29 268.78C389.12 267.23 381.77 269.83 380.86 274.59Z" fill="#A8CFF0"/>
<path d="M394.64 291.98C379.9 291.98 367.93 285.1 367.67 276.55C367.67 276.64 367.66 276.74 367.66 276.83C367.66 285.51 379.74 292.54 394.65 292.54C409.56 292.54 421.64 285.5 421.64 276.83C421.64 276.74 421.64 276.64 421.63 276.55C421.37 285.1 409.4 291.98 394.66 291.98H394.64Z" fill="white"/>
<g style="mix-blend-mode:multiply" opacity="0.2">
<path d="M413.47 285.71L419.05 282.47L464.01 308.43C460.56 310.44 456.3 310.44 452.84 308.45L413.47 285.72V285.71Z" fill="#D1EBFF"/>
</g>
<path d="M463.679 298.03C466.349 300.19 466.749 304.1 464.589 306.77C462.429 309.44 458.519 309.84 455.849 307.68C453.179 305.52 452.779 301.61 454.939 298.94C457.099 296.27 461.009 295.87 463.679 298.03Z" fill="#001A46"/>
<path d="M430.489 269.54L420.869 281.41L453.639 307.85C453.639 307.85 453.669 307.88 453.689 307.89C455.599 309.44 459.299 308.04 461.959 304.76C464.619 301.48 465.219 297.57 463.319 296.02C463.299 296.01 463.289 296 463.269 295.98L430.499 269.54H430.489Z" fill="#084C94"/>
<path d="M430.509 269.56C432.419 271.11 431.809 275.02 429.149 278.3C426.489 281.58 422.789 282.98 420.879 281.43C418.969 279.88 419.579 275.97 422.239 272.69C424.899 269.41 428.599 268.01 430.509 269.56Z" fill="#2672AB"/>
<path d="M418.579 263.87L412.859 270.93L422.179 278.48L422.199 278.5C423.339 279.43 425.549 278.59 427.129 276.64C428.709 274.69 429.069 272.36 427.939 271.44L427.919 271.43L418.599 263.87H418.579Z" fill="#001A46"/>
<path d="M411.56 279.83L388.54 261.41L385.77 264.87C385.77 264.87 385.72 264.93 385.7 264.96C382.74 268.66 385.49 275.79 391.85 280.87C398.21 285.96 405.76 287.08 408.72 283.38C408.74 283.35 408.77 283.32 408.79 283.28L411.56 279.82V279.83Z" fill="#72B5E8"/>
<path d="M388.51 261.46C385.55 265.16 388.3 272.29 394.66 277.37C401.02 282.46 408.57 283.58 411.53 279.88C414.49 276.18 411.74 269.05 405.38 263.97C399.02 258.88 391.47 257.76 388.51 261.46Z" fill="#A8CFF0"/>
<path d="M394.669 277.34C388.379 272.31 385.619 265.29 388.429 261.55C388.399 261.59 388.359 261.63 388.329 261.67C385.369 265.37 388.119 272.5 394.479 277.58C400.839 282.67 408.389 283.79 411.349 280.09C411.379 280.05 411.409 280.01 411.439 279.97C408.409 283.53 400.959 282.38 394.669 277.35V277.34Z" fill="white"/>
<path d="M411.49 274.7L393.57 260.36L391.42 263.05C391.42 263.05 391.38 263.1 391.36 263.12C389.05 266 391.2 271.55 396.15 275.51C401.1 279.47 406.98 280.34 409.29 277.46C409.31 277.44 409.33 277.41 409.34 277.39L411.49 274.7Z" fill="#3F92D1"/>
<path d="M393.54 260.39C391.23 263.27 393.38 268.82 398.33 272.78C403.28 276.74 409.16 277.61 411.47 274.73C413.78 271.85 411.63 266.3 406.68 262.34C401.73 258.38 395.85 257.51 393.54 260.39Z" fill="#FFDE17"/>
<path d="M398.34 272.76C393.44 268.84 391.3 263.38 393.48 260.47C393.45 260.5 393.43 260.53 393.4 260.56C391.09 263.44 393.24 268.99 398.19 272.95C403.14 276.91 409.02 277.78 411.33 274.9C411.36 274.87 411.38 274.84 411.4 274.8C409.04 277.57 403.24 276.68 398.34 272.76Z" fill="white"/>
<path d="M424.549 260.58L404.48 244.52L402.069 247.54C402.069 247.54 392.619 259.35 392.599 259.38C390.019 262.61 392.419 268.82 397.959 273.26C403.499 277.7 410.09 278.67 412.67 275.45C412.69 275.42 412.71 275.39 412.73 275.37L424.549 260.6V260.58Z" fill="#72B5E8"/>
<path d="M404.439 244.56C401.859 247.79 404.259 254 409.799 258.44C415.339 262.88 421.929 263.85 424.509 260.63C427.089 257.4 424.689 251.19 419.149 246.75C413.609 242.31 407.019 241.34 404.439 244.56Z" fill="#A8CFF0"/>
<path d="M409.819 258.41C404.339 254.02 401.929 247.9 404.379 244.64C404.349 244.67 404.319 244.71 404.289 244.74C401.709 247.97 404.109 254.18 409.649 258.62C415.189 263.06 421.779 264.03 424.359 260.81C424.389 260.77 424.409 260.74 424.439 260.7C421.799 263.8 415.299 262.8 409.809 258.41H409.819Z" fill="white"/>
<path d="M426.18 256.34L408.26 242L406.11 244.69C406.11 244.69 406.07 244.74 406.05 244.76C403.74 247.64 405.89 253.19 410.84 257.15C415.79 261.11 421.67 261.98 423.98 259.1C424 259.08 424.02 259.05 424.03 259.03L426.18 256.34Z" fill="#3F92D1"/>
<path d="M408.23 242.04C405.92 244.92 408.07 250.47 413.02 254.43C417.97 258.39 423.85 259.26 426.16 256.38C428.47 253.5 426.32 247.95 421.37 243.99C416.42 240.03 410.54 239.16 408.23 242.04Z" fill="#FFDE17"/>
<path d="M413.03 254.4C408.13 250.48 405.99 245.02 408.17 242.11C408.14 242.14 408.12 242.17 408.09 242.2C405.78 245.08 407.93 250.63 412.88 254.59C417.83 258.55 423.71 259.42 426.02 256.54C426.05 256.51 426.07 256.48 426.09 256.44C423.73 259.21 417.93 258.32 413.03 254.4Z" fill="white"/>
<path d="M432.169 254.08L409.149 235.66L406.379 239.12C406.379 239.12 406.329 239.18 406.309 239.21C403.349 242.91 406.099 250.04 412.459 255.12C418.819 260.21 426.369 261.33 429.329 257.63C429.349 257.6 429.379 257.57 429.399 257.53L432.169 254.07V254.08Z" fill="#72B5E8"/>
<path d="M409.11 235.71C406.15 239.41 408.9 246.54 415.26 251.62C421.62 256.71 429.17 257.83 432.13 254.13C435.09 250.43 432.34 243.3 425.98 238.22C419.62 233.13 412.07 232.01 409.11 235.71Z" fill="#A8CFF0"/>
<path d="M415.279 251.59C408.989 246.56 406.229 239.54 409.039 235.8C409.009 235.84 408.969 235.88 408.939 235.92C405.979 239.62 408.729 246.75 415.089 251.83C421.449 256.92 428.999 258.04 431.959 254.34C431.989 254.3 432.019 254.26 432.049 254.22C429.019 257.78 421.569 256.63 415.279 251.6V251.59Z" fill="white"/>
<path opacity="0.2" d="M245.89 357.03L188.6 323.62C184.9 321.48 185.37 317.75 189.64 315.29L276.08 265.4C280.35 262.93 286.81 262.67 290.51 264.8L347.8 298.21C351.5 300.35 351.03 304.08 346.76 306.54L260.32 356.43C256.05 358.9 249.59 359.16 245.89 357.03Z" fill="#92B4D1"/>
<path d="M338.42 288.38C338.38 287.3 337.53 286.19 336.03 285.27L328.99 280.96L330.49 280.41C333.81 279.18 334.22 276.64 331.16 274.7C328.04 272.73 322.72 272.14 319.35 273.39L317.65 274.02L310.61 269.71C309.1 268.79 307.06 268.12 304.87 267.84C302.39 267.52 299.94 267.72 298.13 268.38L291.95 270.69L329.47 293.66L335.65 291.35C337.46 290.68 338.47 289.6 338.43 288.38H338.42ZM322.48 277.79C321.05 276.91 321.12 275.75 322.65 275.18C324.17 274.62 326.57 274.87 328.01 275.75C329.45 276.63 329.37 277.79 327.84 278.36C326.32 278.92 323.92 278.67 322.48 277.79Z" fill="#A8CFF0"/>
<path d="M246.289 355.86L188.969 322.42C185.289 320.3 185.749 316.59 189.999 314.13L276.229 264.36C280.479 261.91 286.899 261.64 290.579 263.77L347.899 297.21C351.579 299.33 351.119 303.04 346.869 305.5L260.639 355.27C256.389 357.72 249.969 357.99 246.289 355.86Z" fill="#084C94"/>
<path d="M246.289 354.68L188.969 321.24C185.289 319.12 185.749 315.41 189.999 312.95L276.229 263.18C280.479 260.73 286.899 260.46 290.579 262.59L347.899 296.03C351.579 298.15 351.119 301.86 346.869 304.32L260.639 354.09C256.389 356.54 249.969 356.81 246.289 354.68Z" fill="#2672AB"/>
<path d="M346.869 303.67L260.639 353.44C256.389 355.89 249.969 356.16 246.289 354.03L188.969 320.59C187.429 319.7 186.619 318.53 186.509 317.29C186.359 318.76 187.159 320.19 188.969 321.23L246.289 354.67C249.969 356.79 256.389 356.53 260.639 354.08L346.869 304.31C349.339 302.89 350.519 301.04 350.359 299.33C350.209 300.85 349.029 302.43 346.869 303.67Z" fill="#3F92D1"/>
<g style="mix-blend-mode:multiply">
<path d="M252.05 349.77L193.06 309.87L285.54 264.91L344.54 304.81L252.05 349.77Z" fill="#D1EBFF"/>
</g>
<path d="M253.159 348.55L194.169 308.65L286.659 263.68L345.649 303.58L253.159 348.55Z" fill="#F0F8FF"/>
<g style="mix-blend-mode:multiply">
<path d="M252.509 351.09L190.209 315.12L280.169 263.18L342.479 299.15L252.509 351.09Z" fill="#D1EBFF"/>
</g>
<path d="M253.499 349.64L191.819 314.04L280.879 262.62L342.559 298.23L253.499 349.64Z" fill="white"/>
<g style="mix-blend-mode:multiply">
<path d="M338.08 287.66C337.97 286.44 337.08 285.28 335.58 284.41L328.54 280.35L329.94 279.54C333.04 277.75 333.26 274.8 330.2 272.97C327.08 271.1 321.94 271.07 318.8 272.89L317.22 273.8L310.18 269.74C308.68 268.87 306.67 268.36 304.55 268.29C302.15 268.22 299.82 268.74 298.13 269.71L292.37 272.42L329.86 294.07L335.62 291.36C337.31 290.38 338.21 289.04 338.09 287.65L338.08 287.66ZM322.1 277.52C320.67 276.69 320.66 275.36 322.08 274.54C323.5 273.72 325.82 273.72 327.25 274.54C328.68 275.37 328.69 276.7 327.27 277.52C325.85 278.34 323.53 278.34 322.1 277.52Z" fill="#D1EBFF"/>
</g>
<path d="M337.669 286.42C337.559 285.2 336.669 284.04 335.169 283.17L328.129 279.11L329.529 278.3C332.629 276.51 332.849 273.56 329.789 271.73C326.669 269.86 321.529 269.83 318.389 271.65L316.809 272.56L309.769 268.5C308.269 267.63 306.259 267.12 304.139 267.05C301.739 266.98 299.409 267.5 297.719 268.47L291.959 271.83L329.449 293.48L335.209 290.12C336.899 289.14 337.799 287.8 337.679 286.41L337.669 286.42ZM321.689 276.28C320.259 275.45 320.249 274.12 321.669 273.3C323.089 272.48 325.409 272.48 326.839 273.3C328.269 274.13 328.279 275.46 326.859 276.28C325.439 277.1 323.119 277.1 321.689 276.28Z" fill="#A8CFF0"/>
<path d="M326.85 272.73C325.42 271.9 323.1 271.9 321.68 272.73C320.84 273.21 320.51 273.87 320.66 274.5C320.76 274.06 321.1 273.64 321.68 273.3C323.1 272.48 325.42 272.48 326.85 273.3C327.44 273.64 327.79 274.07 327.89 274.51C328.04 273.88 327.7 273.21 326.85 272.72V272.73Z" fill="#D1EBFF"/>
<path d="M329.529 277.73L328.129 278.54L328.629 278.83L329.529 278.31C331.279 277.3 332.109 275.92 331.949 274.59C331.839 275.74 331.019 276.87 329.529 277.74V277.73Z" fill="#D1EBFF"/>
<path d="M335.209 289.55L329.449 292.91L292.459 271.55L291.959 271.84L329.449 293.49L335.209 290.13C336.899 289.15 337.799 287.81 337.679 286.42C337.679 286.41 337.679 286.4 337.679 286.38C337.559 287.57 336.689 288.7 335.219 289.55H335.209Z" fill="#72B5E8"/>
<path d="M330.849 289.3L297.979 270.32L299.389 269.52L332.259 288.5L330.849 289.3Z" fill="#D1EBFF"/>
<path d="M330.519 289.71L297.649 270.73L299.059 269.93L331.929 288.91L330.519 289.71Z" fill="#72B5E8"/>
<path d="M297.099 288.17L298.619 287.29L295.569 285.53L294.049 286.41L297.099 288.17ZM309.829 290.01L292.699 280.12L291.179 281L308.309 290.89L309.829 290.01ZM280.459 278.56L292.729 285.65L294.249 284.77L281.979 277.68L280.459 278.56ZM321.769 296.9L311.129 290.76L309.609 291.64L320.249 297.78L321.769 296.9ZM313.499 295.88L299.919 288.04L298.399 288.92L311.979 296.76L313.499 295.88ZM321.559 298.53L324.739 300.37L326.259 299.49L323.079 297.65L321.559 298.53ZM280.669 276.92L275.229 273.78L273.709 274.66L279.149 277.8L280.669 276.92ZM291.389 279.36L278.479 271.91L276.959 272.79L289.869 280.24L291.389 279.36Z" fill="#0FBAB8"/>
<path d="M295.53 292.43L294.39 293.09L296.69 294.42L297.83 293.76L295.53 292.43ZM283.59 289.69L298.84 298.48L299.98 297.82L284.73 289.03L283.59 289.69ZM288.02 293.76L286.88 294.42L293.35 298.14L294.49 297.48L288.02 293.76ZM280.99 293.83L292.59 300.51L293.73 299.85L282.13 293.17L280.99 293.83ZM310.88 301.28L298.81 294.33L297.67 294.99L309.74 301.94L310.88 301.28ZM304.7 303.37L295.48 298.05L294.34 298.71L303.56 304.03L304.7 303.37ZM271.85 282.89L282.6 289.12L283.74 288.46L272.99 282.23L271.85 282.89ZM267.26 288.71L282.89 297.76L284.03 297.1L268.4 288.05L267.26 288.71ZM283.87 298.33L295.47 305.01L296.61 304.35L285.01 297.67L283.87 298.33ZM280 293.27L281.14 292.61L276.09 289.67L274.95 290.33L280 293.27ZM280.82 285.28L293.4 292.53L294.54 291.87L281.96 284.62L280.82 285.28ZM287.03 293.19L276.49 287.08L275.35 287.74L285.89 293.85L287.03 293.19ZM275.5 286.51L264.04 279.87L262.9 280.53L274.36 287.17L275.5 286.51ZM272 281.67L266.49 278.46L265.35 279.12L270.86 282.33L272 281.67ZM310.72 302.51L314.81 304.87L315.95 304.21L311.86 301.85L310.72 302.51ZM266.28 288.14L267.42 287.48L259.16 282.68L258.02 283.34L266.28 288.14ZM260.64 282.03L273.97 289.76L275.11 289.1L261.78 281.37L260.64 282.03ZM296.46 305.58L305.04 310.51L306.18 309.85L297.6 304.92L296.46 305.58ZM299.82 299.05L312.37 306.28L313.51 305.62L300.96 298.39L299.82 299.05ZM304.55 304.6L309.93 307.69L311.07 307.03L305.69 303.94L304.55 304.6ZM294.32 301.51L307.49 309.09L308.63 308.43L295.46 300.85L294.32 301.51Z" fill="#72B5E8"/>
<path d="M281.48 300.5L280.34 301.16L282.64 302.49L283.78 301.83L281.48 300.5ZM269.54 297.76L284.79 306.55L285.93 305.89L270.68 297.1L269.54 297.76ZM273.97 301.83L272.83 302.49L279.3 306.21L280.44 305.55L273.97 301.83ZM266.94 301.9L278.54 308.58L279.68 307.92L268.08 301.24L266.94 301.9ZM296.83 309.35L284.76 302.4L283.62 303.06L295.69 310.01L296.83 309.35ZM290.65 311.44L281.43 306.12L280.29 306.78L289.51 312.1L290.65 311.44ZM257.8 290.96L268.55 297.19L269.69 296.53L258.94 290.3L257.8 290.96ZM265.95 301.33L267.09 300.67L262.04 297.73L260.9 298.39L265.95 301.33ZM266.77 293.34L279.35 300.59L280.49 299.93L267.91 292.68L266.77 293.34ZM272.98 301.25L262.44 295.14L261.3 295.8L271.84 301.91L272.98 301.25ZM261.45 294.57L249.99 287.93L248.85 288.59L260.31 295.23L261.45 294.57ZM257.95 289.73L252.44 286.52L251.3 287.18L256.81 290.39L257.95 289.73ZM296.67 310.57L300.76 312.93L301.9 312.27L297.81 309.91L296.67 310.57ZM246.58 290.09L259.91 297.82L261.05 297.16L247.72 289.43L246.58 290.09ZM285.76 307.11L298.31 314.34L299.45 313.68L286.9 306.45L285.76 307.11ZM290.49 312.66L295.87 315.75L297.01 315.09L291.63 312L290.49 312.66ZM280.26 309.57L293.43 317.15L294.57 316.49L281.4 308.91L280.26 309.57Z" fill="#72B5E8"/>
<path d="M269.189 307.36L268.049 308.02L270.349 309.35L271.489 308.69L269.189 307.36ZM257.249 304.62L272.499 313.41L273.639 312.75L258.389 303.96L257.249 304.62ZM261.679 308.69L260.539 309.35L267.009 313.07L268.149 312.41L261.679 308.69ZM254.649 308.76L266.249 315.44L267.389 314.78L255.789 308.1L254.649 308.76ZM284.539 316.21L272.469 309.26L271.329 309.92L283.399 316.87L284.539 316.21ZM278.359 318.3L269.139 312.98L267.999 313.64L277.219 318.96L278.359 318.3ZM245.509 297.82L256.259 304.05L257.399 303.39L246.649 297.16L245.509 297.82ZM240.919 303.64L256.549 312.69L257.689 312.03L242.059 302.98L240.919 303.64ZM257.529 313.26L269.129 319.94L270.269 319.28L258.669 312.6L257.529 313.26ZM253.659 308.2L254.799 307.54L249.749 304.6L248.609 305.26L253.659 308.2ZM254.479 300.21L267.059 307.46L268.199 306.8L255.619 299.55L254.479 300.21ZM260.689 308.12L250.149 302.01L249.009 302.67L259.549 308.78L260.689 308.12ZM249.159 301.44L237.699 294.8L236.559 295.46L248.019 302.1L249.159 301.44ZM245.659 296.6L240.149 293.39L239.009 294.05L244.519 297.26L245.659 296.6ZM284.379 317.44L288.469 319.8L289.609 319.14L285.519 316.78L284.379 317.44ZM239.939 303.07L241.079 302.41L232.819 297.61L231.679 298.27L239.939 303.07ZM234.299 296.96L247.629 304.69L248.769 304.03L235.439 296.3L234.299 296.96ZM270.119 320.51L278.699 325.44L279.839 324.78L271.259 319.85L270.119 320.51ZM273.479 313.98L286.029 321.21L287.169 320.55L274.619 313.32L273.479 313.98ZM278.209 319.53L283.589 322.62L284.729 321.96L279.349 318.87L278.209 319.53ZM267.979 316.44L281.149 324.02L282.289 323.36L269.119 315.78L267.979 316.44ZM254.309 312.91L253.169 313.57L259.639 317.29L260.779 316.63L254.309 312.91ZM247.279 312.98L258.879 319.66L260.019 319L248.419 312.32L247.279 312.98ZM270.989 322.52L261.769 317.2L260.629 317.86L269.849 323.18L270.989 322.52ZM246.289 312.41L247.429 311.75L242.379 308.81L241.239 309.47L246.289 312.41ZM253.319 312.34L242.779 306.23L241.639 306.89L252.179 313L253.319 312.34ZM241.789 305.66L230.329 299.02L229.189 299.68L240.649 306.32L241.789 305.66ZM226.919 301.18L240.249 308.91L241.389 308.25L228.059 300.52L226.919 301.18ZM270.819 323.75L276.199 326.84L277.339 326.18L271.959 323.09L270.819 323.75ZM260.589 320.66L273.759 328.24L274.899 327.58L261.729 320L260.589 320.66Z" fill="#72B5E8"/>
<path d="M221.61 308.28L220.47 308.94L224.57 311.31L225.71 310.65L221.61 308.28ZM215.32 308.79L224.54 314.11L225.68 313.45L216.46 308.13L215.32 308.79ZM235.91 316.54L226.69 311.22L225.55 311.88L234.77 317.2L235.91 316.54ZM224.86 318.65L215.16 313.05L214.02 313.71L223.72 319.31L224.86 318.65Z" fill="#72B5E8"/>
<path d="M265.909 327.26C265.889 327.13 265.769 327.05 265.639 327.07L263.819 327.39L264.009 327.07C261.349 325.49 257.449 324.91 253.829 325.55C250.339 326.17 247.689 327.85 246.909 329.94L247.349 330.1C248.069 328.16 250.589 326.59 253.919 326.01C257.389 325.4 261.119 325.94 263.689 327.42L245.579 330.61C245.449 330.63 245.369 330.75 245.389 330.88C245.409 330.99 245.509 331.07 245.619 331.07C245.629 331.07 245.649 331.07 245.659 331.07L265.729 327.54C265.859 327.52 265.939 327.4 265.919 327.27L265.909 327.26ZM268.229 331.43L261.029 332.7C260.899 332.72 260.819 332.84 260.839 332.97C260.859 333.08 260.959 333.16 261.069 333.16C261.079 333.16 261.099 333.16 261.109 333.16L266.339 332.24C265.699 334.26 263.169 335.88 259.719 336.49C256.299 337.09 252.589 336.57 250.019 335.12L258.969 333.59C259.099 333.57 259.179 333.45 259.159 333.32C259.139 333.19 259.019 333.11 258.889 333.13L248.149 334.97C248.019 334.99 247.939 335.11 247.959 335.24C247.979 335.35 248.079 335.43 248.189 335.43C248.199 335.43 248.219 335.43 248.229 335.43L249.929 335.14L249.729 335.49C251.669 336.6 254.239 337.2 256.869 337.2C257.849 337.2 258.829 337.12 259.789 336.95C263.439 336.31 266.119 334.54 266.789 332.34L266.419 332.23L268.299 331.9C268.429 331.88 268.509 331.76 268.489 331.63C268.469 331.5 268.349 331.42 268.219 331.44L268.229 331.43ZM269.909 328.86C268.089 325.48 262.799 323.21 256.739 323.21C255.399 323.21 254.059 323.33 252.769 323.55C248.299 324.34 244.879 326.37 243.609 329C242.879 330.51 242.919 332.11 243.729 333.62C245.549 337 250.839 339.27 256.899 339.27C258.239 339.27 259.579 339.15 260.869 338.93C265.339 338.14 268.759 336.11 270.029 333.48C270.759 331.97 270.719 330.37 269.909 328.86ZM269.609 333.28C268.399 335.77 265.099 337.71 260.789 338.47C259.519 338.69 258.209 338.81 256.899 338.81C251.099 338.81 245.849 336.59 244.139 333.41C243.399 332.04 243.359 330.59 244.029 329.21C245.239 326.72 248.539 324.78 252.849 324.02C254.119 323.8 255.429 323.68 256.739 323.68C262.539 323.68 267.789 325.9 269.499 329.08C270.239 330.45 270.279 331.9 269.609 333.28ZM256.739 323.98C255.509 323.98 254.289 324.09 253.109 324.29C249.049 325.01 245.929 326.85 244.779 329.23C244.119 330.59 244.159 332.02 244.889 333.38C246.539 336.45 251.359 338.51 256.889 338.51C258.119 338.51 259.339 338.4 260.519 338.2C264.579 337.48 267.699 335.64 268.849 333.26C269.509 331.9 269.469 330.47 268.739 329.11C267.089 326.04 262.269 323.98 256.749 323.98H256.739ZM268.639 333.15C267.519 335.46 264.469 337.26 260.479 337.96C259.309 338.17 258.109 338.27 256.889 338.27C251.529 338.27 246.689 336.21 245.099 333.26C244.409 331.97 244.369 330.61 244.989 329.32C246.109 327.01 249.159 325.21 253.149 324.51C254.319 324.3 255.519 324.2 256.739 324.2C262.099 324.2 266.939 326.26 268.529 329.21C269.219 330.5 269.259 331.86 268.639 333.15Z" fill="#FFCC00"/>
<path d="M250.469 333.37C250.339 333.37 250.219 333.28 250.189 333.14C250.159 332.99 250.259 332.84 250.419 332.81L264.449 330.16C264.619 330.13 264.749 330.23 264.779 330.39C264.809 330.54 264.709 330.69 264.549 330.72L250.519 333.37C250.519 333.37 250.479 333.37 250.469 333.37Z" fill="#FFCC00"/>
<path d="M251.719 331.52C251.589 331.52 251.469 331.43 251.439 331.29C251.409 331.14 251.509 330.99 251.669 330.96L261.879 329.03C262.049 329 262.179 329.1 262.209 329.26C262.239 329.41 262.139 329.56 261.979 329.59L251.769 331.52C251.769 331.52 251.729 331.52 251.719 331.52Z" fill="#FFCC00"/>
<path d="M238.16 334.68C238.09 334.68 238.02 334.68 237.95 334.67C237.72 334.64 237.53 334.47 237.48 334.24C236.89 331.82 237.73 329.16 240.05 326.12C239.78 325.61 239.42 325.18 238.95 324.82C238.84 324.73 238.41 324.42 238.32 324.35C238.18 324.98 237.9 325.59 237.49 326.14C237.38 326.28 237.22 326.36 237.04 326.36H236.93C236.72 326.3 236.55 326.14 236.5 325.92C236.21 324.65 235.88 323.21 236.27 321.78C236.44 321.16 236.75 320.59 237.18 320.1L235.5 320.35C236.24 322.51 236.08 324.68 235.02 326.64C234.96 326.74 234.88 326.82 234.78 326.87C234.29 327.12 233.69 327.25 233.06 327.25C232.76 327.25 232.47 327.22 232.17 327.17C232.12 328.74 231.7 330.32 230.96 331.75C230.86 331.94 230.67 332.05 230.46 332.05C229.55 331.98 228.74 331.45 228.35 330.7C228.01 330.04 228 329.35 228 328.79C227.99 327.26 228 325.72 228.05 324.21C227.53 323.47 227.2 322.73 227.06 322C227.03 321.98 226.98 321.87 226.93 321.76C226.3 320.44 226.26 319.6 226.23 318.85C226.2 318.11 226.17 317.48 225.64 316.36L225.49 316.05L226.51 315.56L226.66 315.87C227.29 317.19 227.33 318.04 227.36 318.79C227.37 319.04 227.38 319.28 227.41 319.54C227.5 319.46 227.6 319.41 227.72 319.4L228.76 319.28C228.96 319.28 229.09 319.33 229.2 319.43C229.32 319.55 229.38 319.71 229.37 319.87C229.32 320.77 229.27 321.67 229.23 322.58C229.42 322.63 229.59 322.64 229.76 322.66C230.17 322.71 230.62 322.76 231.02 322.99C231.58 323.32 231.77 323.87 231.88 324.3C232.02 324.85 232.11 325.42 232.16 325.99C232.46 326.06 232.77 326.1 233.07 326.1C233.46 326.1 233.83 326.04 234.13 325.92C235.05 324.11 235.08 322.1 234.22 320.11C234.15 319.94 234.16 319.77 234.24 319.61C234.33 319.45 234.48 319.35 234.65 319.33L239.94 318.54C240.29 318.54 240.52 318.74 240.56 319C240.61 319.3 240.41 319.59 240.11 319.65C238.51 319.95 237.64 321.12 237.38 322.05C237.47 321.97 237.59 321.92 237.72 321.92C238.01 321.92 238.21 322.08 238.28 322.33C238.33 322.51 238.37 322.69 238.4 322.87C238.58 323.11 238.94 323.37 239.28 323.62C239.42 323.72 239.55 323.81 239.67 323.91C240.13 324.27 240.52 324.69 240.83 325.16C240.95 325.01 241.08 324.87 241.2 324.73C241.63 324.23 242.08 323.73 242.53 323.23C243.43 322.23 244.36 321.19 245.17 320.12C245.25 319.6 246.15 318.69 246.15 318.69C246.15 318.69 246.55 318.75 246.66 318.86C246.8 319.01 243.91 323.38 243.38 323.98C242.94 324.47 242.49 324.97 242.07 325.46C241.85 325.71 241.62 325.98 241.4 326.26C241.67 327.03 241.76 327.86 241.66 328.72C241.48 330.38 240.69 331.91 239.94 333.38C239.53 334.19 238.9 334.65 238.21 334.65L238.16 334.68ZM240.47 327.44C238.88 329.69 238.23 331.66 238.47 333.44C238.67 333.29 238.82 333.03 238.88 332.9C239.59 331.51 240.32 330.08 240.49 328.63C240.53 328.22 240.53 327.83 240.47 327.44ZM229.11 325.49C229.09 326.59 229.08 327.69 229.09 328.78C229.09 329.27 229.09 329.77 229.31 330.18C229.44 330.42 229.71 330.71 230.11 330.85C230.7 329.58 231.01 328.19 231.01 326.82C230.34 326.53 229.73 326.09 229.1 325.48L229.11 325.49ZM229.15 323.85C229.35 324.11 229.55 324.33 229.7 324.48C230.12 324.92 230.52 325.25 230.93 325.5C230.89 325.2 230.83 324.89 230.75 324.6C230.66 324.25 230.57 324.08 230.4 323.98C230.21 323.87 229.91 323.83 229.58 323.79C229.44 323.77 229.29 323.76 229.15 323.73V323.84V323.85ZM237.19 323.07C237.19 323.36 237.19 323.65 237.23 323.93C237.27 323.7 237.27 323.47 237.26 323.25C237.23 323.19 237.21 323.13 237.19 323.07ZM228.15 320.49C228.04 320.87 228.02 321.28 228.1 321.7C228.12 321.3 228.14 320.89 228.16 320.49H228.15Z" fill="#084C94"/>
<path d="M342.5 321.52H309.73V326.58C309.73 331.85 317.07 336.12 326.12 336.12C335.17 336.12 342.51 331.85 342.51 326.58C342.51 326.54 342.51 326.49 342.51 326.45V321.53L342.5 321.52Z" fill="#FFCC00"/>
<path d="M326.12 331.12C335.172 331.12 342.51 326.849 342.51 321.58C342.51 316.311 335.172 312.04 326.12 312.04C317.068 312.04 309.73 316.311 309.73 321.58C309.73 326.849 317.068 331.12 326.12 331.12Z" fill="#FFDE17"/>
<path d="M326.12 331.09C317.17 331.09 309.9 326.91 309.74 321.72C309.74 321.78 309.74 321.83 309.74 321.89C309.74 327.16 317.08 331.43 326.13 331.43C335.18 331.43 342.52 327.16 342.52 321.89C342.52 321.83 342.52 321.78 342.52 321.72C342.36 326.91 335.09 331.09 326.14 331.09H326.12Z" fill="white"/>
<path d="M334.8 306.42H317.43V321.2C317.43 323.99 321.32 326.26 326.12 326.26C330.92 326.26 334.81 324 334.81 321.2C334.81 321.18 334.81 321.15 334.81 321.13V306.42H334.8Z" fill="#FFCC00"/>
<path d="M326.12 314.78C333.062 314.78 338.69 309.152 338.69 302.21C338.69 295.268 333.062 289.64 326.12 289.64C319.178 289.64 313.55 295.268 313.55 302.21C313.55 309.152 319.178 314.78 326.12 314.78Z" fill="#FFD70F"/>
<path d="M328.14 289.81C332.19 291.9 334.96 296.11 334.96 300.98C334.96 307.92 329.33 313.55 322.39 313.55C321.7 313.55 321.03 313.48 320.37 313.37C322.1 314.26 324.05 314.77 326.12 314.77C333.06 314.77 338.69 309.14 338.69 302.2C338.69 295.95 334.12 290.78 328.14 289.81Z" fill="#FFCC00"/>
<path d="M322.12 303.13C324.937 303.13 327.22 300.847 327.22 298.03C327.22 295.213 324.937 292.93 322.12 292.93C319.303 292.93 317.02 295.213 317.02 298.03C317.02 300.847 319.303 303.13 322.12 303.13Z" fill="#FFDE17"/>
<path d="M196.76 300.98L194.52 298.51L161.31 280.71L161.95 280.01L158.84 277.76L157.72 281.04L157.41 282.99L196.76 300.98Z" fill="#3F92D1"/>
<path d="M196.76 300.98C196.06 302.29 194.42 302.78 193.12 302.07L157.41 283C157.41 283 159.63 281.1 159.65 281.11L196.76 300.98Z" fill="#A8CFF0"/>
<path d="M196.279 301.45L159.169 281.58C159.169 281.58 158.109 282.46 157.449 283.02L157.399 282.99C157.399 282.99 159.619 281.09 159.639 281.1L196.749 300.97C196.559 301.32 196.309 301.6 196.019 301.82C196.109 301.7 196.199 301.58 196.269 301.44L196.279 301.45Z" fill="#D1EBFF"/>
<path d="M242.29 318.42C243.31 318.97 246.49 319.76 247.04 318.74C247.59 317.72 245.3 315.28 244.28 314.73C243.26 314.18 241.99 314.56 241.44 315.58C240.89 316.6 241.27 317.87 242.29 318.42Z" fill="#03336E"/>
<path d="M224.269 314.56C218.879 311.73 226.089 297.84 231.969 301.25C237.859 304.66 244.349 313.5 244.349 313.5C244.349 313.5 244.369 313.5 244.369 313.51C245.159 314.42 245.299 315.59 244.489 317.11C243.679 318.63 242.989 319.05 241.419 318.99C241.419 318.99 241.409 318.99 241.399 318.98C241.399 318.98 229.649 317.4 224.259 314.57L224.269 314.56Z" fill="#A8CFF0"/>
<path opacity="0.5" d="M227.849 313.14C224.099 311.17 226.449 303.84 230.219 300.72C224.789 300.45 219.409 312 224.269 314.56C229.659 317.39 241.409 318.97 241.409 318.97C241.409 318.97 241.419 318.98 241.429 318.98C242.869 319.04 243.559 318.67 244.289 317.45C241.699 317.06 232.459 315.56 227.849 313.14Z" fill="#72B5E8"/>
<path d="M210.919 307.55L218.289 293.86L232.079 301.23C232.079 301.23 232.119 301.25 232.139 301.26C234.339 302.45 234.469 306.47 232.439 310.25C230.399 314.03 226.969 316.13 224.769 314.95C224.749 314.94 224.729 314.93 224.719 314.92L210.929 307.56L210.919 307.55Z" fill="#EB4680"/>
<path opacity="0.5" d="M243.3 313.38L243.28 313.36C243.28 313.36 239.36 309.45 235.17 305.7C235.09 306.78 234.81 307.96 234.31 309.15C238.39 311.98 242.34 314.55 242.34 314.55C242.34 314.55 242.34 314.55 242.35 314.56C243.56 315.3 243.98 315.42 244.24 315.09C244.5 314.76 244.11 314.15 243.29 313.37L243.3 313.38Z" fill="#D1EBFF"/>
<path d="M228.339 313.53C228.339 313.53 228.299 313.51 228.289 313.5L214.499 306.14L210.919 307.55L224.709 314.92C224.709 314.92 224.749 314.94 224.759 314.95C226.089 315.67 227.859 315.18 229.509 313.85C229.089 313.83 228.699 313.73 228.339 313.53Z" fill="#D62D69"/>
<path d="M210.949 307.57C213.149 308.76 216.589 306.65 218.619 302.87C220.659 299.09 220.519 295.07 218.319 293.88C216.119 292.69 212.679 294.8 210.649 298.58C208.609 302.36 208.749 306.38 210.949 307.57Z" fill="url(#paint0_linear_155_5558)"/>
<path d="M160.589 280.52L167.959 266.83L218.379 294C218.379 294 218.419 294.02 218.439 294.03C220.639 295.22 220.769 299.24 218.739 303.02C216.699 306.8 213.269 308.9 211.069 307.72C211.049 307.72 211.029 307.7 211.019 307.69L160.599 280.52H160.589Z" fill="#A8CFF0"/>
<path opacity="0.5" d="M214.65 306.3C214.65 306.3 214.61 306.28 214.6 306.27L164.18 279.1L170.16 268.01L167.97 266.83L160.6 280.52L211.02 307.69C211.02 307.69 211.06 307.71 211.07 307.72C212.4 308.44 214.17 307.95 215.82 306.62C215.41 306.6 215.01 306.5 214.65 306.3Z" fill="#72B5E8"/>
<path d="M160.62 280.53C162.82 281.72 166.26 279.61 168.29 275.83C170.33 272.05 170.19 268.03 167.99 266.84C165.79 265.65 162.35 267.76 160.32 271.54C158.28 275.32 158.42 279.34 160.62 280.53Z" fill="#D1EBFF"/>
<path d="M160.589 280.51L160.619 280.53C160.619 280.53 160.599 280.52 160.589 280.51Z" fill="#A8CFF0"/>
<path d="M160.589 280.51L160.619 280.53C160.619 280.53 160.599 280.52 160.589 280.51Z" fill="#A8CFF0"/>
<path d="M167.97 275.77C170.01 271.99 169.87 267.97 167.67 266.78C167.62 266.75 167.57 266.74 167.52 266.71C167.77 266.76 168.02 266.84 168.24 266.97C170.44 268.16 170.57 272.18 168.54 275.96C166.55 279.66 163.22 281.74 161.02 280.72C163.2 281.19 166.14 279.15 167.97 275.77Z" fill="#F0F8FF"/>
<path d="M152.54 274.6L158.8 262.99L166.63 267.33C166.63 267.33 166.66 267.35 166.68 267.36C168.55 268.37 168.66 271.78 166.93 274.99C165.2 278.2 162.29 279.98 160.42 278.97C160.4 278.97 160.39 278.95 160.37 278.94L152.54 274.61V274.6Z" fill="#EB4680"/>
<path d="M152.57 274.61C154.44 275.62 157.35 273.83 159.08 270.63C160.81 267.42 160.69 264.01 158.83 263C156.96 261.99 154.05 263.78 152.32 266.98C150.59 270.18 150.71 273.6 152.57 274.61Z" fill="#F76195"/>
<path opacity="0.5" d="M158.82 270.5C160.39 267.58 160.44 264.49 159.02 263.2C159.06 263.22 159.1 263.23 159.14 263.25C161.01 264.26 161.12 267.67 159.39 270.88C157.66 274.09 154.75 275.87 152.88 274.86C152.71 274.77 152.57 274.66 152.43 274.53C154.3 275.4 157.13 273.63 158.82 270.49V270.5Z" fill="white"/>
<path style="mix-blend-mode:multiply" opacity="0.2" d="M181.68 353.8L232.9 323.25C232.9 323.25 233.33 323.01 233.51 322.94C238.64 320.14 245.33 317.92 245.33 317.92C245.33 317.92 245.34 317.92 245.35 317.91C246.17 317.63 246.58 317.87 246.37 318.84C246.16 319.82 245.77 320.4 244.59 321.44C244.59 321.44 244.58 321.44 244.57 321.45C244.57 321.45 236.99 327.72 232.1 330.97C231.83 331.2 231.55 331.41 231.27 331.57C231.25 331.57 231.24 331.59 231.22 331.6L179.79 362.47L181.68 353.79V353.8Z" fill="url(#paint1_radial_155_5558)"/>
<path style="mix-blend-mode:multiply" d="M217.029 334.44L239.999 320.74C239.999 320.74 240.189 320.63 240.269 320.6C242.569 319.34 245.569 318.35 245.569 318.35C245.939 318.22 245.759 319.46 245.229 319.93C245.229 319.93 241.829 322.75 239.629 324.21C239.509 324.31 239.379 324.41 239.259 324.48C239.259 324.48 239.249 324.48 239.239 324.49L216.169 338.33L217.019 334.44H217.029Z" fill="url(#paint2_radial_155_5558)"/>
<path opacity="0.5" d="M169.549 274.41L219.059 300.83C219.489 299.54 219.659 298.3 219.559 297.24L170.299 270.95C170.259 272.03 170.009 273.21 169.559 274.42L169.549 274.41Z" fill="#D1EBFF"/>
<path d="M160.06 269.86L166.96 273.54C167.39 272.44 167.61 271.34 167.58 270.35C167.58 270.25 167.55 270.16 167.55 270.06L160.85 266.49C160.81 267.54 160.55 268.69 160.06 269.86Z" fill="#F76195"/>
<path d="M220.09 301.37L232.73 308.12C233.12 306.97 233.34 305.84 233.3 304.8C233.3 304.71 233.28 304.64 233.27 304.55L220.74 297.86C220.74 298.95 220.52 300.14 220.08 301.37H220.09Z" fill="#F76195"/>
<path opacity="0.2" d="M347.55 341.74C346.03 340.86 346.02 339.44 347.53 338.56L360.03 331.34C362.14 330.12 365.58 330.13 367.7 331.35C369.82 332.58 369.83 334.56 367.72 335.78L356.55 342.23C356.32 342.37 355.94 342.36 355.7 342.23C355.46 342.1 355.46 341.87 355.7 341.74L366.87 335.29C368.51 334.34 368.5 332.8 366.85 331.84C365.2 330.89 362.52 330.88 360.88 331.83L348.38 339.05C347.34 339.65 347.34 340.64 348.39 341.24C349.44 341.85 351.15 341.85 352.19 341.24L364.16 334.33C364.63 334.06 364.63 333.61 364.16 333.34C363.69 333.07 362.91 333.06 362.44 333.34L352.47 339.1C352.42 339.13 352.42 339.18 352.47 339.21C352.52 339.24 352.61 339.24 352.67 339.21L360.01 334.97C360.24 334.83 360.62 334.84 360.86 334.97C361.1 335.11 361.1 335.33 360.86 335.46L353.52 339.7C353 340 352.15 340 351.62 339.7C351.1 339.4 351.09 338.91 351.62 338.61L361.59 332.85C362.53 332.31 364.06 332.31 365.01 332.85C365.96 333.4 365.96 334.28 365.02 334.82L353.05 341.73C351.54 342.6 349.07 342.6 347.55 341.73V341.74Z" fill="#92B4D1"/>
<path d="M347.55 341.42C346.03 340.54 346.02 339.12 347.53 338.24L360.03 331.02C362.14 329.8 365.58 329.81 367.7 331.03C369.82 332.26 369.83 334.24 367.72 335.46L356.55 341.91C356.32 342.05 355.94 342.04 355.7 341.91C355.46 341.78 355.46 341.55 355.7 341.42L366.87 334.97C368.51 334.02 368.5 332.48 366.85 331.52C365.2 330.57 362.52 330.56 360.88 331.51L348.38 338.73C347.34 339.33 347.34 340.32 348.39 340.92C349.44 341.53 351.15 341.53 352.19 340.92L364.16 334.01C364.63 333.74 364.63 333.29 364.16 333.02C363.69 332.75 362.91 332.74 362.44 333.02L352.47 338.78C352.42 338.81 352.42 338.86 352.47 338.89C352.52 338.92 352.61 338.92 352.67 338.89L360.01 334.65C360.24 334.51 360.62 334.52 360.86 334.65C361.1 334.79 361.1 335.01 360.86 335.14L353.52 339.38C353 339.68 352.15 339.68 351.62 339.38C351.1 339.08 351.09 338.59 351.62 338.29L361.59 332.53C362.53 331.99 364.06 331.99 365.01 332.53C365.96 333.08 365.96 333.96 365.02 334.5L353.05 341.41C351.54 342.28 349.07 342.28 347.55 341.41V341.42Z" fill="#2672AB"/>
<path d="M364.16 332.71C363.69 332.44 362.91 332.43 362.44 332.71L352.47 338.47C352.42 338.5 352.42 338.55 352.47 338.58C352.52 338.61 352.61 338.61 352.67 338.58L360.01 334.34C360.09 334.3 360.19 334.29 360.29 334.27L362.45 333.02C362.92 332.75 363.69 332.75 364.17 333.02C364.34 333.12 364.42 333.24 364.47 333.36C364.56 333.13 364.47 332.88 364.17 332.7L364.16 332.71Z" fill="#084C94"/>
<path d="M351.62 339.39C352.14 339.69 352.99 339.69 353.52 339.39L360.86 335.15C361.05 335.04 361.08 334.88 360.96 334.74C360.93 334.77 360.91 334.8 360.86 334.82L353.52 339.06C353 339.36 352.15 339.36 351.62 339.06C351.43 338.95 351.33 338.81 351.28 338.67C351.19 338.92 351.28 339.19 351.62 339.38V339.39Z" fill="#084C94"/>
<path d="M366.859 331.21C365.209 330.26 362.529 330.25 360.889 331.2L348.389 338.42C347.799 338.76 347.559 339.22 347.639 339.67C347.699 339.33 347.939 339 348.389 338.74L360.889 331.52C362.529 330.57 365.209 330.58 366.859 331.53C367.619 331.97 368.009 332.53 368.079 333.1C368.159 332.42 367.759 331.73 366.859 331.21Z" fill="#084C94"/>
<path d="M367.729 335.15L356.559 341.6C356.329 341.74 355.949 341.73 355.709 341.6C355.669 341.57 355.639 341.54 355.609 341.51C355.489 341.64 355.519 341.81 355.709 341.92C355.949 342.06 356.329 342.06 356.559 341.92L367.729 335.47C368.849 334.82 369.359 333.96 369.279 333.1C369.219 333.85 368.709 334.58 367.729 335.15Z" fill="#084C94"/>
<path d="M365.69 333.37C365.63 333.67 365.41 333.96 365.02 334.19L353.05 341.1C351.54 341.97 349.07 341.97 347.55 341.09C346.86 340.69 346.5 340.18 346.43 339.66C346.35 340.29 346.72 340.93 347.55 341.42C349.07 342.3 351.54 342.3 353.05 341.43L365.02 334.52C365.56 334.21 365.78 333.79 365.69 333.38V333.37Z" fill="#084C94"/>
<path opacity="0.2" d="M397.489 331.73C399.009 330.85 399.019 329.43 397.509 328.55L385.009 321.33C382.899 320.11 379.459 320.12 377.339 321.34C375.219 322.56 375.209 324.55 377.319 325.77L388.489 332.22C388.719 332.36 389.099 332.35 389.339 332.22C389.579 332.08 389.579 331.86 389.339 331.73L378.169 325.28C376.529 324.33 376.539 322.79 378.189 321.83C379.839 320.88 382.519 320.87 384.159 321.82L396.659 329.04C397.699 329.64 397.699 330.63 396.649 331.23C395.599 331.84 393.889 331.84 392.849 331.23L380.879 324.32C380.409 324.05 380.409 323.6 380.879 323.33C381.359 323.06 382.129 323.05 382.599 323.33L392.569 329.09C392.619 329.12 392.619 329.17 392.569 329.2C392.519 329.23 392.429 329.23 392.369 329.2L385.029 324.96C384.799 324.82 384.419 324.83 384.179 324.96C383.939 325.1 383.939 325.32 384.179 325.45L391.519 329.69C392.039 329.99 392.889 329.99 393.419 329.69C393.949 329.39 393.949 328.9 393.419 328.6L383.449 322.84C382.509 322.3 380.979 322.3 380.029 322.84C379.079 323.39 379.079 324.27 380.019 324.81L391.989 331.72C393.499 332.59 395.969 332.59 397.489 331.72V331.73Z" fill="#92B4D1"/>
<path d="M397.489 331.34C399.009 330.46 399.019 329.04 397.509 328.16L385.009 320.94C382.899 319.72 379.459 319.73 377.339 320.95C375.219 322.17 375.209 324.16 377.319 325.38L388.489 331.83C388.719 331.97 389.099 331.96 389.339 331.83C389.579 331.69 389.579 331.47 389.339 331.34L378.169 324.89C376.529 323.94 376.539 322.4 378.189 321.44C379.839 320.49 382.519 320.48 384.159 321.43L396.659 328.65C397.699 329.25 397.699 330.24 396.649 330.84C395.599 331.45 393.889 331.45 392.849 330.84L380.879 323.93C380.409 323.66 380.409 323.21 380.879 322.94C381.359 322.67 382.129 322.66 382.599 322.94L392.569 328.7C392.619 328.73 392.619 328.78 392.569 328.81C392.519 328.84 392.429 328.84 392.369 328.81L385.029 324.57C384.799 324.43 384.419 324.44 384.179 324.57C383.939 324.71 383.939 324.93 384.179 325.06L391.519 329.3C392.039 329.6 392.889 329.6 393.419 329.3C393.949 329 393.949 328.51 393.419 328.21L383.449 322.45C382.509 321.91 380.979 321.91 380.029 322.45C379.079 323 379.079 323.88 380.019 324.42L391.989 331.33C393.499 332.2 395.969 332.2 397.489 331.33V331.34Z" fill="#72B5E8"/>
<path d="M396.649 328.37L384.149 321.15C382.509 320.2 379.829 320.21 378.179 321.16C377.289 321.67 376.889 322.36 376.959 323.03C377.019 322.45 377.419 321.88 378.179 321.44C379.829 320.49 382.509 320.48 384.149 321.43L396.649 328.65C397.109 328.91 397.349 329.25 397.409 329.6C397.479 329.16 397.239 328.7 396.649 328.37Z" fill="#3F92D1"/>
<path d="M380.879 322.95C381.359 322.68 382.129 322.67 382.599 322.95L384.869 324.26C384.929 324.28 384.999 324.27 385.039 324.3L392.379 328.54C392.429 328.57 392.519 328.57 392.579 328.54C392.629 328.51 392.629 328.46 392.579 328.43L382.609 322.67C382.139 322.4 381.369 322.4 380.889 322.67C380.589 322.85 380.499 323.09 380.579 323.31C380.629 323.18 380.719 323.05 380.889 322.95H380.879Z" fill="#3F92D1"/>
<path d="M393.409 329.02C392.889 329.32 392.039 329.32 391.509 329.02L384.169 324.78C384.119 324.75 384.079 324.72 384.049 324.68C383.949 324.81 383.989 324.96 384.169 325.07L391.509 329.31C392.029 329.61 392.879 329.61 393.409 329.31C393.739 329.12 393.839 328.86 393.759 328.62C393.709 328.77 393.609 328.91 393.409 329.03V329.02Z" fill="#3F92D1"/>
<path d="M389.449 331.44C389.449 331.44 389.379 331.51 389.329 331.54C389.089 331.68 388.709 331.68 388.479 331.54L377.309 325.09C376.319 324.52 375.819 323.78 375.759 323.03C375.689 323.88 376.199 324.74 377.309 325.38L388.479 331.83C388.709 331.96 389.089 331.96 389.329 331.83C389.509 331.72 389.549 331.57 389.449 331.44Z" fill="#3F92D1"/>
<path d="M397.489 331.05C395.969 331.93 393.499 331.93 391.989 331.06L380.019 324.15C379.619 323.92 379.399 323.62 379.339 323.31C379.269 323.71 379.489 324.13 380.019 324.43L391.989 331.34C393.499 332.21 395.969 332.21 397.489 331.33C398.319 330.85 398.679 330.22 398.609 329.59C398.549 330.12 398.189 330.64 397.489 331.04V331.05Z" fill="#3F92D1"/>
<path opacity="0.2" d="M404.059 334.86C402.079 335.17 399.819 334.56 399.029 333.51L392.459 324.83C391.349 323.36 392.699 321.83 395.459 321.4C398.219 320.97 401.369 321.82 402.479 323.28L408.349 331.04C408.469 331.2 408.319 331.37 408.019 331.42C407.709 331.47 407.369 331.37 407.239 331.21L401.369 323.45C400.509 322.31 398.059 321.65 395.909 321.98C393.759 322.31 392.709 323.51 393.579 324.65L400.149 333.33C400.699 334.06 402.259 334.47 403.629 334.26C404.999 334.05 405.659 333.29 405.119 332.56L398.829 324.24C398.579 323.91 397.879 323.72 397.259 323.82C396.639 323.92 396.339 324.26 396.589 324.59L401.829 331.52C401.829 331.52 401.939 331.58 402.009 331.57C402.079 331.56 402.109 331.52 402.089 331.48L398.239 326.38C398.119 326.22 398.269 326.05 398.569 326C398.879 325.95 399.219 326.05 399.349 326.21L403.199 331.31C403.469 331.67 403.139 332.05 402.459 332.16C401.779 332.27 400.999 332.06 400.729 331.69L395.489 324.76C394.999 324.11 395.599 323.42 396.829 323.23C398.059 323.04 399.459 323.42 399.959 324.07L406.249 332.39C407.039 333.44 406.079 334.54 404.099 334.85L404.059 334.86Z" fill="#92B4D1"/>
<path d="M404.059 334.47C402.079 334.78 399.819 334.17 399.029 333.12L392.459 324.44C391.349 322.97 392.699 321.44 395.459 321.01C398.219 320.58 401.369 321.43 402.479 322.89L408.349 330.65C408.469 330.81 408.319 330.98 408.019 331.03C407.709 331.08 407.369 330.98 407.239 330.82L401.369 323.06C400.509 321.92 398.059 321.26 395.909 321.59C393.759 321.92 392.709 323.12 393.579 324.26L400.149 332.94C400.699 333.67 402.259 334.08 403.629 333.87C404.999 333.66 405.659 332.9 405.119 332.17L398.829 323.85C398.579 323.52 397.879 323.33 397.259 323.43C396.639 323.53 396.339 323.87 396.589 324.2L401.829 331.13C401.829 331.13 401.939 331.19 402.009 331.18C402.079 331.17 402.109 331.13 402.089 331.09L398.239 325.99C398.119 325.83 398.269 325.66 398.569 325.61C398.879 325.56 399.219 325.66 399.349 325.82L403.199 330.92C403.469 331.28 403.139 331.66 402.459 331.77C401.779 331.88 400.999 331.67 400.729 331.3L395.489 324.37C394.999 323.72 395.599 323.03 396.829 322.84C398.059 322.65 399.459 323.03 399.959 323.68L406.249 332C407.039 333.05 406.079 334.15 404.099 334.46L404.059 334.47Z" fill="#2672AB"/>
<path d="M398.27 325.73C398.17 325.81 398.13 325.9 398.21 326L401.84 330.79C401.84 330.79 401.93 330.83 401.99 330.82C402.06 330.81 402.09 330.77 402.07 330.73L398.28 325.72L398.27 325.73Z" fill="#084C94"/>
<path d="M405.099 331.82L398.809 323.5C398.559 323.17 397.859 322.98 397.239 323.08C396.649 323.17 396.369 323.49 396.549 323.8C396.649 323.63 396.889 323.49 397.239 323.44C397.859 323.34 398.559 323.53 398.809 323.86L405.099 332.18C405.179 332.29 405.229 332.4 405.259 332.51C405.319 332.29 405.279 332.06 405.099 331.82Z" fill="#084C94"/>
<path d="M408.279 330.56C408.219 330.61 408.129 330.65 408.009 330.67C407.699 330.72 407.359 330.62 407.229 330.46L401.359 322.7C400.499 321.56 398.049 320.9 395.899 321.23C394.149 321.5 393.149 322.34 393.299 323.26C393.439 322.49 394.389 321.82 395.899 321.58C398.049 321.25 400.499 321.91 401.359 323.05L407.229 330.81C407.349 330.97 407.699 331.07 408.009 331.02C408.319 330.97 408.469 330.8 408.339 330.64L408.279 330.56Z" fill="#084C94"/>
<path d="M395.459 324.38L400.699 331.31C400.969 331.67 401.749 331.88 402.429 331.77C403.069 331.67 403.379 331.33 403.199 331C403.089 331.19 402.829 331.35 402.429 331.42C401.749 331.53 400.969 331.32 400.699 330.96L395.459 324.03C395.389 323.94 395.349 323.85 395.319 323.76C395.259 323.96 395.299 324.18 395.459 324.39V324.38Z" fill="#084C94"/>
<path d="M404.059 334.11C402.079 334.42 399.819 333.81 399.029 332.76L392.459 324.08C392.239 323.79 392.139 323.49 392.109 323.2C392.049 323.6 392.149 324.02 392.459 324.44L399.029 333.12C399.819 334.17 402.079 334.78 404.059 334.47C405.679 334.22 406.599 333.43 406.449 332.58C406.319 333.29 405.449 333.9 404.059 334.11Z" fill="#084C94"/>
</g>
<defs>
<linearGradient id="paint0_linear_155_5558" x1="213.599" y1="285.53" x2="215.529" y2="313.87" gradientUnits="userSpaceOnUse">
<stop stop-color="#D6DAE6"/>
<stop offset="0.01" stop-color="#D4D8E5"/>
<stop offset="0.28" stop-color="#B4B8E3"/>
<stop offset="0.4" stop-color="#999FC7"/>
<stop offset="0.53" stop-color="#8289AF"/>
<stop offset="0.65" stop-color="#747CA1"/>
<stop offset="0.76" stop-color="#70789C"/>
<stop offset="0.85" stop-color="#767DA2"/>
<stop offset="0.99" stop-color="#898EB3"/>
<stop offset="1" stop-color="#8B90B5"/>
</linearGradient>
<radialGradient id="paint1_radial_155_5558" cx="0" cy="0" r="1" gradientUnits="userSpaceOnUse" gradientTransform="translate(259.161 333.106) rotate(137.45) scale(27.33 10.3854)">
<stop stop-color="#DAEBF2"/>
<stop offset="1" stop-color="white"/>
</radialGradient>
<radialGradient id="paint2_radial_155_5558" cx="0" cy="0" r="1" gradientUnits="userSpaceOnUse" gradientTransform="translate(260.264 334.693) rotate(137.45) scale(30.82 11.7116)">
<stop stop-color="#DAEBF2"/>
<stop offset="1" stop-color="white"/>
</radialGradient>
<clipPath id="clip0_155_5558">
<rect width="591.49" height="404.74" fill="white"/>
</clipPath>
</defs>
</svg>
