<svg width="220" height="211" viewBox="0 0 220 211" fill="none" xmlns="http://www.w3.org/2000/svg">
<path d="M91.122 66.3595C90.8575 66.3595 90.6327 66.1477 90.6261 65.8763L90.5732 64.1155C90.5732 64.0758 90.5732 64.0361 90.5865 63.9964L102.13 8.63171C102.46 7.10263 103.683 6.07663 105.243 6.02367C106.817 5.9641 108.093 6.90405 108.536 8.40665L119.887 49.3741C119.96 49.6389 119.808 49.9103 119.543 49.9831C119.279 50.0559 119.008 49.9037 118.935 49.6389L107.584 8.67805C107.214 7.40712 106.109 6.98348 105.283 7.01658C104.45 7.04306 103.386 7.53951 103.101 8.84353L91.5649 64.1486L91.6178 65.8498C91.6244 66.1212 91.4129 66.3529 91.1352 66.3595H91.122Z" fill="#084C94"/>
<path d="M92.1074 1.90639L95.38 0L100.841 2.26383L97.5616 4.17684L92.1074 1.90639Z" fill="#72B5E8"/>
<path d="M97.5615 4.17689L100.841 2.27051C102.348 4.41519 104.153 6.09652 105.958 7.14239C107.597 8.08896 109.237 8.5126 110.665 8.2743C112.734 7.93671 115.127 8.50598 117.58 9.92915L114.301 11.8355C111.848 10.419 109.455 9.8431 107.386 10.1807C105.958 10.419 104.318 9.99535 102.679 9.04877C100.874 8.00291 99.0689 6.32158 97.5615 4.17689Z" fill="#3F92D1"/>
<path d="M114.301 11.8289L117.58 9.92249L143.985 25.1868L140.706 27.0932L114.301 11.8289Z" fill="#72B5E8"/>
<path d="M140.706 27.0932L140.686 33.9443L114.288 16.2506C112.569 15.2577 110.909 14.8606 109.462 15.0989C107.405 15.4365 105.032 14.8275 102.672 13.4573C100.067 11.948 97.4622 9.51871 95.2806 6.42083L92.1006 1.89978L97.5614 4.16362C99.0688 6.3083 100.874 7.98963 102.678 9.03549C104.318 9.98207 105.958 10.4057 107.386 10.1674C109.455 9.82982 111.848 10.3991 114.301 11.8223L140.706 27.0866V27.0932Z" fill="#2672AB"/>
<path d="M86.0049 62.3746C86.0049 70.4503 94.5664 77.0035 105.124 77.0035C115.682 77.0035 124.244 70.4569 124.244 62.3746H86.0049Z" fill="#72B5E8"/>
<path d="M84.4778 59.7931H125.844V61.5605C125.844 68.2196 116.582 73.621 105.158 73.621C93.7334 73.621 84.4712 68.2196 84.4712 61.5605C84.4712 61.5075 84.4712 61.4479 84.4778 61.395H84.4712V59.7931H84.4778Z" fill="#A8CFF0"/>
<path d="M105.164 71.9397C116.589 71.9397 125.851 66.54 125.851 59.8792C125.851 53.2183 116.589 47.8186 105.164 47.8186C93.7396 47.8186 84.478 53.2183 84.478 59.8792C84.478 66.54 93.7396 71.9397 105.164 71.9397Z" fill="#F0F8FF"/>
<path d="M105.164 70.9733C115.622 70.9733 124.099 66.03 124.099 59.9322C124.099 53.8343 115.622 48.891 105.164 48.891C94.7072 48.891 86.23 53.8343 86.23 59.9322C86.23 66.03 94.7072 70.9733 105.164 70.9733Z" fill="#3F92D1"/>
<path d="M117.283 60.263C117.144 60.263 117.018 60.177 116.972 60.038C116.919 59.8791 116.694 59.5746 116.231 59.1775C116.093 59.0583 116.073 58.8531 116.192 58.7141C116.311 58.5751 116.522 58.5552 116.655 58.6744C117.005 58.9723 117.454 59.4091 117.593 59.8262C117.653 59.9983 117.56 60.1902 117.388 60.2498C117.355 60.263 117.316 60.2697 117.283 60.2697V60.263ZM114.79 58.1647C114.737 58.1647 114.684 58.1515 114.632 58.125C114.268 57.9264 113.871 57.7411 113.468 57.5689C113.303 57.4961 113.223 57.3042 113.296 57.1321C113.369 56.9666 113.561 56.8872 113.732 56.9533C114.162 57.1321 114.572 57.3306 114.955 57.5359C115.114 57.6219 115.174 57.8205 115.088 57.986C115.028 58.0985 114.916 58.1581 114.797 58.1581L114.79 58.1647ZM111.729 56.9269C111.729 56.9269 111.67 56.9269 111.637 56.9136C111.227 56.7945 110.804 56.6819 110.381 56.5893C110.202 56.5496 110.09 56.3708 110.129 56.1921C110.169 56.0134 110.347 55.9009 110.526 55.9406C110.969 56.0399 111.405 56.1524 111.828 56.2782C112 56.3311 112.106 56.5165 112.053 56.6886C112.013 56.8342 111.881 56.9269 111.736 56.9269H111.729ZM108.496 56.2517C108.496 56.2517 108.47 56.2517 108.45 56.2517C108.034 56.1987 107.597 56.1524 107.154 56.1193C106.969 56.1061 106.837 55.9472 106.85 55.7619C106.863 55.5765 107.035 55.4441 107.207 55.4574C107.663 55.4905 108.113 55.5368 108.543 55.5964C108.721 55.6228 108.853 55.7883 108.827 55.9671C108.807 56.1325 108.662 56.2517 108.496 56.2517ZM105.197 56.0399H105.158C104.973 56.0399 104.827 55.8942 104.827 55.7089C104.827 55.5236 104.973 55.3779 105.158 55.3779C105.343 55.3779 105.508 55.5236 105.508 55.7089C105.508 55.8942 105.382 56.0399 105.197 56.0399Z" fill="#084C94"/>
<path d="M105.164 51.2343C95.3865 51.2343 87.3407 55.5567 86.3358 61.1038C86.263 60.7199 86.23 60.3293 86.23 59.9322C86.23 53.8357 94.7055 48.891 105.164 48.891C115.623 48.891 124.099 53.8357 124.099 59.9322C124.099 60.3293 124.059 60.7199 123.993 61.1038C122.988 55.5567 114.942 51.2343 105.164 51.2343Z" fill="#72B5E8"/>
<g style="mix-blend-mode:color-dodge">
<path d="M105.164 71.8934C116.463 71.8934 125.639 66.6111 125.837 60.0513C125.837 60.1241 125.844 60.1969 125.844 60.2697C125.844 66.9288 116.582 72.3303 105.158 72.3303C93.7334 72.3303 84.4712 66.9288 84.4712 60.2697C84.4712 60.1969 84.4778 60.1241 84.4778 60.0513C84.6761 66.6111 93.8525 71.8934 105.151 71.8934H105.164Z" fill="white"/>
</g>
<path d="M91.2013 66.3727C90.95 66.3727 90.7319 66.1808 90.7054 65.9226C90.679 65.6512 90.8839 65.4063 91.155 65.3864L91.5979 65.3467C92.0541 65.307 92.4442 64.976 92.5566 64.5325L92.6491 64.1685C92.7152 63.9037 92.9863 63.7448 93.2507 63.811C93.5152 63.8772 93.6738 64.1486 93.6077 64.4134L93.5152 64.7708C93.297 65.6247 92.5632 66.2536 91.6905 66.333L91.2475 66.3727C91.2475 66.3727 91.2145 66.3727 91.2013 66.3727Z" fill="#084C94"/>
<path d="M89.6017 63.5131C89.5422 63.6919 89.5091 63.8904 89.5091 64.1221V66.8228L92.4511 68.524L92.5767 69.4905L93.3171 69.0205V66.3198C93.3171 65.1084 92.4643 63.6389 91.4131 63.0299C90.9305 62.7519 90.4876 62.7056 90.1504 62.8512H90.1438C90.0711 62.8843 90.0049 62.924 89.9454 62.9703L89.3174 63.3543L89.6017 63.4999V63.5131ZM90.6066 64.0162L91.0958 64.2611L92.1007 65.8034L92.2329 66.8361C92.0213 66.9618 91.7305 66.942 91.4131 66.7566C90.7785 66.386 90.2562 65.499 90.2562 64.7642C90.2562 64.3935 90.3884 64.1354 90.6066 64.0162Z" fill="#A8CFF0"/>
<path d="M88.7686 64.5988V67.2995L92.5766 69.5037V66.803C92.5766 65.5917 91.7237 64.1222 90.6726 63.5132C89.6214 62.9042 88.7686 63.394 88.7686 64.5988ZM89.5156 65.2342C89.5156 64.4995 90.0313 64.2082 90.6726 64.5723C91.3072 64.943 91.8295 65.8366 91.8295 66.5647C91.8295 67.2929 91.3138 67.5907 90.6726 67.2267C90.0379 66.856 89.5156 65.9624 89.5156 65.2342Z" fill="#72B5E8"/>
<path d="M91.122 66.3595C90.8575 66.3595 90.6327 66.1477 90.6261 65.8763L90.5732 64.1155C90.5732 64.0758 90.5732 64.0361 90.5865 63.9964L102.13 8.63169C102.368 7.53287 103.082 6.67235 104.086 6.26857C105.118 5.85154 106.321 5.97069 107.227 6.57306C107.452 6.7253 107.518 7.03642 107.366 7.26148C107.214 7.48654 106.903 7.55273 106.678 7.40048C106.043 6.97684 105.191 6.89079 104.463 7.18866C103.756 7.4733 103.273 8.06242 103.108 8.83689L91.5715 64.142L91.6244 65.8432C91.631 66.1146 91.4195 66.3462 91.1418 66.3529H91.1286L91.122 66.3595Z" fill="#084C94"/>
<path d="M117.983 47.9046C117.924 48.0833 117.89 48.2819 117.89 48.5136V51.2143L120.832 52.9155L120.958 53.8819L121.698 53.412V50.7112C121.698 49.4999 120.846 48.0304 119.794 47.4214C119.312 47.1434 118.869 47.097 118.532 47.2427H118.525C118.452 47.2758 118.386 47.3155 118.327 47.3618L117.699 47.7457L117.983 47.8914V47.9046ZM118.988 48.4077L119.477 48.6526L120.482 50.1949L120.614 51.2275C120.403 51.3533 120.112 51.3335 119.794 51.1481C119.16 50.7774 118.638 49.8904 118.638 49.1557C118.638 48.785 118.77 48.5268 118.988 48.4077Z" fill="#A8CFF0"/>
<path d="M117.15 48.9835V51.6842L120.958 53.8885V51.1878C120.958 49.9764 120.106 48.5069 119.054 47.8979C118.003 47.289 117.15 47.7788 117.15 48.9835ZM117.897 49.619C117.897 48.8842 118.413 48.593 119.054 48.957C119.689 49.3277 120.211 50.2147 120.211 50.9495C120.211 51.6842 119.696 51.9755 119.054 51.6114C118.42 51.2407 117.897 50.3471 117.897 49.619Z" fill="#72B5E8"/>
<path d="M118.472 50.228C117.844 50.228 117.223 49.9831 116.767 49.5263L116.086 48.8445C115.894 48.6526 115.894 48.3348 116.086 48.1429C116.277 47.9509 116.595 47.9509 116.786 48.1429L117.467 48.8247C117.851 49.2086 118.426 49.341 118.935 49.1623C119.193 49.0696 119.477 49.2086 119.57 49.4668C119.662 49.7249 119.523 50.0095 119.266 50.1022C119.008 50.1949 118.743 50.2346 118.479 50.2346L118.472 50.228Z" fill="#084C94"/>
<path d="M147.502 21.4866L149.023 20.5797L157.842 35.8639L156.321 36.7774L147.502 21.4866Z" fill="#084C94"/>
<path d="M147.502 21.4866L156.321 36.7774L147.449 41.8346L138.63 26.5504L147.502 21.4866Z" fill="#03336E"/>
<path d="M141.347 27.2851L146.775 24.1938L153.604 36.036L148.177 39.1338L141.347 27.2851Z" fill="#2672AB"/>
<path d="M141.347 27.2851L141.836 27.0005L148.666 38.8426L148.177 39.1338L141.347 27.2851Z" fill="#084C94"/>
<path d="M173.894 114.257C173.629 114.257 173.404 114.046 173.398 113.774L173.338 112.013C173.338 111.974 173.338 111.934 173.352 111.894L184.901 56.5296C185.232 55.0005 186.455 53.9745 188.015 53.9216C189.589 53.8686 190.871 54.802 191.308 56.3046L202.659 97.272C202.732 97.5368 202.58 97.8082 202.315 97.881C202.051 97.9538 201.78 97.8016 201.707 97.5368L190.356 56.576C189.985 55.305 188.875 54.8814 188.055 54.9145C187.228 54.941 186.157 55.4374 185.873 56.7414L174.337 112.047L174.39 113.748C174.396 114.019 174.185 114.251 173.907 114.257H173.894Z" fill="#084C94"/>
<path d="M145.948 14.8606C143.813 14.8606 142.074 16.5949 142.074 18.7396V30.6081C142.074 31.8526 143.806 32.8654 145.948 32.8654C148.09 32.8654 149.823 31.8526 149.823 30.6081C149.823 30.5949 149.823 30.5883 149.823 30.575V18.7396C149.823 16.6015 148.09 14.8606 145.948 14.8606Z" fill="#2672AB"/>
<path d="M160.89 125.63H131V127.768C131 132.58 137.691 136.479 145.948 136.479C154.206 136.479 160.896 132.58 160.896 127.768C160.896 127.728 160.896 127.688 160.896 127.649V125.63H160.89Z" fill="#2672AB"/>
<path d="M145.948 134.4C154.204 134.4 160.896 130.5 160.896 125.689C160.896 120.878 154.204 116.978 145.948 116.978C137.693 116.978 131 120.878 131 125.689C131 130.5 137.693 134.4 145.948 134.4Z" fill="#3F92D1"/>
<path d="M145.948 134.374C137.784 134.374 131.153 130.554 131.007 125.815C131.007 125.868 131 125.921 131 125.974C131 130.786 137.691 134.685 145.948 134.685C154.206 134.685 160.896 130.786 160.896 125.974C160.896 125.921 160.896 125.868 160.89 125.815C160.744 130.554 154.113 134.374 145.948 134.374Z" fill="#72B5E8"/>
<path d="M150.874 116.806H141.03C141.03 116.806 136.104 124.498 136.104 124.524C136.104 127.695 140.514 130.263 145.949 130.263C151.383 130.263 155.793 127.695 155.793 124.524C155.793 124.498 150.867 116.806 150.867 116.806H150.874Z" fill="#2672AB"/>
<path d="M141.023 116.826C141.023 118.414 143.225 119.699 145.949 119.699C148.673 119.699 150.874 118.414 150.874 116.826C150.874 115.237 148.673 113.953 145.949 113.953C143.225 113.953 141.023 115.237 141.023 116.826Z" fill="#3F92D1"/>
<path d="M145.948 119.685C143.258 119.685 141.076 118.428 141.03 116.865C141.03 116.885 141.03 116.899 141.03 116.918C141.03 118.507 143.231 119.791 145.955 119.791C148.679 119.791 150.88 118.507 150.88 116.918C150.88 116.899 150.88 116.885 150.88 116.865C150.834 118.428 148.646 119.685 145.962 119.685H145.948Z" fill="#72B5E8"/>
<path d="M149.816 36.592H142.081V116.528C142.081 117.772 143.813 118.785 145.949 118.785C148.084 118.785 149.816 117.772 149.816 116.528C149.816 116.515 149.816 116.508 149.816 116.495V36.592Z" fill="#2672AB"/>
<path d="M194.779 56.5694C193.265 56.9665 191.46 56.5694 189.655 55.5169C188.015 54.5703 186.383 53.0942 184.961 51.2143C182.905 48.4871 180.512 46.3027 178.059 44.8795L149.856 28.5759L146.577 30.4823L174.78 46.7859C177.233 48.2024 179.619 50.3935 181.682 53.1207C183.103 55.0006 184.743 56.4767 186.376 57.4233C188.181 58.4691 189.986 58.8729 191.5 58.4758L196.96 62.5202L200.24 60.6138L194.779 56.5694Z" fill="#3F92D1"/>
<path d="M191.506 58.4757L196.967 62.5202L200.239 60.6138L194.778 56.5693L191.506 58.4757Z" fill="#72B5E8"/>
<path d="M184.961 51.2211C182.905 48.4939 180.512 46.3095 178.059 44.8863L149.856 28.5828L146.577 30.4892L174.78 46.7927C177.233 48.2093 179.619 50.4003 181.682 53.1275L184.961 51.2211Z" fill="#72B5E8"/>
<path d="M174.786 46.7926C177.239 48.2091 179.626 50.4001 181.688 53.1273C183.11 55.0072 184.749 56.4834 186.382 57.4299C188.187 58.4758 189.992 58.8796 191.506 58.4824L196.967 62.5269L193.767 63.3609C191.585 63.9434 188.974 63.3609 186.369 61.8517C184.002 60.4815 181.642 58.3633 179.593 55.6493C178.158 53.7496 176.492 52.2205 174.78 51.2276L146.57 37.3467L146.59 30.4956L174.793 46.7992L174.786 46.7926Z" fill="#2672AB"/>
<path d="M144.844 19.6662C145.874 19.6662 146.709 18.8305 146.709 17.7995C146.709 16.7686 145.874 15.9329 144.844 15.9329C143.815 15.9329 142.98 16.7686 142.98 17.7995C142.98 18.8305 143.815 19.6662 144.844 19.6662Z" fill="#3F92D1"/>
<path d="M168.777 110.279C168.777 118.355 177.338 124.908 187.896 124.908C198.454 124.908 207.016 118.361 207.016 110.279H168.777Z" fill="#72B5E8"/>
<path d="M167.25 107.698H208.616V109.465C208.616 116.124 199.354 121.526 187.93 121.526C176.505 121.526 167.243 116.124 167.243 109.465C167.243 109.412 167.243 109.352 167.25 109.3H167.243V107.698H167.25Z" fill="#A8CFF0"/>
<path d="M187.936 119.844C199.361 119.844 208.623 114.445 208.623 107.784C208.623 101.123 199.361 95.7231 187.936 95.7231C176.512 95.7231 167.25 101.123 167.25 107.784C167.25 114.445 176.512 119.844 187.936 119.844Z" fill="#F0F8FF"/>
<path d="M187.936 118.878C198.394 118.878 206.871 113.935 206.871 107.837C206.871 101.739 198.394 96.7955 187.936 96.7955C177.479 96.7955 169.002 101.739 169.002 107.837C169.002 113.935 177.479 118.878 187.936 118.878Z" fill="#3F92D1"/>
<path d="M200.055 108.168C199.916 108.168 199.79 108.082 199.744 107.943C199.691 107.784 199.466 107.479 199.003 107.082C198.865 106.963 198.845 106.758 198.964 106.619C199.083 106.48 199.288 106.46 199.426 106.579C199.777 106.877 200.226 107.314 200.365 107.731C200.425 107.903 200.332 108.095 200.16 108.148C200.127 108.161 200.088 108.168 200.055 108.168ZM197.562 106.069C197.509 106.069 197.456 106.056 197.403 106.03C197.04 105.831 196.643 105.646 196.24 105.473C196.075 105.401 195.995 105.209 196.068 105.037C196.141 104.871 196.332 104.792 196.504 104.865C196.927 105.043 197.344 105.242 197.727 105.447C197.886 105.533 197.946 105.732 197.86 105.897C197.8 106.01 197.688 106.069 197.569 106.069H197.562ZM194.501 104.831C194.501 104.831 194.442 104.831 194.409 104.818C194.012 104.699 193.589 104.593 193.146 104.494C192.967 104.454 192.855 104.275 192.895 104.097C192.934 103.918 193.113 103.805 193.291 103.845C193.748 103.951 194.184 104.064 194.594 104.183C194.766 104.236 194.871 104.421 194.819 104.593C194.779 104.739 194.647 104.831 194.501 104.831ZM191.268 104.156C191.268 104.156 191.242 104.156 191.222 104.156C190.806 104.103 190.369 104.057 189.926 104.017C189.741 104.004 189.609 103.845 189.622 103.66C189.635 103.474 189.814 103.335 189.979 103.355C190.435 103.388 190.885 103.435 191.315 103.494C191.493 103.521 191.625 103.686 191.599 103.865C191.579 104.03 191.434 104.15 191.268 104.15V104.156ZM187.969 103.944H187.93C187.745 103.944 187.599 103.799 187.599 103.613C187.599 103.428 187.745 103.282 187.93 103.282C188.115 103.282 188.28 103.428 188.28 103.613C188.28 103.799 188.154 103.944 187.969 103.944Z" fill="#084C94"/>
<path d="M187.936 99.1321C178.158 99.1321 170.113 103.455 169.108 109.002C169.035 108.618 169.002 108.227 169.002 107.83C169.002 101.734 177.477 96.7888 187.936 96.7888C198.395 96.7888 206.871 101.734 206.871 107.83C206.871 108.227 206.831 108.618 206.765 109.002C205.76 103.455 197.714 99.1321 187.936 99.1321Z" fill="#72B5E8"/>
<g style="mix-blend-mode:color-dodge">
<path d="M187.936 119.791C199.235 119.791 208.411 114.509 208.609 107.949C208.609 108.022 208.616 108.095 208.616 108.168C208.616 114.827 199.354 120.228 187.93 120.228C176.505 120.228 167.243 114.827 167.243 108.168C167.243 108.095 167.25 108.022 167.25 107.949C167.448 114.509 176.624 119.791 187.923 119.791H187.936Z" fill="white"/>
</g>
<path d="M173.973 114.277C173.722 114.277 173.504 114.085 173.477 113.827C173.451 113.556 173.656 113.311 173.927 113.291L174.37 113.251C174.826 113.212 175.216 112.881 175.329 112.43L175.421 112.073C175.487 111.808 175.758 111.649 176.023 111.716C176.287 111.782 176.446 112.053 176.38 112.318L176.287 112.675C176.069 113.529 175.335 114.158 174.456 114.238L174.013 114.277C174.013 114.277 173.98 114.277 173.967 114.277H173.973Z" fill="#084C94"/>
<path d="M172.373 111.418C172.314 111.597 172.281 111.795 172.281 112.027V114.727L175.223 116.429L175.348 117.395L176.089 116.925V114.224C176.089 113.013 175.236 111.544 174.185 110.935C173.702 110.657 173.259 110.61 172.922 110.756H172.915C172.843 110.789 172.776 110.829 172.717 110.875L172.089 111.259L172.373 111.405V111.418ZM173.378 111.921L173.867 112.166L174.872 113.708L175.004 114.741C174.793 114.866 174.502 114.847 174.185 114.661C173.55 114.291 173.028 113.397 173.028 112.669C173.028 112.298 173.16 112.04 173.378 111.921Z" fill="#A8CFF0"/>
<path d="M171.541 112.497V115.197L175.349 117.402V114.701C175.349 113.49 174.496 112.02 173.445 111.411C172.393 110.802 171.541 111.292 171.541 112.497ZM172.288 113.132C172.288 112.397 172.803 112.106 173.445 112.47C174.079 112.841 174.602 113.728 174.602 114.463C174.602 115.197 174.086 115.489 173.445 115.125C172.81 114.754 172.288 113.86 172.288 113.132Z" fill="#72B5E8"/>
<path d="M173.894 114.257C173.629 114.257 173.404 114.046 173.398 113.774L173.338 112.013C173.338 111.974 173.338 111.934 173.352 111.894L184.901 56.5296C185.139 55.4308 185.853 54.5703 186.858 54.1665C187.89 53.7495 189.093 53.8686 189.999 54.471C190.223 54.6233 190.289 54.9344 190.137 55.1594C189.985 55.3845 189.675 55.4507 189.45 55.2984C188.815 54.8748 187.962 54.7887 187.235 55.0866C186.528 55.3712 186.045 55.9604 185.88 56.7348L174.343 112.04L174.396 113.741C174.403 114.013 174.191 114.244 173.914 114.251H173.9L173.894 114.257Z" fill="#084C94"/>
<path d="M200.755 95.8092C200.695 95.9879 200.662 96.1865 200.662 96.4181V99.1189L203.604 100.82L203.73 101.786L204.47 101.316V98.6158C204.47 97.4044 203.618 95.9349 202.566 95.3259C202.084 95.0479 201.641 95.0016 201.304 95.1472H201.297C201.224 95.1803 201.158 95.22 201.099 95.2664L200.471 95.6503L200.755 95.7959V95.8092ZM201.76 96.3122L202.249 96.5571L203.254 98.0995L203.386 99.1321C203.175 99.2579 202.884 99.238 202.566 99.0527C201.932 98.682 201.409 97.7884 201.409 97.0602C201.409 96.6895 201.542 96.4314 201.76 96.3122Z" fill="#A8CFF0"/>
<path d="M199.922 96.8882V99.5889L203.73 101.793V99.0925C203.73 97.8811 202.877 96.4116 201.826 95.8026C200.775 95.1936 199.922 95.6835 199.922 96.8882ZM200.669 97.5237C200.669 96.7889 201.185 96.4977 201.826 96.8617C202.461 97.2324 202.983 98.126 202.983 98.8542C202.983 99.5823 202.467 99.8802 201.826 99.5161C201.191 99.1454 200.669 98.2518 200.669 97.5237Z" fill="#72B5E8"/>
<path d="M201.251 98.1259C200.623 98.1259 200.001 97.881 199.539 97.4243L198.858 96.7425C198.666 96.5505 198.666 96.2328 198.858 96.0408C199.049 95.8489 199.367 95.8489 199.558 96.0408L200.239 96.7226C200.623 97.1065 201.198 97.2389 201.707 97.0602C201.958 96.9675 202.249 97.1065 202.335 97.3647C202.428 97.6229 202.289 97.9075 202.031 98.0002C201.773 98.0928 201.509 98.1326 201.244 98.1326L201.251 98.1259Z" fill="#084C94"/>
<path d="M144.283 23.3929L145.803 22.4861L154.616 37.7703L153.095 38.6771L144.283 23.3929Z" fill="#084C94"/>
<path d="M144.283 23.3929L153.095 38.6771L144.223 43.741L135.404 28.4502L144.283 23.3929Z" fill="#03336E"/>
<path d="M138.121 29.1915L143.549 26.0936L150.378 37.9424L144.957 41.0402L138.121 29.1915Z" fill="#2672AB"/>
<path d="M138.121 29.1915L138.61 28.9003L145.446 40.749L144.957 41.0402L138.121 29.1915Z" fill="#084C94"/>
<path d="M78.3027 138.544V148.639C78.3027 150.393 80.2663 151.432 81.7141 150.439L110.916 128.171V110.186C110.916 109.008 109.6 108.313 108.628 108.982L83.7041 128.291C80.3258 130.607 78.3027 134.447 78.3027 138.544Z" fill="#72B5E8"/>
<path d="M78.3028 148.639V138.544C78.3028 134.44 80.3258 130.607 83.7041 128.291L108.628 108.982C109.084 108.671 109.62 108.657 110.056 108.856L58.1453 78.8304C57.709 78.6318 57.1735 78.6385 56.7107 78.9496L31.7866 98.2584C28.4083 100.575 26.3853 104.414 26.3853 108.512V118.606C26.3853 119.593 27.0067 120.354 27.8067 120.652L79.5126 150.624L79.5391 150.605C78.8317 150.26 78.3028 149.552 78.3028 148.639Z" fill="#A8CFF0"/>
<path d="M78.3025 148.685V138.59C78.3025 134.486 80.3255 130.654 83.7038 128.337L108.628 109.028C108.919 108.83 109.243 108.757 109.547 108.777C109.104 108.194 108.244 107.982 107.557 108.452L82.6328 127.761C79.2545 130.078 77.2314 133.917 77.2314 138.014V148.109C77.2314 149.214 78.0116 150.035 78.957 150.247C78.5603 149.863 78.3025 149.32 78.3025 148.685Z" fill="#D1EBFF"/>
<path d="M85.6011 147.785L86.7713 147.004L86.5002 148.281L85.6011 147.785Z" fill="#03336E"/>
<path d="M87.2274 145.885V136.823C87.2274 133.877 89.0191 129.74 92.0139 127.688L112.654 108.889C113.057 108.611 113.527 108.604 113.917 108.777L113.117 108.267C112.727 108.088 112.257 108.095 111.847 108.373L91.2074 127.172C88.2125 129.224 86.4209 133.361 86.4209 136.307V148.129L85.6077 147.765L84.9268 148.261L87.2274 149.552L88.3249 147.626C87.6968 147.321 87.2274 146.692 87.2274 145.885Z" fill="#2672AB"/>
<path d="M87.2275 136.823V149.552L110.783 136.644C113.223 134.97 114.677 132.203 114.677 129.244V109.961C114.677 108.922 113.514 108.3 112.654 108.889L92.014 127.688C89.0192 129.74 87.2275 133.877 87.2275 136.823Z" fill="#03336E"/>
<path opacity="0.5" d="M82.904 127.126C79.1356 129.707 76.8878 133.977 76.8878 138.544V147.48L28.4081 119.374L28.2957 119.334C28.0511 119.242 27.7866 119.004 27.7866 118.606V108.512C27.7866 104.871 29.5783 101.475 32.5731 99.4233L82.8974 127.126H82.904Z" fill="#D1EBFF"/>
<path d="M76.8946 136.532V147.48L28.4149 119.374L28.3025 119.334C28.0579 119.242 27.7935 119.003 27.7935 118.606V108.512L76.888 136.532H76.8946Z" fill="#A8CFF0"/>
<path d="M29.79 119.321L29.6776 119.282C29.433 119.189 29.1686 118.951 29.1686 118.553V108.459C29.1686 104.818 30.9602 101.422 33.9551 99.3704L58.8792 80.0616L59.5668 79.6711L58.9321 79.307L57.5041 80.1146L32.5799 99.4234C29.5851 101.475 27.7935 104.878 27.7935 108.512V118.606C27.7935 119.004 28.0579 119.242 28.3025 119.335L28.4149 119.374L76.8946 147.48V146.626L29.7966 119.315L29.79 119.321Z" fill="#3F92D1"/>
<path d="M95.7628 114.125L102.949 108.552L57.9865 82.3123L50.6018 88.0182C49.6432 88.6735 49.6895 90.1099 50.701 90.699L91.1217 114.297C92.5696 115.144 94.3744 115.078 95.7628 114.132V114.125Z" fill="#001A46"/>
<path d="M32.6787 114.8V120.989L72.2796 144.012V137.743L32.6787 114.8Z" fill="#001A46"/>
<g style="mix-blend-mode:multiply">
<path d="M33.6638 120.579V115.542L32.6787 114.972V120.989L72.2796 144.012V143.025L33.6638 120.579Z" fill="#9D9EB3"/>
</g>
<path d="M81.6675 113.059C81.1188 113.437 80.2064 113.483 79.6379 113.159L76.3323 111.259C75.7637 110.934 75.7439 110.359 76.2992 109.975C76.8479 109.597 77.7603 109.551 78.3288 109.875L81.6344 111.775C82.203 112.099 82.2228 112.675 81.6675 113.059Z" fill="#2672AB"/>
<path d="M88.166 116.793C87.6173 117.17 86.7049 117.216 86.1364 116.892L82.8308 114.992C82.2622 114.668 82.2424 114.092 82.7977 113.708C83.3465 113.331 84.2588 113.284 84.8274 113.609L88.133 115.509C88.7015 115.833 88.7214 116.409 88.166 116.793Z" fill="#2672AB"/>
<path d="M81.6343 111.365L78.3288 109.465C77.7602 109.141 76.8478 109.18 76.2991 109.564C75.7504 109.948 75.7636 110.517 76.3322 110.848L79.6378 112.748C80.2063 113.073 81.1187 113.033 81.6674 112.649C82.2161 112.265 82.2029 111.696 81.6343 111.365Z" fill="#EB4680"/>
<path d="M88.1265 115.098L84.8209 113.198C84.2524 112.874 83.34 112.914 82.7913 113.298C82.2426 113.682 82.2558 114.251 82.8244 114.582L86.1299 116.482C86.6985 116.806 87.6109 116.766 88.1596 116.382C88.7083 115.998 88.6951 115.429 88.1265 115.098Z" fill="#0FBAB8"/>
<path d="M88.1665 116.104C87.6177 116.482 86.7054 116.528 86.1368 116.204L82.8312 114.304C82.5932 114.165 82.4544 113.986 82.4147 113.794C82.342 114.079 82.4809 114.377 82.8312 114.575L86.1368 116.475C86.7054 116.799 87.6177 116.76 88.1665 116.376C88.4838 116.157 88.6094 115.866 88.5499 115.601C88.5036 115.78 88.378 115.952 88.1665 116.098V116.104Z" fill="#3ECFCD"/>
<path d="M81.6674 112.371C81.1187 112.748 80.2064 112.794 79.6378 112.47L76.3322 110.57C76.0942 110.431 75.9554 110.253 75.9157 110.061C75.843 110.345 75.9818 110.643 76.3322 110.842L79.6378 112.742C80.2064 113.066 81.1187 113.026 81.6674 112.642C81.9848 112.424 82.1104 112.133 82.0509 111.868C82.0046 112.046 81.879 112.219 81.6674 112.364V112.371Z" fill="#F76195"/>
<path d="M19.8137 126.788V129.343L18.7427 128.688V126.133L19.8137 126.788Z" fill="#A8CFF0"/>
<path d="M19.8071 126.788V129.343L33.5584 121.32V118.772L19.8071 126.788Z" fill="#72B5E8"/>
<path d="M33.5583 118.772L19.8071 126.788L18.7427 126.133L32.5071 118.11L33.5583 118.772Z" fill="#D1EBFF"/>
<path d="M54.2776 151.942V153.219L15.8799 131.441V130.17L54.2776 151.942Z" fill="#A8CFF0"/>
<path d="M54.271 151.942V153.219L72.0418 142.847V141.582L54.271 151.942Z" fill="#72B5E8"/>
<path d="M72.0418 141.582L54.271 151.942L15.8799 130.17L33.6639 119.798L72.0418 141.582Z" fill="#D1EBFF"/>
<path d="M58.6938 149.307V151.862L57.6162 151.207V148.652L58.6938 149.307Z" fill="#A8CFF0"/>
<path d="M58.6807 149.307V151.862L72.4385 143.833V141.284L58.6807 149.307Z" fill="#72B5E8"/>
<path d="M72.4385 141.284L58.6806 149.307L57.6162 148.652L71.3807 140.622L72.4385 141.284Z" fill="#D1EBFF"/>
<path d="M100.496 89.6134V109.882L55.9966 84.6554V64.3868L100.496 89.6134Z" fill="#A8CFF0"/>
<path d="M100.483 89.6133V109.882L101.693 109.24V88.9845L100.483 89.6133Z" fill="#72B5E8"/>
<path d="M101.693 88.9845L100.483 89.6134L55.9966 64.3869L57.2263 63.7382L101.693 88.9845Z" fill="#D1EBFF"/>
<path d="M97.184 92.2612V110.014L58.7334 88.2168V70.4569L97.184 92.2612Z" fill="white"/>
<path d="M36.3284 161.487L0 140.49L34.94 119.639L71.2684 140.642L36.3284 161.487Z" fill="#92B4D1"/>
<path d="M36.4075 160.587L0.0791016 139.59L34.9332 119.579L71.2616 140.583L36.4075 160.587Z" fill="white"/>
<path d="M52.2813 132.328L51.6268 132.706L52.9424 133.467L53.597 133.09L52.2813 132.328ZM45.4255 130.753L54.1721 135.804L54.8266 135.426L46.08 130.376L45.4255 130.753ZM47.9708 133.09L47.3163 133.467L51.0318 135.605L51.6863 135.228L47.9708 133.09ZM43.938 133.129L50.5889 136.969L51.2434 136.591L44.5925 132.752L43.938 133.129ZM61.0874 137.405L54.1589 133.414L53.5044 133.791L60.4329 137.783L61.0874 137.405ZM57.5438 138.61L52.2549 135.552L51.6004 135.929L56.8893 138.988L57.5438 138.61ZM38.6954 126.848L44.8636 130.429L45.5181 130.051L39.3499 126.47L38.6954 126.848ZM43.3695 132.805L44.024 132.428L41.1283 130.74L40.4738 131.117L43.3695 132.805ZM43.8389 128.218L51.0583 132.381L51.7128 132.004L44.4934 127.84L43.8389 128.218ZM47.4023 132.765L41.3531 129.25L40.6986 129.628L46.7478 133.143L47.4023 132.765ZM40.7911 128.926L34.2196 125.107L33.5651 125.484L40.1366 129.303L40.7911 128.926ZM38.7813 126.146L35.6212 124.299L34.9667 124.676L38.1268 126.523L38.7813 126.146ZM60.9949 138.12L63.3418 139.477L63.9963 139.1L61.6494 137.743L60.9949 138.12ZM32.2627 126.358L39.9118 130.793L40.5663 130.415L32.9172 125.98L32.2627 126.358ZM54.7407 136.135L61.9403 140.285L62.5948 139.908L55.3952 135.757L54.7407 136.135ZM57.4513 139.325L60.5387 141.099L61.1932 140.722L58.1058 138.948L57.4513 139.325ZM51.5805 137.551L59.1371 141.907L59.7916 141.529L52.2351 137.174L51.5805 137.551Z" fill="#72B5E8"/>
<path d="M45.2337 136.267L44.5792 136.644L45.8948 137.406L46.5493 137.028L45.2337 136.267ZM38.3779 134.692L47.1245 139.742L47.779 139.365L39.0324 134.314L38.3779 134.692ZM40.9232 137.028L40.2687 137.406L43.9842 139.544L44.6387 139.166L40.9232 137.028ZM36.8904 137.068L43.5412 140.907L44.1958 140.53L37.5449 136.691L36.8904 137.068ZM54.0398 141.344L47.1113 137.353L46.4568 137.73L53.3853 141.721L54.0398 141.344ZM50.4962 142.549L45.2073 139.491L44.5528 139.868L49.8417 142.926L50.4962 142.549ZM31.6477 130.786L37.816 134.367L38.4705 133.99L32.3023 130.409L31.6477 130.786ZM29.0165 134.129L37.9813 139.325L38.6358 138.948L29.671 133.752L29.0165 134.129ZM38.5432 139.656L45.194 143.495L45.8485 143.118L39.1977 139.279L38.5432 139.656ZM36.3218 136.75L36.9764 136.373L34.0807 134.685L33.4262 135.062L36.3218 136.75ZM36.7912 132.163L44.0106 136.327L44.6651 135.949L37.4457 131.786L36.7912 132.163ZM40.3547 136.71L34.3054 133.196L33.6509 133.573L39.7002 137.088L40.3547 136.71ZM33.7435 132.871L27.172 129.052L26.5175 129.429L33.089 133.249L33.7435 132.871ZM31.7337 130.091L28.5736 128.244L27.919 128.622L31.0792 130.468L31.7337 130.091ZM53.9472 142.066L56.2942 143.423L56.9487 143.045L54.6017 141.688L53.9472 142.066ZM28.4479 133.811L29.1024 133.434L24.3622 130.68L23.7077 131.058L28.4479 133.811ZM25.2085 130.296L32.8576 134.731L33.5121 134.354L25.863 129.919L25.2085 130.296ZM45.756 143.826L50.6747 146.659L51.3292 146.282L46.4105 143.449L45.756 143.826ZM47.6798 140.073L54.8794 144.223L55.5339 143.846L48.3343 139.696L47.6798 140.073ZM50.3904 143.264L53.4778 145.038L54.1323 144.66L51.0449 142.886L50.3904 143.264ZM44.5197 141.49L52.0763 145.845L52.7308 145.468L45.1742 141.112L44.5197 141.49ZM36.6722 139.458L36.0177 139.835L39.7332 141.973L40.3877 141.596L36.6722 139.458ZM32.6394 139.497L39.2903 143.336L39.9448 142.959L33.2939 139.12L32.6394 139.497ZM46.2452 144.978L40.9563 141.92L40.3018 142.297L45.5907 145.355L46.2452 144.978ZM32.0775 139.173L32.732 138.796L29.8363 137.108L29.1818 137.485L32.0775 139.173ZM36.1103 139.133L30.0611 135.618L29.4066 135.996L35.4558 139.51L36.1103 139.133ZM29.4991 135.294L22.9276 131.475L22.2731 131.852L28.8446 135.671L29.4991 135.294ZM20.9707 132.719L28.6198 137.154L29.2743 136.777L21.6252 132.342L20.9707 132.719ZM46.1593 145.686L49.2467 147.46L49.9012 147.083L46.8138 145.309L46.1593 145.686ZM40.2886 143.912L47.8451 148.268L48.4996 147.891L40.9431 143.535L40.2886 143.912Z" fill="#72B5E8"/>
<path d="M17.9364 136.797L17.2818 137.174L19.6354 138.531L20.2899 138.153L17.9364 136.797ZM14.3267 137.088L19.6156 140.146L20.2701 139.769L14.9812 136.71L14.3267 137.088ZM26.1408 141.543L20.8519 138.484L20.1974 138.862L25.4863 141.92L26.1408 141.543ZM19.8007 142.754L14.2341 139.537L13.5796 139.914L19.1462 143.131L19.8007 142.754ZM26.0483 142.244L27.4961 143.085L28.1506 142.708L26.7028 141.867L26.0483 142.244ZM20.1775 140.47L26.0945 143.893L26.749 143.515L20.832 140.093L20.1775 140.47Z" fill="#72B5E8"/>
<path d="M32.1568 91.8375C32.0576 91.8375 31.9585 91.7912 31.8924 91.7051C31.78 91.5595 31.8064 91.3543 31.9519 91.2418L32.6725 90.6858C32.8179 90.5732 33.0229 90.5997 33.1353 90.7453C33.2477 90.891 33.2212 91.0962 33.0758 91.2087L32.3551 91.7647C32.2956 91.8111 32.2229 91.8309 32.1568 91.8309V91.8375ZM34.4575 90.0768C34.3583 90.0768 34.2592 90.0304 34.1931 89.9444C34.0807 89.7988 34.1071 89.5936 34.2526 89.481L35.3037 88.6735C35.4492 88.5609 35.6541 88.5874 35.7665 88.733C35.8789 88.8787 35.8525 89.0839 35.707 89.1964L34.6558 90.004C34.5963 90.0503 34.5236 90.0702 34.4575 90.0702V90.0768ZM37.0821 88.0645C36.983 88.0645 36.8838 88.0181 36.8177 87.9321C36.7053 87.7865 36.7317 87.5813 36.8772 87.4687L37.9284 86.6612C38.0738 86.5486 38.2788 86.5751 38.3911 86.7207C38.5035 86.8664 38.4771 87.0716 38.3316 87.1841L37.2805 87.9917C37.221 88.038 37.1482 88.0579 37.0821 88.0579V88.0645ZM39.7068 86.0522C39.6076 86.0522 39.5084 86.0059 39.4423 85.9198C39.3299 85.7742 39.3564 85.569 39.5018 85.4564L40.553 84.6489C40.6984 84.5363 40.9034 84.5628 41.0158 84.7084C41.1282 84.8541 41.1017 85.0593 40.9563 85.1718L39.9051 85.9794C39.8456 86.0257 39.7729 86.0456 39.7068 86.0456V86.0522ZM42.3314 84.0399C42.2322 84.0399 42.1331 83.9936 42.067 83.9075C41.9546 83.7619 41.981 83.5567 42.1265 83.4441L43.1776 82.6366C43.3231 82.524 43.528 82.5505 43.6404 82.6961C43.7528 82.8418 43.7264 83.047 43.5809 83.1595L42.5297 83.9671C42.4702 84.0134 42.3975 84.0333 42.3314 84.0333V84.0399ZM44.956 82.0276C44.8569 82.0276 44.7577 81.9813 44.6916 81.8952C44.5792 81.7496 44.6057 81.5444 44.7511 81.4318L45.8023 80.6243C45.9477 80.5117 46.1527 80.5448 46.2651 80.6839C46.3774 80.8295 46.351 81.0347 46.2056 81.1472L45.1544 81.9548C45.0949 82.0011 45.0222 82.021 44.956 82.021V82.0276ZM47.5807 80.0153C47.4815 80.0153 47.3823 79.969 47.3162 79.8829C47.2038 79.7373 47.2303 79.5321 47.3757 79.4195L48.4269 78.612C48.5724 78.4994 48.7773 78.5259 48.8897 78.6716C49.0021 78.8172 48.9756 79.0224 48.8302 79.1349L47.779 79.9425C47.7195 79.9888 47.6468 80.0087 47.5807 80.0087V80.0153ZM50.2053 78.003C50.1061 78.003 50.007 77.9567 49.9409 77.8706C49.8285 77.725 49.8549 77.5198 50.0004 77.4072L50.0665 77.3543V76.4408C50.0665 76.2555 50.2119 76.1098 50.397 76.1098C50.5822 76.1098 50.7276 76.2555 50.7276 76.4408V77.6853L50.4036 77.9368C50.3441 77.9831 50.2714 78.003 50.2053 78.003ZM50.397 74.7926C50.2119 74.7926 50.0665 74.647 50.0665 74.4616V73.1377C50.0665 72.9524 50.2119 72.8068 50.397 72.8068C50.5822 72.8068 50.7276 72.9524 50.7276 73.1377V74.4616C50.7276 74.647 50.5822 74.7926 50.397 74.7926Z" fill="#0FBAB8"/>
<path d="M97.3428 211C97.3428 211 97.3296 211 97.323 211C96.8735 210.974 96.4173 210.921 95.9809 210.854C95.8024 210.828 95.6768 210.656 95.7033 210.477C95.7297 210.298 95.9016 210.173 96.0801 210.199C96.5032 210.265 96.933 210.312 97.3627 210.338C97.5478 210.351 97.68 210.51 97.6734 210.689C97.6602 210.861 97.5147 211 97.3428 211ZM99.3262 211C99.1543 211 99.0089 210.868 98.9956 210.695C98.9824 210.51 99.1212 210.358 99.2997 210.338C99.7361 210.305 100.166 210.252 100.576 210.179C100.748 210.146 100.926 210.265 100.959 210.451C100.992 210.629 100.873 210.801 100.688 210.834C100.252 210.914 99.7956 210.967 99.346 211C99.3394 211 99.3328 211 99.3196 211H99.3262ZM94.0968 210.431C94.0968 210.431 94.0373 210.431 94.0042 210.417C93.5679 210.285 93.1381 210.139 92.7282 209.967C92.5564 209.901 92.477 209.703 92.5497 209.537C92.6159 209.365 92.8142 209.286 92.9795 209.358C93.3761 209.517 93.786 209.663 94.1959 209.789C94.3678 209.842 94.4736 210.027 94.4207 210.199C94.3744 210.345 94.2488 210.437 94.1034 210.437L94.0968 210.431ZM102.552 210.338C102.414 210.338 102.288 210.252 102.242 210.12C102.182 209.947 102.268 209.756 102.44 209.696C102.85 209.55 103.24 209.378 103.61 209.186C103.769 209.1 103.974 209.166 104.053 209.325C104.139 209.491 104.073 209.689 103.914 209.769C103.518 209.974 103.095 210.159 102.665 210.312C102.625 210.325 102.592 210.331 102.552 210.331V210.338ZM91.0754 209.1C91.0226 209.1 90.9631 209.087 90.9102 209.054L89.7664 208.392C89.6078 208.299 89.5549 208.101 89.6474 207.942C89.74 207.783 89.9449 207.73 90.097 207.823L91.2407 208.485C91.3994 208.577 91.4523 208.776 91.3597 208.935C91.3002 209.041 91.1878 209.1 91.0754 209.1ZM105.488 208.835C105.375 208.835 105.263 208.776 105.204 208.67C105.111 208.511 105.17 208.306 105.329 208.22L106.479 207.565C106.638 207.478 106.836 207.531 106.929 207.69C107.022 207.849 106.962 208.054 106.803 208.14L105.653 208.796C105.6 208.822 105.547 208.842 105.488 208.842V208.835ZM88.2128 207.445C88.1533 207.445 88.1004 207.432 88.0475 207.399L86.9038 206.737C86.7451 206.644 86.6922 206.446 86.7848 206.287C86.8774 206.128 87.0823 206.075 87.2344 206.168L88.3781 206.83C88.5368 206.922 88.5897 207.121 88.4971 207.28C88.4376 207.386 88.3252 207.445 88.2128 207.445ZM108.357 207.194C108.245 207.194 108.132 207.134 108.073 207.028C107.98 206.869 108.04 206.664 108.198 206.578L109.349 205.923C109.507 205.837 109.706 205.89 109.798 206.049C109.891 206.208 109.831 206.413 109.673 206.499L108.522 207.154C108.469 207.181 108.417 207.2 108.357 207.2V207.194ZM111.226 205.552C111.114 205.552 111.002 205.493 110.942 205.387C110.849 205.228 110.909 205.023 111.068 204.937L112.218 204.281C112.377 204.195 112.575 204.248 112.668 204.407C112.76 204.566 112.701 204.771 112.542 204.857L111.392 205.512C111.339 205.539 111.286 205.559 111.226 205.559V205.552ZM114.096 203.911C113.983 203.911 113.871 203.851 113.811 203.745C113.719 203.586 113.778 203.381 113.937 203.295L115.087 202.64C115.246 202.554 115.444 202.607 115.537 202.765C115.629 202.924 115.57 203.13 115.411 203.216L114.261 203.871C114.208 203.897 114.155 203.917 114.096 203.917V203.911ZM116.965 202.269C116.852 202.269 116.74 202.209 116.681 202.104C116.588 201.945 116.647 201.739 116.806 201.653L117.956 200.998C118.115 200.912 118.313 200.965 118.406 201.124C118.499 201.283 118.439 201.488 118.28 201.574L117.13 202.229C117.077 202.256 117.024 202.276 116.965 202.276V202.269ZM119.834 200.627C119.722 200.627 119.609 200.568 119.55 200.462C119.457 200.303 119.517 200.098 119.675 200.012L120.826 199.356C120.984 199.27 121.183 199.323 121.275 199.482C121.368 199.641 121.308 199.846 121.15 199.932L119.999 200.588C119.946 200.614 119.894 200.634 119.834 200.634V200.627ZM122.703 198.986C122.591 198.986 122.479 198.926 122.419 198.82C122.326 198.661 122.386 198.456 122.545 198.37L123.695 197.715C123.854 197.629 124.052 197.682 124.145 197.841C124.237 197.999 124.178 198.205 124.019 198.291L122.869 198.946C122.816 198.973 122.763 198.992 122.703 198.992V198.986ZM125.573 197.344C125.46 197.344 125.348 197.285 125.288 197.179C125.196 197.02 125.255 196.815 125.414 196.729L126.564 196.073C126.723 195.987 126.921 196.04 127.014 196.199C127.106 196.358 127.047 196.563 126.888 196.649L125.738 197.304C125.685 197.331 125.632 197.351 125.573 197.351V197.344Z" fill="#FFD70F"/>
<path d="M49.1675 69.7287C49.1675 70.6025 49.7889 71.6682 50.5426 72.1117C50.7475 72.2308 50.9591 72.297 51.1376 72.297C51.5673 72.297 51.8318 71.9462 51.8318 71.3769C51.8318 70.5032 51.2103 69.4374 50.4567 68.9939C50.2517 68.8748 50.0402 68.8086 49.8617 68.8086C49.4319 68.8086 49.1675 69.1594 49.1675 69.7287Z" fill="#0FBAB8"/>
<path d="M83.7568 205.407C83.7568 206.009 84.5965 206.499 85.6278 206.499C86.6591 206.499 87.4988 206.009 87.4988 205.407C87.4988 204.804 86.6591 204.314 85.6278 204.314C84.5965 204.314 83.7568 204.804 83.7568 205.407Z" fill="#FFD70F"/>
<path d="M17.5396 160.282C17.5396 160.885 18.3792 161.374 19.4105 161.374C20.4419 161.374 21.2815 160.885 21.2815 160.282C21.2815 159.68 20.4419 159.19 19.4105 159.19C18.3792 159.19 17.5396 159.68 17.5396 160.282Z" fill="#EB4680"/>
<path d="M131.873 139.087C131.873 139.689 132.713 140.179 133.744 140.179C134.775 140.179 135.615 139.689 135.615 139.087C135.615 138.484 134.775 137.995 133.744 137.995C132.713 137.995 131.873 138.484 131.873 139.087Z" fill="#0FBAB8"/>
<path d="M126.141 194.955L128.501 196.53L130.075 193.856L126.141 194.955Z" fill="#FFD70F"/>
<path d="M160.334 136.823L162.688 138.398L164.262 135.724L160.334 136.823Z" fill="#0FBAB8"/>
<path d="M33.1551 92.3538L30.8015 90.785L29.228 93.4593L33.1551 92.3538Z" fill="#0FBAB8"/>
<path d="M47.627 177.943L49.9805 176.367L51.554 179.042L47.627 177.943Z" fill="#EB4680"/>
<path d="M48.7904 177.612C48.7375 177.612 48.678 177.599 48.6251 177.565L47.4813 176.903C47.3227 176.811 47.2698 176.612 47.3623 176.453C47.4549 176.294 47.6532 176.242 47.8119 176.334L48.9556 176.996C49.1143 177.089 49.1672 177.287 49.0746 177.446C49.0151 177.552 48.9028 177.612 48.7904 177.612ZM45.9277 175.957C45.8748 175.957 45.8153 175.944 45.7624 175.911L44.6187 175.249C44.46 175.156 44.4072 174.957 44.4997 174.799C44.5923 174.64 44.7906 174.587 44.9493 174.679L46.093 175.341C46.2517 175.434 46.3046 175.633 46.212 175.791C46.1525 175.897 46.0401 175.957 45.9277 175.957ZM43.0651 174.302C43.0122 174.302 42.9527 174.289 42.8998 174.256L41.7561 173.594C41.5974 173.501 41.5445 173.303 41.6371 173.144C41.7296 172.985 41.928 172.932 42.0866 173.025L43.2304 173.686C43.389 173.779 43.4419 173.978 43.3494 174.137C43.2899 174.242 43.1775 174.302 43.0651 174.302ZM40.2024 172.647C40.1496 172.647 40.0901 172.634 40.0372 172.601L38.8934 171.939C38.7348 171.846 38.6819 171.648 38.7744 171.489C38.867 171.33 39.0653 171.277 39.224 171.37L40.3677 172.032C40.5264 172.124 40.5793 172.323 40.4867 172.482C40.4272 172.588 40.3148 172.647 40.2024 172.647ZM37.3398 170.992C37.2869 170.992 37.2274 170.979 37.1745 170.946L36.0308 170.284C35.8721 170.191 35.8192 169.993 35.9118 169.834C36.0044 169.675 36.2027 169.622 36.3614 169.715L37.5051 170.377C37.6638 170.469 37.7166 170.668 37.6241 170.827C37.5646 170.933 37.4522 170.992 37.3398 170.992ZM34.4772 169.337C34.4243 169.337 34.3648 169.324 34.3119 169.291L33.1682 168.629C33.0095 168.537 32.9566 168.338 33.0492 168.179C33.1417 168.02 33.34 167.967 33.4987 168.06L34.6424 168.722C34.8011 168.815 34.854 169.013 34.7615 169.172C34.702 169.278 34.5896 169.337 34.4772 169.337ZM31.6145 167.683C31.5616 167.683 31.5021 167.669 31.4493 167.636L30.3055 166.974C30.1469 166.882 30.094 166.683 30.1865 166.524C30.2791 166.365 30.4774 166.312 30.6361 166.405L31.7798 167.067C31.9385 167.16 31.9914 167.358 31.8988 167.517C31.8393 167.623 31.7269 167.683 31.6145 167.683ZM28.7519 166.028C28.699 166.028 28.6395 166.015 28.5866 165.981L27.4429 165.32C27.2842 165.227 27.2313 165.028 27.3239 164.869C27.4164 164.711 27.6148 164.658 27.7734 164.75L28.9172 165.412C29.0758 165.505 29.1287 165.703 29.0362 165.862C28.9767 165.968 28.8643 166.028 28.7519 166.028ZM25.8893 164.373C25.8364 164.373 25.7769 164.36 25.724 164.327L24.5802 163.665C24.4216 163.572 24.3687 163.373 24.4612 163.215C24.5538 163.056 24.7521 163.003 24.9108 163.095L26.0545 163.757C26.2132 163.85 26.2661 164.049 26.1735 164.207C26.114 164.313 26.0016 164.373 25.8893 164.373ZM23.0266 162.718C22.9737 162.718 22.9142 162.705 22.8613 162.672L21.7176 162.01C21.5589 161.917 21.506 161.719 21.5986 161.56C21.6912 161.401 21.8895 161.348 22.0482 161.441L23.1919 162.102C23.3506 162.195 23.4035 162.394 23.3109 162.553C23.2514 162.659 23.139 162.718 23.0266 162.718ZM20.164 161.063C20.1111 161.063 20.0516 161.05 19.9987 161.017L19.7739 160.885C19.6153 160.792 19.5624 160.593 19.6549 160.434C19.7475 160.276 19.9458 160.223 20.1045 160.315L20.3293 160.448C20.4879 160.54 20.5408 160.739 20.4483 160.898C20.3888 161.004 20.2764 161.063 20.164 161.063Z" fill="#EB4680"/>
<path d="M192.009 45.1973C192.009 44.5949 191.169 44.1051 190.138 44.1051C189.106 44.1051 188.267 44.5949 188.267 45.1973C188.267 45.7997 189.106 46.2895 190.138 46.2895C191.169 46.2895 192.009 45.7997 192.009 45.1973Z" fill="#FFD70F"/>
<path d="M165.702 29.8204L163.349 31.3958L161.775 28.7216L165.702 29.8204Z" fill="#FFD70F"/>
<path d="M188.61 44.6611C188.557 44.6611 188.498 44.6479 188.445 44.6148L187.301 43.9528C187.142 43.8601 187.089 43.6616 187.182 43.5027C187.275 43.3438 187.48 43.2909 187.632 43.3835L188.775 44.0455C188.934 44.1382 188.987 44.3367 188.894 44.4956C188.835 44.6015 188.722 44.6611 188.61 44.6611ZM185.747 43.0129C185.695 43.0129 185.635 42.9996 185.582 42.9665L184.438 42.3046C184.28 42.2119 184.227 42.0133 184.319 41.8545C184.412 41.6956 184.61 41.6426 184.769 41.7353L185.913 42.3973C186.071 42.4899 186.124 42.6885 186.032 42.8474C185.972 42.9533 185.86 43.0129 185.747 43.0129ZM182.878 41.3646C182.825 41.3646 182.766 41.3514 182.713 41.3183L181.569 40.6564C181.41 40.5637 181.358 40.3651 181.45 40.2062C181.543 40.0474 181.748 39.9944 181.9 40.0871L183.043 40.749C183.202 40.8417 183.255 41.0403 183.162 41.1991C183.103 41.3051 182.991 41.3646 182.878 41.3646ZM180.016 39.7164C179.963 39.7164 179.903 39.7032 179.85 39.6701L178.707 39.0081C178.548 38.9155 178.495 38.7169 178.588 38.558C178.68 38.3991 178.878 38.3462 179.037 38.4389L180.181 39.1008C180.339 39.1935 180.392 39.392 180.3 39.5509C180.24 39.6568 180.128 39.7164 180.016 39.7164ZM177.153 38.0682C177.1 38.0682 177.04 38.0549 176.988 38.0218L175.844 37.3599C175.685 37.2672 175.632 37.0686 175.725 36.9098C175.817 36.7509 176.016 36.698 176.174 36.7906L177.318 37.4526C177.477 37.5452 177.53 37.7438 177.437 37.9027C177.378 38.0086 177.265 38.0682 177.153 38.0682ZM174.29 36.4199C174.231 36.4199 174.178 36.4067 174.125 36.3736L172.981 35.7117C172.823 35.619 172.77 35.4204 172.862 35.2615C172.955 35.1027 173.16 35.0497 173.312 35.1424L174.456 35.8043C174.614 35.897 174.667 36.0956 174.575 36.2545C174.515 36.3604 174.403 36.4199 174.29 36.4199ZM171.421 34.7717C171.368 34.7717 171.309 34.7585 171.256 34.7254L170.112 34.0634C169.953 33.9708 169.9 33.7722 169.993 33.6133C170.086 33.4544 170.284 33.4015 170.443 33.4942L171.586 34.1561C171.745 34.2488 171.798 34.4474 171.705 34.6062C171.646 34.7121 171.533 34.7717 171.421 34.7717ZM168.558 33.1235C168.505 33.1235 168.446 33.1102 168.393 33.0771L167.249 32.4152C167.091 32.3225 167.038 32.1239 167.13 31.9651C167.223 31.8062 167.428 31.7533 167.58 31.8459L168.724 32.5079C168.882 32.6005 168.935 32.7991 168.843 32.958C168.783 33.0639 168.671 33.1235 168.558 33.1235ZM165.696 31.4752C165.643 31.4752 165.583 31.462 165.53 31.4289L164.387 30.767C164.228 30.6743 164.175 30.4757 164.268 30.3168C164.36 30.158 164.565 30.105 164.717 30.1977L165.861 30.8596C166.02 30.9523 166.073 31.1509 165.98 31.3098C165.921 31.4157 165.808 31.4752 165.696 31.4752Z" fill="#FFD70F"/>
<path d="M216.424 184.085C216.424 183.483 215.584 182.993 214.553 182.993C213.521 182.993 212.682 183.483 212.682 184.085C212.682 184.688 213.521 185.178 214.553 185.178C215.584 185.178 216.424 184.688 216.424 184.085Z" fill="#0FBAB8"/>
<path d="M198.368 173.521L196.008 175.096L194.441 172.422L198.368 173.521Z" fill="#0FBAB8"/>
<path d="M212.701 183.364C212.649 183.364 212.589 183.351 212.536 183.318L211.386 182.662C211.227 182.57 211.174 182.371 211.26 182.212C211.353 182.053 211.551 182 211.71 182.086L212.86 182.742C213.019 182.834 213.072 183.033 212.986 183.192C212.926 183.298 212.814 183.357 212.701 183.357V183.364ZM209.832 181.722C209.779 181.722 209.72 181.709 209.667 181.676L208.517 181.021C208.358 180.928 208.305 180.729 208.391 180.571C208.484 180.412 208.682 180.359 208.841 180.445L209.991 181.1C210.15 181.193 210.202 181.391 210.117 181.55C210.057 181.656 209.945 181.716 209.832 181.716V181.722ZM206.963 180.081C206.91 180.081 206.851 180.068 206.798 180.034L205.647 179.379C205.489 179.286 205.436 179.088 205.522 178.929C205.614 178.77 205.813 178.717 205.971 178.803L207.122 179.459C207.28 179.551 207.333 179.75 207.247 179.909C207.188 180.015 207.075 180.074 206.963 180.074V180.081ZM204.094 178.439C204.041 178.439 203.981 178.426 203.928 178.393L202.778 177.738C202.619 177.645 202.567 177.446 202.652 177.287C202.745 177.129 202.943 177.076 203.102 177.162L204.252 177.817C204.411 177.91 204.464 178.108 204.378 178.267C204.319 178.373 204.206 178.433 204.094 178.433V178.439ZM201.224 176.798C201.172 176.798 201.112 176.784 201.059 176.751L199.909 176.096C199.75 176.003 199.697 175.805 199.783 175.646C199.876 175.487 200.074 175.434 200.233 175.52L201.383 176.175C201.542 176.268 201.595 176.467 201.509 176.625C201.449 176.731 201.337 176.791 201.224 176.791V176.798ZM198.355 175.156C198.302 175.156 198.243 175.143 198.19 175.11L197.04 174.454C196.881 174.362 196.828 174.163 196.914 174.004C197.007 173.845 197.205 173.792 197.364 173.878L198.514 174.534C198.673 174.626 198.725 174.825 198.639 174.984C198.58 175.09 198.468 175.149 198.355 175.149V175.156Z" fill="#0FBAB8"/>
<path d="M145.704 141.702C145.261 141.702 144.811 141.682 144.368 141.662C144.183 141.655 144.045 141.496 144.051 141.318C144.058 141.132 144.223 140.98 144.395 141C144.831 141.02 145.268 141.033 145.704 141.04C145.889 141.04 146.034 141.192 146.028 141.377C146.028 141.556 145.876 141.702 145.697 141.702H145.704ZM147.687 141.675C147.509 141.675 147.363 141.536 147.357 141.357C147.357 141.172 147.496 141.02 147.674 141.013C148.11 141 148.547 140.973 148.983 140.94C149.162 140.927 149.32 141.066 149.34 141.245C149.353 141.43 149.214 141.582 149.036 141.602C148.593 141.635 148.15 141.662 147.7 141.675H147.687ZM142.405 141.516C142.405 141.516 142.385 141.516 142.372 141.516C141.929 141.47 141.486 141.417 141.05 141.357C140.871 141.331 140.746 141.165 140.765 140.987C140.792 140.808 140.957 140.676 141.136 140.702C141.565 140.762 142.002 140.815 142.438 140.854C142.616 140.874 142.755 141.033 142.735 141.218C142.716 141.39 142.577 141.516 142.405 141.516ZM150.98 141.397C150.814 141.397 150.676 141.278 150.649 141.106C150.623 140.927 150.755 140.762 150.933 140.735C151.37 140.682 151.799 140.616 152.229 140.543C152.401 140.51 152.58 140.636 152.613 140.815C152.646 140.993 152.52 141.165 152.342 141.198C151.905 141.271 151.462 141.337 151.019 141.39C151.006 141.39 150.993 141.39 150.98 141.39V141.397ZM139.132 141.04C139.132 141.04 139.093 141.04 139.066 141.04C138.63 140.954 138.194 140.861 137.757 140.762C137.579 140.722 137.473 140.543 137.513 140.364C137.552 140.186 137.731 140.073 137.909 140.119C138.332 140.219 138.756 140.311 139.192 140.397C139.37 140.431 139.489 140.609 139.456 140.788C139.423 140.947 139.284 141.053 139.132 141.053V141.04ZM154.232 140.821C154.08 140.821 153.948 140.715 153.908 140.563C153.869 140.384 153.981 140.206 154.16 140.166C154.589 140.067 155.012 139.961 155.429 139.848C155.607 139.802 155.786 139.908 155.832 140.08C155.879 140.258 155.779 140.437 155.601 140.484C155.178 140.603 154.741 140.709 154.305 140.808C154.279 140.808 154.252 140.815 154.232 140.815V140.821ZM135.926 140.245C135.926 140.245 135.86 140.245 135.827 140.232C135.397 140.1 134.974 139.961 134.557 139.815C134.386 139.755 134.293 139.563 134.353 139.391C134.412 139.219 134.604 139.127 134.776 139.186C135.186 139.332 135.602 139.464 136.019 139.597C136.19 139.649 136.29 139.835 136.237 140.007C136.19 140.153 136.065 140.239 135.919 140.239L135.926 140.245ZM157.412 139.914C157.273 139.914 157.148 139.828 157.102 139.689C157.042 139.517 157.135 139.325 157.307 139.266C157.723 139.12 158.133 138.968 158.53 138.809C158.695 138.743 158.893 138.822 158.959 138.994C159.025 139.166 158.946 139.358 158.774 139.424C158.364 139.59 157.948 139.749 157.518 139.894C157.485 139.908 157.445 139.914 157.412 139.914ZM160.46 138.637C160.341 138.637 160.222 138.571 160.163 138.451C160.083 138.286 160.149 138.087 160.308 138.008C160.698 137.809 161.081 137.604 161.458 137.392C161.617 137.3 161.815 137.353 161.908 137.511C162 137.67 161.948 137.869 161.789 137.962C161.405 138.18 161.009 138.392 160.605 138.597C160.559 138.623 160.506 138.63 160.46 138.63V138.637Z" fill="#0FBAB8"/>
<path d="M195.479 163.221H162.602V164.929C162.602 170.225 169.96 174.514 179.044 174.514C188.128 174.514 195.486 170.225 195.486 164.929C195.486 164.883 195.486 164.843 195.486 164.797V163.221H195.479Z" fill="#A8CFF0"/>
<path d="M179.037 172.872C188.118 172.872 195.479 168.581 195.479 163.287C195.479 157.994 188.118 153.702 179.037 153.702C169.957 153.702 162.595 157.994 162.595 163.287C162.595 168.581 169.957 172.872 179.037 172.872Z" fill="#D1EBFF"/>
<path d="M179.037 172.832C170.059 172.832 162.761 168.636 162.609 163.42C162.609 163.479 162.602 163.532 162.602 163.592C162.602 168.887 169.96 173.177 179.044 173.177C188.128 173.177 195.486 168.887 195.486 163.592C195.486 163.532 195.486 163.479 195.479 163.42C195.321 168.636 188.029 172.832 179.051 172.832H179.037Z" fill="white"/>
<path d="M194.554 158.667H163.587V162.844C163.587 167.828 170.515 171.873 179.07 171.873C187.625 171.873 194.554 167.828 194.554 162.844C194.554 162.804 194.554 162.758 194.554 162.718V158.667Z" fill="#A8CFF0"/>
<path d="M179.07 167.762C187.621 167.762 194.554 163.72 194.554 158.733C194.554 153.747 187.621 149.704 179.07 149.704C170.519 149.704 163.587 153.747 163.587 158.733C163.587 163.72 170.519 167.762 179.07 167.762Z" fill="#D1EBFF"/>
<path d="M171.163 157.734C170.648 160.467 174.026 163.4 178.713 164.293C183.401 165.18 187.619 163.691 188.134 160.957C188.65 158.223 185.272 155.291 180.584 154.397C175.897 153.51 171.679 155 171.163 157.734Z" fill="#A8CFF0"/>
<path d="M179.07 167.722C170.615 167.722 163.746 163.771 163.594 158.859C163.594 158.912 163.587 158.965 163.587 159.018C163.587 164.002 170.515 168.047 179.07 168.047C187.625 168.047 194.554 164.002 194.554 159.018C194.554 158.965 194.554 158.912 194.547 158.859C194.402 163.771 187.533 167.722 179.07 167.722Z" fill="white"/>
<g style="mix-blend-mode:multiply" opacity="0.2">
<path d="M189.873 164.121L193.073 162.261L218.863 177.168C216.886 178.32 214.44 178.327 212.457 177.175L189.873 164.121Z" fill="#D1EBFF"/>
</g>
<path d="M218.678 171.191C220.205 172.435 220.443 174.679 219.2 176.208C217.957 177.738 215.716 177.976 214.189 176.731C212.662 175.487 212.424 173.243 213.667 171.714C214.91 170.185 217.151 169.947 218.678 171.191Z" fill="#001A46"/>
<path d="M199.638 154.828L194.118 161.646L212.92 176.831C212.92 176.831 212.94 176.844 212.946 176.851C214.044 177.738 216.166 176.937 217.687 175.05C219.214 173.17 219.557 170.92 218.467 170.033C218.46 170.026 218.447 170.019 218.44 170.013L199.638 154.821V154.828Z" fill="#084C94"/>
<path d="M199.651 154.841C200.749 155.728 200.398 157.979 198.871 159.858C197.344 161.738 195.222 162.546 194.131 161.659C193.04 160.772 193.384 158.521 194.911 156.641C196.438 154.762 198.56 153.954 199.651 154.841Z" fill="#2672AB"/>
<path d="M192.809 151.571L189.523 155.629L194.865 159.971L194.878 159.978C195.532 160.514 196.795 160.031 197.708 158.912C198.613 157.793 198.825 156.456 198.17 155.927L198.157 155.92L192.815 151.578L192.809 151.571Z" fill="#001A46"/>
<path d="M188.782 160.739L175.573 150.161L173.986 152.147C173.986 152.147 173.96 152.18 173.947 152.2C172.248 154.325 173.828 158.416 177.471 161.341C181.12 164.26 185.45 164.909 187.149 162.784C187.163 162.764 187.176 162.745 187.189 162.731L188.776 160.746L188.782 160.739Z" fill="#72B5E8"/>
<path d="M175.553 150.188C173.854 152.312 175.434 156.403 179.077 159.329C182.726 162.248 187.057 162.897 188.756 160.772C190.455 158.647 188.875 154.556 185.232 151.631C181.583 148.711 177.252 148.063 175.553 150.188Z" fill="#A8CFF0"/>
<path d="M179.09 159.309C175.481 156.416 173.9 152.385 175.514 150.24C175.494 150.26 175.474 150.287 175.454 150.307C173.755 152.432 175.335 156.522 178.978 159.448C182.627 162.367 186.958 163.016 188.657 160.891C188.676 160.871 188.69 160.845 188.71 160.818C186.971 162.864 182.693 162.202 179.09 159.309Z" fill="white"/>
<path d="M188.736 157.793L178.456 149.559L177.219 151.108C177.219 151.108 177.2 151.134 177.186 151.147C175.864 152.802 177.094 155.986 179.93 158.263C182.766 160.54 186.144 161.037 187.467 159.382C187.48 159.369 187.487 159.355 187.5 159.342L188.736 157.8V157.793Z" fill="#3F92D1"/>
<path d="M178.436 149.572C177.114 151.227 178.343 154.411 181.18 156.688C184.016 158.965 187.394 159.461 188.716 157.806C190.038 156.152 188.809 152.968 185.973 150.691C183.136 148.414 179.758 147.917 178.436 149.572Z" fill="#FFDE17"/>
<path d="M181.193 156.681C178.383 154.431 177.153 151.293 178.409 149.618C178.396 149.638 178.376 149.651 178.363 149.671C177.041 151.326 178.271 154.51 181.107 156.787C183.943 159.064 187.321 159.561 188.643 157.906C188.657 157.886 188.67 157.866 188.683 157.853C187.328 159.441 184.002 158.932 181.193 156.681Z" fill="white"/>
<path d="M196.226 149.685L184.71 140.457L183.328 142.191C183.328 142.191 177.907 148.976 177.894 148.996C176.413 150.85 177.788 154.417 180.968 156.966C184.148 159.514 187.929 160.077 189.41 158.224C189.423 158.21 189.43 158.191 189.443 158.177L196.226 149.691V149.685Z" fill="#72B5E8"/>
<path d="M184.696 140.484C183.215 142.337 184.59 145.905 187.77 148.453C190.95 151.002 194.732 151.564 196.213 149.711C197.694 147.858 196.319 144.29 193.139 141.741C189.959 139.193 186.177 138.63 184.696 140.484Z" fill="#A8CFF0"/>
<path d="M187.777 148.44C184.63 145.918 183.255 142.403 184.657 140.53C184.637 140.55 184.624 140.57 184.604 140.589C183.123 142.443 184.498 146.011 187.678 148.559C190.858 151.108 194.64 151.67 196.121 149.817C196.134 149.797 196.154 149.777 196.167 149.757C194.653 151.538 190.924 150.962 187.777 148.447V148.44Z" fill="white"/>
<path d="M197.165 147.249L186.885 139.014L185.649 140.563C185.649 140.563 185.629 140.589 185.616 140.603C184.293 142.258 185.523 145.441 188.359 147.719C191.195 149.996 194.574 150.492 195.896 148.837C195.909 148.824 195.916 148.811 195.929 148.798L197.165 147.255V147.249Z" fill="#3F92D1"/>
<path d="M186.865 139.027C185.543 140.682 186.773 143.866 189.609 146.143C192.445 148.42 195.823 148.917 197.145 147.262C198.468 145.607 197.238 142.423 194.402 140.146C191.566 137.869 188.187 137.372 186.865 139.027Z" fill="#FFDE17"/>
<path d="M189.622 146.137C186.812 143.886 185.582 140.748 186.839 139.074C186.825 139.093 186.806 139.107 186.792 139.127C185.47 140.781 186.7 143.965 189.536 146.242C192.372 148.519 195.75 149.016 197.073 147.361C197.086 147.341 197.099 147.321 197.112 147.308C195.757 148.897 192.432 148.387 189.622 146.137Z" fill="white"/>
<path d="M200.603 145.951L187.394 135.373L185.807 137.359C185.807 137.359 185.781 137.392 185.768 137.412C184.069 139.537 185.649 143.628 189.291 146.553C192.941 149.473 197.271 150.121 198.97 147.996C198.983 147.977 198.997 147.957 199.01 147.944L200.596 145.958L200.603 145.951Z" fill="#72B5E8"/>
<path d="M187.374 135.393C185.675 137.518 187.255 141.609 190.898 144.535C194.547 147.454 198.877 148.102 200.577 145.978C202.276 143.853 200.696 139.762 197.053 136.836C193.403 133.917 189.073 133.268 187.374 135.393Z" fill="#A8CFF0"/>
<path d="M190.911 144.521C187.301 141.629 185.721 137.597 187.334 135.453C187.315 135.473 187.295 135.499 187.275 135.519C185.576 137.644 187.156 141.735 190.799 144.66C194.448 147.579 198.778 148.228 200.477 146.103C200.497 146.084 200.51 146.057 200.53 146.031C198.792 148.076 194.514 147.414 190.911 144.521Z" fill="white"/>
<path opacity="0.2" d="M93.7268 205.089L60.8561 185.893C58.7339 184.668 58.9983 182.523 61.4511 181.107L111.041 152.445C113.494 151.028 117.196 150.876 119.319 152.101L152.189 171.29C154.312 172.515 154.047 174.66 151.594 176.076L102.004 204.738C99.5513 206.155 95.849 206.307 93.7268 205.082V205.089Z" fill="#92B4D1"/>
<path d="M146.821 165.651C146.801 165.028 146.312 164.393 145.446 163.863L141.407 161.388L142.266 161.07C144.17 160.368 144.408 158.905 142.65 157.793C140.858 156.661 137.804 156.324 135.873 157.039L134.901 157.396L130.862 154.921C129.996 154.391 128.826 154.007 127.563 153.842C126.142 153.656 124.74 153.769 123.695 154.153L120.152 155.477L141.678 168.676L145.221 167.352C146.259 166.968 146.841 166.352 146.815 165.651H146.821ZM137.678 159.567C136.858 159.064 136.898 158.396 137.771 158.071C138.643 157.747 140.018 157.893 140.845 158.402C141.671 158.912 141.625 159.574 140.752 159.898C139.88 160.223 138.504 160.077 137.678 159.567Z" fill="#A8CFF0"/>
<path d="M93.9584 204.414L61.0744 185.204C58.9654 183.986 59.2299 181.855 61.6628 180.445L111.134 151.856C113.574 150.446 117.256 150.293 119.365 151.511L152.249 170.721C154.358 171.939 154.094 174.07 151.661 175.48L102.189 204.07C99.7498 205.479 96.0673 205.632 93.9584 204.414Z" fill="#084C94"/>
<path d="M93.9584 203.739L61.0744 184.529C58.9654 183.311 59.2299 181.18 61.6628 179.77L111.134 151.181C113.574 149.771 117.256 149.618 119.365 150.836L152.249 170.046C154.358 171.264 154.094 173.395 151.661 174.805L102.189 203.394C99.7498 204.804 96.0673 204.957 93.9584 203.739Z" fill="#2672AB"/>
<path d="M151.667 174.434L102.196 203.024C99.756 204.434 96.0736 204.586 93.9646 203.368L61.0806 184.158C60.1947 183.649 59.732 182.974 59.6658 182.265C59.5799 183.113 60.0427 183.933 61.0806 184.529L93.9646 203.739C96.0736 204.957 99.7626 204.804 102.196 203.394L151.667 174.805C153.082 173.984 153.756 172.925 153.67 171.939C153.584 172.813 152.91 173.72 151.667 174.434Z" fill="#3F92D1"/>
<g style="mix-blend-mode:multiply">
<path d="M97.264 200.919L63.4214 177.996L116.483 152.167L150.325 175.09L97.264 200.919Z" fill="#D1EBFF"/>
</g>
<path d="M97.9051 200.21L64.0625 177.294L117.124 151.465L150.966 174.382L97.9051 200.21Z" fill="#F0F8FF"/>
<g style="mix-blend-mode:multiply">
<path d="M97.5281 201.673L61.7881 181.014L113.402 151.174L149.142 171.84L97.5281 201.673Z" fill="#D1EBFF"/>
</g>
<path d="M98.0969 200.846L62.7139 180.392L113.805 150.85L149.188 171.31L98.0969 200.846Z" fill="white"/>
<g style="mix-blend-mode:multiply">
<path d="M146.623 165.24C146.563 164.538 146.047 163.87 145.188 163.373L141.149 161.043L141.948 160.58C143.727 159.554 143.852 157.859 142.094 156.807C140.302 155.735 137.354 155.715 135.549 156.761L134.643 157.284L130.604 154.954C129.738 154.457 128.587 154.159 127.371 154.126C125.996 154.086 124.66 154.384 123.688 154.947L120.383 156.509L141.889 168.94L145.195 167.378C146.166 166.815 146.675 166.048 146.609 165.247L146.623 165.24ZM137.453 159.415C136.633 158.938 136.626 158.171 137.446 157.701C138.266 157.231 139.588 157.231 140.415 157.701C141.234 158.177 141.241 158.945 140.421 159.415C139.608 159.885 138.279 159.885 137.453 159.415Z" fill="#D1EBFF"/>
</g>
<path d="M146.385 164.525C146.325 163.824 145.81 163.155 144.95 162.659L140.911 160.329L141.711 159.865C143.489 158.839 143.615 157.145 141.856 156.092C140.064 155.02 137.116 155 135.311 156.046L134.405 156.569L130.366 154.239C129.5 153.742 128.349 153.444 127.133 153.411C125.758 153.372 124.422 153.669 123.451 154.232L120.145 156.165L141.651 168.596L144.957 166.663C145.929 166.101 146.438 165.333 146.372 164.532L146.385 164.525ZM137.215 158.7C136.395 158.224 136.389 157.456 137.208 156.986C138.022 156.516 139.35 156.516 140.177 156.986C140.997 157.462 141.003 158.23 140.183 158.7C139.364 159.17 138.041 159.17 137.215 158.7Z" fill="#A8CFF0"/>
<path d="M140.177 156.661C139.358 156.185 138.029 156.185 137.209 156.661C136.726 156.939 136.535 157.317 136.62 157.681C136.68 157.429 136.872 157.184 137.209 156.992C138.022 156.522 139.351 156.522 140.177 156.992C140.514 157.191 140.713 157.436 140.772 157.687C140.858 157.323 140.66 156.939 140.177 156.661Z" fill="#D1EBFF"/>
<path d="M141.717 159.534L140.917 159.998L141.202 160.163L141.717 159.865C142.722 159.283 143.198 158.495 143.106 157.727C143.046 158.389 142.577 159.038 141.717 159.534Z" fill="#D1EBFF"/>
<path d="M144.977 166.326L141.671 168.259L120.449 155.993L120.165 156.158L141.671 168.59L144.977 166.657C145.949 166.094 146.458 165.326 146.392 164.525C146.392 164.519 146.392 164.512 146.392 164.505C146.319 165.187 145.823 165.836 144.983 166.326H144.977Z" fill="#72B5E8"/>
<path d="M142.477 166.18L123.616 155.278L124.429 154.815L143.284 165.717L142.477 166.18Z" fill="#D1EBFF"/>
<path d="M142.286 166.418L123.431 155.516L124.237 155.053L143.092 165.955L142.286 166.418Z" fill="#72B5E8"/>
<path d="M123.113 165.531L123.986 165.028L122.234 164.016L121.361 164.519L123.113 165.531ZM130.419 166.59L120.594 160.911L119.722 161.414L129.546 167.094L130.419 166.59ZM113.573 160.017L120.614 164.088L121.487 163.585L114.446 159.514L113.573 160.017ZM137.274 170.555L131.172 167.027L130.3 167.53L136.402 171.059L137.274 170.555ZM132.528 169.973L124.733 165.472L123.86 165.975L131.655 170.476L132.528 169.973ZM137.155 171.495L138.98 172.548L139.853 172.045L138.028 170.992L137.155 171.495ZM113.692 159.084L110.572 157.284L109.699 157.787L112.82 159.587L113.692 159.084ZM119.847 160.481L112.443 156.198L111.57 156.701L118.975 160.984L119.847 160.481Z" fill="#0FBAB8"/>
<path d="M122.208 167.974L121.553 168.351L122.869 169.112L123.523 168.735L122.208 167.974ZM115.352 166.398L124.098 171.449L124.753 171.072L116.006 166.021L115.352 166.398ZM117.897 168.735L117.243 169.112L120.958 171.25L121.613 170.873L117.897 168.735ZM113.864 168.775L120.515 172.614L121.17 172.237L114.519 168.398L113.864 168.775ZM131.014 173.051L124.085 169.059L123.431 169.437L130.359 173.428L131.014 173.051ZM127.47 174.256L122.181 171.198L121.527 171.575L126.816 174.633L127.47 174.256ZM108.622 162.493L114.79 166.074L115.444 165.697L109.276 162.116L108.622 162.493ZM105.99 165.836L114.955 171.032L115.61 170.655L106.645 165.459L105.99 165.836ZM115.517 171.363L122.168 175.202L122.822 174.825L116.172 170.986L115.517 171.363ZM113.296 168.457L113.95 168.08L111.055 166.392L110.4 166.769L113.296 168.457ZM113.765 163.87L120.985 168.033L121.639 167.656L114.42 163.493L113.765 163.87ZM117.329 168.417L111.279 164.902L110.625 165.28L116.674 168.795L117.329 168.417ZM110.717 164.578L104.146 160.759L103.491 161.136L110.063 164.955L110.717 164.578ZM108.708 161.798L105.547 159.951L104.893 160.328L108.053 162.175L108.708 161.798ZM130.921 173.772L133.268 175.129L133.923 174.752L131.576 173.395L130.921 173.772ZM105.422 165.518L106.076 165.141L101.336 162.387L100.682 162.764L105.422 165.518ZM102.182 162.003L109.832 166.438L110.486 166.061L102.837 161.626L102.182 162.003ZM122.73 175.533L127.649 178.366L128.303 177.989L123.384 175.156L122.73 175.533ZM124.654 171.78L131.853 175.93L132.508 175.553L125.308 171.403L124.654 171.78ZM127.364 174.971L130.452 176.745L131.106 176.367L128.019 174.593L127.364 174.971ZM121.494 173.197L129.05 177.552L129.705 177.175L122.148 172.819L121.494 173.197Z" fill="#72B5E8"/>
<path d="M114.149 172.614L113.494 172.991L114.81 173.753L115.464 173.375L114.149 172.614ZM107.293 171.039L116.039 176.089L116.694 175.712L107.947 170.661L107.293 171.039ZM109.838 173.375L109.184 173.753L112.899 175.891L113.554 175.513L109.838 173.375ZM105.805 173.415L112.456 177.254L113.111 176.877L106.46 173.038L105.805 173.415ZM122.955 177.691L116.026 173.7L115.372 174.077L122.3 178.068L122.955 177.691ZM119.411 178.896L114.122 175.838L113.468 176.215L118.757 179.273L119.411 178.896ZM100.563 167.133L106.731 170.714L107.385 170.337L101.217 166.756L100.563 167.133ZM105.237 173.091L105.891 172.713L102.995 171.025L102.341 171.403L105.237 173.091ZM105.706 168.503L112.925 172.667L113.58 172.29L106.361 168.126L105.706 168.503ZM109.269 173.051L103.22 169.536L102.566 169.913L108.615 173.428L109.269 173.051ZM102.658 169.212L96.0868 165.392L95.4323 165.77L102.004 169.589L102.658 169.212ZM100.648 166.432L97.4884 164.585L96.8339 164.962L99.994 166.809L100.648 166.432ZM122.862 178.406L125.209 179.763L125.864 179.386L123.517 178.029L122.862 178.406ZM94.1299 166.643L101.779 171.078L102.434 170.701L94.7844 166.266L94.1299 166.643ZM116.608 176.42L123.807 180.571L124.462 180.193L117.262 176.043L116.608 176.42ZM119.318 179.611L122.406 181.385L123.06 181.007L119.973 179.233L119.318 179.611ZM113.448 177.837L121.004 182.192L121.659 181.815L114.102 177.459L113.448 177.837Z" fill="#72B5E8"/>
<path d="M107.101 176.553L106.446 176.93L107.762 177.691L108.417 177.314L107.101 176.553ZM100.245 174.977L108.992 180.028L109.646 179.65L100.9 174.6L100.245 174.977ZM102.79 177.314L102.136 177.691L105.851 179.829L106.506 179.452L102.79 177.314ZM98.7576 177.354L105.408 181.193L106.063 180.816L99.4121 176.976L98.7576 177.354ZM115.907 181.63L108.978 177.638L108.324 178.015L115.252 182.007L115.907 181.63ZM112.363 182.834L107.074 179.776L106.42 180.154L111.709 183.212L112.363 182.834ZM93.5149 171.072L99.6832 174.653L100.338 174.276L94.1694 170.694L93.5149 171.072ZM90.8837 174.415L99.8484 179.611L100.503 179.233L91.5382 174.037L90.8837 174.415ZM100.41 179.942L107.061 183.781L107.716 183.404L101.065 179.564L100.41 179.942ZM98.189 177.036L98.8435 176.659L95.9478 174.971L95.2933 175.348L98.189 177.036ZM98.6584 172.449L105.878 176.612L106.532 176.235L99.3129 172.071L98.6584 172.449ZM102.222 176.996L96.1726 173.481L95.5181 173.859L101.567 177.373L102.222 176.996ZM95.6107 173.157L89.0392 169.337L88.3847 169.715L94.9562 173.534L95.6107 173.157ZM93.6009 170.377L90.4407 168.53L89.7862 168.907L92.9464 170.754L93.6009 170.377ZM115.814 182.351L118.161 183.708L118.816 183.331L116.469 181.974L115.814 182.351ZM90.3151 174.097L90.9696 173.72L86.2294 170.966L85.5749 171.343L90.3151 174.097ZM87.0757 170.582L94.7248 175.017L95.3793 174.64L87.7302 170.205L87.0757 170.582ZM107.623 184.112L112.542 186.945L113.196 186.568L108.278 183.735L107.623 184.112ZM109.547 180.359L116.747 184.509L117.401 184.132L110.202 179.981L109.547 180.359ZM112.258 183.549L115.345 185.323L116 184.946L112.912 183.172L112.258 183.549ZM106.387 181.775L113.943 186.131L114.598 185.754L107.041 181.398L106.387 181.775ZM98.5394 179.743L97.8849 180.12L101.6 182.259L102.255 181.881L98.5394 179.743ZM94.5066 179.783L101.157 183.622L101.812 183.245L95.1611 179.406L94.5066 179.783ZM108.112 185.264L102.823 182.206L102.169 182.583L107.458 185.641L108.112 185.264ZM93.9447 179.459L94.5992 179.081L91.7035 177.393L91.049 177.771L93.9447 179.459ZM97.9775 179.419L91.9283 175.904L91.2737 176.281L97.323 179.796L97.9775 179.419ZM91.3663 175.58L84.7948 171.76L84.1403 172.137L90.7118 175.957L91.3663 175.58ZM82.8379 173.005L90.487 177.44L91.1415 177.062L83.4924 172.627L82.8379 173.005ZM108.026 185.972L111.114 187.746L111.768 187.369L108.681 185.595L108.026 185.972ZM102.156 184.198L109.712 188.554L110.367 188.176L102.81 183.821L102.156 184.198Z" fill="#72B5E8"/>
<path d="M79.8035 177.082L79.149 177.46L81.5026 178.817L82.1571 178.439L79.8035 177.082ZM76.1938 177.374L81.4828 180.432L82.1373 180.054L76.8483 176.996L76.1938 177.374ZM88.008 181.828L82.7191 178.77L82.0646 179.148L87.3535 182.206L88.008 181.828ZM81.6679 183.04L76.1013 179.823L75.4468 180.2L81.0134 183.417L81.6679 183.04Z" fill="#72B5E8"/>
<path d="M105.217 187.984C105.204 187.912 105.137 187.865 105.065 187.878L104.02 188.064L104.133 187.878C102.605 186.972 100.371 186.641 98.2949 187.005C96.2917 187.356 94.7711 188.322 94.3215 189.527L94.5728 189.619C94.9827 188.507 96.4305 187.607 98.3411 187.27C100.331 186.919 102.473 187.23 103.947 188.084L93.5546 189.917C93.4819 189.931 93.4357 189.997 93.4489 190.07C93.4621 190.136 93.515 190.182 93.5811 190.182C93.5877 190.182 93.5943 190.182 93.6075 190.182L105.118 188.15C105.19 188.137 105.237 188.07 105.223 187.998L105.217 187.984ZM106.546 190.381L102.414 191.109C102.341 191.122 102.295 191.188 102.308 191.261C102.321 191.327 102.374 191.374 102.44 191.374C102.447 191.374 102.453 191.374 102.467 191.374L105.468 190.844C105.098 192.002 103.65 192.936 101.673 193.287C99.7097 193.631 97.5809 193.333 96.1132 192.499L101.25 191.618C101.323 191.605 101.369 191.539 101.356 191.466C101.343 191.393 101.277 191.347 101.204 191.36L95.0422 192.419C94.9694 192.433 94.9232 192.499 94.9364 192.572C94.9496 192.638 95.0025 192.684 95.0686 192.684C95.0752 192.684 95.0818 192.684 95.0884 192.684L96.0603 192.519L95.9413 192.724C97.052 193.366 98.5329 193.704 100.04 193.704C100.602 193.704 101.164 193.657 101.719 193.558C103.809 193.187 105.349 192.174 105.732 190.91L105.521 190.844L106.599 190.652C106.671 190.639 106.717 190.573 106.704 190.5C106.691 190.427 106.625 190.381 106.552 190.394L106.546 190.381ZM107.511 188.905C106.466 186.965 103.432 185.661 99.9543 185.661C99.1874 185.661 98.4205 185.727 97.6734 185.86C95.1149 186.31 93.1448 187.481 92.4175 188.991C91.9944 189.858 92.0209 190.778 92.4902 191.645C93.5348 193.584 96.5693 194.888 100.047 194.888C100.814 194.888 101.581 194.822 102.328 194.69C104.886 194.24 106.856 193.068 107.584 191.559C108.007 190.692 107.98 189.772 107.511 188.905ZM107.339 191.44C106.645 192.87 104.754 193.982 102.275 194.418C101.548 194.544 100.794 194.61 100.04 194.61C96.7082 194.61 93.7001 193.333 92.715 191.506C92.2919 190.718 92.2721 189.884 92.6489 189.096C93.3431 187.667 95.2339 186.555 97.7131 186.118C98.4403 185.992 99.194 185.926 99.9477 185.926C103.28 185.926 106.288 187.203 107.273 189.03C107.696 189.818 107.716 190.652 107.339 191.44ZM99.9543 186.098C99.2535 186.098 98.5527 186.157 97.8717 186.277C95.538 186.687 93.753 187.746 93.0919 189.116C92.715 189.897 92.7349 190.718 93.158 191.499C94.1034 193.26 96.8735 194.445 100.04 194.445C100.741 194.445 101.442 194.385 102.123 194.266C104.456 193.856 106.241 192.797 106.903 191.427C107.279 190.645 107.26 189.825 106.837 189.044C105.891 187.283 103.121 186.098 99.9543 186.098ZM106.777 191.367C106.136 192.697 104.384 193.73 102.096 194.134C101.429 194.253 100.734 194.313 100.04 194.313C96.966 194.313 94.1827 193.128 93.277 191.44C92.8803 190.698 92.8605 189.917 93.2175 189.176C93.8588 187.845 95.6107 186.813 97.8982 186.409C98.5659 186.29 99.2601 186.23 99.9543 186.23C103.028 186.23 105.805 187.415 106.717 189.103C107.114 189.844 107.134 190.626 106.777 191.367Z" fill="#FFCC00"/>
<path d="M96.3579 191.493C96.2786 191.493 96.2125 191.44 96.1993 191.36C96.1861 191.274 96.239 191.188 96.3315 191.168L104.384 189.646C104.476 189.626 104.556 189.686 104.576 189.778C104.589 189.864 104.536 189.95 104.443 189.97L96.391 191.493C96.391 191.493 96.3712 191.493 96.3579 191.493Z" fill="#FFCC00"/>
<path d="M97.0786 190.434C96.9993 190.434 96.9332 190.381 96.92 190.301C96.9068 190.215 96.9596 190.129 97.0522 190.109L102.91 189.004C103.009 188.99 103.082 189.043 103.101 189.136C103.115 189.222 103.062 189.308 102.969 189.328L97.1117 190.434C97.1117 190.434 97.0919 190.434 97.0786 190.434Z" fill="#FFCC00"/>
<path d="M89.2975 192.247C89.2578 192.247 89.2181 192.247 89.1718 192.241C89.0396 192.221 88.9338 192.128 88.9008 191.996C88.5636 190.606 89.0462 189.077 90.3751 187.329C90.223 187.038 90.0115 186.786 89.747 186.581C89.6809 186.528 89.4363 186.349 89.3834 186.31C89.3041 186.674 89.1454 187.025 88.9074 187.336C88.8479 187.415 88.7487 187.461 88.6496 187.461H88.5835C88.4645 187.428 88.3653 187.336 88.3388 187.21C88.1736 186.475 87.9818 185.648 88.2066 184.834C88.3058 184.483 88.4843 184.152 88.7289 183.867L87.7637 184.013C88.1868 185.257 88.0942 186.495 87.486 187.62C87.4529 187.68 87.4067 187.726 87.3472 187.753C87.0695 187.898 86.7257 187.971 86.3621 187.971C86.1902 187.971 86.0249 187.958 85.853 187.925C85.82 188.825 85.582 189.732 85.1589 190.553C85.106 190.659 84.9936 190.725 84.8746 190.725C84.3523 190.685 83.8895 190.381 83.6647 189.95C83.4664 189.573 83.4664 189.176 83.4598 188.851C83.4598 187.971 83.4598 187.091 83.4862 186.217C83.1887 185.793 82.997 185.37 82.9177 184.946C82.9045 184.939 82.8714 184.873 82.845 184.814C82.4879 184.059 82.4615 183.569 82.4417 183.139C82.4218 182.715 82.4086 182.351 82.1045 181.709L82.0186 181.53L82.6003 181.252L82.6863 181.431C83.0499 182.192 83.0697 182.676 83.0896 183.106C83.0896 183.251 83.1028 183.39 83.1226 183.536C83.1689 183.49 83.235 183.463 83.3011 183.457C83.3011 183.457 83.8961 183.39 83.9027 183.39C84.0151 183.39 84.0945 183.424 84.154 183.477C84.2267 183.543 84.2597 183.635 84.2531 183.735C84.2201 184.251 84.1936 184.767 84.1738 185.29C84.2862 185.317 84.3787 185.33 84.4779 185.337C84.7093 185.363 84.9737 185.396 85.1985 185.529C85.5159 185.721 85.6283 186.032 85.6944 186.283C85.7737 186.601 85.8266 186.925 85.853 187.256C86.0249 187.296 86.2034 187.322 86.3753 187.322C86.6001 187.322 86.8117 187.289 86.9836 187.217C87.5124 186.177 87.5257 185.025 87.0364 183.874C86.9968 183.781 87.0034 183.675 87.0497 183.589C87.1025 183.496 87.1885 183.443 87.2877 183.424L90.3222 182.973C90.5205 182.973 90.6528 183.086 90.6792 183.238C90.7056 183.41 90.5932 183.576 90.4214 183.609C89.5024 183.781 89 184.456 88.8545 184.986C88.9074 184.939 88.9735 184.913 89.0462 184.906C89.2115 184.906 89.3239 184.999 89.3702 185.138C89.4032 185.237 89.4231 185.343 89.4363 185.449C89.5421 185.588 89.7404 185.734 89.9387 185.879C90.0181 185.932 90.0908 185.992 90.1635 186.045C90.428 186.25 90.6527 186.488 90.8312 186.766C90.904 186.68 90.9701 186.601 91.0428 186.521C91.2874 186.237 91.5453 185.946 91.8031 185.661C92.3188 185.085 92.8543 184.489 93.317 183.874C93.3633 183.576 93.879 183.053 93.879 183.053C93.879 183.053 94.1104 183.086 94.1699 183.152C94.2492 183.238 92.5964 185.754 92.2857 186.098C92.0345 186.382 91.7766 186.667 91.532 186.952C91.4064 187.097 91.2742 187.25 91.1486 187.415C91.3006 187.859 91.3535 188.335 91.3006 188.832C91.1949 189.785 90.7453 190.665 90.3156 191.513C90.0776 191.976 89.7206 192.241 89.3239 192.241L89.2975 192.247ZM90.6263 188.09C89.714 189.381 89.3371 190.513 89.476 191.539C89.5883 191.453 89.6743 191.307 89.714 191.228C90.1239 190.427 90.5404 189.606 90.6329 188.772C90.6594 188.54 90.6528 188.309 90.6197 188.09H90.6263ZM84.1143 186.972C84.1011 187.607 84.1011 188.236 84.1011 188.865C84.1011 189.143 84.1011 189.434 84.2333 189.672C84.306 189.811 84.4647 189.977 84.6961 190.056C85.0333 189.321 85.2118 188.527 85.2118 187.746C84.8283 187.581 84.4779 187.329 84.1143 186.978V186.972ZM84.1407 186.032C84.2531 186.177 84.3655 186.303 84.4581 186.396C84.6961 186.647 84.9275 186.839 85.1655 186.985C85.139 186.813 85.106 186.634 85.0597 186.462C85.0068 186.257 84.9539 186.164 84.8614 186.104C84.7556 186.038 84.5771 186.018 84.392 185.999C84.3126 185.992 84.2267 185.979 84.1407 185.965V186.025V186.032ZM88.7553 185.582C88.7553 185.747 88.7553 185.912 88.7818 186.078C88.8016 185.946 88.8082 185.813 88.795 185.687C88.7818 185.654 88.762 185.621 88.7553 185.588V185.582ZM83.5722 184.099C83.5061 184.317 83.4995 184.549 83.5391 184.794C83.5523 184.562 83.559 184.33 83.5722 184.099Z" fill="#084C94"/>
<path d="M149.161 184.688H130.359V187.594C130.359 190.619 134.57 193.075 139.76 193.075C144.95 193.075 149.161 190.619 149.161 187.594C149.161 187.567 149.161 187.541 149.161 187.521V184.694V184.688Z" fill="#FFCC00"/>
<path d="M139.76 190.202C144.952 190.202 149.161 187.748 149.161 184.721C149.161 181.694 144.952 179.24 139.76 179.24C134.568 179.24 130.359 181.694 130.359 184.721C130.359 187.748 134.568 190.202 139.76 190.202Z" fill="#FFDE17"/>
<path d="M139.76 190.182C134.623 190.182 130.452 187.779 130.366 184.8C130.366 184.834 130.366 184.867 130.366 184.9C130.366 187.925 134.577 190.381 139.767 190.381C144.957 190.381 149.168 187.925 149.168 184.9C149.168 184.867 149.168 184.834 149.168 184.8C149.075 187.779 144.904 190.182 139.773 190.182H139.76Z" fill="white"/>
<path d="M144.745 176.016H134.775V184.503C134.775 186.104 137.01 187.408 139.76 187.408C142.51 187.408 144.745 186.104 144.745 184.503C144.745 184.489 144.745 184.476 144.745 184.463V176.016Z" fill="#FFCC00"/>
<path d="M139.76 180.815C143.744 180.815 146.973 177.582 146.973 173.594C146.973 169.605 143.744 166.372 139.76 166.372C135.777 166.372 132.547 169.605 132.547 173.594C132.547 177.582 135.777 180.815 139.76 180.815Z" fill="#FFD70F"/>
<path d="M140.917 166.478C143.237 167.676 144.824 170.099 144.824 172.892C144.824 176.877 141.598 180.114 137.611 180.114C137.215 180.114 136.831 180.074 136.448 180.015C137.439 180.524 138.557 180.822 139.747 180.822C143.727 180.822 146.96 177.592 146.96 173.6C146.96 170.006 144.341 167.041 140.91 166.485L140.917 166.478Z" fill="#FFCC00"/>
<path d="M137.466 174.123C139.08 174.123 140.388 172.813 140.388 171.198C140.388 169.582 139.08 168.272 137.466 168.272C135.852 168.272 134.544 169.582 134.544 171.198C134.544 172.813 135.852 174.123 137.466 174.123Z" fill="#FFDE17"/>
<path d="M65.5496 172.886L64.2604 171.469L45.207 161.249L45.5706 160.845L43.7922 159.554L43.1509 161.434L42.9658 162.559L65.5496 172.886Z" fill="#3F92D1"/>
<path d="M65.5493 172.886C65.146 173.633 64.2073 173.918 63.4602 173.514L42.9722 162.559C42.9722 162.559 44.2481 161.467 44.2613 161.474L65.5493 172.886Z" fill="#A8CFF0"/>
<path d="M65.2717 173.164L43.9837 161.752C43.9837 161.752 43.3755 162.255 42.9986 162.579L42.9722 162.566C42.9722 162.566 44.2481 161.474 44.2613 161.48L65.5493 172.892C65.4435 173.091 65.2981 173.256 65.1262 173.382C65.1791 173.316 65.232 173.243 65.2717 173.164Z" fill="#D1EBFF"/>
<path d="M91.6634 182.907C92.2452 183.225 94.0699 183.675 94.3872 183.093C94.7046 182.51 93.389 181.107 92.8072 180.789C92.2254 180.471 91.4915 180.69 91.1808 181.279C90.8635 181.861 91.0817 182.596 91.67 182.907H91.6634Z" fill="#03336E"/>
<path d="M81.3306 180.69C78.2365 179.061 82.3751 171.085 85.7535 173.044C89.1318 175.004 92.8539 180.081 92.8539 180.081C92.8539 180.081 92.8605 180.081 92.8671 180.087C93.3166 180.61 93.4026 181.286 92.9332 182.153C92.4638 183.02 92.0737 183.265 91.1746 183.232C91.1746 183.232 91.168 183.232 91.1614 183.225C91.1614 183.225 84.4246 182.318 81.3306 180.69Z" fill="#A8CFF0"/>
<path opacity="0.5" d="M83.3865 179.876C81.2312 178.744 82.5865 174.534 84.7484 172.74C81.6345 172.588 78.5471 179.22 81.337 180.69C84.431 182.318 91.1678 183.225 91.1678 183.225C91.1678 183.225 91.1744 183.232 91.181 183.232C92.0074 183.265 92.4041 183.053 92.8272 182.358C91.3397 182.139 86.0376 181.272 83.3931 179.882L83.3865 179.876Z" fill="#72B5E8"/>
<path d="M73.668 176.665L77.8991 168.801L85.8061 173.031C85.8061 173.031 85.8259 173.044 85.8391 173.051C87.1019 173.733 87.1812 176.043 86.011 178.214C84.8409 180.385 82.8707 181.59 81.608 180.915C81.5948 180.915 81.5882 180.902 81.5749 180.895L73.668 176.665Z" fill="#EB4680"/>
<path opacity="0.5" d="M92.2456 180.008L92.2324 180.001C92.2324 180.001 89.9846 177.757 87.5781 175.606C87.5318 176.228 87.3731 176.903 87.0889 177.585C89.4292 179.214 91.6969 180.69 91.6969 180.69C91.6969 180.69 91.6969 180.69 91.7035 180.69C92.3976 181.113 92.6423 181.18 92.7877 180.994C92.9398 180.802 92.715 180.451 92.2456 180.008Z" fill="#D1EBFF"/>
<path d="M83.6641 180.101C83.6641 180.101 83.6442 180.087 83.631 180.081L75.724 175.851L73.668 176.665L81.5749 180.895C81.5749 180.895 81.5948 180.908 81.608 180.915C82.3683 181.325 83.3864 181.047 84.3318 180.286C84.0938 180.273 83.869 180.213 83.6575 180.107L83.6641 180.101Z" fill="#D62D69"/>
<path d="M73.6814 176.672C74.9441 177.354 76.9142 176.142 78.0844 173.971C79.2546 171.8 79.1753 169.49 77.9125 168.808C76.6498 168.126 74.6797 169.337 73.5095 171.509C72.3393 173.68 72.4186 175.99 73.6814 176.672Z" fill="url(#paint0_linear_155_5304)"/>
<path d="M44.7969 161.136L49.028 153.272L77.9585 168.881C77.9585 168.881 77.9784 168.894 77.9916 168.901C79.2543 169.582 79.3336 171.893 78.1635 174.064C76.9933 176.235 75.0232 177.44 73.7604 176.758C73.7472 176.758 73.7406 176.745 73.7274 176.738L44.7969 161.129V161.136Z" fill="#A8CFF0"/>
<path opacity="0.5" d="M75.8102 175.944C75.8102 175.944 75.7903 175.93 75.7771 175.924L46.8466 160.315L50.2778 153.941L49.0217 153.266L44.7905 161.129L73.721 176.738C73.721 176.738 73.7409 176.751 73.7541 176.758C74.5144 177.168 75.5325 176.89 76.4779 176.129C76.2399 176.116 76.0151 176.056 75.8035 175.95L75.8102 175.944Z" fill="#72B5E8"/>
<path d="M44.8103 161.143C46.073 161.825 48.0432 160.613 49.2133 158.442C50.3835 156.271 50.3042 153.961 49.0414 153.279C47.7787 152.597 45.8086 153.808 44.6384 155.98C43.4682 158.151 43.5476 160.461 44.8103 161.143Z" fill="#D1EBFF"/>
<path d="M44.7969 161.136L44.8105 161.143C44.8105 161.143 44.8037 161.136 44.7969 161.136Z" fill="#A8CFF0"/>
<path d="M44.7969 161.136L44.8105 161.143C44.8105 161.143 44.8037 161.136 44.7969 161.136Z" fill="#A8CFF0"/>
<path d="M49.028 158.409C50.1982 156.238 50.1189 153.928 48.8562 153.246C48.8297 153.233 48.7967 153.219 48.7702 153.206C48.9157 153.239 49.0545 153.285 49.1867 153.352C50.4494 154.033 50.5288 156.344 49.3586 158.515C48.2149 160.64 46.3108 161.831 45.0415 161.249C46.291 161.513 47.9835 160.348 49.028 158.402V158.409Z" fill="#F0F8FF"/>
<path d="M40.1758 157.734L43.7656 151.061L48.2546 153.55C48.2546 153.55 48.2745 153.557 48.2811 153.564C49.3521 154.139 49.4182 156.105 48.4265 157.946C47.4348 159.786 45.7622 160.812 44.6912 160.236C44.6846 160.236 44.6714 160.223 44.6648 160.223L40.1758 157.734Z" fill="#EB4680"/>
<path d="M40.1891 157.74C41.2601 158.316 42.9327 157.297 43.9244 155.45C44.9161 153.61 44.85 151.644 43.779 151.068C42.7079 150.492 41.0353 151.511 40.0436 153.358C39.052 155.205 39.1181 157.164 40.1891 157.74Z" fill="#F76195"/>
<path opacity="0.5" d="M43.7788 155.377C44.6845 153.696 44.7044 151.922 43.8912 151.187C43.9176 151.2 43.9375 151.207 43.9639 151.22C45.0349 151.796 45.101 153.762 44.1094 155.602C43.1177 157.442 41.4451 158.468 40.374 157.893C40.2815 157.84 40.1955 157.773 40.1162 157.701C41.1872 158.197 42.8136 157.184 43.7788 155.384V155.377Z" fill="white"/>
<path style="mix-blend-mode:multiply" opacity="0.2" d="M56.8955 203.229L86.2822 185.681C86.2822 185.681 86.5268 185.542 86.6325 185.502C89.5745 183.894 93.4156 182.616 93.4156 182.616C93.4156 182.616 93.4222 182.616 93.4288 182.616C93.8982 182.457 94.1296 182.59 94.0106 183.152C93.8916 183.715 93.6668 184.046 92.9925 184.648C92.9925 184.648 92.9859 184.648 92.9793 184.648C92.9793 184.648 88.6291 188.249 85.826 190.116C85.6673 190.248 85.5087 190.367 85.35 190.46C85.3434 190.46 85.3301 190.473 85.3235 190.473L55.8179 208.207L56.9021 203.222L56.8955 203.229Z" fill="url(#paint1_radial_155_5304)"/>
<path style="mix-blend-mode:multiply" d="M77.1784 192.108L90.3611 184.238C90.3611 184.238 90.4735 184.178 90.5198 184.158C91.842 183.437 93.5609 182.868 93.5609 182.868C93.7725 182.795 93.6667 183.51 93.3692 183.774C93.3692 183.774 91.4189 185.396 90.1561 186.23C90.0834 186.29 90.0107 186.343 89.9446 186.389C89.9446 186.389 89.938 186.389 89.9314 186.396L76.6958 194.346L77.185 192.108H77.1784Z" fill="url(#paint2_radial_155_5304)"/>
<path opacity="0.5" d="M49.9407 157.628L78.3423 172.806C78.5869 172.065 78.6861 171.356 78.6266 170.741L50.3638 155.635C50.344 156.258 50.1985 156.933 49.9341 157.628H49.9407Z" fill="#D1EBFF"/>
<path d="M44.4932 155.013L48.4533 157.131C48.6979 156.503 48.8235 155.867 48.8103 155.298C48.8103 155.238 48.797 155.185 48.7904 155.132L44.9493 153.08C44.9295 153.683 44.7774 154.345 44.4932 155.013Z" fill="#F76195"/>
<path d="M78.9307 173.117L86.1831 176.99C86.4079 176.334 86.5335 175.679 86.5137 175.083C86.5137 175.03 86.5005 174.99 86.4938 174.944L79.3075 171.105C79.3075 171.727 79.1819 172.416 78.9307 173.117Z" fill="#F76195"/>
<path opacity="0.2" d="M152.05 196.305C151.178 195.802 151.171 194.981 152.044 194.478L159.217 190.334C160.427 189.633 162.404 189.639 163.62 190.341C164.836 191.042 164.843 192.188 163.633 192.883L157.227 196.583C157.095 196.662 156.877 196.662 156.738 196.583C156.599 196.504 156.599 196.378 156.738 196.298L163.144 192.598C164.083 192.055 164.083 191.162 163.131 190.619C162.185 190.069 160.645 190.069 159.706 190.619L152.533 194.763C151.931 195.107 151.938 195.676 152.54 196.02C153.141 196.371 154.12 196.371 154.721 196.02L161.59 192.049C161.861 191.89 161.861 191.638 161.59 191.479C161.319 191.321 160.876 191.321 160.605 191.479L154.88 194.789C154.88 194.789 154.847 194.835 154.88 194.855C154.913 194.875 154.959 194.875 154.992 194.855L159.204 192.419C159.336 192.34 159.554 192.34 159.693 192.419C159.825 192.499 159.832 192.625 159.693 192.704L155.482 195.14C155.184 195.312 154.695 195.312 154.397 195.14C154.1 194.968 154.093 194.683 154.397 194.511L160.123 191.201C160.665 190.89 161.544 190.89 162.086 191.201C162.628 191.512 162.628 192.022 162.086 192.333L155.217 196.305C154.351 196.808 152.936 196.801 152.064 196.305H152.05Z" fill="#92B4D1"/>
<path d="M152.05 196.12C151.178 195.617 151.171 194.796 152.044 194.293L159.217 190.149C160.427 189.447 162.404 189.454 163.62 190.156C164.836 190.857 164.843 192.002 163.633 192.697L157.227 196.398C157.095 196.477 156.877 196.477 156.738 196.398C156.599 196.318 156.599 196.192 156.738 196.113L163.144 192.413C164.083 191.87 164.083 190.976 163.131 190.434C162.185 189.884 160.645 189.884 159.706 190.434L152.533 194.577C151.931 194.922 151.938 195.491 152.54 195.835C153.141 196.186 154.12 196.186 154.721 195.835L161.59 191.863C161.861 191.704 161.861 191.453 161.59 191.294C161.319 191.135 160.876 191.135 160.605 191.294L154.88 194.604C154.88 194.604 154.847 194.65 154.88 194.67C154.913 194.69 154.959 194.69 154.992 194.67L159.204 192.234C159.336 192.155 159.554 192.155 159.693 192.234C159.825 192.313 159.832 192.439 159.693 192.519L155.482 194.955C155.184 195.127 154.695 195.127 154.397 194.955C154.1 194.782 154.093 194.498 154.397 194.326L160.123 191.016C160.665 190.705 161.544 190.705 162.086 191.016C162.628 191.327 162.628 191.837 162.086 192.148L155.217 196.12C154.351 196.623 152.936 196.616 152.064 196.12H152.05Z" fill="#2672AB"/>
<path d="M161.583 191.115C161.312 190.956 160.869 190.956 160.598 191.115L154.873 194.425C154.873 194.425 154.84 194.471 154.873 194.491C154.906 194.511 154.952 194.511 154.985 194.491L159.197 192.055C159.243 192.029 159.303 192.029 159.355 192.016L160.598 191.301C160.869 191.142 161.312 191.142 161.583 191.301C161.676 191.354 161.729 191.426 161.755 191.493C161.808 191.36 161.755 191.215 161.583 191.115Z" fill="#084C94"/>
<path d="M154.391 194.955C154.688 195.127 155.178 195.127 155.475 194.955L159.686 192.519C159.799 192.452 159.812 192.36 159.739 192.287C159.726 192.307 159.706 192.32 159.686 192.333L155.475 194.769C155.178 194.941 154.688 194.941 154.391 194.769C154.279 194.703 154.226 194.624 154.193 194.544C154.14 194.69 154.193 194.842 154.391 194.955Z" fill="#084C94"/>
<path d="M163.131 190.255C162.185 189.705 160.645 189.705 159.706 190.255L152.533 194.399C152.196 194.597 152.057 194.862 152.103 195.12C152.136 194.921 152.275 194.736 152.533 194.584L159.706 190.44C160.645 189.897 162.185 189.897 163.131 190.44C163.567 190.692 163.792 191.016 163.832 191.34C163.878 190.95 163.646 190.553 163.131 190.255Z" fill="#084C94"/>
<path d="M163.633 192.519L157.227 196.219C157.095 196.298 156.876 196.298 156.738 196.219C156.711 196.206 156.698 196.186 156.678 196.173C156.605 196.245 156.625 196.345 156.738 196.404C156.87 196.484 157.088 196.484 157.227 196.404L163.633 192.704C164.274 192.333 164.565 191.837 164.519 191.347C164.479 191.777 164.195 192.194 163.633 192.525V192.519Z" fill="#084C94"/>
<path d="M162.463 191.499C162.43 191.671 162.304 191.837 162.073 191.969L155.204 195.941C154.338 196.444 152.923 196.437 152.05 195.941C151.654 195.709 151.449 195.418 151.409 195.113C151.363 195.478 151.574 195.848 152.05 196.12C152.923 196.623 154.338 196.629 155.204 196.12L162.073 192.148C162.384 191.969 162.509 191.724 162.463 191.493V191.499Z" fill="#084C94"/>
<path opacity="0.2" d="M180.703 190.553C181.576 190.05 181.583 189.229 180.71 188.726L173.537 184.582C172.327 183.88 170.35 183.887 169.134 184.589C167.917 185.29 167.911 186.435 169.121 187.131L175.527 190.831C175.659 190.91 175.877 190.91 176.016 190.831C176.148 190.751 176.155 190.626 176.016 190.546L169.61 186.846C168.671 186.303 168.671 185.416 169.623 184.867C170.568 184.317 172.109 184.317 173.048 184.867L180.221 189.01C180.822 189.355 180.816 189.924 180.214 190.268C179.612 190.619 178.634 190.619 178.032 190.268L171.163 186.296C170.892 186.138 170.892 185.886 171.163 185.727C171.434 185.568 171.877 185.568 172.148 185.727L177.874 189.037C177.874 189.037 177.907 189.083 177.874 189.103C177.841 189.123 177.794 189.123 177.761 189.103L173.55 186.667C173.418 186.588 173.2 186.588 173.061 186.667C172.929 186.747 172.922 186.872 173.061 186.952L177.272 189.388C177.57 189.56 178.059 189.56 178.356 189.388C178.654 189.216 178.66 188.931 178.356 188.759L172.631 185.449C172.089 185.138 171.21 185.138 170.668 185.449C170.125 185.76 170.125 186.27 170.668 186.581L177.537 190.553C178.403 191.056 179.817 191.049 180.69 190.553H180.703Z" fill="#92B4D1"/>
<path d="M180.703 190.328C181.576 189.825 181.583 189.004 180.71 188.501L173.537 184.357C172.327 183.655 170.35 183.662 169.134 184.364C167.917 185.065 167.911 186.21 169.121 186.905L175.527 190.606C175.659 190.685 175.877 190.685 176.016 190.606C176.148 190.526 176.155 190.4 176.016 190.321L169.61 186.621C168.671 186.078 168.671 185.184 169.623 184.642C170.568 184.092 172.109 184.092 173.048 184.642L180.221 188.785C180.822 189.13 180.816 189.699 180.214 190.043C179.612 190.394 178.634 190.394 178.032 190.043L171.163 186.071C170.892 185.912 170.892 185.661 171.163 185.502C171.434 185.343 171.877 185.343 172.148 185.502L177.874 188.812C177.874 188.812 177.907 188.858 177.874 188.878C177.841 188.898 177.794 188.898 177.761 188.878L173.55 186.442C173.418 186.363 173.2 186.363 173.061 186.442C172.929 186.521 172.922 186.647 173.061 186.727L177.272 189.163C177.57 189.335 178.059 189.335 178.356 189.163C178.654 188.991 178.66 188.706 178.356 188.534L172.631 185.224C172.089 184.913 171.21 184.913 170.668 185.224C170.125 185.535 170.125 186.045 170.668 186.356L177.537 190.328C178.403 190.831 179.817 190.824 180.69 190.328H180.703Z" fill="#72B5E8"/>
<path d="M180.227 188.62L173.054 184.476C172.115 183.933 170.575 183.933 169.629 184.476C169.12 184.774 168.889 185.164 168.929 185.555C168.962 185.224 169.193 184.893 169.629 184.642C170.575 184.092 172.115 184.092 173.054 184.642L180.227 188.785C180.492 188.938 180.63 189.129 180.663 189.328C180.703 189.077 180.564 188.812 180.227 188.62Z" fill="#3F92D1"/>
<path d="M171.176 185.509C171.447 185.35 171.89 185.35 172.161 185.509L173.464 186.263C173.497 186.27 173.537 186.27 173.563 186.29L177.774 188.726C177.774 188.726 177.854 188.746 177.887 188.726C177.92 188.706 177.92 188.679 177.887 188.66L172.161 185.35C171.89 185.191 171.447 185.191 171.176 185.35C171.005 185.449 170.952 185.588 170.998 185.721C171.024 185.648 171.077 185.575 171.176 185.515V185.509Z" fill="#3F92D1"/>
<path d="M178.369 188.997C178.072 189.169 177.583 189.169 177.285 188.997L173.074 186.561C173.074 186.561 173.021 186.521 173.008 186.502C172.948 186.574 172.968 186.667 173.074 186.727L177.285 189.163C177.583 189.335 178.072 189.335 178.369 189.163C178.555 189.057 178.614 188.904 178.568 188.765C178.541 188.851 178.482 188.931 178.369 188.997Z" fill="#3F92D1"/>
<path d="M176.089 190.387C176.089 190.387 176.049 190.427 176.022 190.447C175.89 190.526 175.672 190.526 175.533 190.447L169.127 186.747C168.558 186.416 168.268 185.992 168.235 185.562C168.195 186.051 168.486 186.541 169.127 186.912L175.533 190.612C175.665 190.692 175.884 190.692 176.022 190.612C176.128 190.553 176.148 190.46 176.089 190.387Z" fill="#3F92D1"/>
<path d="M180.703 190.162C179.831 190.665 178.416 190.672 177.55 190.162L170.681 186.19C170.449 186.058 170.324 185.886 170.291 185.707C170.251 185.939 170.377 186.177 170.681 186.356L177.55 190.328C178.416 190.831 179.831 190.824 180.703 190.328C181.179 190.056 181.384 189.686 181.345 189.328C181.312 189.633 181.1 189.93 180.703 190.162Z" fill="#3F92D1"/>
<path opacity="0.2" d="M184.478 192.353C183.341 192.532 182.045 192.181 181.589 191.579L177.821 186.588C177.186 185.747 177.959 184.86 179.54 184.615C181.12 184.37 182.931 184.853 183.566 185.694L186.931 190.149C187.004 190.242 186.918 190.341 186.739 190.367C186.561 190.394 186.362 190.341 186.296 190.248L182.931 185.793C182.435 185.138 181.034 184.761 179.797 184.953C178.561 185.145 177.966 185.833 178.455 186.488L182.224 191.479C182.541 191.896 183.433 192.135 184.22 192.016C185.007 191.896 185.39 191.453 185.073 191.036L181.463 186.257C181.318 186.071 180.915 185.959 180.564 186.012C180.207 186.065 180.035 186.263 180.181 186.455L183.189 190.434C183.189 190.434 183.248 190.467 183.288 190.46C183.328 190.46 183.348 190.434 183.334 190.407L181.126 187.481C181.053 187.389 181.139 187.289 181.318 187.263C181.496 187.236 181.695 187.289 181.761 187.382L183.969 190.308C184.128 190.513 183.936 190.731 183.546 190.798C183.156 190.864 182.706 190.738 182.554 190.533L179.546 186.555C179.262 186.177 179.606 185.787 180.313 185.674C181.02 185.562 181.82 185.78 182.105 186.157L185.714 190.937C186.171 191.539 185.615 192.174 184.478 192.347V192.353Z" fill="#92B4D1"/>
<path d="M184.478 192.128C183.341 192.307 182.045 191.956 181.589 191.354L177.821 186.363C177.186 185.522 177.959 184.635 179.54 184.39C181.12 184.145 182.931 184.628 183.566 185.469L186.931 189.924C187.004 190.017 186.918 190.116 186.739 190.142C186.561 190.169 186.362 190.116 186.296 190.023L182.931 185.568C182.435 184.913 181.034 184.536 179.797 184.728C178.561 184.92 177.966 185.608 178.455 186.263L182.224 191.254C182.541 191.671 183.433 191.91 184.22 191.791C185.007 191.671 185.39 191.228 185.073 190.811L181.463 186.032C181.318 185.846 180.915 185.734 180.564 185.787C180.207 185.84 180.035 186.038 180.181 186.23L183.189 190.209C183.189 190.209 183.248 190.242 183.288 190.235C183.328 190.235 183.348 190.209 183.334 190.182L181.126 187.256C181.053 187.164 181.139 187.064 181.318 187.038C181.496 187.011 181.695 187.064 181.761 187.157L183.969 190.083C184.128 190.288 183.936 190.506 183.546 190.573C183.156 190.639 182.706 190.513 182.554 190.308L179.546 186.33C179.262 185.952 179.606 185.562 180.313 185.449C181.02 185.343 181.82 185.555 182.105 185.932L185.714 190.712C186.171 191.314 185.615 191.949 184.478 192.122V192.128Z" fill="#2672AB"/>
<path d="M181.153 187.104C181.093 187.15 181.074 187.203 181.12 187.263L183.202 190.017C183.202 190.017 183.255 190.043 183.288 190.036C183.328 190.036 183.348 190.01 183.335 189.983L181.159 187.104H181.153Z" fill="#084C94"/>
<path d="M185.073 190.606L181.463 185.826C181.318 185.641 180.915 185.529 180.564 185.581C180.227 185.634 180.062 185.813 180.167 185.992C180.227 185.893 180.359 185.813 180.564 185.787C180.921 185.734 181.324 185.84 181.463 186.032L185.073 190.811C185.119 190.87 185.146 190.937 185.166 191.003C185.199 190.877 185.172 190.745 185.073 190.606Z" fill="#084C94"/>
<path d="M186.898 189.884C186.858 189.911 186.812 189.937 186.745 189.944C186.567 189.97 186.369 189.917 186.302 189.825L182.937 185.37C182.442 184.714 181.033 184.337 179.804 184.529C178.799 184.681 178.23 185.171 178.31 185.694C178.389 185.251 178.931 184.867 179.804 184.734C181.04 184.542 182.442 184.92 182.937 185.575L186.302 190.03C186.375 190.122 186.574 190.175 186.745 190.149C186.924 190.122 187.003 190.023 186.937 189.93L186.904 189.884H186.898Z" fill="#084C94"/>
<path d="M179.54 186.33L182.548 190.308C182.706 190.513 183.149 190.639 183.539 190.573C183.903 190.513 184.081 190.321 183.982 190.129C183.923 190.242 183.771 190.334 183.539 190.367C183.149 190.427 182.7 190.308 182.548 190.103L179.54 186.124C179.5 186.071 179.473 186.018 179.46 185.965C179.427 186.085 179.447 186.204 179.54 186.33Z" fill="#084C94"/>
<path d="M184.478 191.923C183.341 192.102 182.045 191.751 181.589 191.148L177.821 186.157C177.695 185.985 177.636 185.82 177.616 185.654C177.583 185.886 177.636 186.124 177.821 186.363L181.589 191.354C182.045 191.956 183.341 192.307 184.478 192.128C185.41 191.982 185.939 191.532 185.853 191.042C185.78 191.446 185.278 191.797 184.478 191.923Z" fill="#084C94"/>
<defs>
<linearGradient id="paint0_linear_155_5304" x1="75.2086" y1="164.022" x2="76.3154" y2="180.299" gradientUnits="userSpaceOnUse">
<stop stop-color="#D6DAE6"/>
<stop offset="0.01" stop-color="#D4D8E5"/>
<stop offset="0.28" stop-color="#B4B8E3"/>
<stop offset="0.4" stop-color="#999FC7"/>
<stop offset="0.53" stop-color="#8289AF"/>
<stop offset="0.65" stop-color="#747CA1"/>
<stop offset="0.76" stop-color="#70789C"/>
<stop offset="0.85" stop-color="#767DA2"/>
<stop offset="0.99" stop-color="#898EB3"/>
<stop offset="1" stop-color="#8B90B5"/>
</linearGradient>
<radialGradient id="paint1_radial_155_5304" cx="0" cy="0" r="1" gradientUnits="userSpaceOnUse" gradientTransform="translate(102.222 192.293) rotate(137.414) scale(15.6906 5.96307)">
<stop stop-color="#DAEBF2"/>
<stop offset="1" stop-color="white"/>
</radialGradient>
<radialGradient id="paint2_radial_155_5304" cx="0" cy="0" r="1" gradientUnits="userSpaceOnUse" gradientTransform="translate(102.857 193.201) rotate(137.415) scale(17.6883 6.72228)">
<stop stop-color="#DAEBF2"/>
<stop offset="1" stop-color="white"/>
</radialGradient>
</defs>
</svg>
