<svg width="51" height="51" viewBox="0 0 51 51" fill="none" xmlns="http://www.w3.org/2000/svg">
<path d="M36.1259 39.3013V26.84H37.1077V39.3047H39.6192V39.0525C39.6192 34.9906 39.6242 30.9286 39.6167 26.8675C39.6134 25.1784 38.5255 23.7933 36.9024 23.4259C36.4924 23.3332 36.0566 23.3383 35.6316 23.3282C34.9862 23.3132 34.3399 23.3291 33.6945 23.3207C33.5276 23.3182 33.4349 23.3575 33.3714 23.5269C33.1552 24.1005 32.883 24.6566 32.7076 25.2419C32.62 25.5333 32.6717 25.8764 32.7001 26.1921C32.984 29.3857 33.2587 32.5801 33.5827 35.7696C33.6403 36.339 33.5008 36.7205 33.0875 37.0762C32.7252 37.3877 32.4071 37.75 32.0656 38.0865C31.7375 38.4088 31.502 38.4121 31.1814 38.0957C30.7297 37.649 30.2688 37.2098 29.8413 36.7406C29.7169 36.6045 29.6217 36.369 29.6359 36.1895C29.772 34.4988 29.9348 32.8097 30.0901 31.1198C30.2613 29.2537 30.4333 27.3885 30.6028 25.5224C30.6086 25.4623 30.6045 25.3947 30.5827 25.3396C30.3348 24.7109 30.1586 24.0363 29.8063 23.4727C29.56 23.0786 29.6877 22.7304 29.6109 22.3413C29.7436 22.3347 29.8447 22.3263 29.9449 22.3263C31.9654 22.3263 33.9859 22.3238 36.0065 22.3263C38.6574 22.3288 40.6178 24.2942 40.6195 26.9502C40.6211 31.1682 40.6195 35.3863 40.6195 39.6044C40.6195 40.1788 40.4742 40.325 39.9023 40.325C34.4243 40.325 28.9463 40.325 23.4675 40.325H23.1402V39.3339H26.1083V37.3442H27.1128V39.3022H36.1267L36.1259 39.3013ZM31.659 25.8514C31.6339 25.8514 31.608 25.8514 31.583 25.8522C31.573 25.9316 31.5613 26.0109 31.5538 26.0902C31.4168 27.5722 31.2799 29.0542 31.1447 30.5362C30.9793 32.3505 30.8165 34.164 30.6554 35.9783C30.6495 36.0451 30.6554 36.1378 30.6955 36.1803C30.9944 36.4934 31.3033 36.7974 31.6439 37.1388C31.8184 36.946 31.9412 36.7498 32.1157 36.6295C32.5657 36.3189 32.5941 35.9082 32.5457 35.4105C32.2818 32.707 32.0455 30.001 31.7984 27.2958C31.7542 26.8141 31.7049 26.3332 31.6581 25.8514H31.659ZM30.8633 23.3374C31.0528 23.8092 31.2281 24.2609 31.416 24.7075C31.482 24.8628 31.7425 24.8862 31.8059 24.7393C32.0038 24.2817 32.1808 23.8158 32.372 23.3374H30.8633Z" fill="white"/>
<path d="M10.6195 25.535C10.6195 24.5147 10.6187 23.4935 10.6195 22.4733C10.6195 21.9982 10.7832 21.832 11.2516 21.8229C14.1546 21.7677 16.7604 20.8568 19.0765 19.1085C19.5925 18.7194 19.6501 18.7194 20.1628 19.1068C22.4781 20.856 25.0839 21.7661 27.9861 21.8237C28.4537 21.8329 28.6181 21.9999 28.6181 22.4741C28.619 24.3276 28.6607 26.1829 28.6098 28.0347C28.4829 32.6093 26.4707 36.1453 22.6267 38.6259C21.7709 39.1786 20.8733 39.6662 19.9966 40.1864C19.7887 40.3091 19.5792 40.3842 19.3521 40.2448C18.1105 39.4842 16.8039 38.8112 15.6425 37.9429C12.6684 35.7186 11.0053 32.7045 10.6871 28.9991C10.5886 27.8519 10.6721 26.6897 10.6721 25.535C10.6546 25.535 10.6379 25.535 10.6203 25.535H10.6195ZM11.6198 22.8198C11.6198 23.0819 11.6181 23.319 11.6198 23.557C11.6365 25.358 11.5571 27.1656 11.6916 28.9582C11.9337 32.1768 13.3598 34.8528 15.8829 36.8591C16.9909 37.74 18.2725 38.4038 19.484 39.151C19.5658 39.2011 19.7437 39.1636 19.843 39.1076C20.5218 38.7227 21.1989 38.3353 21.8627 37.9245C25.6366 35.5926 27.5586 32.2044 27.6162 27.7692C27.6363 26.2388 27.6196 24.7075 27.6196 23.1771V22.8198C24.6447 22.6728 21.9821 21.721 19.6176 19.9518C18.4478 20.8326 17.1988 21.5089 15.8495 21.9965C14.4911 22.4875 13.0859 22.748 11.6198 22.8206V22.8198Z" fill="white"/>
<path d="M36.1576 16.0869C36.1108 16.5569 36.1234 17.2892 35.9522 17.9755C35.4162 20.1279 33.2679 21.5849 31.1513 21.3002C28.8027 20.9846 27.1295 19.141 27.1236 16.8375C27.1211 15.9224 27.086 14.9989 27.1954 14.0947C27.4534 11.9531 29.4322 10.315 31.6506 10.325C33.8448 10.335 35.7802 11.9915 36.0549 14.1256C36.1275 14.6909 36.1175 15.267 36.1576 16.0869ZM28.0838 15.6585C28.1214 16.3641 28.1088 16.8984 28.184 17.4203C28.4203 19.0692 29.9248 20.3241 31.6206 20.3233C33.3205 20.3225 34.8459 19.0734 35.0446 17.4161C35.1532 16.5127 35.1281 15.5892 35.1072 14.6758C35.0672 12.945 33.6962 11.519 31.9445 11.3378C30.2663 11.1641 28.634 12.2863 28.2508 13.9453C28.1097 14.5548 28.1247 15.201 28.0838 15.6594V15.6585Z" fill="white"/>
<path d="M26.6193 26.4217C26.6293 27.7434 26.6602 29.0659 26.3354 30.3642C25.6141 33.2405 23.9884 35.4515 21.4628 36.9994C20.966 37.3033 20.4684 37.6089 19.9516 37.8753C19.7896 37.9588 19.5166 38.0013 19.3746 37.9203C18.0546 37.1706 16.7162 36.4467 15.6475 35.3296C13.6962 33.2915 12.676 30.8685 12.625 28.0481C12.6025 26.8099 12.62 25.57 12.6217 24.3318C12.6217 23.8993 12.7427 23.7482 13.1669 23.6856C15.3578 23.3608 17.3942 22.6194 19.2577 21.4196C19.5224 21.2493 19.7512 21.2676 20.0075 21.4321C21.6264 22.4733 23.3848 23.1704 25.2717 23.5445C25.5573 23.6013 25.8462 23.6413 26.1326 23.6923C26.4732 23.7524 26.616 23.9152 26.6185 24.2659C26.6235 24.9839 26.6202 25.7028 26.6202 26.4208L26.6193 26.4217ZM25.6283 24.6508C25.5406 24.6232 25.483 24.5982 25.422 24.5873C23.4224 24.2416 21.5521 23.547 19.8196 22.49C19.6376 22.3789 19.5232 22.4332 19.3746 22.5225C17.754 23.4935 16.0182 24.1665 14.1613 24.523C13.9818 24.5573 13.8048 24.6007 13.6219 24.6416C13.6219 25.8272 13.6002 26.9827 13.6261 28.1374C13.6779 30.4277 14.4711 32.4399 15.9506 34.189C16.9324 35.3504 18.2015 36.1202 19.5049 36.8466C19.5792 36.8875 19.7261 36.855 19.813 36.8074C20.2045 36.5911 20.5886 36.3624 20.971 36.1294C23.0166 34.8812 24.4101 33.1161 25.1699 30.8443C25.8487 28.8154 25.5481 26.7206 25.6291 24.6516L25.6283 24.6508Z" fill="white"/>
<path d="M19.1433 23.8359H20.1002V24.8086H19.1433V23.8359Z" fill="white"/>
<path d="M14.6347 26.3064V25.3471H15.5999V26.3064H14.6347Z" fill="white"/>
<path d="M24.608 25.3479V26.3048H23.6353V25.3479H24.608Z" fill="white"/>
<path d="M14.6322 29.809V28.8438H15.6024V29.809H14.6322Z" fill="white"/>
<path d="M24.5929 29.8173H23.6428V28.8446H24.5929V29.8173Z" fill="white"/>
<path d="M17.0952 32.8122H16.1384V31.8395H17.0952V32.8122Z" fill="white"/>
<path d="M23.0984 32.8089H22.1349V31.8479H23.0984V32.8089Z" fill="white"/>
<path d="M20.1035 35.3112H19.1408V34.3427H20.1035V35.3112Z" fill="white"/>
</svg>
