<svg width="48" height="60" viewBox="0 0 48 60" fill="none" xmlns="http://www.w3.org/2000/svg">
<g clip-path="url(#clip0_5_92)">
<path fill-rule="evenodd" clip-rule="evenodd" d="M37.9941 27.4009L37.9844 45.4187C37.9844 48.2775 36.9035 50.7136 33.651 50.7136H20.3313H14.6814C14.5749 50.7136 14.4717 50.7136 14.3684 50.7072L24.284 58.206L28.2141 59.9968H37.9844C43.2504 59.9968 47.829 56.1635 47.829 50.733V37.6101H47.8742V27.3977H37.9941V27.4009Z" fill="url(#paint0_linear_5_92)"/>
<path fill-rule="evenodd" clip-rule="evenodd" d="M0 8.15704H9.69615V42.5953L4.50766 42.4308C2.15542 42.3566 0.280721 40.4367 0.264587 38.0844L0 8.15704Z" fill="url(#paint1_linear_5_92)"/>
<path fill-rule="evenodd" clip-rule="evenodd" d="M28.3044 60C26.5039 60 24.8163 58.9868 24.0516 58.4125C19.231 54.8018 14.6781 51.1073 10.022 47.5838L2.27479 41.8661C1.51975 41.2595 0.500122 40.4302 0.500122 39.601C0.848603 40.0656 1.16482 40.214 1.64882 40.214H11.9258H16.8077C16.9465 40.214 17.082 40.2141 17.2175 40.2237C17.6983 40.2366 18.1662 40.285 18.6211 40.3625C19.5149 40.5109 20.3603 40.7755 21.1605 41.153C21.2573 41.1982 21.3477 41.2434 21.4412 41.2918C22.264 41.7177 23.0384 42.2662 23.758 42.9406C24.4872 43.6279 25.0809 44.3668 25.5359 45.1573C25.723 45.4864 25.8908 45.8285 26.0328 46.1769C26.449 47.1998 26.6555 48.3001 26.6555 49.4778V58.348C26.6555 58.9933 27.63 59.8129 28.3044 59.9936V60Z" fill="url(#paint2_linear_5_92)"/>
<path fill-rule="evenodd" clip-rule="evenodd" d="M36.0194 36.2614C35.9936 34.9223 35.6419 33.4058 34.9578 31.715C34.6771 31.0309 34.3125 30.2888 33.8608 29.4789C32.8992 27.7623 31.5343 26.0199 29.7661 24.2517C29.2369 23.6967 28.1399 22.7255 26.4717 21.3348C25.0584 20.1732 23.9968 19.1632 23.2902 18.3049C22.0382 16.8013 21.2057 15.3106 20.7959 13.8392C20.5507 12.7518 20.4894 11.6741 20.4894 11.6741C20.4894 10.2867 20.7669 9.12183 21.3251 8.18932C22.006 7.02772 23.003 6.44692 24.3163 6.44692C25.5521 6.44692 26.5007 6.84057 27.159 7.62143C27.7914 8.3797 28.256 9.3477 28.5464 10.5254L34.6093 6.45015C34.4609 6.09844 34.2931 5.75641 34.1124 5.42729C33.2412 3.83654 32.099 2.5975 30.6825 1.71662C28.8626 0.580826 26.6782 0.00970459 24.1259 0.00970459C21.5736 0.00970459 19.2504 0.680853 17.4563 2.01992C14.5523 4.24633 13.0971 7.5214 13.0971 11.8419C13.0971 12.6744 13.1616 13.4875 13.2875 14.2748C13.4456 15.9011 14.0457 17.2982 14.5201 18.1823C14.5749 18.2953 14.6298 18.405 14.6879 18.5147C15.672 20.3345 17.3531 22.3964 19.7279 24.6938C22.5577 27.3719 24.6776 29.3821 26.0942 30.7212C27.885 32.6701 28.7852 34.6287 28.7852 36.6002C28.7852 37.9651 28.5432 39.0137 28.0656 39.7494C27.3945 40.8207 26.5556 41.5241 25.5553 41.8468C26.2587 42.5631 26.8492 43.3375 27.3171 44.1506C27.5494 44.5604 27.7591 44.9863 27.9334 45.4187C28.2786 46.2641 28.5109 47.1579 28.6206 48.0904C30.6954 47.4321 32.3023 46.3157 33.4445 44.7508C35.2127 42.4017 36.071 39.5752 36.0226 36.2646L36.0194 36.2614Z" fill="url(#paint3_linear_5_92)"/>
<path fill-rule="evenodd" clip-rule="evenodd" d="M12.342 35.1966C12.4066 36.2356 12.5292 37.2229 12.7163 38.1651H16.8078C16.9755 38.1651 17.1401 38.1716 17.3014 38.178C17.8597 38.1942 18.4211 38.249 18.9632 38.3426C19.331 38.4039 19.6956 38.4813 20.0506 38.5749C19.6214 37.5133 19.3278 36.2227 19.16 34.7029L12.342 35.1966Z" fill="url(#paint4_linear_5_92)"/>
<path d="M47.6902 19.644C47.7096 19.047 48.1 18.3824 47.929 17.7951C47.7645 17.2304 47.0804 16.882 46.7319 16.3657C46.3802 15.8526 46.306 15.0911 45.8381 14.7298C45.3541 14.3555 44.5926 14.4781 44.0312 14.278C43.4633 14.0747 42.9503 13.5004 42.3469 13.481C41.7499 13.4617 41.2046 14.0038 40.6174 14.1748C40.0527 14.3393 39.3009 14.1715 38.7879 14.52C38.2748 14.8717 38.1587 15.63 37.7973 16.0979C37.423 16.5819 36.7196 16.8916 36.5195 17.4531C36.3162 18.021 36.6647 18.7082 36.6486 19.3116C36.6292 19.9086 36.2388 20.5733 36.4098 21.1605C36.5744 21.7252 37.2584 22.0737 37.6069 22.5867C37.9586 23.0998 38.0328 23.8612 38.5007 24.2226C38.9847 24.5969 39.7462 24.4743 40.3076 24.6744C40.8755 24.8776 41.3886 25.452 41.9919 25.4714C42.5889 25.4907 43.1342 24.9486 43.7214 24.7776C44.2861 24.6131 45.0379 24.7808 45.551 24.4324C46.064 24.0807 46.1802 23.3224 46.5415 22.8545C46.9158 22.3705 47.6193 22.0608 47.8193 21.4993C48.0226 20.9314 47.6741 20.2441 47.6902 19.6408V19.644Z" fill="url(#paint5_linear_5_92)"/>
<path d="M39.1008 25.0713C38.6329 25.0067 38.1264 25.0003 37.7682 24.726C37.3003 24.3646 37.2261 23.6031 36.8744 23.0901C36.5227 22.577 35.8419 22.2286 35.6773 21.6639C35.5708 21.2961 35.6838 20.8959 35.7902 20.5023L31.3278 23.5483L34.8642 24.5034L34.506 28.2076L39.1008 25.0713Z" fill="url(#paint6_linear_5_92)"/>
</g>
<defs>
<linearGradient id="paint0_linear_5_92" x1="45.9188" y1="26.2716" x2="26.6814" y2="59.5935" gradientUnits="userSpaceOnUse">
<stop offset="0.08" stop-color="#0048AA"/>
<stop offset="0.91" stop-color="#00216A"/>
</linearGradient>
<linearGradient id="paint1_linear_5_92" x1="-1.67787" y1="40.9884" x2="8.63458" y2="16.3173" gradientUnits="userSpaceOnUse">
<stop stop-color="#C29C00"/>
<stop offset="0.84" stop-color="#FFDC2A"/>
</linearGradient>
<linearGradient id="paint2_linear_5_92" x1="19.2019" y1="41.4918" x2="12.726" y2="52.7077" gradientUnits="userSpaceOnUse">
<stop offset="0.38" stop-color="#C6A000"/>
<stop offset="0.59" stop-color="#B08A00"/>
<stop offset="0.81" stop-color="#A37D00"/>
<stop offset="1" stop-color="#9F7900"/>
</linearGradient>
<linearGradient id="paint3_linear_5_92" x1="41.6306" y1="36.7067" x2="12.1259" y2="7.20196" gradientUnits="userSpaceOnUse">
<stop stop-color="#C29C00"/>
<stop offset="0.19" stop-color="#C9A304"/>
<stop offset="0.47" stop-color="#DCB812"/>
<stop offset="0.82" stop-color="#FCD928"/>
<stop offset="0.84" stop-color="#FFDC2A"/>
</linearGradient>
<linearGradient id="paint4_linear_5_92" x1="19.0664" y1="39.5623" x2="13.5198" y2="34.0189" gradientUnits="userSpaceOnUse">
<stop stop-color="#C29C00"/>
<stop offset="0.19" stop-color="#C9A304"/>
<stop offset="0.47" stop-color="#DCB812"/>
<stop offset="0.82" stop-color="#FCD928"/>
<stop offset="0.84" stop-color="#FFDC2A"/>
</linearGradient>
<linearGradient id="paint5_linear_5_92" x1="45.1476" y1="14.3232" x2="39.1912" y2="24.6389" gradientUnits="userSpaceOnUse">
<stop offset="0.08" stop-color="#0048AA"/>
<stop offset="0.91" stop-color="#00216A"/>
</linearGradient>
<linearGradient id="paint6_linear_5_92" x1="31.3278" y1="24.3517" x2="39.1008" y2="24.3517" gradientUnits="userSpaceOnUse">
<stop stop-color="#C29C00"/>
<stop offset="0.19" stop-color="#C9A304"/>
<stop offset="0.47" stop-color="#DCB812"/>
<stop offset="0.82" stop-color="#FCD928"/>
<stop offset="0.84" stop-color="#FFDC2A"/>
</linearGradient>
<clipPath id="clip0_5_92">
<rect width="47.971" height="60" fill="white"/>
</clipPath>
</defs>
</svg>
