<svg width="51" height="51" viewBox="0 0 51 51" fill="none" xmlns="http://www.w3.org/2000/svg">
<path d="M24.6888 24.443C24.6692 24.1176 24.6465 23.7821 24.6167 23.4473C24.5751 22.9832 24.2435 22.759 23.7951 22.8915C23.643 22.9361 23.5018 23.0522 23.3811 23.1627C22.9264 23.579 22.4066 23.8887 21.8555 24.0917C21.447 24.2423 21.0205 24.334 20.5901 24.3669C20.2554 24.3928 19.9175 24.3834 19.5843 24.3371C19.2542 24.2917 18.9289 24.2117 18.6129 24.0957C18.1998 23.9451 17.8038 23.7342 17.4393 23.463C17.317 23.3728 17.1994 23.2756 17.0849 23.1713C16.649 22.7739 16.4264 22.7723 15.996 23.1627C15.9223 23.2294 15.8478 23.2929 15.7717 23.354C15.0066 23.9741 14.1254 24.3301 13.1258 24.3983C11.7068 24.4963 10.4759 24.0525 9.43871 23.0773C9.25055 22.9009 9.04123 22.8084 8.78643 22.9071C8.54418 23.002 8.45873 23.198 8.42894 23.4481C8.23294 25.1007 8.34662 26.74 8.65864 28.366C9.24193 31.4079 10.3662 34.2216 12.2713 36.6888C13.3187 38.0451 14.5644 39.1701 16.1457 39.8883C16.4287 40.0168 16.6733 40.0176 16.954 39.8883C18.2491 39.2948 19.331 38.4293 20.246 37.3678C20.3314 37.269 20.4153 37.1678 20.4976 37.0651C20.6246 36.9076 20.7485 36.7484 20.87 36.5885C21.4917 35.7622 22.0311 34.906 22.4929 34.0194C22.6567 33.705 22.8104 33.3875 22.9546 33.066C23.3646 32.1558 23.6986 31.2158 23.9644 30.2476C24.1337 29.6322 24.2749 29.0042 24.3901 28.366C24.5124 27.6863 24.6057 26.9941 24.6716 26.2893C24.7006 25.9725 24.7249 25.6534 24.7437 25.332C24.7249 25.0513 24.7076 24.7511 24.6888 24.443ZM22.1659 32.1017C22.0209 32.4537 21.8641 32.8026 21.6955 33.1468C21.4455 33.6626 21.1695 34.1699 20.8692 34.6685C20.6301 35.0668 20.3769 35.4533 20.1056 35.8241C19.9041 36.0993 19.6932 36.3658 19.4698 36.6214C18.8944 37.2815 18.2405 37.8687 17.4769 38.347C16.3793 39.0337 16.7243 39.0384 15.6228 38.3524C14.0595 37.3787 12.9431 35.9683 12.0384 34.3925C10.3905 31.5231 9.49124 28.4358 9.43244 25.1156C9.4293 24.9479 9.43714 24.7793 9.44185 24.6115C9.44185 24.5864 9.45361 24.5621 9.46145 24.53C11.9145 25.9506 14.261 25.8322 16.5369 24.1733C17.1124 24.5904 17.6917 24.9071 18.2758 25.1243C18.5949 25.2434 18.9155 25.3328 19.237 25.3924C19.5506 25.4504 19.8649 25.4794 20.1809 25.481C20.5399 25.4825 20.9006 25.4473 21.2636 25.3759C22.0303 25.2238 22.8041 24.9087 23.5842 24.4304C23.5842 25.0325 23.6273 25.6338 23.5771 26.2273C23.5716 26.2955 23.5653 26.3629 23.5583 26.4304C23.5105 26.9478 23.443 27.459 23.356 27.9646C23.113 29.3923 22.7179 30.7729 22.1659 32.1017Z" fill="white"/>
<path d="M18.7658 30.2107C18.6082 30.3691 18.4514 30.5275 18.2938 30.6858C17.6267 31.3562 16.9564 32.0233 16.2845 32.6881C16.0273 32.9422 15.7208 32.9398 15.4613 32.6881C15.0677 32.3056 14.6789 31.9175 14.2955 31.5247C14.047 31.2707 14.0431 30.9406 14.2696 30.7211C14.4986 30.5 14.8106 30.5126 15.0724 30.7674C15.3319 31.0198 15.582 31.2832 15.8752 31.5804C16.3292 31.1202 16.7572 30.6858 17.1868 30.2539C17.2174 30.2233 17.2472 30.1927 17.2778 30.1621C17.5153 29.9222 17.7529 29.6816 17.9959 29.4471C18.0633 29.3829 18.1355 29.335 18.2092 29.3045C18.4099 29.2198 18.6247 29.2559 18.7838 29.4111C18.7893 29.4158 18.7948 29.4213 18.8003 29.4268C19.0143 29.651 19.0096 29.9654 18.7658 30.2107Z" fill="white"/>
<path d="M18.7658 30.2107C18.6082 30.3691 18.4514 30.5275 18.2938 30.6858C17.6267 31.3562 16.9564 32.0233 16.2845 32.6881C16.0273 32.9422 15.7208 32.9398 15.4613 32.6881C15.0677 32.3056 14.6789 31.9175 14.2955 31.5247C14.047 31.2707 14.0431 30.9406 14.2696 30.7211C14.4986 30.5 14.8106 30.5126 15.0724 30.7674C15.3319 31.0198 15.582 31.2832 15.8752 31.5804C16.3292 31.1202 16.7572 30.6858 17.1868 30.2539C17.2174 30.2233 17.2472 30.1927 17.2778 30.1621C17.5153 29.9222 17.7529 29.6816 17.9959 29.4471C18.0633 29.3829 18.1355 29.335 18.2092 29.3045C18.4099 29.2198 18.6247 29.2559 18.7838 29.4111C18.7893 29.4158 18.7948 29.4213 18.8003 29.4268C19.0143 29.651 19.0096 29.9654 18.7658 30.2107Z" fill="white"/>
<path d="M43.3265 17.1158C43.2967 16.7011 43.0341 16.3648 42.6389 16.3499C41.9718 16.324 41.7593 15.95 41.5312 15.4044C41.332 14.9262 41.2921 14.6016 41.648 14.1931C41.9835 13.809 41.9287 13.3535 41.5821 12.9678C41.3085 12.6628 41.0169 12.3727 40.7103 12.0999C40.345 11.7738 39.9326 11.7604 39.5257 12.0278C39.387 12.1187 39.2482 12.2128 39.1204 12.3178C38.9926 12.4237 38.8852 12.4323 38.7292 12.3516C38.4446 12.2042 38.1498 12.0583 37.8425 11.976C37.5658 11.9023 37.4615 11.7604 37.449 11.4923C37.4199 10.8816 37.1518 10.4527 36.5129 10.325H35.2224C34.5827 10.4504 34.3146 10.8792 34.2864 11.4907C34.2738 11.7565 34.1735 11.9008 33.8951 11.976C33.5784 12.0615 33.2876 12.2387 32.9763 12.3508C32.8799 12.386 32.7544 12.3414 32.6431 12.3296C32.6259 12.328 32.611 12.3092 32.5945 12.2975C31.6914 11.653 31.4538 11.6671 30.6542 12.4331C30.4636 12.615 30.2825 12.8086 30.1148 13.0109C29.8137 13.3747 29.7479 13.8286 30.0677 14.1641C30.5075 14.6251 30.4323 15.0375 30.132 15.4961C30.1163 15.5204 30.0999 15.5439 30.1022 15.54C28.9309 15.2499 27.7808 15.2539 26.6049 15.5385C26.51 15.344 26.3885 15.1206 26.2952 14.887C26.267 14.8164 26.2936 14.7019 26.3344 14.6314C26.4332 14.4636 26.5633 14.3147 26.6676 14.15C26.9036 13.7768 26.9012 13.366 26.6119 13.0352C26.3109 12.6902 25.9839 12.3641 25.6398 12.0623C25.3034 11.7675 24.8511 11.7346 24.5093 12.038C24.0891 12.4119 23.741 12.3633 23.2478 12.1579C22.7179 11.9368 22.3674 11.7306 22.3415 11.0886C22.3235 10.6268 21.9119 10.4284 21.4901 10.325H20.1989C19.5608 10.4504 19.2926 10.8761 19.2621 11.4876C19.2495 11.7487 19.1586 11.9008 18.8755 11.9752C18.5588 12.0583 18.2687 12.2355 17.9583 12.3484C17.8611 12.3837 17.7207 12.3735 17.6282 12.3273C17.4644 12.2465 17.3248 12.1164 17.1688 12.0168C16.7839 11.7706 16.3731 11.7769 16.032 12.0764C15.7035 12.3657 15.3915 12.6777 15.1007 13.0046C14.7792 13.366 14.7345 13.8168 15.0505 14.1806C15.4056 14.5906 15.4785 14.9575 15.1555 15.4052C15.0622 15.5353 15.0019 15.7062 14.9791 15.8662C14.9368 16.1641 14.7518 16.2307 14.4962 16.2558C14.0901 16.295 13.6918 16.3734 13.4841 16.7866C13.412 16.93 13.3822 17.0947 13.3328 17.2499V18.4235C13.4182 18.861 13.6048 19.2977 14.0768 19.3212C14.7455 19.3557 14.9525 19.7296 15.1806 20.2722C15.3813 20.7496 15.4182 21.075 15.0583 21.4803C14.7314 21.8488 14.7816 22.309 15.1148 22.6821C15.3233 22.915 15.5436 23.1392 15.7717 23.354C15.8564 23.434 15.9427 23.5124 16.0297 23.5892C16.3723 23.8918 16.7831 23.9028 17.1672 23.6551C17.2605 23.5947 17.3491 23.5288 17.4393 23.463C17.5075 23.4136 17.5765 23.3642 17.647 23.3187C17.7066 23.2811 17.8015 23.238 17.854 23.2599C18.1637 23.3909 18.4663 23.539 18.7713 23.6817C18.7172 23.8236 18.6639 23.9608 18.6129 24.0957C18.569 24.2109 18.5275 24.3246 18.4883 24.439C18.4114 24.6648 18.3542 24.8985 18.2758 25.1243C18.5949 25.2434 18.9155 25.3328 19.237 25.3924C19.331 25.0317 19.4463 24.6797 19.5843 24.3371C19.7983 23.8009 20.0656 23.2874 20.3839 22.7958C20.569 22.5104 20.576 22.2651 20.3667 21.9922C20.0931 21.6363 19.8469 21.2592 19.5756 20.9001C19.4361 20.7151 19.4141 20.5599 19.5905 20.3866C20.0288 19.9554 20.4623 19.5188 20.8959 19.0821C21.0542 18.9221 21.2056 18.9198 21.3867 19.0554C21.7622 19.3369 22.151 19.5995 22.5281 19.8786C22.7712 20.0589 23.004 20.0668 23.258 19.9021C24.2027 19.2906 25.2258 18.8641 26.325 18.6266C26.6315 18.5599 26.7993 18.3984 26.8416 18.0801C26.9028 17.6246 26.9984 17.1746 27.0611 16.7199C27.0941 16.4824 27.207 16.3726 27.4437 16.3734C28.049 16.375 28.655 16.3758 29.2602 16.3726C29.5135 16.3726 29.6216 16.4941 29.6546 16.7427C29.7157 17.2068 29.8059 17.6678 29.8796 18.1311C29.9211 18.3929 30.0607 18.5513 30.3233 18.6085C31.4601 18.8579 32.52 19.2937 33.4985 19.928C33.7195 20.0715 33.9375 20.0558 34.1523 19.8998C34.5396 19.6183 34.9347 19.3478 35.3189 19.0609C35.496 18.9284 35.645 18.9112 35.8081 19.0758C36.2479 19.5195 36.6916 19.9609 37.1346 20.4015C37.2851 20.552 37.2835 20.6979 37.1573 20.8688C36.8782 21.2459 36.6171 21.6363 36.3349 22.011C36.1436 22.2643 36.1373 22.4971 36.3098 22.7637C36.9205 23.7076 37.3478 24.7299 37.5799 25.8314C37.645 26.1411 37.8284 26.2979 38.1381 26.3426C38.592 26.4076 39.0428 26.497 39.4975 26.5582C39.7249 26.5887 39.8284 26.7024 39.8284 26.9219C39.8284 27.5468 39.8268 28.1724 39.826 28.7972C39.826 29.012 39.71 29.1116 39.5061 29.1422C39.0906 29.2049 38.6775 29.2794 38.2619 29.3405C37.7641 29.4142 37.6747 29.4918 37.5611 29.9763C37.3219 30.9924 36.9315 31.9457 36.3788 32.8324C36.0966 33.2855 36.0981 33.3537 36.4 33.7755C36.6446 34.1174 36.8814 34.4662 37.1369 34.7994C37.2914 35.0001 37.282 35.1616 37.1048 35.3357C36.6728 35.7606 36.2448 36.1894 35.8167 36.6183C35.6583 36.7766 35.5055 36.7774 35.3244 36.6418C34.9488 36.3611 34.5584 36.1001 34.1821 35.8202C33.9383 35.6383 33.7086 35.6312 33.4538 35.7966C32.4942 36.4207 31.4507 36.8472 30.3311 37.0879C30.0591 37.1467 29.9164 37.3137 29.8757 37.5904C29.8074 38.0537 29.7157 38.5147 29.6506 38.9788C29.6177 39.2148 29.5119 39.3199 29.2696 39.3246C28.9678 39.3301 28.6652 39.3622 28.361 39.3826C28.0498 39.3614 27.7377 39.3309 27.4257 39.323C27.196 39.3167 27.0956 39.2109 27.0635 38.9906C26.9953 38.5265 26.9051 38.0655 26.8385 37.6014C26.7969 37.3121 26.6488 37.1443 26.3642 37.0824C25.2454 36.8409 24.2043 36.4097 23.2423 35.788C22.997 35.6297 22.7735 35.6406 22.5399 35.8131C22.162 36.0914 21.7732 36.3541 21.3976 36.6347C21.2212 36.7664 21.0699 36.7892 20.9061 36.6245L20.87 36.5885C20.616 36.3329 20.3612 36.0781 20.1056 35.8241C19.9041 36.0993 19.6932 36.3658 19.4698 36.6214C19.723 36.8754 19.9825 37.1247 20.246 37.3678C20.2601 37.3811 20.275 37.3944 20.2891 37.4077C20.7775 37.8562 21.3537 37.8734 21.9002 37.5002C22.191 37.3027 22.4678 37.0824 22.7649 36.8958C22.8472 36.8441 23.0095 36.8331 23.091 36.8801C23.9095 37.3482 24.7703 37.7119 25.6829 37.9463C25.8475 37.9887 25.904 38.0671 25.9275 38.2184C25.9832 38.5853 26.0357 38.953 26.1149 39.3152C26.2419 39.9008 26.6746 40.2881 27.2642 40.3077C27.9949 40.3312 28.7279 40.3312 29.4594 40.3069C30.0356 40.2881 30.4668 39.9024 30.5914 39.3324C30.6714 38.9702 30.7208 38.6018 30.7796 38.2356C30.8047 38.0788 30.8588 37.9918 31.0391 37.9448C31.9415 37.7111 32.7984 37.3591 33.5996 36.8801C33.736 36.7986 33.8309 36.7884 33.9626 36.8927C34.2307 37.1036 34.5137 37.2972 34.7944 37.4924C35.3322 37.8672 35.9272 37.8593 36.4102 37.4187C36.9284 36.9444 37.4278 36.4466 37.9029 35.9291C38.3756 35.4148 38.3842 34.8527 37.9828 34.271C37.7884 33.9896 37.5767 33.7199 37.3941 33.4306C37.3463 33.3553 37.3337 33.2056 37.3768 33.1303C37.848 32.3024 38.222 31.4361 38.4532 30.511C38.494 30.3495 38.5779 30.2954 38.7355 30.275C39.093 30.228 39.4505 30.1684 39.8048 30.0986C40.3583 29.9897 40.7707 29.5773 40.7989 29.016C40.8373 28.2665 40.8452 27.5123 40.8068 26.7628C40.7731 26.0925 40.3662 25.6973 39.71 25.5829C39.3634 25.5225 39.0154 25.4723 38.6704 25.4041C38.6006 25.39 38.5066 25.3273 38.4854 25.2662C38.3019 24.7354 38.1326 24.1999 37.9562 23.6582C38.0644 23.6143 38.1851 23.5892 38.2784 23.5241C38.7323 23.2035 39.1157 23.2686 39.5359 23.6323C39.8895 23.9389 40.3379 23.8942 40.69 23.5829C41.0184 23.2929 41.3313 22.98 41.6213 22.6508C41.9302 22.3003 41.9326 21.8833 41.6723 21.4881C41.6025 21.3823 41.5374 21.2694 41.4489 21.18C41.2607 20.9895 41.2607 20.8092 41.4065 20.5889C41.5077 20.436 41.5955 20.2588 41.6292 20.0817C41.7217 19.5846 42.011 19.3965 42.5033 19.3573C43.0058 19.3165 43.2983 18.995 43.3351 18.4894C43.368 18.0339 43.3586 17.5713 43.3265 17.1158ZM23.8343 18.1421C23.8068 18.4 23.6555 18.5004 23.465 18.6391C23.0644 18.9292 22.7422 18.901 22.4003 18.5607C22.2498 18.411 22.057 18.3036 21.8774 18.1844C21.3498 17.8332 20.7846 17.8473 20.3142 18.2714C19.7497 18.7802 19.2142 19.3212 18.6388 19.8763C17.8963 19.0437 17.6157 18.0754 17.923 16.9849C18.2397 15.8607 18.9947 15.1308 20.1299 14.8564C22.1714 14.3617 24.0608 16.0559 23.8343 18.1421ZM25.8812 17.6489C25.8742 17.685 25.7958 17.7179 25.7448 17.7336C25.4563 17.8238 25.167 17.9077 24.8864 17.9915C24.8315 17.6035 24.8103 17.2154 24.7186 16.8438C24.2372 14.8948 22.3713 13.6232 20.3604 13.8545C18.3769 14.0826 16.8536 15.7885 16.8458 17.8003C16.8403 19.0954 17.3585 20.1444 18.3558 20.9652C18.4577 21.0499 18.5408 21.1604 18.62 21.2678C18.8262 21.5524 19.0104 21.855 19.233 22.1263C19.4079 22.3411 19.4573 22.5246 19.1876 22.7731C18.863 22.6155 18.4961 22.465 18.159 22.2635C17.8548 22.0824 17.6024 22.0824 17.3287 22.3058C17.1179 22.4783 16.8874 22.6273 16.6145 22.8225C16.3809 22.5606 16.1496 22.3011 15.8933 22.0134C16.0524 21.7907 16.2218 21.5438 16.4036 21.3062C16.5863 21.0679 16.58 20.8492 16.4491 20.5748C16.2014 20.0589 15.9897 19.5242 15.7882 18.988C15.6926 18.7348 15.564 18.5646 15.2818 18.5309C15.0591 18.5051 14.8396 18.4478 14.6162 18.4259C14.4296 18.4071 14.3472 18.3381 14.3355 18.1374C14.2861 17.3165 14.2767 17.2993 15.0912 17.1809C15.5177 17.119 15.7255 16.9308 15.84 16.502C15.967 16.0277 16.1927 15.573 16.424 15.1363C16.5832 14.8352 16.5941 14.5961 16.3809 14.3303C16.2053 14.1108 16.0508 13.8741 15.8619 13.6091C16.1183 13.3566 16.3668 13.1128 16.6286 12.8557C16.8968 13.0462 17.1453 13.2163 17.3852 13.3974C17.6149 13.5707 17.8274 13.5652 18.0908 13.4405C18.609 13.1967 19.1421 12.9811 19.6791 12.782C19.9441 12.6832 20.1189 12.5499 20.1511 12.2551C20.1738 12.0419 20.2397 11.8326 20.2514 11.6193C20.264 11.3865 20.3769 11.3324 20.5878 11.3261C21.3741 11.3026 21.389 11.2947 21.4964 12.0685C21.5552 12.4888 21.7293 12.7138 22.1652 12.8259C22.6316 12.9458 23.0848 13.1551 23.5081 13.3903C23.8413 13.5761 24.1 13.5761 24.3878 13.3386C24.5908 13.1716 24.815 13.0305 25.0667 12.8525C25.3301 13.1105 25.5724 13.3488 25.8326 13.6044C25.6343 13.8811 25.4657 14.1296 25.2831 14.3672C25.0988 14.6063 25.1145 14.8242 25.2415 15.0971C25.5167 15.6874 25.777 16.2879 25.9769 16.9057C26.0467 17.1213 25.9275 17.4012 25.8812 17.6489ZM36.4517 18.3169C35.9076 17.8222 35.3557 17.8144 34.7481 18.2416C34.4847 18.4267 34.2182 18.6085 33.9641 18.8069C33.8348 18.908 33.7282 18.9167 33.5996 18.821C33.529 18.7693 33.453 18.7144 33.3707 18.6916C32.9207 18.5686 32.8642 18.233 32.8658 17.8348C32.8697 16.538 33.7054 15.3754 34.9418 14.9748C36.1969 14.5679 37.5744 15.0336 38.3356 16.1225C39.0749 17.1801 39.0428 18.6313 38.2549 19.6528C38.1906 19.7359 38.1169 19.8104 38.0573 19.8778C37.5132 19.3463 36.9982 18.8139 36.4517 18.3169ZM41.6543 18.4847C41.2254 18.5396 40.9887 18.7105 40.8718 19.1628C40.7464 19.6465 40.5065 20.106 40.276 20.5552C40.1318 20.8343 40.1176 21.0616 40.3121 21.3109C40.4924 21.5407 40.6555 21.7845 40.8601 22.0691C40.6014 22.3097 40.3466 22.5481 40.0714 22.8044C39.8095 22.6163 39.5563 22.4383 39.307 22.2533C39.0844 22.0879 38.8711 22.0887 38.6273 22.2243C38.2635 22.4266 37.8841 22.6022 37.5328 22.7786C37.2584 22.5418 37.2976 22.3544 37.4803 22.1247C37.7226 21.8205 37.9233 21.4819 38.1491 21.1636C38.2031 21.0859 38.2823 21.024 38.3576 20.9636C39.7797 19.8206 40.2643 17.9163 39.5524 16.2582C38.8468 14.6126 37.1103 13.6208 35.3526 13.8584C33.5384 14.1022 32.1288 15.5157 31.8921 17.3346C31.8646 17.547 31.8693 17.7634 31.8584 17.9994C31.5471 17.9069 31.2406 17.8183 30.9372 17.7219C30.8901 17.707 30.8258 17.6568 30.8211 17.6168C30.7827 17.3244 30.644 17.0421 30.7835 16.7325C31.0391 16.1656 31.2625 15.5847 31.5134 15.0155C31.6114 14.7945 31.5996 14.6032 31.4593 14.4111C31.2759 14.1586 31.0948 13.9046 30.8893 13.6185C31.1465 13.3723 31.3974 13.1316 31.671 12.8698C31.9226 13.0485 32.1774 13.2241 32.426 13.4084C32.6478 13.5738 32.854 13.562 33.1065 13.4444C33.6341 13.199 34.1766 12.9803 34.7215 12.7749C34.977 12.6793 35.1393 12.5436 35.173 12.2637C35.2021 12.0215 35.2334 11.7769 35.2969 11.5425C35.3197 11.4594 35.4388 11.4029 35.5156 11.3347C35.5211 11.33 35.5345 11.3347 35.5439 11.3332C36.3859 11.2634 36.4023 11.261 36.5231 12.0897C36.5834 12.5036 36.7653 12.7059 37.1808 12.8227C37.6724 12.9615 38.1412 13.1983 38.6014 13.4295C38.8711 13.5644 39.0914 13.5785 39.3321 13.3943C39.5649 13.2163 39.808 13.0524 40.0714 12.8643C40.3411 13.1253 40.592 13.3668 40.8491 13.6153C40.6421 13.9023 40.4618 14.1571 40.2776 14.4087C40.1216 14.6228 40.138 14.8235 40.2494 15.0641C40.4979 15.602 40.7213 16.1515 40.9322 16.705C41.0263 16.9504 41.1619 17.1033 41.4269 17.1378C41.63 17.1644 41.8307 17.2295 42.0337 17.2358C42.3003 17.2436 42.3771 17.3612 42.381 17.6152C42.3928 18.3741 42.4037 18.3882 41.6543 18.4847ZM18.8003 29.4268C18.7948 29.4213 18.7893 29.4158 18.7838 29.4111C18.7383 29.3938 18.6874 29.3805 18.6317 29.3727C18.4906 29.3515 18.3495 29.3288 18.2092 29.3045C18.1355 29.335 18.0633 29.3829 17.9959 29.4471C17.7529 29.6816 17.5153 29.9222 17.2778 30.1621C17.5138 30.1998 17.7513 30.2351 17.9842 30.2876C18.0837 30.3095 18.2178 30.4075 18.2413 30.4969C18.2586 30.5604 18.2758 30.6231 18.2938 30.6858C18.4514 30.5275 18.6082 30.3691 18.7658 30.2107C19.0096 29.9654 19.0143 29.651 18.8003 29.4268Z" fill="white"/>
<path d="M28.3586 19.3424C24.8997 19.3408 21.9221 21.4042 20.5901 24.3669C20.4286 24.726 20.2914 25.0976 20.1809 25.481C20.5399 25.4825 20.9006 25.4473 21.2636 25.3759C21.4204 24.9267 21.6187 24.4971 21.8555 24.0917C23.1561 21.8495 25.5849 20.3419 28.3618 20.3443C32.5216 20.3482 35.8763 23.7115 35.8677 27.869C35.8582 32.0053 32.4855 35.3686 28.3516 35.3639C26.234 35.3615 24.3195 34.4803 22.9546 33.066C22.6661 32.7673 22.4019 32.4451 22.1659 32.1017C22.0209 32.4537 21.8641 32.8026 21.6955 33.1468C21.9409 33.4557 22.2075 33.7473 22.4929 34.0194C24.0248 35.4784 26.0961 36.3729 28.3696 36.3666C33.068 36.3525 36.8704 32.5392 36.8672 27.8439C36.8633 23.1423 33.0618 19.3439 28.3586 19.3424Z" fill="white"/>
<path d="M28.368 22.8389C26.9145 22.835 25.6045 23.4528 24.6888 24.443C24.1706 25.0019 23.7794 25.6793 23.5583 26.4304C23.4258 26.8812 23.3545 27.3578 23.3545 27.8517C23.3545 27.8894 23.3545 27.927 23.356 27.9646C23.3748 28.791 23.5928 29.5671 23.9644 30.2476C24.8142 31.8069 26.47 32.8622 28.3743 32.8583C31.13 32.852 33.3597 30.6098 33.3581 27.8462C33.3558 25.0843 31.1261 22.8468 28.368 22.8389ZM28.3406 31.8579C26.3109 31.8524 24.6433 30.3331 24.3901 28.366C24.3666 28.1904 24.3556 28.0101 24.3564 27.8274C24.3587 27.2826 24.4709 26.7628 24.6716 26.2893C25.2791 24.8514 26.7044 23.8401 28.3579 23.8409C30.571 23.8424 32.3601 25.6393 32.3562 27.8588C32.353 30.0759 30.5569 31.8642 28.3406 31.8579Z" fill="white"/>
</svg>
