<svg width="51" height="51" viewBox="0 0 51 51" fill="none" xmlns="http://www.w3.org/2000/svg">
<path d="M15.4408 40.325C15.4435 38.5648 15.4473 36.8048 15.4487 35.0447C15.4501 33.3919 15.4489 31.7393 15.4489 30.0866V29.6942C14.9152 30.1032 14.4258 30.4784 13.9147 30.8703C12.8644 29.5049 11.8291 28.1592 10.7744 26.7885C11.8915 25.9282 12.9966 25.0771 14.1281 24.2058C11.3201 21.7784 10.5744 18.9332 12.3422 15.5584C12.819 15.7259 13.2848 15.8893 13.7881 16.0661C13.9397 13.2344 15.4949 11.4529 17.9853 10.325C18.0341 10.9048 18.1365 11.4873 18.1209 12.0663C18.0857 13.3598 18.5659 14.4187 19.4264 15.3506C19.7765 15.7297 20.0889 16.1479 20.3833 16.5725C20.8576 17.2564 21.0624 17.8757 21.1616 18.7947C22.7085 17.6052 24.2273 16.4375 25.769 15.2518C27.589 16.6511 29.4078 18.0495 31.2703 19.4816V17.2242H36.5136V17.5402C36.5136 19.4472 36.5162 21.3542 36.5094 23.261C36.5088 23.446 36.5624 23.561 36.7116 23.6744C37.9642 24.6275 39.2095 25.59 40.4568 26.5499C40.5492 26.6209 40.6392 26.6949 40.7604 26.7913C39.7153 28.1502 38.677 29.5003 37.6237 30.8701C37.1169 30.4814 36.632 30.1096 36.1104 29.7098C36.1008 29.8152 36.09 29.8776 36.09 29.9398C36.0892 33.3527 36.0894 36.7656 36.0898 40.1785C36.0898 40.2273 36.0948 40.2761 36.0974 40.3248L15.4408 40.325ZM34.3184 38.5488C34.3228 38.4774 34.3294 38.421 34.3294 38.3646C34.33 35.0893 34.332 31.8138 34.3216 28.5385C34.3212 28.4198 34.2254 28.265 34.1266 28.1886C31.4125 26.0902 28.6911 24.0014 25.9764 21.9036C25.8092 21.7744 25.7106 21.79 25.5534 21.9114C22.8537 23.9964 20.1503 26.0768 17.443 28.1518C17.2706 28.2838 17.2022 28.4174 17.2028 28.6377C17.2106 31.8348 17.2082 35.0319 17.2082 38.2292V38.5488H34.3184ZM33.0497 23.0625C32.8995 22.9509 32.7987 22.8783 32.7003 22.8025C30.4687 21.0864 28.2358 19.372 26.0092 17.6494C25.835 17.5146 25.7272 17.4946 25.54 17.639C21.5082 20.7503 17.4704 23.8536 13.4343 26.9591C13.3747 27.0049 13.3209 27.0581 13.2502 27.1203C13.5805 27.5502 13.9005 27.9668 14.2363 28.4038C18.0891 25.4406 21.9281 22.4877 25.769 19.5332C29.6248 22.4989 33.4569 25.4466 37.3017 28.404C37.6399 27.9636 37.96 27.5472 38.291 27.1159C38.2002 27.0415 38.1282 26.9791 38.0528 26.9211C37.0461 26.1458 36.042 25.3668 35.0289 24.5999C34.8339 24.4523 34.7441 24.3043 34.7467 24.0458C34.7615 22.4619 34.7541 20.8779 34.7541 19.2938V18.9874H33.0497V23.0625ZM13.3585 17.7864C12.7178 19.561 13.5661 21.6666 15.5973 23.0795C16.5966 22.3077 17.6229 21.5574 18.5977 20.7453C19.165 20.2729 19.6762 19.0142 19.2154 18.1103C18.9868 17.662 18.6816 17.25 18.3879 16.8382C17.9295 16.1951 17.4158 15.5882 16.9948 14.9224C16.742 14.5225 16.6208 14.0397 16.4339 13.5781C16.3613 13.6813 16.2759 13.7865 16.2079 13.9017C15.5679 14.9864 15.409 16.1515 15.6403 17.3782C15.7207 17.805 15.8139 18.2295 15.9099 18.6977C15.0254 18.3819 14.1917 18.0841 13.3585 17.7864Z" fill="white"/>
<path d="M30.9809 26.2028V34.6296H20.5663V26.2028H30.9809ZM22.3227 27.9546V32.8761H24.8743V27.9546H22.3227ZM26.6641 27.9546V32.8759H29.2155V27.9546H26.6641Z" fill="white"/>
</svg>
