<svg width="51" height="51" viewBox="0 0 51 51" fill="none" xmlns="http://www.w3.org/2000/svg">
<path d="M28.7438 28.8907C28.2504 29.3466 27.7152 29.7625 27.13 30.1285C25.7254 31.0065 26.1663 31.0127 24.7561 30.1354C24.1666 29.7687 23.6263 29.3534 23.128 28.8976C22.8894 29.3416 22.7532 29.8473 22.7507 30.3848V30.4116C23.5539 31.0807 24.4389 31.6519 25.4263 32.0996C25.7879 32.2636 26.1014 32.2642 26.4611 32.0996C27.4398 31.6512 28.3235 31.0819 29.1242 30.4116V30.4091C29.1248 29.8591 28.9874 29.3422 28.7438 28.8907ZM36.2708 11.0838C36.2183 10.4908 35.793 10.204 35.219 10.3729C35.0248 10.4303 34.8443 10.5781 34.6894 10.7196C32.4223 12.7911 28.9018 12.7986 26.6291 10.7309C26.0708 10.2227 25.786 10.2214 25.2345 10.7196C24.1897 11.6637 22.9662 12.2031 21.5597 12.2991C19.743 12.4238 18.1673 11.8576 16.8395 10.6111C16.599 10.3848 16.3305 10.2663 16.0045 10.3935C15.6941 10.5145 15.5848 10.7645 15.5467 11.085C15.2956 13.197 15.4418 15.2922 15.8408 17.3705C15.8808 17.5794 15.9233 17.7877 15.9676 17.9947C16.0313 18.2952 16.0994 18.5939 16.1725 18.8907C16.2299 19.1264 16.2905 19.3609 16.3542 19.5941C16.4023 19.7706 16.4516 19.9458 16.5035 20.121C16.6328 20.5631 16.7733 21.0015 16.9263 21.4342C17.5596 23.2444 18.3908 24.9704 19.4557 26.5929C19.6068 26.8236 19.7629 27.0519 19.9241 27.2782C20.0965 27.5214 20.2751 27.7621 20.4593 28.0003C20.4612 28.0034 20.4637 28.0065 20.4662 28.0097C20.9446 28.6288 21.4561 29.21 22.0075 29.7431C22.2474 29.9751 22.4947 30.1983 22.7507 30.4116C23.5539 31.0807 24.4389 31.6519 25.4263 32.0996C25.7879 32.2636 26.1014 32.2642 26.4611 32.0996C27.4398 31.6512 28.3235 31.0819 29.1242 30.4116C29.3796 30.1977 29.6269 29.9732 29.8661 29.7388C30.2652 29.3491 30.6418 28.9319 30.9978 28.4904C31.1364 28.3183 31.2726 28.145 31.405 27.971C31.588 27.7309 31.7653 27.4896 31.9371 27.2452C32.0963 27.0194 32.2512 26.7918 32.4011 26.5624C33.4722 24.923 34.3072 23.1958 34.9361 21.3856C35.0873 20.9504 35.2265 20.5107 35.3539 20.0661C35.392 19.9352 35.4289 19.8036 35.4645 19.6714C35.5363 19.4052 35.6044 19.137 35.6681 18.867C35.7399 18.5652 35.8067 18.2616 35.8679 17.9554C36.1602 16.5119 36.3444 15.0234 36.4331 13.4926C36.385 12.7537 36.3451 11.9175 36.2708 11.0838ZM31.473 25.4269C31.3531 25.6264 31.2301 25.8235 31.1039 26.018C30.9534 26.2512 30.7985 26.4801 30.6387 26.7052C30.2371 27.2714 29.8037 27.8101 29.3296 28.3108C29.141 28.5104 28.9462 28.7043 28.7438 28.8907C28.2504 29.3466 27.7152 29.7625 27.13 30.1285C25.7254 31.0065 26.1663 31.0127 24.7561 30.1354C24.1666 29.7687 23.6263 29.3534 23.128 28.8976C22.9244 28.7124 22.7276 28.5203 22.5384 28.3214C22.0619 27.8245 21.6266 27.2901 21.2237 26.727C21.0632 26.5025 20.9071 26.273 20.7566 26.0398C20.5517 25.7249 20.3563 25.4026 20.1676 25.0746C19.9434 24.6848 19.7305 24.2926 19.5281 23.8967C19.3988 23.6435 19.2739 23.3885 19.1534 23.1328C18.7849 22.3502 18.4589 21.5546 18.176 20.7477C18.0867 20.492 18.0017 20.2351 17.9212 19.977C17.8181 19.6502 17.7232 19.3216 17.6345 18.9905C17.5527 18.6831 17.4771 18.3744 17.4078 18.0633C17.0549 16.4925 16.8613 14.8769 16.8314 13.2164C16.8276 13.0012 16.8376 12.7861 16.8432 12.571C16.8445 12.5398 16.8582 12.5086 16.8688 12.4675C20.0096 14.2833 23.0137 14.1317 25.9265 12.011C28.8481 14.1249 31.8571 14.2334 34.9492 12.3409C34.9492 13.1097 35.0042 13.8786 34.9405 14.6368C34.8406 15.8178 34.6651 16.9752 34.4109 18.1082C34.3465 18.3994 34.276 18.6893 34.2004 18.9768C34.1148 19.3054 34.0218 19.6321 33.9219 19.9564C33.8369 20.2351 33.7464 20.512 33.6508 20.7876C33.3773 21.5776 33.0619 22.3546 32.7053 23.1178C32.5853 23.3741 32.4611 23.6285 32.3318 23.8817C32.0657 24.4036 31.7797 24.9187 31.473 25.4269ZM28.7438 28.8907C28.2504 29.3466 27.7152 29.7625 27.13 30.1285C25.7254 31.0065 26.1663 31.0127 24.7561 30.1354C24.1666 29.7687 23.6263 29.3534 23.128 28.8976C22.8894 29.3416 22.7532 29.8473 22.7507 30.3848V30.4116C23.5539 31.0807 24.4389 31.6519 25.4263 32.0996C25.7879 32.2636 26.1014 32.2642 26.4611 32.0996C27.4398 31.6512 28.3235 31.0819 29.1242 30.4116V30.4091C29.1248 29.8591 28.9874 29.3422 28.7438 28.8907Z" fill="white"/>
<path d="M37.8627 21.8645C37.8396 21.5352 37.6304 21.2671 37.3156 21.2553C36.7835 21.2353 36.6149 20.9379 36.4331 20.5033C36.2745 20.1235 36.2426 19.8647 36.5262 19.5405C36.7935 19.2349 36.7498 18.8727 36.4737 18.5659C36.2826 18.3532 36.0796 18.1487 35.8679 17.9554C35.8386 17.9286 35.8092 17.9018 35.7792 17.8756C35.4876 17.6162 35.1597 17.6056 34.8349 17.8182C34.7244 17.8906 34.6145 17.9648 34.5127 18.0489C34.4777 18.0776 34.4446 18.0976 34.4109 18.1082C34.3465 18.3994 34.276 18.6893 34.2004 18.9768C34.3709 19.0398 34.5208 19.0273 34.6813 18.9045C34.8662 18.7629 35.0598 18.6326 35.2696 18.4836C35.407 18.6157 35.5382 18.7417 35.6681 18.867C35.7418 18.9388 35.8148 19.0092 35.8892 19.0809C35.7361 19.2936 35.6006 19.4844 35.4645 19.6714C35.4545 19.6852 35.4445 19.6982 35.4345 19.712C35.3477 19.8304 35.3277 19.9439 35.3539 20.0661C35.3652 20.1198 35.3852 20.1746 35.412 20.2326C35.6094 20.6604 35.7874 21.0981 35.956 21.5384C36.0303 21.7329 36.1384 21.8545 36.3501 21.8826C36.5118 21.9038 36.6717 21.9549 36.8335 21.9599C37.0458 21.9668 37.1064 22.0597 37.1101 22.2623C37.1195 22.8659 37.1282 22.8771 36.5312 22.9532C36.1896 22.9969 36.001 23.1328 35.9079 23.4926C35.808 23.8773 35.6169 24.2434 35.4326 24.6C35.3183 24.8226 35.3071 25.0035 35.462 25.2011C35.605 25.3845 35.7355 25.5778 35.8979 25.8041C35.6924 25.9962 35.4888 26.1851 35.2702 26.389C35.0616 26.2394 34.8593 26.0978 34.6613 25.9513C34.4839 25.8197 34.3141 25.8197 34.1198 25.9276C33.8294 26.0891 33.5278 26.2288 33.248 26.3691C33.0288 26.1808 33.0606 26.0311 33.2061 25.849C33.3991 25.6065 33.5584 25.3377 33.7382 25.0839C33.782 25.0228 33.845 24.9729 33.905 24.9249C34.9798 24.0619 35.3827 22.6545 34.9361 21.3856C34.9124 21.3176 34.8855 21.2497 34.8568 21.1823C34.6463 20.6922 34.3203 20.2757 33.9219 19.9564C33.8369 20.2351 33.7464 20.512 33.6508 20.7876C33.7358 20.8761 33.8151 20.9722 33.8869 21.0751C34.4765 21.9162 34.4502 23.0704 33.8226 23.8829C33.772 23.9484 33.7126 24.0083 33.6652 24.0619C33.3392 23.7439 33.0263 23.4246 32.7053 23.1178C32.5853 23.3741 32.4611 23.6285 32.3318 23.8817C32.5304 24.0806 32.7309 24.2795 32.9307 24.4784C33.0506 24.5975 33.0494 24.7141 32.9482 24.8501C32.7259 25.1494 32.5185 25.4605 32.2931 25.758C32.1413 25.9594 32.1363 26.1452 32.2731 26.3566C32.3174 26.4246 32.3599 26.4932 32.4011 26.5624C32.8208 27.2551 33.1175 28.0003 33.2848 28.7972C33.3367 29.0435 33.4834 29.1682 33.7295 29.2031C34.0917 29.2549 34.4508 29.326 34.8131 29.3752C34.9942 29.3996 35.0766 29.4894 35.0766 29.6646C35.0766 30.1615 35.0748 30.6585 35.0748 31.1555C35.0748 31.3264 34.9817 31.4055 34.82 31.4299C34.4889 31.4798 34.1598 31.5396 33.8288 31.5883C33.4316 31.6462 33.361 31.7086 33.2705 32.0933C33.08 32.9021 32.7683 33.6603 32.3287 34.3656C32.1038 34.7254 32.1051 34.7796 32.3455 35.1157C32.5404 35.3876 32.7284 35.6644 32.9326 35.9295C33.0556 36.0897 33.0475 36.2182 32.9064 36.3566C32.5622 36.6946 32.2219 37.0357 31.8809 37.3761C31.7547 37.5027 31.6329 37.5033 31.4887 37.3954C31.1895 37.1722 30.8785 36.9646 30.5787 36.7413C30.3845 36.5973 30.2009 36.5917 29.9985 36.7233C29.2335 37.2196 28.4022 37.5588 27.511 37.7503C27.2936 37.7964 27.1806 37.9298 27.1481 38.1493C27.0932 38.5185 27.0207 38.8845 26.9689 39.2536C26.9426 39.442 26.8577 39.5255 26.6653 39.5286C26.4243 39.533 26.1838 39.5586 25.9415 39.5754C25.6929 39.5586 25.445 39.5336 25.1964 39.5274C25.0128 39.523 24.9335 39.4388 24.9079 39.263C24.8536 38.8939 24.7811 38.5278 24.7287 38.1587C24.6956 37.9286 24.5769 37.7945 24.3508 37.7459C23.459 37.5538 22.6296 37.2109 21.8639 36.7164C21.6684 36.5904 21.4898 36.5992 21.3037 36.7357C21.0033 36.9571 20.6935 37.1666 20.3937 37.3898C20.2538 37.4946 20.1333 37.5127 20.0028 37.3817C19.6518 37.0288 19.2989 36.6784 18.9461 36.3273C18.8261 36.2082 18.8255 36.0916 18.9261 35.9557C19.1521 35.6495 19.367 35.334 19.5937 35.0278C19.7323 34.8414 19.7398 34.6624 19.6137 34.4685C19.1178 33.7046 18.7724 32.8771 18.5832 31.9861C18.5376 31.7734 18.4127 31.6469 18.1904 31.6132C17.8288 31.5596 17.469 31.4916 17.1074 31.4411C16.9088 31.413 16.7914 31.332 16.7939 31.1162C16.7989 30.6267 16.7983 30.1372 16.8008 29.6484C16.802 29.4806 16.8857 29.4027 17.0562 29.3796C17.4184 29.3303 17.7769 29.2561 18.1391 29.205C18.3965 29.1682 18.5407 29.036 18.5944 28.7804C18.7581 28.0009 19.0466 27.2714 19.4557 26.5929C19.4981 26.5218 19.5419 26.452 19.5868 26.3822C19.7336 26.1552 19.7398 25.9606 19.5731 25.7436C19.3551 25.4599 19.1584 25.16 18.9429 24.875C18.8318 24.7272 18.8136 24.6044 18.9542 24.4666C19.1465 24.2777 19.3383 24.0875 19.5281 23.8967C19.3988 23.6435 19.2739 23.3885 19.1534 23.1328C18.8374 23.4327 18.5251 23.7439 18.1966 24.06C17.6052 23.3978 17.3816 22.6277 17.6264 21.761C17.7401 21.3582 17.9249 21.0189 18.176 20.7477C18.0867 20.492 18.0017 20.2351 17.9212 19.977C17.464 20.3567 17.1155 20.8612 16.9263 21.4342C16.8245 21.7423 16.7689 22.0703 16.7677 22.4089C16.7639 23.439 17.1761 24.2739 17.9711 24.9268C18.0523 24.9935 18.1185 25.0814 18.181 25.1675C18.3459 25.3938 18.4926 25.6345 18.6694 25.8503C18.8093 26.0205 18.8486 26.167 18.6338 26.3647C18.3752 26.2387 18.0823 26.119 17.8144 25.9594C17.5721 25.8147 17.3703 25.8153 17.153 25.9931C16.985 26.1302 16.8014 26.2481 16.584 26.404C16.3979 26.1957 16.2137 25.9887 16.0088 25.7605C16.1363 25.5834 16.2712 25.3863 16.416 25.1974C16.5616 25.0085 16.5566 24.8339 16.4516 24.6162C16.2549 24.2059 16.0863 23.7807 15.9252 23.3542C15.8496 23.1528 15.7465 23.0174 15.5223 22.9906C15.345 22.9694 15.1701 22.9239 14.9921 22.9065C14.8428 22.8921 14.7779 22.8372 14.7679 22.6776C14.7285 22.0247 14.7217 22.011 15.3699 21.9169C15.7097 21.8676 15.8752 21.7173 15.967 21.3769C16.0682 20.9996 16.2474 20.6379 16.4323 20.29C16.4635 20.2314 16.4879 20.1753 16.5035 20.121C16.5522 19.9558 16.526 19.8086 16.3979 19.6496C16.3829 19.6315 16.3686 19.6128 16.3542 19.5941C16.2312 19.4351 16.1194 19.2642 15.9845 19.0753C16.0476 19.0136 16.11 18.9525 16.1725 18.8907C16.3117 18.7542 16.451 18.6176 16.5953 18.4761C16.8089 18.6282 17.0069 18.7629 17.198 18.9076C17.3429 19.0167 17.4796 19.0367 17.6345 18.9905C17.5527 18.6831 17.4771 18.3744 17.4078 18.0633C17.4022 18.0614 17.3966 18.0589 17.3916 18.0564C17.2604 17.9916 17.1493 17.8887 17.0256 17.8095C16.7189 17.6131 16.3917 17.6187 16.12 17.8569C16.0688 17.9018 16.0176 17.9479 15.9676 17.9947C15.7615 18.1849 15.5642 18.3857 15.3774 18.5945C15.1214 18.882 15.0864 19.2406 15.3375 19.5305C15.621 19.8566 15.6791 20.1485 15.4218 20.5045C15.3468 20.6074 15.2994 20.744 15.2813 20.8712C15.2475 21.1075 15.0995 21.1611 14.8959 21.1804C14.573 21.2122 14.2551 21.2746 14.0903 21.6026C14.0328 21.7173 14.0091 21.8483 13.9697 21.9717V22.9052C14.0378 23.2525 14.1864 23.5998 14.5618 23.6192C15.0945 23.6466 15.26 23.9434 15.4418 24.3749C15.6016 24.7547 15.631 25.0141 15.3443 25.3365C15.0839 25.6295 15.1232 25.9956 15.3893 26.2917C15.6173 26.5462 15.8615 26.7881 16.1181 27.0138C16.3911 27.2545 16.7177 27.2626 17.0237 27.0656C17.1549 26.982 17.2754 26.8823 17.4066 26.7987C17.454 26.7688 17.5296 26.7345 17.5708 26.7519C17.8181 26.8554 18.0592 26.9739 18.3015 27.0868C18.2228 27.2969 18.1441 27.4909 18.0767 27.6891C18.0067 27.8949 17.9574 28.1075 17.88 28.3102C17.8556 28.3732 17.7763 28.443 17.7107 28.4574C17.4372 28.516 17.1592 28.5546 16.8832 28.6002C16.3911 28.6812 16.0476 29.0061 16.0226 29.5006C15.992 30.1042 15.9932 30.7115 16.0226 31.3158C16.0457 31.789 16.373 32.1077 16.847 32.1968C17.1224 32.248 17.4016 32.2798 17.6745 32.3409C17.7532 32.359 17.86 32.4369 17.8793 32.5074C18.0786 33.2475 18.374 33.9453 18.7537 34.6106C18.7868 34.6686 18.7699 34.7877 18.7306 34.8495C18.5888 35.0721 18.4252 35.281 18.274 35.498C17.9468 35.9669 17.9537 36.4196 18.3371 36.8361C18.7106 37.2414 19.1041 37.6312 19.51 38.004C19.8997 38.3613 20.3581 38.3751 20.7941 38.0782C21.0258 37.9205 21.2456 37.7459 21.4829 37.5975C21.5485 37.5563 21.6772 37.5476 21.7427 37.5844C22.3948 37.9573 23.0805 38.246 23.8075 38.4324C23.9386 38.4661 23.9836 38.5291 24.0017 38.6488C24.0467 38.9406 24.0885 39.2337 24.151 39.5218C24.2528 39.987 24.5975 40.2956 25.0672 40.3106C25.6492 40.3293 26.2332 40.3299 26.8152 40.3106C27.2749 40.295 27.6178 39.9888 27.7177 39.5355C27.7808 39.2474 27.8207 38.9543 27.867 38.6631C27.8869 38.5384 27.9307 38.4692 28.0743 38.4318C28.7925 38.2454 29.4758 37.966 30.1141 37.5844C30.2221 37.5195 30.2977 37.5121 30.4032 37.5944C30.6168 37.7627 30.8423 37.9161 31.0658 38.072C31.4943 38.3701 31.9683 38.3638 32.3524 38.0128C32.7652 37.6361 33.1637 37.2402 33.5421 36.8286C33.9187 36.4196 33.9256 35.9719 33.6058 35.5098C33.451 35.286 33.2823 35.0708 33.1368 34.8414C33.0987 34.7809 33.0887 34.6624 33.1231 34.6025C33.4984 33.9441 33.7963 33.2544 33.9806 32.5192C34.0124 32.3908 34.0799 32.3477 34.2048 32.3315C34.4902 32.2941 34.7744 32.2467 35.0567 32.1912C35.4976 32.1046 35.8267 31.7766 35.8492 31.3301C35.8798 30.734 35.886 30.1335 35.8554 29.538C35.828 29.0048 35.5044 28.69 34.9817 28.5989C34.7057 28.5509 34.4284 28.5116 34.1536 28.4574C34.098 28.4461 34.023 28.3963 34.0062 28.347C33.86 27.9255 33.7251 27.4996 33.5846 27.0681C33.6702 27.0338 33.767 27.0138 33.8407 26.9621C34.2029 26.707 34.5083 26.7588 34.8424 27.0481C35.1247 27.2919 35.482 27.2564 35.7624 27.0088C36.0241 26.7775 36.2733 26.5293 36.5043 26.2674C36.7504 25.9887 36.7523 25.6563 36.5449 25.3421C36.4893 25.2579 36.4369 25.1681 36.3669 25.097C36.217 24.9455 36.217 24.8021 36.3332 24.6268C36.4138 24.5059 36.4837 24.365 36.51 24.224C36.5843 23.8287 36.8147 23.6784 37.2063 23.6472C37.6066 23.6154 37.8402 23.3598 37.8696 22.957C37.8952 22.5947 37.8883 22.2274 37.8627 21.8645Z" fill="white"/>
<path d="M31.9371 27.2452C31.7048 26.8049 31.425 26.394 31.1039 26.018C30.9534 26.2512 30.7985 26.4801 30.6387 26.7052C30.9434 27.0912 31.202 27.5158 31.405 27.971C31.7385 28.7174 31.9227 29.5455 31.9208 30.4178C31.914 33.7077 29.2272 36.3828 25.934 36.3784C22.6283 36.3747 19.9447 33.6865 19.9534 30.3879C19.9559 29.5386 20.1358 28.7311 20.4593 28.0003C20.661 27.5426 20.9183 27.1155 21.2237 26.727C21.0632 26.5025 20.9071 26.273 20.7566 26.0398C20.435 26.419 20.1552 26.8342 19.9241 27.2782C19.4319 28.2179 19.1553 29.2867 19.1578 30.4197C19.1659 34.1517 22.2161 37.1866 25.9484 37.176C29.6912 37.1654 32.7203 34.1317 32.7171 30.3979C32.7171 29.2586 32.4348 28.1861 31.9371 27.2452Z" fill="white"/>
<path d="M29.8661 29.7388C29.7805 29.2225 29.5944 28.7398 29.3296 28.3108C29.141 28.5104 28.9462 28.7043 28.7438 28.8907C28.9874 29.3422 29.1248 29.8591 29.1242 30.4091V30.4116C29.1198 32.1744 27.6902 33.5955 25.9253 33.5905C24.1722 33.5849 22.7576 32.1657 22.7507 30.4116V30.3848C22.7532 29.8473 22.8894 29.3416 23.128 28.8976C22.9244 28.7124 22.7276 28.5203 22.5384 28.3214C22.2761 28.7486 22.0925 29.2293 22.0075 29.7431C21.9713 29.9583 21.9532 30.1784 21.9532 30.4035C21.9532 32.609 23.7431 34.3899 25.9521 34.3855C28.1474 34.3812 29.9236 32.5978 29.9217 30.3997C29.9217 30.1746 29.903 29.9539 29.8661 29.7388Z" fill="white"/>
<path d="M25.0796 21.4791C25.6617 20.8917 26.2094 20.3368 26.759 19.7837C27.1025 19.4382 27.4441 19.0903 27.7951 18.7529C28.1211 18.4399 28.5458 18.4349 28.8244 18.7267C29.0986 19.013 29.0923 19.4158 28.7807 19.7288C27.7264 20.7895 26.6672 21.8452 25.6036 22.8959C25.2751 23.2201 24.8823 23.217 24.55 22.8952C24.046 22.4064 23.5477 21.9106 23.0568 21.4087C22.7395 21.0838 22.7345 20.6616 23.0237 20.3817C23.3166 20.0986 23.7169 20.1148 24.051 20.4403C24.3839 20.7639 24.7043 21.0994 25.0784 21.4791H25.0796Z" fill="white"/>
</svg>
