<svg width="51" height="51" viewBox="0 0 51 51" fill="none" xmlns="http://www.w3.org/2000/svg">
<path d="M13.9267 35.2743C13.8791 35.1729 13.8337 35.0705 13.7838 34.9704C12.8313 33.0612 11.878 31.1525 10.9256 29.2432C10.6153 28.6214 10.8048 28.3141 11.4984 28.3139C12.6856 28.3135 13.8728 28.3139 15.06 28.3139C15.1596 28.3139 15.2593 28.3139 15.4252 28.3139C15.2593 28.1399 15.1397 28.0162 15.0222 27.8908C13.2843 26.0349 12.2553 23.8019 11.5894 21.3815C11.104 19.6169 10.8399 17.8168 10.7685 15.9875C10.7556 15.6558 10.8732 15.4472 11.1674 15.2845C14.0717 13.6781 16.9719 12.0643 19.868 10.4434C20.1573 10.2814 20.3962 10.2882 20.6819 10.4477C23.5699 12.0627 26.4614 13.6707 29.3565 15.273C29.6448 15.4325 29.7766 15.6336 29.7717 15.9694C29.7364 18.4261 29.3934 20.8254 28.4806 23.1227C28.4619 23.1695 28.4524 23.2202 28.4326 23.291H33.2679C33.2679 23.2013 33.2679 23.1029 33.2679 23.0044C33.2679 22.3163 33.2663 21.6282 33.2685 20.9403C33.2699 20.4854 33.4406 20.3086 33.8843 20.3072C34.8112 20.3044 35.7381 20.304 36.665 20.3074C37.0887 20.309 37.2652 20.4906 37.2668 20.9233C37.2698 21.7038 37.2676 22.4846 37.2676 23.3093C37.4147 23.3093 37.5452 23.3071 37.6756 23.3097C38.0829 23.3174 38.2653 23.4954 38.2663 23.9057C38.2694 25.2505 38.2674 26.5954 38.2674 27.9402C38.2674 28.0527 38.2674 28.1653 38.2674 28.3139C38.8813 28.3139 39.4713 28.3133 40.0612 28.3139C40.679 28.3147 40.8622 28.5616 40.6901 29.1628C40.1375 31.0935 39.5841 33.024 39.0322 34.955C39.0018 35.0611 38.9812 35.1703 38.9485 35.31C39.3512 35.2471 39.6131 35.0518 39.763 34.719C39.8825 34.4534 40.0522 34.2816 40.3608 34.3316C40.6298 34.375 40.7662 34.5878 40.7664 34.9454C40.7678 36.53 40.7682 38.1146 40.7662 39.6992C40.7656 40.1476 40.5894 40.3242 40.1413 40.3242C30.56 40.3252 20.9787 40.3252 11.3972 40.3242C10.9468 40.3242 10.7705 40.1494 10.7701 39.702C10.7681 38.1174 10.7681 36.5328 10.7701 34.9482C10.7707 34.4862 10.9759 34.2556 11.4192 34.3379C11.8174 34.4119 12.2014 34.586 12.5765 34.7501C12.7627 34.8315 12.9011 35.0199 13.0863 35.106C13.3367 35.2223 13.6111 35.2868 13.8754 35.3733C13.8924 35.3402 13.9093 35.3073 13.9263 35.2741L13.9267 35.2743ZM12.0838 29.3251C13.0137 31.1862 13.9192 32.9984 14.8255 34.8123C15.6925 34.3185 16.1323 34.1869 16.7961 34.3963C17.2009 34.5241 17.5774 34.773 17.9339 35.0155C18.522 35.4156 19.0232 35.4325 19.5994 35.0103C19.7169 34.9242 19.8313 34.8337 19.9501 34.749C20.4973 34.3586 21.1125 34.194 21.7527 34.3891C22.1588 34.5128 22.5434 34.7472 22.8981 34.9899C23.5348 35.4255 24.0166 35.443 24.6391 34.9806C24.7644 34.8875 24.8866 34.7892 25.0164 34.7029C25.6077 34.3105 26.2588 34.1897 26.9212 34.4298C27.3031 34.5681 27.6472 34.8238 27.9898 35.0544C28.5069 35.4023 29.0208 35.4172 29.5278 35.0617C29.6472 34.978 29.7616 34.8875 29.8789 34.8012C30.7608 34.1523 31.7732 34.1521 32.6565 34.8004C33.6264 35.5123 33.9127 35.5133 34.8687 34.8087C34.8939 34.7902 34.9181 34.7704 34.9437 34.7523C35.7641 34.1688 36.7737 34.1698 37.5961 34.7553C37.7115 34.8375 37.8259 34.9208 37.974 35.0278C38.522 33.1058 39.0583 31.2253 39.597 29.3362H31.2684C31.2684 30.1071 31.2688 30.8563 31.2684 31.6058C31.268 32.1641 31.1189 32.3171 30.5727 32.3173C29.0315 32.3179 27.4902 32.3181 25.9491 32.3173C25.4239 32.3171 25.2698 32.1587 25.2692 31.6218C25.2684 30.9443 25.2696 30.2667 25.2682 29.5891C25.268 29.5004 25.2565 29.4115 25.2504 29.3253L12.0838 29.3251ZM22.2688 24.8149C22.2688 24.5126 22.2659 24.2103 22.2696 23.9083C22.2746 23.496 22.451 23.3146 22.8571 23.3103C23.284 23.3055 23.7122 23.288 24.1371 23.3164C24.4302 23.3361 24.5779 23.2255 24.7099 22.9737C25.5591 21.3531 25.9877 19.6177 26.1741 17.8094C26.1957 17.5989 26.1519 17.4968 25.9651 17.394C24.1431 16.3904 22.3255 15.3786 20.5116 14.3602C20.3359 14.2616 20.2104 14.259 20.0324 14.3588C18.2912 15.3369 16.5476 16.3108 14.7947 17.2678C14.5049 17.426 14.3292 17.575 14.4476 17.9287C14.4964 18.0744 14.4936 18.2367 14.5196 18.3908C14.8491 20.3435 15.3777 22.2304 16.4029 23.9448C17.2535 25.367 18.3739 26.4957 19.9594 27.0838C20.094 27.1338 20.2945 27.129 20.4184 27.063C20.9311 26.7899 21.4252 26.4814 21.9284 26.1901C22.1838 26.0422 22.3196 25.8509 22.275 25.5329C22.2421 25.298 22.2686 25.0546 22.2688 24.8149ZM30.2681 31.3098C30.2681 30.5465 30.2681 29.809 30.2681 29.0715C30.2681 28.4479 30.3992 28.3139 31.0109 28.3139C32.9791 28.3139 34.9475 28.3139 36.9157 28.3139H37.2438V24.326H23.2885V28.3139C24.0875 28.3139 24.8667 28.3119 25.6461 28.3147C26.093 28.3163 26.2655 28.4916 26.2679 28.9425C26.2705 29.4533 26.2685 29.9642 26.2685 30.4749C26.2685 30.7513 26.2685 31.0278 26.2685 31.31L30.2681 31.3098ZM25.6818 23.3091C26.1509 23.3091 26.5845 23.2922 27.016 23.3156C27.2565 23.3287 27.3592 23.2378 27.4472 23.0263C28.3384 20.8788 28.6989 18.6293 28.7682 16.3201C28.774 16.1284 28.6907 16.049 28.5402 15.9656C25.8557 14.4771 23.1735 12.9844 20.493 11.4885C20.3437 11.4052 20.2275 11.3883 20.0663 11.4784C17.3687 12.986 14.6659 14.485 11.9694 15.9954C11.8788 16.0462 11.7854 16.1996 11.7912 16.2995C11.9387 18.856 12.4211 21.3402 13.4666 23.6919C14.2299 25.4087 15.2565 26.9385 16.7526 28.1095C16.9009 28.2256 17.122 28.3032 17.3102 28.305C18.8515 28.3205 20.3932 28.3137 21.9348 28.3137H22.2413V27.2483C21.6728 27.5385 21.128 27.8443 20.558 28.0922C20.3619 28.1776 20.0819 28.1817 19.8759 28.1143C17.9395 27.4797 16.5581 26.1669 15.5396 24.4463C14.2529 22.2725 13.6624 19.8791 13.3787 17.3932C13.3412 17.064 13.4626 16.8679 13.7441 16.7123C15.7934 15.5804 17.8399 14.4432 19.8823 13.2984C20.1605 13.1424 20.397 13.1513 20.6702 13.3043C22.7219 14.4537 24.7765 15.5977 26.8351 16.7343C27.1181 16.8905 27.2356 17.0908 27.2099 17.4145C27.0802 19.0429 26.7852 20.6347 26.1795 22.1583C26.031 22.5321 25.8607 22.897 25.6818 23.3091ZM39.7576 38.1894C39.3555 38.2341 38.978 38.3093 38.6005 38.3093C38.1174 38.3093 37.7028 38.0888 37.3187 37.7993C36.4485 37.1431 36.1004 37.1459 35.233 37.7846C34.2026 38.5433 33.2826 38.5159 32.179 37.6941C31.4976 37.1866 31.0557 37.2003 30.3647 37.6786C30.028 37.9116 29.6605 38.1388 29.2728 38.251C28.4782 38.481 27.7914 38.1845 27.1613 37.6865C26.5149 37.1759 26.0377 37.1892 25.3795 37.678C25.2625 37.7649 25.1483 37.8564 25.0265 37.9362C24.3709 38.3659 23.665 38.4566 22.9443 38.1573C22.6237 38.0243 22.3408 37.7945 22.0511 37.5936C21.5237 37.2279 21.0073 37.2227 20.4896 37.5958C20.3544 37.6933 20.2225 37.7953 20.0879 37.8933C19.6688 38.1978 19.1999 38.3343 18.6822 38.3224C18.0638 38.3081 17.5709 38.015 17.1103 37.6405C16.736 37.336 16.3113 37.2207 15.8559 37.3989C15.6287 37.4879 15.4256 37.6486 15.2252 37.7951C14.2543 38.5044 13.2814 38.507 12.3208 37.7973C12.1572 37.6764 11.9869 37.5647 11.7876 37.4265V39.3039H39.7576V38.1894ZM39.7489 36.1521C39.4572 36.2101 39.1866 36.2895 38.9108 36.3137C38.2506 36.3718 37.702 36.1019 37.1903 35.7056C36.4997 35.1705 36.05 35.1782 35.3583 35.6917C34.2129 36.5417 33.3195 36.5415 32.1781 35.6915C31.4972 35.1844 31.0555 35.1985 30.3639 35.6772C30.0272 35.9102 29.6597 36.1371 29.272 36.2492C28.4774 36.4792 27.7908 36.1817 27.1607 35.6841C26.5147 35.1741 26.0373 35.1874 25.3789 35.6764C25.2619 35.7633 25.1487 35.8566 25.0257 35.9342C24.2085 36.4497 23.3819 36.4612 22.5555 35.9592C22.3783 35.8515 22.2189 35.7147 22.0494 35.5936C21.5271 35.2207 21.0071 35.2207 20.4894 35.5936C20.3542 35.6911 20.2223 35.7929 20.0877 35.8912C19.6688 36.1966 19.1997 36.3334 18.6822 36.3199C18.1013 36.3048 17.6306 36.0404 17.1829 35.6978C16.4981 35.1737 16.0484 35.1812 15.3501 35.6986C15.3083 35.7296 15.266 35.76 15.224 35.7909C14.2559 36.5042 13.2814 36.5048 12.3212 35.7955C12.1574 35.6746 11.9873 35.5623 11.7848 35.4216V36.2796C12.2131 36.5519 12.6041 36.7843 12.9776 37.0421C13.5213 37.4172 14.0288 37.4251 14.564 37.0387C14.699 36.9413 14.8292 36.8369 14.9655 36.741C15.5051 36.3609 16.0972 36.2476 16.7453 36.3721C17.2483 36.4685 17.6228 36.7843 18.02 37.0685C18.5006 37.4124 19.0169 37.4146 19.5016 37.0808C19.6731 36.9627 19.8335 36.8287 20.0058 36.7118C20.7876 36.1813 21.7813 36.1889 22.5557 36.7291C22.7094 36.8363 22.8561 36.9536 23.009 37.0619C23.5035 37.4126 24.0223 37.4162 24.5174 37.0709C24.6796 36.9577 24.8322 36.8307 24.9954 36.7192C25.7881 36.177 26.8141 36.1486 27.5636 36.7491C28.587 37.5692 29.1182 37.4239 29.9664 36.7533C30.7428 36.1394 31.8063 36.1432 32.5793 36.7591C33.5643 37.5438 34.0874 37.4466 34.9556 36.7599C35.7429 36.1371 36.785 36.1744 37.6011 36.7615C37.7785 36.8891 37.9463 37.0332 38.1338 37.1433C38.5407 37.3823 38.9626 37.4015 39.3795 37.1636C39.7802 36.9347 39.8169 36.565 39.7487 36.1525L39.7489 36.1521ZM34.2686 23.2874H36.2435V21.3071H34.2874C34.2787 21.3766 34.2694 21.4159 34.2694 21.4554C34.2684 22.0581 34.2686 22.6607 34.2686 23.2874Z" fill="white"/>
<path d="M20.2663 31.8263C20.2616 32.6553 19.576 33.3265 18.7434 33.3172C17.9319 33.308 17.2632 32.6229 17.2705 31.8084C17.278 30.9762 17.9631 30.3058 18.7934 30.3179C19.6085 30.3298 20.2711 31.0084 20.2663 31.8263ZM19.2667 31.8259C19.2716 31.5569 19.0539 31.3275 18.7857 31.319C18.5045 31.3098 18.2678 31.5424 18.2714 31.8241C18.2747 32.0934 18.4988 32.3149 18.7678 32.3155C19.0363 32.3161 19.2617 32.0948 19.2667 31.8259Z" fill="white"/>
<path d="M22.7663 33.317C21.9532 33.3192 21.2735 32.6444 21.2702 31.8314C21.2666 30.9974 21.9413 30.3167 22.7701 30.3179C23.5877 30.3191 24.2598 30.9863 24.2662 31.8032C24.2725 32.634 23.5978 33.3148 22.7663 33.317ZM23.2663 31.8173C23.2665 31.548 23.0456 31.3227 22.777 31.3188C22.4954 31.3146 22.2627 31.5506 22.271 31.8322C22.2789 32.1011 22.5073 32.3197 22.7758 32.3153C23.0447 32.3111 23.2659 32.0862 23.2663 31.8173Z" fill="white"/>
<path d="M19.7445 20.1317C20.6188 19.2535 21.4331 18.435 22.2482 17.6171C22.6723 17.1916 22.8646 17.191 23.2863 17.6123C23.7061 18.0317 24.1278 18.4493 24.5438 18.8722C24.8485 19.1819 24.8515 19.4287 24.5471 19.7344C23.1 21.1872 21.6506 22.638 20.1991 24.0867C19.8922 24.3931 19.6458 24.3913 19.3384 24.0857C18.5563 23.3075 17.7767 22.5267 16.9991 21.7437C16.6818 21.4244 16.686 21.1864 17.0082 20.8607C17.4474 20.4167 17.8881 19.9741 18.332 19.5347C18.6508 19.2192 18.8913 19.2206 19.2139 19.5451C19.389 19.7211 19.5482 19.9136 19.7445 20.1317ZM22.7613 18.5356C22.6802 18.6116 22.6037 18.6793 22.5317 18.7514C21.7587 19.524 20.9878 20.2988 20.2132 21.0699C19.8898 21.3918 19.6507 21.3924 19.3305 21.0751C19.1481 20.8941 18.9758 20.7029 18.8448 20.5646C18.5468 20.849 18.2882 21.0957 18.064 21.3099C18.6314 21.8795 19.2096 22.4598 19.7485 23.0008C20.9829 21.7652 22.2359 20.5112 23.4684 19.2775C23.2558 19.0546 23.0143 18.8012 22.7613 18.5356Z" fill="white"/>
<path d="M24.7918 25.8241H25.7508V26.7974H24.7918V25.8241Z" fill="white"/>
<path d="M28.2535 25.8288V26.7893H27.2886V25.8288H28.2535Z" fill="white"/>
<path d="M30.7547 25.834V26.7954H29.7935V25.834H30.7547Z" fill="white"/>
<path d="M32.2813 26.7898V25.8285H33.2425V26.7898H32.2813Z" fill="white"/>
<path d="M34.794 25.8181H35.7441V26.7914H34.794V25.8181Z" fill="white"/>
</svg>
