<svg width="51" height="51" viewBox="0 0 51 51" fill="none" xmlns="http://www.w3.org/2000/svg">
<path d="M25.0354 40.3251H13.2025C13.1789 40.3096 13.1574 40.2854 13.1318 40.2793C11.5243 39.9163 10.626 38.7958 10.6253 37.1506C10.6246 35.0427 10.6199 32.9342 10.6266 30.8264C10.6381 27.2606 12.8328 24.115 16.1723 22.8644C16.2484 22.8361 16.3225 22.8004 16.4181 22.7593C12.9782 21.1384 11.7701 17.1497 13.2409 14.0519C14.6369 11.1117 17.9933 9.63687 21.1045 10.6369C22.6406 11.1305 23.8521 12.07 24.673 13.4606C25.8893 15.52 25.9149 17.6487 24.904 19.8266H27.125C27.125 19.4865 27.121 19.1861 27.1257 18.8851C27.1412 17.9699 27.7311 17.347 28.6409 17.3342C29.9581 17.316 31.276 17.316 32.5933 17.3342C33.5152 17.347 34.1112 17.9834 34.1166 18.9087C34.1186 19.2077 34.1166 19.5067 34.1166 19.8266H34.4715C35.9645 19.8266 37.4581 19.8266 38.9511 19.8279C39.0872 19.8279 39.2252 19.8306 39.3586 19.8542C40.0421 19.974 40.4145 20.4252 40.6165 21.0529V34.1161C40.3222 35.0346 39.669 35.3464 38.7376 35.3404C35.1584 35.3182 31.5791 35.3316 27.9998 35.3316C27.8779 35.3316 27.7567 35.3316 27.6139 35.3316C27.6139 36.0515 27.6348 36.7236 27.6092 37.3943C27.5634 38.5998 26.9843 39.4833 25.9081 40.0241C25.6354 40.1615 25.3263 40.2268 25.034 40.3258L25.0354 40.3251ZM24.6212 16.8715C24.6273 13.8027 22.18 11.3427 19.1119 11.3319C16.1023 11.3211 13.6342 13.794 13.62 16.8332C13.6066 19.8232 16.0895 22.3209 19.0876 22.3331C22.114 22.3452 24.6151 19.8771 24.6212 16.8715ZM32.6067 26.8323C32.6067 27.4033 32.629 27.9299 32.6013 28.4539C32.5657 29.1307 32.0808 29.6788 31.4114 29.7852C31.039 29.8445 30.6538 29.8297 30.274 29.8304C29.2362 29.8331 28.6187 29.2122 28.616 28.1744C28.6146 27.738 28.616 27.3016 28.616 26.8511H26.6489C26.6873 26.9461 26.7115 27.0188 26.7452 27.0861C27.3331 28.2788 27.6207 29.5401 27.618 30.8688C27.6159 31.9126 27.618 32.9571 27.618 34.0009C27.618 34.1033 27.6267 34.2056 27.6314 34.3154C27.7405 34.3215 27.8173 34.3296 27.8941 34.3296C31.5824 34.3296 35.2715 34.3309 38.9599 34.3296C39.4542 34.3296 39.6192 34.1572 39.6192 33.6521C39.6192 31.2224 39.6192 28.7926 39.6192 26.3629C39.6192 26.2814 39.6077 26.1999 39.5983 26.0706C38.8508 26.7339 37.9915 26.8504 37.0797 26.8376C35.7139 26.8181 34.3476 26.8323 32.9812 26.8323C32.8754 26.8323 32.769 26.8323 32.6067 26.8323ZM25.0084 24.684C25.2805 24.9965 25.5519 25.2786 25.7856 25.5891C25.925 25.7743 26.0718 25.8356 26.298 25.8349C29.9958 25.8282 33.6937 25.8302 37.3921 25.8302C37.4898 25.8302 37.5874 25.8302 37.6844 25.8235C38.8259 25.7474 39.6097 24.9177 39.6178 23.7708C39.6232 23.0099 39.6198 22.2489 39.6185 21.4879C39.6178 20.9943 39.4474 20.8266 38.9437 20.8266C34.124 20.8266 29.3036 20.8246 24.4838 20.834C24.3525 20.834 24.1814 20.9108 24.0959 21.0098C23.5181 21.6731 22.8467 22.2112 22.0675 22.6179C21.9941 22.6563 21.9221 22.6987 21.8601 22.7338C22.4171 23.0126 22.9773 23.2584 23.5006 23.5675C23.8084 23.7486 24.102 23.8429 24.4575 23.8328C25.0434 23.816 25.2448 24.1432 25.0091 24.6854L25.0084 24.684ZM23.6515 39.3271C23.9774 39.3271 24.2858 39.3305 24.5936 39.3271C25.7478 39.3116 26.6125 38.455 26.6159 37.3041C26.622 35.1094 26.6428 32.914 26.6092 30.7193C26.5748 28.4828 25.6758 26.6269 23.9983 25.148C23.9228 25.082 23.8387 25.0254 23.7255 24.9392C23.0534 28.4317 22.3921 31.8702 21.7302 35.3114C23.6999 35.5007 24.7949 37.5492 23.6515 39.3271ZM16.7744 23.6678C16.2626 23.9156 15.8194 24.1365 15.3709 24.3439C15.175 24.4348 15.1231 24.5668 15.1231 24.779C15.1299 29.5206 15.1278 34.2629 15.1278 39.0045V39.3082H18.5603C17.9663 34.108 17.3751 28.9293 16.7744 23.6678ZM14.1184 25.3116C14.0638 25.3339 14.0429 25.3366 14.0295 25.3487C13.9635 25.4066 13.8982 25.4652 13.8362 25.5271C12.4806 26.8929 11.6987 28.5407 11.6449 30.458C11.5802 32.778 11.6058 35.1006 11.6341 37.422C11.6496 38.6691 12.9048 39.581 14.1035 39.2833V36.3283C13.9332 36.3283 13.787 36.3371 13.6422 36.3263C13.3177 36.3034 13.1224 36.098 13.1331 35.8037C13.1432 35.5209 13.3358 35.3444 13.6564 35.3316C13.8072 35.3256 13.9588 35.3303 14.1177 35.3303L14.1184 25.3116ZM20.6971 35.3209C20.7193 35.2232 20.7443 35.1309 20.7618 35.0373C20.9631 33.9942 21.1625 32.951 21.3631 31.9079C21.8372 29.4485 22.3127 26.9898 22.7821 24.5298C22.7975 24.449 22.7807 24.3062 22.7309 24.2786C22.4379 24.1156 22.1302 23.9783 21.815 23.8261C21.7645 23.9547 21.7308 24.0348 21.7025 24.1163C20.782 26.7764 19.8661 29.4384 18.9347 32.0944C18.8196 32.4217 18.8007 32.7342 18.8479 33.0662C18.8876 33.3464 18.9125 33.6278 18.9455 33.9087C19.0014 34.3787 19.058 34.8481 19.1152 35.3202L20.6971 35.3209ZM18.5132 30.0836C18.5354 30.0856 18.5576 30.0876 18.5805 30.0896C19.3334 27.9131 20.0856 25.7359 20.8453 23.5398C19.7994 23.2981 18.7926 23.255 17.7583 23.4698C18.0121 25.6928 18.2627 27.8882 18.5132 30.0836ZM19.5691 39.3264C19.7031 39.3264 19.8001 39.3264 19.8964 39.3264C20.5112 39.3251 21.1268 39.3493 21.7396 39.315C22.5443 39.2705 23.1322 38.589 23.1127 37.7782C23.0939 36.9761 22.4649 36.3499 21.6453 36.3344C21.0311 36.3229 20.4163 36.331 19.8014 36.3303C19.6189 36.3303 19.4364 36.3303 19.2263 36.3303C19.3422 37.3425 19.454 38.3169 19.5691 39.3264ZM33.0855 19.8151C33.101 19.7781 33.1138 19.7606 33.1138 19.7437C33.1165 19.4804 33.1206 19.2178 33.1185 18.9545C33.1158 18.5086 32.9488 18.3362 32.499 18.3336C31.7582 18.3288 31.0174 18.3322 30.2767 18.3322C29.7406 18.3322 29.2046 18.3309 28.6685 18.3342C28.3944 18.3356 28.1708 18.4501 28.1439 18.7363C28.1116 19.0898 28.1358 19.4481 28.1358 19.8151H33.0855ZM29.6174 26.8477C29.6174 27.3622 29.6073 27.8384 29.6207 28.3138C29.6295 28.6195 29.8133 28.8108 30.1137 28.8256C30.4538 28.8424 30.7952 28.8404 31.1353 28.8249C31.369 28.8142 31.5771 28.6869 31.5899 28.4471C31.6175 27.9178 31.5986 27.3858 31.5986 26.8477H29.6174Z" fill="white"/>
<path d="M29.3487 33.3268C29.2901 33.3268 29.2315 33.3295 29.1736 33.3268C28.8322 33.3073 28.6106 33.1012 28.62 32.8123C28.6295 32.5315 28.8402 32.3423 29.1729 32.3281C29.3379 32.3214 29.5049 32.3194 29.6686 32.3382C29.9373 32.3692 30.1204 32.5766 30.1204 32.8265C30.1204 33.0763 29.9386 33.279 29.6692 33.3167C29.5635 33.3315 29.4558 33.3282 29.3487 33.3329C29.3487 33.3309 29.3487 33.3288 29.3487 33.3268Z" fill="white"/>
<path d="M36.8534 33.3214C36.3611 33.3275 36.1119 33.1551 36.1187 32.8184C36.1247 32.4897 36.3638 32.3261 36.8399 32.3254C36.9376 32.3254 37.0352 32.3221 37.1322 32.3322C37.4211 32.3618 37.615 32.5598 37.6191 32.8204C37.6231 33.0803 37.4312 33.2878 37.1457 33.3201C37.0494 33.3309 36.9504 33.3214 36.8534 33.3214Z" fill="white"/>
<path d="M31.8828 32.3288C31.9609 32.3288 32.039 32.3227 32.1158 32.3295C32.4263 32.3578 32.6135 32.551 32.6101 32.8332C32.6067 33.1059 32.429 33.2945 32.1313 33.3194C31.9575 33.3342 31.7804 33.3342 31.6067 33.3194C31.3131 33.2952 31.1292 33.1005 31.1252 32.8332C31.1211 32.553 31.3104 32.3578 31.6202 32.3295C31.707 32.3214 31.7953 32.3288 31.8828 32.3288Z" fill="white"/>
<path d="M34.3718 32.3335C34.8829 32.3254 35.1092 32.4776 35.1126 32.8217C35.1159 33.1699 34.8883 33.3282 34.3819 33.3282C34.2849 33.3282 34.1866 33.3309 34.0903 33.3194C33.8014 33.2851 33.6229 33.0878 33.6277 32.8164C33.6324 32.5571 33.8048 32.3692 34.0809 32.3349C34.1765 32.3227 34.2748 32.3335 34.3718 32.3335Z" fill="white"/>
<path d="M37.6245 31.0627C37.6231 30.5664 37.7901 30.3213 38.1262 30.3274C38.4602 30.3327 38.6218 30.5779 38.6218 31.0769C38.6218 31.1644 38.6265 31.2527 38.6178 31.3395C38.5888 31.6318 38.3652 31.8379 38.0972 31.8251C37.8339 31.8123 37.6427 31.6116 37.6258 31.3254C37.6204 31.2378 37.6245 31.1503 37.6245 31.0627Z" fill="white"/>
<path d="M38.6198 28.5906C38.6198 28.6687 38.6252 28.7468 38.6191 28.8243C38.5942 29.1266 38.3929 29.3219 38.1127 29.3192C37.8285 29.3165 37.6386 29.1233 37.6251 28.8128C37.6184 28.6573 37.6184 28.501 37.6251 28.3455C37.6379 28.035 37.8258 27.8411 38.1093 27.837C38.3902 27.833 38.5929 28.0256 38.6185 28.3279C38.6259 28.4148 38.6198 28.503 38.6198 28.5906Z" fill="white"/>
<path d="M37.6245 22.5836C37.6245 22.496 37.6198 22.4078 37.6251 22.3209C37.644 22.0394 37.8447 21.8367 38.106 21.8293C38.3632 21.8226 38.5868 22.0199 38.6137 22.2974C38.6299 22.4617 38.6252 22.6287 38.6185 22.7937C38.6043 23.1095 38.3922 23.3311 38.1154 23.3297C37.8339 23.3284 37.6352 23.1102 37.6231 22.789C37.6204 22.721 37.6231 22.6523 37.6231 22.5842C37.6231 22.5842 37.6238 22.5836 37.6245 22.5836Z" fill="white"/>
<path d="M29.3588 24.82C28.8604 24.8268 28.6167 24.6604 28.62 24.3244C28.6234 23.989 28.8685 23.8247 29.3669 23.8254C29.4739 23.8254 29.5824 23.8227 29.6874 23.8402C29.9514 23.884 30.1312 24.1001 30.1204 24.3466C30.1097 24.5992 29.9245 24.7897 29.651 24.8187C29.5547 24.8288 29.4558 24.82 29.3588 24.82Z" fill="white"/>
<path d="M36.8574 24.82C36.3584 24.8268 36.1153 24.6611 36.118 24.3244C36.1214 23.989 36.3658 23.824 36.8642 23.8254C36.9712 23.8254 37.0797 23.8227 37.1847 23.8402C37.4487 23.884 37.6285 24.1001 37.6184 24.3466C37.6076 24.5992 37.4224 24.7897 37.149 24.8187C37.0527 24.8288 36.9544 24.82 36.8574 24.82Z" fill="white"/>
<path d="M26.861 24.8268C26.8415 24.8268 26.822 24.8268 26.8024 24.8268C26.3533 24.8234 26.1277 24.6551 26.1297 24.3251C26.1317 23.9951 26.3593 23.8274 26.8085 23.8254C26.9156 23.8254 27.0233 23.82 27.129 23.8308C27.4334 23.8624 27.6233 24.0678 27.6139 24.3459C27.6052 24.6146 27.42 24.7965 27.123 24.8214C27.0361 24.8288 26.9479 24.8227 26.8603 24.8227C26.8603 24.8241 26.861 24.8254 26.861 24.8268Z" fill="white"/>
<path d="M31.8552 24.82C31.3508 24.8261 31.1218 24.6672 31.1259 24.3217C31.1299 23.9796 31.3616 23.8247 31.868 23.8254C31.965 23.8254 32.0633 23.8213 32.1589 23.8348C32.4444 23.8739 32.6202 24.0786 32.6101 24.3493C32.6007 24.6093 32.4249 24.7904 32.1461 24.8187C32.0498 24.8281 31.9528 24.82 31.8552 24.82Z" fill="white"/>
<path d="M34.3711 24.8187C34.2742 24.8187 34.1758 24.8274 34.0795 24.8167C33.8041 24.7857 33.6317 24.5978 33.6277 24.3365C33.6236 24.0752 33.7886 23.8732 34.062 23.8395C34.2438 23.8173 34.4317 23.818 34.6149 23.8308C34.9247 23.853 35.1146 24.0543 35.1119 24.3331C35.1092 24.6133 34.9173 24.7992 34.6035 24.8227C34.526 24.8281 34.4479 24.8234 34.3705 24.8234C34.3705 24.8214 34.3711 24.8207 34.3711 24.8187Z" fill="white"/>
</svg>
