<svg width="31" height="38" viewBox="0 0 31 38" fill="none" xmlns="http://www.w3.org/2000/svg">
<g clip-path="url(#clip0_195_1542)">
<path fill-rule="evenodd" clip-rule="evenodd" d="M24.2608 17.3242L24.2537 28.5001C24.2537 30.2728 23.5775 31.7845 21.544 31.7845H13.2148H9.6812C9.61501 31.7845 9.54991 31.7828 9.48535 31.7796L15.6859 36.4313L18.1445 37.5425H24.2537C27.5465 37.5425 30.411 35.1638 30.411 31.7964V23.6574H30.4389V17.3237H24.2602L24.2608 17.3242Z" fill="url(#paint0_linear_195_1542)"/>
<path fill-rule="evenodd" clip-rule="evenodd" d="M0.5 5.38708H6.56434V26.747L3.32018 26.6455C1.84909 26.5994 0.6778 25.409 0.667405 23.9488L0.5 5.38708Z" fill="url(#paint1_linear_195_1542)"/>
<path fill-rule="evenodd" clip-rule="evenodd" d="M18.2001 37.5436C17.0737 37.5436 16.0189 36.9142 15.5402 36.5594C12.5253 34.3195 9.67884 32.0292 6.7673 29.8442L1.9224 26.2977C1.45082 25.9223 0.813477 25.4073 0.813477 24.8935C1.03176 25.1822 1.22816 25.2744 1.53233 25.2744L7.95829 25.276H11.011C11.0969 25.276 11.1828 25.2777 11.267 25.282C11.5668 25.2907 11.8595 25.3194 12.1445 25.3672C12.7031 25.4594 13.2332 25.6238 13.7321 25.8577C13.7918 25.8854 13.8497 25.9141 13.9083 25.9445C14.4236 26.2088 14.9078 26.549 15.3564 26.9678C15.8132 27.3938 16.1841 27.8528 16.4681 28.3433C16.5857 28.5484 16.6891 28.759 16.7782 28.9755C17.0387 29.6092 17.1683 30.2918 17.1683 31.0221V36.5241C17.1683 36.924 17.7783 37.4319 18.2001 37.5447V37.5436Z" fill="url(#paint2_linear_195_1542)"/>
<path fill-rule="evenodd" clip-rule="evenodd" d="M23.0259 22.8186C23.01 21.9879 22.7901 21.0486 22.3628 19.9976C22.1878 19.5744 21.9602 19.1126 21.6757 18.6113C21.0756 17.5462 20.2216 16.4653 19.1154 15.3687C18.785 15.0247 18.0978 14.4213 17.0546 13.5586C16.1705 12.8391 15.5074 12.2119 15.0643 11.6785C14.2814 10.7458 13.7612 9.82227 13.5035 8.90962C13.3509 8.23463 13.3115 7.56669 13.3115 7.56669C13.3115 6.70559 13.4849 5.98448 13.8328 5.40498C14.2579 4.68387 14.8827 4.32412 15.7044 4.32412C16.4779 4.32412 17.0704 4.56775 17.4813 5.05175C17.8779 5.52272 18.1668 6.12284 18.3478 6.85209L22.1391 4.32412C22.0461 4.106 21.9416 3.89439 21.8294 3.68874C21.284 2.70176 20.5695 1.93452 19.6849 1.38704C18.5481 0.681662 17.182 0.32843 15.5868 0.32843C13.9915 0.32843 12.539 0.745688 11.4169 1.57478C9.6001 2.95515 8.69141 4.98609 8.69141 7.66707C8.69141 8.18363 8.73134 8.68662 8.81122 9.17713C8.91024 10.1858 9.28553 11.0523 9.58205 11.6015C9.61596 11.6704 9.65043 11.7393 9.68654 11.8076C10.3031 12.9362 11.3524 14.2146 12.8388 15.6411C14.6075 17.3031 15.933 18.5494 16.8193 19.3807C17.9397 20.5891 18.5016 21.8034 18.5016 23.0264C18.5016 23.8734 18.3506 24.5245 18.0508 24.9798C17.6301 25.645 17.1071 26.0796 16.4812 26.2804C16.9211 26.7248 17.2903 27.2055 17.5825 27.7101C17.7286 27.9646 17.8588 28.2288 17.9676 28.4963C18.1843 29.0199 18.3287 29.5756 18.3976 30.1534C19.6947 29.7443 20.7008 29.0536 21.4153 28.0823C22.5209 26.6255 23.0587 24.8712 23.027 22.8197L23.0259 22.8186Z" fill="url(#paint3_linear_195_1542)"/>
<path fill-rule="evenodd" clip-rule="evenodd" d="M8.21777 22.1599C8.25771 22.8045 8.33485 23.4176 8.45192 24.0014H11.0106C11.1151 24.0014 11.2174 24.0047 11.3186 24.0096C11.6687 24.0193 12.0183 24.0541 12.3586 24.1116C12.5878 24.1496 12.8159 24.1973 13.0392 24.2565C12.7711 23.5988 12.5867 22.7985 12.4822 21.8544L8.21777 22.1599Z" fill="url(#paint4_linear_195_1542)"/>
<path d="M30.3242 12.5125C30.3357 12.1414 30.5808 11.7301 30.4736 11.3665C30.3702 11.0155 29.944 10.7995 29.7246 10.481C29.5058 10.1625 29.4582 9.68989 29.1666 9.46634C28.8641 9.23465 28.3887 9.31116 28.0364 9.18636C27.6808 9.06048 27.3613 8.70345 26.9832 8.69206C26.609 8.68066 26.2693 9.01653 25.9022 9.12288C25.5483 9.22543 25.0789 9.12071 24.7577 9.33775C24.4366 9.55479 24.3644 10.0268 24.1384 10.3166C23.9048 10.6167 23.4655 10.8082 23.3397 11.1576C23.2128 11.5103 23.4311 11.9357 23.4196 12.3106C23.4081 12.6818 23.163 13.0931 23.2702 13.4566C23.3736 13.8077 23.7998 14.0236 24.0192 14.3421C24.238 14.6606 24.2856 15.1332 24.5778 15.3568C24.8803 15.5885 25.3557 15.512 25.708 15.6368C26.0642 15.7627 26.3836 16.1197 26.7611 16.1311C27.1353 16.1425 27.4751 15.8066 27.8422 15.7003C28.1961 15.5977 28.6655 15.7024 28.9866 15.4854C29.3078 15.2683 29.38 14.7957 29.6059 14.5065C29.8395 14.2065 30.2788 14.0149 30.4047 13.6655C30.5316 13.3123 30.3133 12.8874 30.3248 12.5125H30.3242Z" fill="url(#paint5_linear_195_1542)"/>
<path d="M24.9517 15.8777C24.659 15.8375 24.3417 15.8343 24.1185 15.6634C23.8269 15.4398 23.7793 14.9672 23.5599 14.6487C23.3411 14.3302 22.9149 14.1142 22.811 13.7632C22.7437 13.5348 22.8154 13.2879 22.8805 13.0437L20.0898 14.9325L22.3011 15.5239L22.0779 17.8224L24.9512 15.8782L24.9517 15.8777Z" fill="url(#paint6_linear_195_1542)"/>
</g>
<defs>
<linearGradient id="paint0_linear_195_1542" x1="29.2156" y1="16.6237" x2="17.3331" y2="37.3753" gradientUnits="userSpaceOnUse">
<stop offset="0.08" stop-color="#0048AA"/>
<stop offset="0.91" stop-color="#00216A"/>
</linearGradient>
<linearGradient id="paint1_linear_195_1542" x1="-0.549838" y1="25.7508" x2="5.80992" y2="10.4123" gradientUnits="userSpaceOnUse">
<stop stop-color="#C29C00"/>
<stop offset="0.84" stop-color="#FFDC2A"/>
</linearGradient>
<linearGradient id="paint2_linear_195_1542" x1="12.5072" y1="26.0644" x2="8.50856" y2="33.0474" gradientUnits="userSpaceOnUse">
<stop offset="0.38" stop-color="#C6A000"/>
<stop offset="0.59" stop-color="#B08A00"/>
<stop offset="0.81" stop-color="#A37D00"/>
<stop offset="1" stop-color="#9F7900"/>
</linearGradient>
<linearGradient id="paint3_linear_195_1542" x1="26.5332" y1="23.0953" x2="8.23414" y2="4.64526" gradientUnits="userSpaceOnUse">
<stop stop-color="#C29C00"/>
<stop offset="0.19" stop-color="#C9A304"/>
<stop offset="0.47" stop-color="#DCB812"/>
<stop offset="0.82" stop-color="#FCD928"/>
<stop offset="0.84" stop-color="#FFDC2A"/>
</linearGradient>
<linearGradient id="paint4_linear_195_1542" x1="12.4231" y1="24.8674" x2="8.98427" y2="21.4002" gradientUnits="userSpaceOnUse">
<stop stop-color="#C29C00"/>
<stop offset="0.19" stop-color="#C9A304"/>
<stop offset="0.47" stop-color="#DCB812"/>
<stop offset="0.82" stop-color="#FCD928"/>
<stop offset="0.84" stop-color="#FFDC2A"/>
</linearGradient>
<linearGradient id="paint5_linear_195_1542" x1="28.7339" y1="9.21241" x2="25.0551" y2="15.6369" gradientUnits="userSpaceOnUse">
<stop offset="0.08" stop-color="#0048AA"/>
<stop offset="0.91" stop-color="#00216A"/>
</linearGradient>
<linearGradient id="paint6_linear_195_1542" x1="20.0904" y1="15.4328" x2="24.9517" y2="15.4328" gradientUnits="userSpaceOnUse">
<stop stop-color="#C29C00"/>
<stop offset="0.19" stop-color="#C9A304"/>
<stop offset="0.47" stop-color="#DCB812"/>
<stop offset="0.82" stop-color="#FCD928"/>
<stop offset="0.84" stop-color="#FFDC2A"/>
</linearGradient>
<clipPath id="clip0_195_1542">
<rect width="30" height="37.2152" fill="white" transform="translate(0.5 0.32843)"/>
</clipPath>
</defs>
</svg>
