<svg width="201" height="201" viewBox="0 0 201 201" fill="none" xmlns="http://www.w3.org/2000/svg">
<path d="M166.519 129.297C165.848 130.361 164.853 130.607 163.652 130.594C159.703 130.548 155.754 130.575 151.599 130.575C151.599 131.091 151.599 131.543 151.599 131.995C151.599 135.346 151.59 138.697 151.599 142.048C151.608 144.477 150.837 146.595 149.152 148.362C148.244 149.321 147.162 149.449 146.308 148.714C145.445 147.969 145.354 146.865 146.244 145.865C147.381 144.591 147.723 143.144 147.723 141.482C147.705 113.857 147.71 86.2364 147.71 58.6113C147.71 54.6668 145.829 52.7996 141.852 52.7996C117.021 52.7996 92.1901 52.7996 67.359 52.7996C66.8888 52.7996 66.414 52.8133 65.9438 52.7813C64.7933 52.6992 64.0263 51.9733 63.9761 50.9598C63.9304 49.9873 64.6837 49.0743 65.7931 48.9784C66.9892 48.8734 68.1945 48.9327 69.3997 48.919C69.6554 48.919 69.9111 48.8962 70.3813 48.8734C70.3813 48.4214 70.3813 47.9694 70.3813 47.522C70.3813 44.171 70.3813 40.8201 70.3813 37.4691C70.3813 37.1267 70.363 36.7797 70.395 36.4373C70.5091 35.2457 71.3218 34.4377 72.3718 34.4605C73.4218 34.4833 74.239 35.3051 74.2482 36.5103C74.2801 40.117 74.2619 43.7282 74.2664 47.3349C74.2664 47.8005 74.2664 48.2662 74.2664 48.8232H84.5157C84.5157 48.3575 84.5157 47.901 84.5157 47.4444C84.5157 43.92 84.5066 40.4 84.5203 36.8756C84.5248 35.3644 85.2507 34.4696 86.424 34.4605C87.5973 34.4514 88.3826 35.3599 88.3871 36.8482C88.4054 40.7972 88.3963 44.7463 88.3963 48.8095H98.5862C98.5862 47.9238 98.5862 47.0381 98.5862 46.1524C98.5862 43.2306 98.5816 40.3087 98.5908 37.3869C98.5908 36.8756 98.4949 36.2182 98.7597 35.8849C99.2162 35.3051 99.9239 34.5655 100.526 34.5655C101.134 34.5655 101.864 35.2868 102.302 35.8712C102.585 36.2501 102.476 36.9486 102.476 37.501C102.49 41.2355 102.48 44.97 102.48 48.814H112.67C112.67 47.7503 112.67 46.6911 112.67 45.632C112.67 42.7101 112.657 39.7883 112.68 36.8664C112.689 35.369 113.456 34.4651 114.629 34.4605C115.802 34.4605 116.542 35.3553 116.546 36.8619C116.56 40.8064 116.546 44.7554 116.546 48.8095H126.796C126.796 48.3895 126.796 47.9375 126.796 47.4809C126.796 43.9565 126.787 40.4366 126.796 36.9121C126.8 35.3873 127.503 34.4925 128.667 34.4605C129.882 34.424 130.663 35.3599 130.667 36.9349C130.681 40.4137 130.667 43.8926 130.667 47.3759C130.667 47.837 130.667 48.3027 130.667 48.919C131.407 48.919 132.037 48.9145 132.662 48.919C136.397 48.9647 140.145 48.8277 143.861 49.1108C148.198 49.4395 151.412 53.0142 151.54 57.3878C151.65 61.1634 151.577 64.9481 151.586 68.7282C151.586 69.1893 151.586 69.655 151.586 70.2759C153.403 70.2759 155.106 70.2759 156.808 70.2759C159.087 70.2759 161.365 70.317 163.638 70.2576C164.843 70.2257 165.834 70.4904 166.505 71.5542V72.8416C165.889 73.8643 164.985 74.2158 163.798 74.1747C161.826 74.1062 159.849 74.1564 157.872 74.1564C155.822 74.1564 153.772 74.1564 151.659 74.1564V84.4057C152.193 84.4057 152.654 84.4057 153.115 84.4057C156.681 84.4057 160.246 84.4377 163.807 84.3874C164.99 84.3692 165.903 84.6796 166.501 85.7297V87.0171C165.807 88.0397 164.825 88.3319 163.625 88.3C161.524 88.2406 159.424 88.2817 157.32 88.2817C155.448 88.2817 153.576 88.2817 151.686 88.2817V98.4716C152.261 98.4716 152.727 98.4716 153.193 98.4716C156.708 98.4716 160.223 98.4899 163.743 98.4625C164.944 98.4534 165.944 98.7273 166.501 99.9052V100.937C165.944 102.115 164.944 102.389 163.743 102.38C160.182 102.352 156.626 102.37 153.065 102.375C152.608 102.375 152.152 102.416 151.686 102.439V112.56C155.736 112.56 159.68 112.588 163.62 112.542C164.821 112.528 165.802 112.802 166.496 113.825V115.112C165.898 116.162 164.985 116.473 163.803 116.455C160.196 116.404 156.589 116.432 152.983 116.441C152.531 116.441 152.083 116.482 151.65 116.5V126.686H153.101C156.667 126.686 160.232 126.722 163.793 126.667C164.98 126.649 165.88 126.978 166.501 128V129.288L166.519 129.297Z" fill="white"/>
<path d="M71.6596 166.418C70.5959 165.747 70.3493 164.756 70.363 163.551C70.4087 159.479 70.3813 155.406 70.3813 151.133C69.8061 151.133 69.313 151.133 68.8199 151.133C64.9165 151.092 60.9994 151.211 57.1052 150.955C53.9094 150.745 51.6541 148.837 50.2663 145.965C49.6956 144.778 50.0289 143.728 51.0515 143.208C52.0148 142.719 53.0557 142.993 53.6401 144.139C54.8864 146.577 56.9271 147.257 59.4883 147.257C85.9401 147.23 112.387 147.239 138.839 147.244C139.437 147.244 140.044 147.244 140.638 147.326C141.642 147.472 142.263 148.216 142.126 149.106C142.021 149.777 141.4 150.471 140.825 150.923C140.455 151.211 139.757 151.12 139.2 151.124C136.415 151.142 133.63 151.133 130.681 151.133V154.79C130.681 157.712 130.644 160.629 130.699 163.551C130.722 164.752 130.466 165.747 129.402 166.418H128.115C127.097 165.802 126.755 164.902 126.782 163.715C126.846 161.232 126.8 158.744 126.8 156.256C126.8 154.594 126.8 152.937 126.8 151.211H116.551C116.551 151.745 116.551 152.206 116.551 152.667C116.551 156.356 116.519 160.045 116.569 163.729C116.587 164.912 116.272 165.82 115.227 166.418H113.94C112.917 165.724 112.634 164.743 112.657 163.542C112.711 160.972 112.675 158.401 112.675 155.831C112.675 154.302 112.675 152.772 112.675 151.234H102.485C102.485 151.804 102.485 152.27 102.485 152.736C102.485 156.379 102.467 160.017 102.494 163.661C102.503 164.866 102.216 165.857 101.051 166.418H100.02C98.8556 165.857 98.5679 164.866 98.5771 163.661C98.6045 159.976 98.5908 156.292 98.5862 152.608C98.5862 152.151 98.5497 151.699 98.5268 151.238H88.4008C88.4008 155.411 88.3734 159.474 88.4191 163.542C88.4328 164.743 88.1589 165.72 87.1362 166.418H85.8488C84.8033 165.82 84.4746 164.912 84.5066 163.729C84.5659 161.328 84.5248 158.926 84.5248 156.525C84.5248 154.776 84.5248 153.032 84.5248 151.211H74.2756C74.2756 151.736 74.2756 152.197 74.2756 152.654C74.2756 156.342 74.2436 160.031 74.2938 163.715C74.3121 164.898 73.9834 165.797 72.9607 166.418H71.6596Z" fill="white"/>
<path d="M133.059 100.042C133.059 108.547 133.064 117.048 133.059 125.553C133.059 130.155 130.594 132.602 125.96 132.607C108.995 132.607 92.0349 132.57 75.0699 132.634C70.8287 132.653 67.9343 129.877 67.9616 125.521C68.0666 108.515 68.0027 91.5094 68.0073 74.5034C68.0073 69.8924 70.468 67.459 75.1065 67.459C92.0714 67.459 109.032 67.5047 125.997 67.4225C129.959 67.4042 133.187 69.9563 133.105 74.5399C132.959 83.0407 133.064 91.546 133.064 100.051L133.059 100.042ZM71.8833 83.2187V84.6431C71.8833 98.2616 71.8833 111.88 71.8833 125.499C71.8833 125.928 71.7646 126.462 71.97 126.763C72.4174 127.425 73.011 128.439 73.5999 128.48C76.3117 128.662 79.0418 128.562 81.8952 128.562C81.8952 126.334 81.8495 124.152 81.9134 121.97C81.9408 120.974 81.6852 120.39 80.7721 119.819C77.1061 117.523 76.2295 112.556 78.7679 109.1C81.3747 105.553 86.351 104.904 89.6883 107.717C92.0349 109.693 92.916 112.264 92.2358 115.222C91.5692 118.13 89.6883 120.007 86.7893 120.837C86.4286 120.942 85.8442 121.235 85.8397 121.454C85.7712 123.837 85.7986 126.225 85.7986 128.631H98.6912V102.553C96.3492 102.553 94.0847 102.562 91.8157 102.553C89.7157 102.544 89.1541 101.982 89.1496 99.8732C89.1404 96.4355 89.1678 92.9977 89.1222 89.5646C89.1176 89.1446 88.8665 88.478 88.5561 88.3456C86.4103 87.4417 84.9951 85.8758 84.0226 83.8122C83.8948 83.5429 83.4657 83.2552 83.1735 83.2507C79.4847 83.2141 75.7958 83.2278 71.8833 83.2278V83.2187ZM71.897 79.3336C75.5356 79.3336 79.0099 79.2971 82.4795 79.3564C83.3744 79.3701 83.7031 79.0688 83.9952 78.247C85.0042 75.3891 87.0632 73.6177 90.0398 73.0836C93.0621 72.5403 95.6552 73.4853 97.6138 75.8685C101.184 80.2101 99.303 86.5606 93.9478 88.4735C93.5871 88.6013 93.0712 89.003 93.0666 89.2861C93.0027 92.3632 93.0256 95.4448 93.0256 98.4625C93.2264 98.5584 93.2995 98.6269 93.3725 98.6269C97.7918 98.6406 102.216 98.6679 106.635 98.6269C106.941 98.6269 107.324 98.1749 107.534 97.8416C108.265 96.6911 108.721 95.2804 109.675 94.3856C110.981 93.1575 112.648 92.3084 114.309 91.1944V71.4081C113.867 71.3807 113.492 71.335 113.118 71.335C100.412 71.335 87.7069 71.335 75.0015 71.335C74.618 71.335 74.2253 71.3487 73.851 71.4218C72.6366 71.6501 71.9381 72.4033 71.9061 73.6314C71.8559 75.4667 71.8924 77.3066 71.8924 79.3244L71.897 79.3336ZM118.272 71.3624C118.272 71.9696 118.272 72.3988 118.272 72.8234C118.272 78.6625 118.295 84.5016 118.249 90.3407C118.24 91.3086 118.496 91.7194 119.459 92.0482C123.591 93.468 125.969 97.6133 125.339 102.051C124.741 106.242 121.221 109.456 116.916 109.739C112.725 110.013 109.055 107.57 107.626 103.621C107.48 103.215 107.082 102.631 106.758 102.599C105.453 102.48 104.124 102.549 102.732 102.549V116.313H129.179C129.179 115.752 129.179 115.286 129.179 114.816C129.179 107.301 129.179 99.7865 129.179 92.2719C129.179 86.2593 129.183 80.2512 129.179 74.2386C129.179 72.4216 128.494 71.44 126.919 71.3853C124.098 71.2848 121.272 71.3579 118.277 71.3579L118.272 71.3624ZM129.156 120.363H102.75V128.631C103.051 128.667 103.257 128.708 103.462 128.708C111.1 128.708 118.738 128.713 126.376 128.708C126.672 128.708 126.974 128.653 127.266 128.599C128.439 128.379 129.101 127.631 129.138 126.476C129.197 124.467 129.156 122.458 129.156 120.363ZM116.35 105.9C119.231 105.886 121.605 103.526 121.623 100.654C121.641 97.7686 119.149 95.2896 116.268 95.3215C113.387 95.3535 111.05 97.7183 111.041 100.608C111.031 103.589 113.364 105.913 116.35 105.9ZM91.4322 84.9718C93.6784 84.9901 95.5365 83.1776 95.5776 80.9315C95.6187 78.7401 93.7286 76.8226 91.5053 76.7952C89.282 76.7678 87.4056 78.6214 87.3873 80.8584C87.3691 83.1046 89.1861 84.9536 91.4322 84.9718ZM84.9403 109.839C82.9315 109.812 81.2104 111.483 81.2058 113.469C81.2012 115.5 82.8311 117.167 84.8444 117.19C86.8714 117.213 88.5104 115.619 88.5789 113.565C88.6428 111.597 86.9536 109.867 84.9403 109.839Z" fill="white"/>
<path d="M49.4125 98.4808V88.3548C48.9423 88.3319 48.4949 88.2954 48.0429 88.2954C44.523 88.2908 40.9985 88.2954 37.4786 88.2954C37.1362 88.2954 36.7893 88.3137 36.4514 88.268C35.3329 88.1219 34.5659 87.3184 34.5659 86.3323C34.5659 85.2823 35.3831 84.4422 36.5838 84.4331C40.3639 84.4011 44.1441 84.4148 47.9196 84.4148C48.3807 84.4148 48.8464 84.4148 49.3851 84.4148V74.1656C47.4585 74.1656 45.5822 74.1656 43.7058 74.1656C41.4733 74.1656 39.2409 74.1747 37.0084 74.1656C35.4927 74.1564 34.5933 73.4488 34.5705 72.2801C34.5431 71.0657 35.479 70.2987 37.0586 70.2896C41.1355 70.2759 45.2078 70.2896 49.4719 70.2896C49.4719 69.7554 49.4719 69.3034 49.4719 68.8515C49.4719 65.1992 49.4308 61.5514 49.4856 57.8991C49.5541 53.0461 52.7909 49.5399 57.5937 49.0103C58.9268 48.8643 59.9175 49.5445 60.0499 50.6904C60.1731 51.7724 59.4518 52.5668 58.1278 52.8179C54.7038 53.4616 53.357 55.0777 53.357 58.5565C53.357 84.2824 53.357 110.008 53.357 135.73C53.357 136.159 53.3753 136.588 53.3479 137.017C53.2657 138.332 52.5124 139.126 51.3848 139.122C50.2571 139.117 49.5038 138.309 49.4856 136.985C49.4582 134.926 49.4764 132.867 49.4764 130.653C48.9697 130.63 48.5177 130.594 48.0703 130.594C44.5915 130.589 41.1127 130.594 37.6339 130.594C37.2915 130.594 36.9445 130.612 36.6021 130.584C35.3923 130.484 34.5796 129.708 34.5659 128.662C34.5522 127.567 35.4059 126.736 36.6934 126.727C40.4279 126.699 44.1669 126.713 47.9014 126.713C48.3671 126.713 48.8282 126.713 49.3806 126.713V116.464C48.8921 116.464 48.4355 116.464 47.979 116.464C44.3267 116.464 40.679 116.473 37.0267 116.464C35.4881 116.459 34.607 115.774 34.5659 114.606C34.5248 113.391 35.4607 112.597 37.0312 112.592C41.1081 112.579 45.185 112.588 49.3623 112.588V102.398H47.9425C44.5047 102.398 41.0716 102.398 37.6339 102.398C37.1636 102.398 36.6888 102.38 36.2232 102.316C35.1777 102.165 34.5979 101.494 34.5796 100.485C34.5614 99.476 35.1229 98.7821 36.1638 98.6086C36.6249 98.531 37.1043 98.5127 37.5745 98.5127C41.0122 98.5036 44.4454 98.5127 47.8831 98.5127C48.3488 98.5127 48.8145 98.5127 49.408 98.5127L49.4125 98.4808Z" fill="white"/>
<path d="M57.338 48.9693H67.6558L67.4001 52.8087L57.7626 52.8818L57.338 48.9693Z" fill="white"/>
<path d="M49.3988 135.081L50.0106 145.052L53.5761 143.979C53.5761 143.979 53.462 140.414 53.2292 135.081C53.0009 129.749 49.3943 135.081 49.3943 135.081H49.3988Z" fill="white"/>
<path d="M134.283 147.239L135.146 151.037C135.146 151.037 146.422 152.074 149.184 148.102C151.946 144.13 147.171 144.477 147.171 144.477C147.171 144.477 146.08 147.814 134.283 147.239Z" fill="white"/>
<path d="M100.143 200.042C73.4311 200.042 48.3215 189.642 29.4345 170.751C10.5476 151.859 0.143066 126.754 0.143066 100.042C0.143066 73.3301 10.543 48.2205 29.4345 29.3336C48.3261 10.4466 73.4311 0.0421143 100.143 0.0421143C126.855 0.0421143 151.965 10.442 170.852 29.3336C189.739 48.2251 200.143 73.3347 200.143 100.042C200.143 126.75 189.743 151.864 170.852 170.751C151.96 189.638 126.851 200.042 100.143 200.042ZM100.143 4.60749C47.518 4.60749 4.70844 47.417 4.70844 100.042C4.70844 152.667 47.518 195.477 100.143 195.477C152.768 195.477 195.578 152.663 195.578 100.042C195.578 47.4216 152.764 4.60749 100.143 4.60749Z" fill="white"/>
</svg>
