<svg width="51" height="51" viewBox="0 0 51 51" fill="none" xmlns="http://www.w3.org/2000/svg">
<path d="M3.99902 18.2207C4.37692 17.1388 5.15287 16.7312 6.27466 16.7749C7.12383 16.808 7.96863 16.794 8.69903 17.3012C9.03961 17.5378 9.34025 17.832 9.68399 18.1211C9.73847 18.0197 9.80627 17.9044 9.86391 17.7845C10.7015 16.0403 11.5246 14.2889 12.3785 12.5528C13.0506 11.1858 14.1799 10.5242 15.6983 10.5235C18.0992 10.5222 20.5003 10.5229 22.9012 10.5229C25.6252 10.5229 28.3491 10.5396 31.0729 10.5168C32.7793 10.5024 33.9607 11.2564 34.6697 12.7932C34.8575 13.2004 35.0791 13.5922 35.2622 14.0014C35.3582 14.216 35.4752 14.2887 35.7135 14.2504C37.4346 13.9737 39.0629 14.3078 40.6229 15.0371C42.1595 15.7556 43.6985 16.4701 45.2214 17.217C46.4818 17.8348 47.1369 18.8683 47.142 20.2815C47.1502 22.5845 47.1041 24.8886 47.1532 27.1905C47.2343 30.9987 45.7714 34.1181 43.0495 36.7022C41.3512 38.3146 39.394 39.5347 37.2444 40.4447C37.0161 40.5412 36.6759 40.5403 36.4472 40.4434C33.5954 39.2354 31.14 37.4856 29.1869 35.0578C29.0646 34.9059 28.8395 34.7438 28.6617 34.7431C24.3371 34.7258 20.0125 34.7298 15.688 34.7307C15.6326 34.7307 15.5771 34.7395 15.4594 34.7493C15.4594 35.1073 15.4611 35.4661 15.459 35.825C15.4501 37.3367 14.4301 38.3563 12.916 38.3635C12.1297 38.3672 11.3433 38.3719 10.5572 38.3621C9.16575 38.3448 8.13893 37.3255 8.12053 35.9385C8.10862 35.04 8.12876 34.1407 8.10862 33.2425C8.10441 33.0501 8.03293 32.827 7.91765 32.6746C6.96966 31.4224 6.47771 30.0266 6.49628 28.4488C6.51065 27.2273 6.51012 26.0053 6.49593 24.7836C6.48104 23.5013 6.74261 22.3043 7.56813 21.1704C7.09265 21.1704 6.68181 21.145 6.27536 21.1753C5.15375 21.2587 4.37973 20.8159 3.99902 19.7376V18.2207ZM26.6332 21.4008C26.5178 21.3882 26.4226 21.3688 26.3275 21.3688C20.6408 21.3674 14.9543 21.3656 9.26754 21.3765C9.1132 21.3768 8.91312 21.4741 8.81203 21.5925C8.11668 22.4087 7.7188 23.353 7.71057 24.4354C7.69988 25.8117 7.69498 27.1881 7.71565 28.5641C7.72196 28.9808 7.78293 29.4057 7.88454 29.8105C8.33655 31.6108 9.90193 33.4284 12.4216 33.3986C17.4757 33.339 22.531 33.3809 27.586 33.3809H28.0653C27.8006 32.7592 27.5418 32.2006 27.3272 31.6257C27.2266 31.3565 27.0944 31.2747 26.8093 31.277C24.9559 31.2913 23.1025 31.2845 21.2491 31.2843C20.5891 31.2843 19.9291 31.2922 19.2694 31.2808C18.8033 31.2728 18.5467 30.9992 18.5715 30.5726C18.5956 30.159 18.8771 29.9374 19.3999 29.9368C21.7447 29.9347 24.0895 29.936 26.4346 29.936C26.5849 29.936 26.7352 29.936 26.8909 29.936C26.8256 29.4954 26.7666 29.0973 26.7019 28.6612C26.5323 28.6612 26.3809 28.6612 26.2296 28.6612C24.0111 28.6612 21.7925 28.6612 19.574 28.6608C19.4337 28.6608 19.2916 28.6686 19.1536 28.6489C18.766 28.5941 18.5481 28.3335 18.5726 27.954C18.597 27.5771 18.8117 27.3677 19.1807 27.32C19.3053 27.3039 19.4332 27.3128 19.5595 27.3128C21.764 27.3125 23.9685 27.3126 26.1728 27.3126H26.6331L26.6332 21.4008ZM26.6364 20.0674C26.7482 18.644 27.477 17.7128 28.7114 17.1428C29.4493 16.802 30.1834 16.4533 30.9184 16.1064C31.9769 15.6068 33.0346 15.1055 34.1141 14.5947C33.9332 14.2125 33.7508 13.8659 33.6015 13.5055C33.1183 12.3388 32.2576 11.8529 30.9948 11.8599C25.9985 11.8876 21.0019 11.8711 16.0054 11.8718C15.8231 11.8718 15.6403 11.8727 15.4585 11.8837C14.5646 11.9377 13.9311 12.3795 13.545 13.1822C12.6094 15.1272 11.6761 17.0734 10.7383 19.0172C10.5708 19.3645 10.3853 19.7032 10.197 20.0674H26.6364ZM28.0064 24.2716C28.0064 25.4514 28.0043 26.631 28.0069 27.8108C28.0106 29.4702 28.4057 31.0371 29.1757 32.5016C30.8332 35.6545 33.4745 37.6964 36.6869 39.0732C36.837 39.1375 37.0864 39.1042 37.2342 39.0196C38.4128 38.3453 39.6348 37.7274 40.7366 36.9424C43.9851 34.6275 45.7323 31.4222 45.9147 27.4472C46.0266 25.0088 45.9443 22.5607 45.9212 20.1171C45.9137 19.3267 45.4578 18.7717 44.7647 18.4385C43.0842 17.6303 41.4064 16.815 39.7038 16.0555C38.1172 15.3478 36.4387 15.1919 34.8258 15.8516C32.8175 16.673 30.8667 17.6385 28.9111 18.5834C28.3029 18.8772 28.0094 19.4514 28.0078 20.1425C28.0047 21.5189 28.0068 22.8954 28.0064 24.2716ZM14.111 34.6618C12.5146 34.6264 10.8816 34.8492 9.39474 33.9029C9.39474 34.641 9.37844 35.2727 9.39929 35.9031C9.42049 36.5475 9.84306 36.94 10.4764 36.9417C11.3047 36.944 12.1332 36.9485 12.9616 36.9393C13.6886 36.9312 14.0982 36.5114 14.1102 35.7786C14.1158 35.4278 14.111 35.0769 14.111 34.6618ZM7.19234 19.8955C7.61333 19.8955 8.03486 19.9077 8.45516 19.8918C8.83253 19.8776 8.9585 19.626 8.77822 19.2972C8.27067 18.3715 7.4709 18.0801 6.4516 18.1253C5.34436 18.1742 5.30301 18.1767 5.34751 19.2589C5.36416 19.6652 5.56528 19.8802 5.97139 19.8925C6.37802 19.9048 6.78535 19.8953 7.19234 19.8955Z" fill="white"/>
<path d="M13.2291 28.0018C12.4158 28.0018 11.6001 28.0428 10.7902 27.9909C9.8732 27.9322 9.47358 27.4527 9.46692 26.5348C9.46359 26.0717 9.45448 25.6079 9.47217 25.1453C9.50721 24.2318 10.3403 23.5477 11.2333 23.7265C12.456 23.9712 13.6772 24.2283 14.8884 24.5241C16.1046 24.8213 16.8769 26.0829 16.6458 27.3111C16.572 27.7025 16.2838 27.9706 15.7525 27.9941C14.9129 28.0311 14.0706 28.0039 13.2293 28.0039L13.2291 28.0018ZM15.3052 26.6662C15.2083 26.1751 14.9525 25.8339 14.5182 25.7272C13.3759 25.4468 12.2231 25.2075 11.0703 24.9735C10.9794 24.9551 10.7644 25.0994 10.7597 25.1772C10.7306 25.6597 10.745 26.1449 10.745 26.6662H15.3052Z" fill="white"/>
<path d="M29.8802 24.4267C29.88 23.233 29.8901 22.0394 29.8745 20.8461C29.8688 20.4063 30.0617 20.1331 30.4404 19.9531C31.8965 19.2615 33.3424 18.5473 34.8093 17.8795C36.1711 17.2594 37.5615 17.2622 38.9259 17.8809C40.3939 18.5466 41.8456 19.2482 43.3081 19.9261C43.6841 20.1005 43.8514 20.373 43.8502 20.787C43.8432 23.1179 43.8652 25.4491 43.8404 27.7798C43.8115 30.4974 42.6303 32.6926 40.6847 34.5204C39.6963 35.449 38.5843 36.2026 37.3893 36.8387C37.0879 36.9992 36.7873 37.0658 36.4674 36.8986C34.3174 35.7756 32.4519 34.3261 31.1596 32.2307C30.3071 30.8484 29.8933 29.3344 29.8817 27.7125C29.8738 26.6173 29.8803 25.522 29.8802 24.4267ZM42.5362 24.9084C42.546 24.9084 42.5558 24.9084 42.5656 24.9084C42.5656 23.7291 42.5751 22.5496 42.5542 21.3707C42.5514 21.2163 42.4313 20.9889 42.3011 20.9235C41.036 20.2889 39.766 19.6624 38.4795 19.0726C37.4616 18.606 36.4073 18.5806 35.3815 19.0528C34.0579 19.6622 32.7471 20.3001 31.442 20.9488C31.3276 21.0057 31.2379 21.2321 31.2371 21.3803C31.2243 23.5002 31.2202 25.6203 31.2318 27.7402C31.24 29.2538 31.677 30.6416 32.5346 31.8918C33.608 33.4568 35.0721 34.5726 36.7083 35.4814C36.8192 35.5431 37.0329 35.5138 37.1547 35.4469C38.3676 34.7792 39.4655 33.9562 40.3995 32.9295C41.6234 31.5842 42.4446 30.0422 42.5273 28.1925C42.5761 27.0999 42.5362 26.003 42.5362 24.9084Z" fill="white"/>
<path d="M36.2927 29.0562C37.3381 27.6969 38.3476 26.3843 39.3574 25.072C39.4601 24.9385 39.5549 24.7967 39.6712 24.6762C39.9258 24.4125 40.3504 24.3574 40.5913 24.5435C40.8724 24.7605 40.9382 25.2141 40.7026 25.5308C40.2166 26.1838 39.7127 26.8238 39.2171 27.4697C38.5335 28.3607 37.8513 29.2529 37.1676 30.144C36.6885 30.7683 36.3758 30.8126 35.7647 30.346C35.0173 29.7751 34.2638 29.2119 33.5251 28.6297C33.2608 28.4213 33.0693 28.1385 33.2408 27.7861C33.3918 27.476 33.6847 27.3524 34.0176 27.4167C34.1725 27.4467 34.3202 27.556 34.4521 27.6547C35.0571 28.1077 35.6555 28.5694 36.2927 29.0562Z" fill="white"/>
</svg>
