<svg width="21" height="20" viewBox="0 0 21 20" fill="none" xmlns="http://www.w3.org/2000/svg">
<path d="M3.78027 4.47656C3.59668 4.51953 3.71387 4.51172 3.56152 4.53125C2.90918 4.67188 3.39355 4.79688 3.78027 4.47656ZM15.2529 4.73828C15.2998 4.70703 15.4639 4.54688 14.9521 4.39062C14.9834 4.55078 14.8467 4.53516 14.8467 4.625C15.2256 4.96875 15.3818 5.56641 15.8662 5.69141C15.96 5.26172 15.4365 5.05078 15.2529 4.73828ZM3.43262 4.35156C3.49121 4.69922 3.75293 3.98438 3.75684 3.73047C3.65527 3.78906 3.55371 3.84766 3.44824 3.89453C3.69434 4.01953 3.47949 4.15234 3.21387 4.35156C2.6748 5.02344 3.71777 3.82812 3.43262 4.35156ZM10.1162 0C4.59277 0 0.116211 4.47656 0.116211 10C0.116211 15.5195 4.59277 20 10.1162 20C15.6396 20 20.1162 15.5195 20.1162 10C20.1162 4.47656 15.6396 0 10.1162 0ZM10.3818 3.35156L10.4287 3.36719C10.2412 3.60938 11.4053 4.31641 10.5693 4.375C9.78809 4.59766 10.8975 4.17188 10.292 4.24609C10.6123 3.80078 10.0381 3.79297 10.3818 3.35156ZM5.63965 3.99219C5.3584 3.75781 4.47559 4.3125 4.78418 4.17969C5.5498 3.87891 4.83496 4.21094 5.01465 4.57031C4.85059 4.91016 4.95996 4.23438 4.55371 4.63672C4.26074 4.70312 3.54199 5.36719 3.63184 5.16406C3.6084 5.48047 2.77637 5.85547 2.66309 6.38281C2.38965 7.11328 2.59668 6.35547 2.5459 6.07031C2.15527 5.57422 1.44434 6.91016 1.65527 7.4375C2.01074 6.8125 1.9834 7.37109 1.72559 7.64844C1.9873 8.12891 1.4873 8.75391 1.9834 9.10938C2.20215 9.16016 2.63965 8.375 2.44824 9.19141C2.58105 8.48438 2.81543 9.35938 3.19434 9.16406C3.21777 9.53516 3.44824 9.36328 3.49902 9.8125C4.13184 9.76562 4.70996 10.8359 3.95605 11.0391C4.06934 11.0078 4.29199 11.207 4.5498 11.0547C4.9873 11.4023 6.13965 11.4453 6.1709 12.3047C5.37793 12.6836 5.97559 13.7227 5.28809 14.0938C4.49902 13.9766 5.01855 15.0664 4.68652 14.9414C4.81934 15.7266 3.88965 14.8398 4.24902 15.2734C4.90918 15.6797 3.95996 15.5977 4.25684 15.8945C3.9248 15.8242 4.46387 16.5117 4.55371 16.7656C5.03027 17.5391 4.14355 16.5938 3.88184 16.3359C3.63184 15.8359 3.04199 14.8789 2.87793 14.0938C2.78418 12.9531 1.90137 12.1875 1.69824 11.0742C1.49512 10.4531 2.25684 9.45703 1.84668 9.10938C1.49121 8.83203 1.63574 7.88281 1.4248 7.38281C1.95215 5.09766 3.62793 3.17188 5.63965 2.03125C5.43262 2.18359 6.82324 1.63672 6.66309 1.76953C6.62012 1.86719 7.47559 1.39844 7.99121 1.32812C7.93652 1.33594 6.65137 1.79688 7.00684 1.73438C6.45605 2.00391 6.95215 1.85156 7.22559 1.71484C6.67871 2.11719 6.25684 2.00391 5.63574 2.35938C5.01074 2.52344 5.13965 3.17188 4.69434 3.49609C4.95605 3.54297 5.6123 2.82031 5.99512 2.56641C6.87402 2.14062 5.5498 3.33984 6.38574 2.82422C6.10449 3.08594 6.16309 3.50391 5.99121 3.62109C5.90527 3.59766 6.33105 3.82422 5.63965 3.99219ZM7.00684 2.19531C6.91699 2.31641 6.79199 2.57812 6.71777 2.41797C6.61621 2.46875 6.57715 2.6875 6.38574 2.51172C6.49902 2.42969 6.61621 2.23438 6.39355 2.35547C6.49512 2.24609 7.40137 1.9375 7.35059 1.82031C7.51074 1.71875 7.49512 1.66797 7.31152 1.73047C7.21777 1.69922 7.53418 1.43359 7.95605 1.39844C8.01465 1.39844 8.03809 1.4375 7.93262 1.42578C7.2959 1.62109 7.56934 1.56641 7.99902 1.42578C7.83496 1.51953 7.72168 1.54688 7.69434 1.58984C8.12402 1.43359 7.6709 1.70312 7.76855 1.68359C7.64746 1.74609 7.78809 1.76562 7.55371 1.85547C7.59668 1.82031 7.1709 2.10938 7.4248 2.02344C7.17871 2.25781 7.06934 2.26172 7.00684 2.19531ZM7.38184 2.75391C7.38965 2.37891 7.92871 2.14062 7.8623 2.12109C8.52637 1.80859 7.63184 2.13281 8.15527 1.85156C8.35059 1.83203 8.76465 1.20703 9.33887 1.16797C9.97168 0.976562 9.67871 1.17969 10.1475 1L10.0537 1.07812C9.97168 1.08984 10.0732 1.23438 9.77637 1.45312C9.74512 1.79297 9.20996 1.63672 9.47559 2C9.30371 1.75391 9.0459 1.99219 9.37012 2.01562C9.02246 2.28125 8.21387 2.32812 7.82715 2.76953C7.57715 3.12891 7.34668 3.01562 7.38184 2.75391ZM10.1592 4.00391C9.89355 4.64453 9.63574 3.91016 10.1045 3.79297C10.2217 3.85547 10.2686 3.875 10.1592 4.00391ZM9.15918 2.72266C9.08105 2.43359 9.14355 2.58594 9.6084 2.44922C9.92871 2.67969 9.32324 2.83203 9.15918 2.72266ZM16.4326 14.1875C16.0654 13.5547 16.8779 12.9688 17.1514 12.4375C17.1162 13.0586 17.0381 13.6719 16.4326 14.1875ZM17.8154 6.95703C17.417 6.98828 17.0576 7.08203 16.6982 6.85547C15.8701 5.94922 16.8506 7.87891 17.124 7.08984C18.1084 7.46484 17.1084 9.08203 16.4873 8.91406C16.1396 8.16406 15.71 7.33984 14.9521 6.97266C15.5342 7.61719 15.8232 8.41016 16.4482 8.99219C16.4912 9.80469 17.3154 8.69531 17.2646 9.32422C17.3428 10.4062 16.042 11.0547 16.2686 12.1406C16.7529 13.1289 15.335 13.3086 15.4951 14.1953C14.9248 14.832 14.3154 15.6914 13.292 15.5547C13.292 15.0156 13.0186 14.5586 12.9561 14.0039C12.4014 13.3008 13.542 12.5469 12.835 11.8125C12.0186 11.6289 13.0029 10.5039 12.1631 10.6094C11.6592 10.1055 10.9209 10.5938 10.1982 10.5977C9.29199 10.6836 8.3584 9.48438 8.76074 8.63672C8.44043 7.75391 9.77637 7.49609 9.81152 6.71875C10.4521 6.18359 11.3623 6.25 12.2295 6.125C12.167 6.74609 12.8232 6.75 13.3193 6.95703C13.5967 6.28516 14.46 7.06641 15.0498 6.64062C15.2529 5.64844 14.4756 6.24609 14.0303 5.92969C13.4912 5.14062 15.1826 5.52344 15.0068 5.10938C14.3506 5.10547 14.7217 4.30078 14.2568 4.75C14.6748 4.82422 14.1826 5.15234 14.1943 4.77734C13.5615 4.59375 14.1709 5.49609 13.8506 5.58203C13.3623 5.37891 13.5928 5.8125 13.6436 5.87891C13.4326 6.33594 13.1748 5.20703 12.5771 5.23828C11.9834 4.69531 12.3428 5.48438 12.8584 5.61328C12.749 5.64453 12.9209 6.09375 12.7842 5.90234C12.3584 5.31641 11.5498 4.92578 11.0693 5.64453C11.0186 6.31641 9.65137 6.50781 9.87012 5.72266C9.5498 4.91016 10.8623 5.69922 10.7412 5.05078C9.89746 4.49219 10.9717 4.67188 11.2568 4.14844C11.9053 4.16797 11.2842 3.61719 11.5889 3.45703C11.5576 4.05469 12.085 3.94141 12.5029 3.82812C12.4014 3.48438 12.7529 3.49609 12.5381 3.21094C13.5068 2.82422 11.7998 3.39062 12.1436 2.54297C11.7256 2.25391 11.9678 3.17969 12.1436 3.27734C12.1553 3.5625 11.9131 3.91406 11.5811 3.31641C11.0967 3.63281 11.1475 2.99609 11.1162 3.0625C11.0615 2.81641 11.4834 2.80469 11.4873 2.375C11.4521 2.10156 11.46 1.95703 11.6553 1.94141C11.6709 1.98047 12.4561 1.99219 12.7334 2.31641C11.9756 2.16406 12.6201 2.44141 12.96 2.59766C12.5967 2.3125 13.1045 2.59766 12.8076 2.27344C12.9248 2.29688 12.4834 1.82812 12.9365 2.23828C12.6904 1.94531 13.417 2.03125 12.9873 1.8125C13.6162 1.98828 13.2451 1.82812 12.874 1.66797C11.8506 1.05859 14.6826 2.49219 13.5264 1.85547C14.2646 2.01562 11.9482 1.28516 13.0029 1.60547C12.6006 1.42969 12.9912 1.52734 13.3545 1.64062C12.7021 1.4375 11.7256 1.05859 11.7646 1.04297C11.9912 1.05859 12.2139 1.10938 12.4287 1.17188C13.0967 1.37109 12.2373 1.125 12.4209 1.12891C14.7178 1.71875 16.7295 3.25781 17.9521 5.26953C18.2373 5.57031 19.0146 7.55859 18.6084 6.67578C18.792 7.37891 18.8193 8.13672 18.917 8.85547C18.7139 8.62891 18.4873 7.79297 18.292 7.32812C18.21 7.50781 18.1162 7.07422 17.8154 6.95703Z" fill="#FFA451"/>
</svg>
